<svg xmlns="http://www.w3.org/2000/svg" viewBox="0 0 682.7 682.7">
  <defs>
    <style>
      .st0, .st1 { fill: none; stroke: #7a77ff; stroke-linejoin: round; stroke-width: 47.9px } .st2 { fill: #7a77ff } .st1 { stroke-linecap: round }
    </style>
  </defs>
  <path class="st1" d="M200.8,655.7v-89.7l-11.6-14.5c-27.2-34.1-42.1-76.4-42.1-120.1V77c0-26.8,21.2-49.6,48-49.9,13.7-.2,26.1,5.3,35.1,14.3,9.1,9.1,14.3,21.5,14.3,34.4v154.2"/>
  <path class="st1" d="M536.6,296.2v135.2c0,43.6-14.8,86-42.1,120.1l-11.6,14.5"/>
  <path class="st1" d="M439.2,229.9V77c0-26.8,21.2-49.6,48-49.9,13.7-.2,26.1,5.3,35,14.3,9.2,9.1,14.3,21.5,14.3,34.4v105.5"/>
  <path class="st2" d="M561.7,238.7c0,13.9-11.2,25.1-25.1,25.1s-25.1-11.2-25.1-25.1,11.2-25.1,25.1-25.1,25.1,11.2,25.1,25.1"/>
  <path class="st0" d="M307.9,333.9c19.7-6.2,34-24.6,34-46.4,0,26.9,21.8,48.7,48.7,48.7s48.7-21.8,48.7-48.7v-57.6c0-13.4-5.4-25.6-14.2-34.4-8.8-8.8-21-14.3-34.4-14.3-26.9,0-48.7,21.8-48.7,48.7,0-13.4-5.4-25.6-14.3-34.4-8.8-8.8-21-14.3-34.4-14.3-26.9,0-48.7,21.8-48.7,48.7v47"/>
  <path class="st1" d="M147.2,431.4c0-41,16.3-80.4,45.3-109.4l33.6-33.6c19-19,49.8-19,68.8,0,9.5,9.5,14.3,22,14.3,34.4s-4.8,24.9-14.3,34.4l-44,44h0c7.6,3.3,25.3,12.2,38.9,32.2,12.4,18.2,14.9,36.1,15.5,44.3"/>
  <path class="st0" d="M341.9,229.9v57.6"/>
</svg>
