<svg xmlns="http://www.w3.org/2000/svg" xml:space="preserve" id="Layer_1" x="0" y="0" viewBox="0 0 512 512"><path d="M346.9 449.638h-92.314c-7.811 0-14.143-6.332-14.143-14.143s6.332-14.143 14.143-14.143H346.9c7.81 0 14.143 6.332 14.143 14.143s-6.333 14.143-14.143 14.143m-181.774.002c-6.997 0-13.077-5.189-14.006-12.314l-25.239-193.377c-12.372-80.837 18.586-162.352 80.816-212.773 23.082-18.702 41.741-29.003 42.523-29.433a14.15 14.15 0 0 1 13.705.057c.836.468 20.745 11.678 44.89 31.777 60.531 50.385 90.522 131.182 78.27 210.858-1.187 7.721-8.419 13.016-16.127 11.829-7.721-1.187-13.017-8.408-11.829-16.129 10.753-69.925-15.46-140.744-68.408-184.819-13.93-11.595-26.419-20.02-33.76-24.671-6.94 4.329-18.471 11.988-31.456 22.509-54.488 44.148-81.555 115.673-70.64 186.66q.025.159.045.32l25.258 193.532c1.011 7.745-4.449 14.843-12.194 15.854q-.931.12-1.848.12" style="fill:#5747ff"/><path d="m165.145 435.495-16.092-123.309-34.987 35.811a86.7 86.7 0 0 0-24.687 60.594v76.403l76-49.498h-.234z" style="fill:#b1afff"/><path d="M89.377 499.137a14.14 14.14 0 0 1-14.142-14.143v-76.403c0-26.496 10.197-51.525 28.713-70.477l34.987-35.811a14.144 14.144 0 0 1 24.14 8.053l15.767 120.818.091.294a14.14 14.14 0 0 1-5.84 15.877l-75.998 49.498a14.1 14.1 0 0 1-7.718 2.294m49.422-156.218-14.618 14.962c-13.323 13.637-20.659 31.645-20.659 50.709v50.313l46.466-30.262z" style="fill:#5747ff"/><path d="m397.934 347.998-34.952-35.774-16.084 123.272h-.277l76 49.498v-76.403a86.7 86.7 0 0 0-24.687-60.593" style="fill:#b1afff"/><path d="M422.623 499.137a14.13 14.13 0 0 1-7.721-2.293l-75.998-49.498a14.14 14.14 0 0 1-5.673-16.399l15.727-120.554a14.14 14.14 0 0 1 9.548-11.586 14.13 14.13 0 0 1 14.591 3.533l34.952 35.774c18.518 18.952 28.715 43.981 28.715 70.477v76.403a14.146 14.146 0 0 1-14.141 14.143m-60.568-70.47 46.424 30.235v-50.313c0-19.064-7.337-37.074-20.659-50.709l-14.583-14.925z" style="fill:#5747ff"/><path d="m255.999 497.858-39.773-62.363 39.773-62.361 39.774 62.361z" style="fill:#b1afff"/><path d="M255.999 512a14.14 14.14 0 0 1-11.924-6.538L204.302 443.1a14.14 14.14 0 0 1 0-15.211l39.773-62.361a14.144 14.144 0 0 1 23.85 0l39.773 62.361a14.15 14.15 0 0 1 0 15.211l-39.773 62.362A14.15 14.15 0 0 1 255.999 512m-22.998-76.505 22.998 36.061 23-36.061-23-36.061z" style="fill:#5747ff"/><circle cx="256.005" cy="241.268" r="47.139" style="fill:#b1afff"/><path d="M255.999 302.552c-33.794 0-61.287-27.493-61.287-61.287s27.493-61.287 61.287-61.287 61.287 27.493 61.287 61.287-27.493 61.287-61.287 61.287m0-94.287c-18.197 0-33 14.804-33 33 0 18.197 14.804 33 33 33s33-14.804 33-33-14.803-33-33-33m0-66.002h-99.004c-7.811 0-14.143-6.332-14.143-14.143s6.332-14.143 14.143-14.143h99.004c7.81 0 14.143 6.332 14.143 14.143s-6.332 14.143-14.143 14.143m97.762 0H310.45c-7.81 0-14.143-6.332-14.143-14.143s6.333-14.143 14.143-14.143h43.311c7.81 0 14.143 6.332 14.143 14.143s-6.332 14.143-14.143 14.143" style="fill:#5747ff"/></svg>