<svg xmlns="http://www.w3.org/2000/svg" width="512" height="512" viewBox="0 0 64 64"><path fill="#f0f0fc" d="M57.521 5.73H6.48a5.59 5.59 0 0 0-5.59 5.59v32.077a5.59 5.59 0 0 0 5.59 5.59h17.463l5.544 7.97c1.218 1.75 3.809 1.75 5.027 0l5.544-7.97h17.463a5.59 5.59 0 0 0 5.59-5.59V11.32a5.59 5.59 0 0 0-5.59-5.59"/><path d="M63.112 11.322v32.071a5.6 5.6 0 0 1-5.6 5.6H42.206c3.022-4.782 6.524-11.964 7.715-21.173 1.21-9.423-.48-17.21-2.044-22.098h9.635a5.6 5.6 0 0 1 5.6 5.6" opacity=".1"/><g fill="#101016"><path d="M32 59.158a3.95 3.95 0 0 1-3.242-1.694l-5.28-7.587H6.48A6.487 6.487 0 0 1 0 43.397V11.322a6.487 6.487 0 0 1 6.48-6.479h51.04a6.486 6.486 0 0 1 6.48 6.48v32.076a6.486 6.486 0 0 1-6.48 6.479H40.524l-5.28 7.587A3.95 3.95 0 0 1 32 59.158M6.48 6.62a4.707 4.707 0 0 0-4.702 4.701v32.077a4.707 4.707 0 0 0 4.702 4.701h17.463a.89.89 0 0 1 .73.382l5.544 7.969c.411.59 1.062.93 1.783.93a2.15 2.15 0 0 0 1.785-.932l5.545-7.967a.88.88 0 0 1 .729-.382h17.462a4.707 4.707 0 0 0 4.701-4.701V11.32a4.707 4.707 0 0 0-4.701-4.701z"/><path d="M16.247 27.359a1.535 1.535 0 1 1-3.07 0 1.535 1.535 0 0 1 3.07 0m9.99-1.535a1.535 1.535 0 1 0 0 3.07 1.535 1.535 0 0 0 0-3.07m11.526 0a1.535 1.535 0 1 0 0 3.07 1.535 1.535 0 0 0 0-3.07m11.525 0a1.535 1.535 0 1 0 0 3.07 1.535 1.535 0 0 0 0-3.07"/></g></svg>