<svg xmlns="http://www.w3.org/2000/svg" width="200" height="200"><defs><rect id="k" width="4.883" height="4.883" x="0" rx="1"/><rect id="fn" width="4.563" height="1.447" x="0" y="1.447" rx=".723"/><path id="a" d="M4.883.09v1.08a1 1 0 0 1-1 1H1a1 1 0 0 1-1-1V.09z"/></defs><g fill="#3ecc5f"><path d="M23 163c-7.4 0-14-4-17.3-10A20 20 0 0 0 3 163c0 11 9 20 20 20h20v-20zm141 20h9v-4h-8z"/><path d="M183 53V43c0-11-9-20-20-20H73c-4-8-6-8-10 0-4-8-6-8-10 0-4-8-6-8-10 0-7-9-9-5-10.3 2.3-9-3-10.3-1.7-7.3 7.3-9 2-10 3-2.4 10.4-8 4-8 6 0 10-8 4-8 6 0 10-8 4-8 6 0 10-8 4-8 6 0 10-8 4-8 6 0 10-8 4-8 6 0 10-8 4-8 6 0 10-8 4-8 6 0 10-8 4-8 6 0 10-8 4-8 6 0 10-8 4-8 6 0 10-8 4-8 6 0 10 0 11 9 20 20 20h120c11 0 20-9 20-20"/></g><path fill="#fff" d="m183 83-70-4.3c-13.3-1.5-13.3-19.8 0-21.3l70-4.4"/><use x="60" href="#h"/><use x="50" href="#f"/><path fill="#ffff50" d="M103 183h60c11 0 20-9 20-20V93h-60c-11 0-20 9-20 20z"/><g fill="none" stroke="#000" stroke-linecap="round" stroke-width="2"><path stroke-width="5" d="M63 53a1 1 0 1 0-20 0"/><path stroke-linecap="butt" d="M183 62.6c-5 0-5 10-10 10.7-5 0-5-10-10-10s-5 9-10 9-5-8.5-10-8.5-5 8-10 8-5-7.25-10-7.25-5 6.5-10 6.5"/><path d="M168 113h-50m50 10h-50m50 10h-50m50 10h-50m50 10h-50m50 10h-50"/></g><circle cx="143" cy="39.3" r="2.5"/><circle cx="163" cy="38" r="2.5"/><circle cx="113" cy="71" r="1"/><g transform="rotate(-15 433.487 -340.892)"><rect width="84.522" height="33.367" fill="#d8d8d8" rx="2"/><rect width="81.379" height="2.17" x="1.808" y="1.085" fill="#4a4a4a" rx="1.085"/><g fill="#d8d8d8" opacity=".136"><use x="3.798" href="#fn"/><use x="10.042" href="#fn"/><use x="14.846" href="#fn"/><use x="19.649" href="#fn"/><use x="24.453" href="#fn"/><use x="30.457" href="#fn"/><use x="35.26" href="#fn"/><use x="40.064" href="#fn"/><use x="44.867" href="#fn"/><use x="50.872" href="#fn"/><use x="55.675" href="#fn"/><use x="60.479" href="#fn"/><use x="66.483" href="#fn"/><use x="71.286" href="#fn"/><use x="76.09" href="#fn"/></g><g fill="#4a4a4a" transform="rotate(-180 41.684 4.375)"><use x="7.595" href="#k"/><use x="13.382" href="#k"/><use x="19.169" href="#k"/><use x="24.956" href="#k"/><use x="30.743" href="#k"/><use x="36.53" href="#k"/><use x="42.317" href="#k"/><use x="48.104" href="#k"/><use x="53.891" href="#k"/><use x="59.678" href="#k"/><use x="65.465" href="#k"/><use x="71.252" href="#k"/><use x="77.038" href="#k"/><use x="7.595" href="#k"/><use x="13.382" href="#k"/><use x="19.169" href="#k"/><use x="24.956" href="#k"/><use x="30.743" href="#k"/><use x="36.53" href="#k"/><use x="42.317" href="#k"/><use x="48.104" href="#k"/><use x="53.891" href="#k"/><use x="59.678" href="#k"/><use x="65.465" href="#k"/><use x="71.252" href="#k"/><use x="77.038" href="#k"/><rect width="6.7" height="4.883" rx="1"/></g><g fill="#4a4a4a" transform="translate(1 9.5)"><use x="8.042" href="#k"/><use x="13.829" href="#k"/><use x="19.616" href="#k"/><use x="25.403" href="#k"/><use x="31.19" href="#k"/><use x="36.977" href="#k"/><use x="42.764" href="#k"/><use x="48.551" href="#k"/><use x="54.337" href="#k"/><use x="60.124" href="#k"/><use x="65.911" href="#k"/><use x="71.698" href="#k"/><use x="77.485" href="#k"/></g><g fill="#4a4a4a"><g transform="translate(11.212 15.19)"><use href="#k"/><use x="5.787" href="#k"/><use x="11.574" href="#k"/><use x="17.361" href="#k"/><use x="23.148" href="#k"/><use x="28.935" href="#k"/><use x="34.722" href="#k"/><use x="40.508" href="#k"/><use x="46.295" href="#k"/><use x="52.082" href="#k"/><use x="57.869" href="#k"/></g><rect width="8.4" height="4.883" x="75" y="15.2" rx="1"/></g><g fill="#4a4a4a" transform="translate(1 21.144)"><use x="15.818" href="#k"/><use x="21.605" href="#k"/><use x="27.392" href="#k"/><use x="33.179" href="#k"/><use x="38.966" href="#k"/><use x="44.753" href="#k"/><use x="50.54" href="#k"/><use x="56.327" href="#k"/><use x="62.114" href="#k"/><rect width="14.3" height="4.883" x=".5" rx="1"/><rect width="14.3" height="4.883" x="68" rx="1"/></g><g fill="#4a4a4a" transform="translate(1 27.126)"><use x=".447" href="#k"/><use x="6.234" href="#k"/><use x="12.021" href="#k"/><use x="17.808" href="#k"/><rect width="30" height="4.883" x="23.5" rx="1"/><rect width="5.6" height="4.883" x="54.4" rx="1"/><use x="60.848" href="#k"/><use x="66.635" href="#k"/><use x="77.485" href="#k"/><use href="#a" transform="rotate(-180 38.471 1.074)"/><use href="#a" transform="translate(72.06 2.713)"/></g></g><path fill="#3ecc5f" d="M83 123h40v-20H83zm0 60h40v-40H83z"/><g id="h" fill="#44d860"><circle cx="123" cy="113" r="10"/><circle cx="128" cy="104.3" r="2.4"/><circle cx="131.7" cy="108" r="2.4"/><circle cx="133" cy="113" r="2.4"/><circle cx="131.7" cy="118" r="2.4"/><circle cx="128" cy="121.7" r="2.4"/></g><g id="f" fill="#44d860"><circle cx="123" cy="163" r="20"/><circle cx="113" cy="145.7" r="5"/><circle cx="123" cy="143" r="5"/><circle cx="133" cy="145.7" r="5"/><circle cx="140.3" cy="153" r="5"/><circle cx="143" cy="163" r="5"/></g></svg>