<?xml version="1.0" encoding="utf-8"?>
<!-- Generator: Adobe Illustrator 27.9.0, SVG Export Plug-In . SVG Version: 6.00 Build 0)  -->
<svg version="1.1" id="Layer_1" xmlns="http://www.w3.org/2000/svg" xmlns:xlink="http://www.w3.org/1999/xlink" x="0px" y="0px"
	 viewBox="0 0 500 500" style="enable-background:new 0 0 500 500;" xml:space="preserve">
<style type="text/css">
	.st0{fill:#EBEBEB;}
	.st1{fill:#FFFFFF;}
	.st2{fill:#E0E0E0;}
	.st3{fill:#F5F5F5;}
	.st4{fill:#FAFAFA;}
	.st5{display:none;}
	.st6{display:inline;}
	.st7{fill:#455A64;}
	.st8{fill:#263238;}
	.st9{fill:#9D5FFF;}
	.st10{opacity:0.3;}
	.st11{fill:#865FFF;}
	.st12{fill:#FF725E;}
	.st13{fill:#AD5FFF;}
	.st14{fill:#FFBE9D;}
	.st15{fill:#EB996E;}
	.st16{fill:#825FFF;}
</style>
<g id="Background_Complete">
	<g>
		<g>
			<path class="st0" d="M88.3,365.6H56.4c-2.5,0-4.5-2-4.5-4.5v-31.9c0-2.5,2-4.5,4.5-4.5h31.9c2.5,0,4.5,2,4.5,4.5v31.9
				C92.8,363.6,90.8,365.6,88.3,365.6z"/>
		</g>
		<g>
			<path class="st1" d="M55.9,357.2l-0.8-0.6l8.3-9.8c0.9-1.3,2.6-1.6,4-0.7l5,3.3l5.8-7.3c0.5-0.7,1.3-1.1,2.2-1.1
				c0.8,0,1.7,0.3,2.3,0.9l7.1,7.6l-0.7,0.7l-7.1-7.6c-0.4-0.4-0.9-0.6-1.5-0.6c-0.6,0-1.1,0.3-1.4,0.7l-6.4,8.1l-5.7-3.8
				c-0.9-0.6-2-0.4-2.6,0.5L55.9,357.2z"/>
		</g>
		<g>
			<path class="st1" d="M72.4,335.4c0,2-1.6,3.7-3.7,3.7s-3.7-1.6-3.7-3.7s1.6-3.7,3.7-3.7S72.4,333.3,72.4,335.4z"/>
		</g>
	</g>
	<g>
		<g>
			<g>
				<g>
					<g>
						<path class="st0" d="M471.3,207.2c-0.1,0-0.2-1.2-0.4-3.4c0-1.1-0.1-2.5-0.5-4.1c-0.2-1.6-0.5-3.4-1.1-5.5
							c-0.9-4.1-2.7-8.9-5.7-14c-3-5.1-7.2-10.5-13.1-15c-5.8-4.5-13.2-8.4-21.7-10.1c-8.5-1.6-18.1-1.6-27.3,1.7
							c-4.6,1.5-9.1,3.8-13.3,6.8c-2.1,1.4-4,3.2-6,4.9c-1.8,1.9-3.7,3.7-5.2,5.9c-6.6,8.3-10.4,19.1-10.8,30.4
							c-0.2,11.2,3.1,22.2,9.3,30.9c1.4,2.2,3.2,4.2,4.9,6.1c1.9,1.8,3.7,3.6,5.7,5.1c4,3.2,8.4,5.7,12.9,7.4c9,3.7,18.7,4.2,27.2,3
							c8.6-1.3,16.2-4.8,22.2-9.1c6.1-4.3,10.6-9.4,13.8-14.4c3.2-5,5.3-9.7,6.3-13.8c0.7-2,1-3.8,1.3-5.4c0.4-1.6,0.5-2.9,0.6-4
							C471,208.3,471.2,207.2,471.3,207.2c0.1,0,0.1,1.2,0,3.4c0,1.1-0.1,2.5-0.4,4.1c-0.2,1.6-0.5,3.5-1.1,5.6
							c-0.9,4.2-2.9,9.1-6.1,14.3c-3.2,5.2-7.7,10.6-13.9,15.2c-6.2,4.5-14,8.3-23,9.8c-8.9,1.4-19,0.9-28.6-2.9
							c-4.8-1.8-9.4-4.4-13.7-7.7c-2.2-1.6-4.1-3.5-6.1-5.4c-1.8-2.1-3.7-4.1-5.2-6.5c-6.5-9.1-10.1-20.7-9.9-32.6
							c0.4-11.9,4.5-23.3,11.5-32c1.6-2.3,3.6-4.2,5.5-6.2c2.1-1.8,4.1-3.6,6.3-5.1c4.4-3.1,9.1-5.5,14-7c9.7-3.4,19.8-3.3,28.7-1.5
							c8.9,1.9,16.6,6.1,22.5,10.9c6,4.9,10.3,10.5,13.2,15.9c2.9,5.4,4.6,10.4,5.4,14.6c0.5,2.1,0.7,4,0.8,5.6
							c0.2,1.6,0.2,3,0.2,4.1C471.4,206,471.4,207.2,471.3,207.2z"/>
					</g>
				</g>
			</g>
		</g>
		<g>
			<g>
				<g>
					<g>
						<path class="st0" d="M460.6,173.9c0.1,0.2-0.8,1-2.7,2.4c-1,0.7-2.2,1.5-3.4,2.5c-0.7,0.5-1.4,1-2.2,1.5
							c-0.8,0.4-1.7,0.9-2.6,1.4c-7.1,4.1-18.4,8.3-31.3,7.9c-1.6-0.1-3.2-0.1-4.7-0.2c-1.5-0.2-3.1-0.5-4.5-0.7
							c-0.7-0.1-1.5-0.2-2.2-0.4c-0.7-0.2-1.4-0.4-2.1-0.6c-1.4-0.4-2.8-0.7-4.1-1.1c-5.2-1.8-9.7-3.9-13.3-6.1
							c-7.1-4.3-10.6-8.2-10.3-8.5c0.3-0.3,4.2,3,11.4,6.7c3.6,1.9,8,3.7,13.1,5.3c1.3,0.4,2.6,0.6,3.9,1c0.7,0.2,1.4,0.3,2,0.5
							c0.7,0.1,1.4,0.2,2.1,0.3c1.4,0.2,2.9,0.4,4.3,0.6c1.5,0.1,3,0.1,4.5,0.2c12.3,0.4,23.1-3.2,30.3-6.8c0.9-0.4,1.8-0.8,2.7-1.2
							c0.8-0.4,1.5-0.9,2.2-1.3c1.3-0.7,2.6-1.4,3.6-2C459.3,174.3,460.5,173.8,460.6,173.9z"/>
					</g>
				</g>
			</g>
		</g>
		<g>
			<g>
				<g>
					<g>
						<path class="st0" d="M375.5,238.6c-0.1-0.2,0.8-1,2.7-2.4c1-0.7,2.2-1.5,3.4-2.5c0.7-0.5,1.4-1,2.2-1.5
							c0.8-0.4,1.7-0.9,2.6-1.4c7.1-4.1,18.4-8.3,31.3-7.9c1.6,0.1,3.2,0.1,4.7,0.2c1.5,0.2,3.1,0.5,4.5,0.7
							c0.7,0.1,1.5,0.2,2.2,0.4c0.7,0.2,1.4,0.4,2.1,0.6c1.4,0.4,2.8,0.7,4.1,1.1c5.2,1.8,9.7,3.9,13.3,6.1
							c7.1,4.3,10.6,8.2,10.3,8.5c-0.3,0.3-4.2-3-11.4-6.7c-3.6-1.9-8-3.7-13.1-5.3c-1.3-0.4-2.6-0.6-3.9-1c-0.7-0.2-1.4-0.3-2-0.5
							c-0.7-0.1-1.4-0.2-2.1-0.3c-1.4-0.2-2.9-0.4-4.3-0.6c-1.5-0.1-3-0.1-4.5-0.2c-12.3-0.4-23.1,3.2-30.3,6.8
							c-0.9,0.4-1.8,0.8-2.7,1.2c-0.8,0.4-1.5,0.9-2.2,1.3c-1.3,0.7-2.6,1.4-3.6,2C376.8,238.3,375.6,238.8,375.5,238.6z"/>
					</g>
				</g>
			</g>
		</g>
		<g>
			<g>
				<g>
					<g>
						<path class="st0" d="M471.2,208.4c0,0.8-23.9,0.9-53.2,0.2c-29.4-0.7-53.2-1.9-53.2-2.8c0-0.8,23.9-0.9,53.3-0.2
							C447.4,206.4,471.3,207.6,471.2,208.4z"/>
					</g>
				</g>
			</g>
		</g>
		<g>
			<g>
				<g>
					<g>
						<path class="st0" d="M415.6,259.1c-0.8,0-0.9-23.9-0.2-53.2c0.7-29.4,1.9-53.2,2.8-53.2c0.8,0,0.9,23.9,0.2,53.2
							C417.6,235.3,416.4,259.1,415.6,259.1z"/>
					</g>
				</g>
			</g>
		</g>
		<g>
			<g>
				<g>
					<g>
						<path class="st0" d="M415.6,259c-0.2,0.3-6.1-3.7-12.8-12.7c-3.3-4.5-6.9-10.3-9.5-17.3c-2.6-7-4.3-15.2-4.1-23.8
							c0.2-8.7,2.3-16.8,5.4-23.6c3-6.8,6.9-12.4,10.4-16.7c7.2-8.7,13.1-12.5,13.3-12.2c0.3,0.3-5.1,4.7-11.6,13.5
							c-3.3,4.4-6.8,9.9-9.6,16.5c-2.8,6.6-4.8,14.3-4.9,22.6c-0.2,8.3,1.3,16.1,3.7,22.9c2.4,6.8,5.6,12.5,8.7,17
							C410.6,254.2,415.9,258.7,415.6,259z"/>
					</g>
				</g>
			</g>
		</g>
		<g>
			<g>
				<g>
					<g>
						<path class="st0" d="M419.3,152.7c0.2-0.3,6.1,3.7,12.8,12.7c3.3,4.5,6.9,10.3,9.5,17.3c2.6,7,4.3,15.2,4.1,23.8
							c-0.2,8.7-2.3,16.8-5.4,23.6c-3,6.8-6.9,12.4-10.4,16.7c-7.2,8.7-13.1,12.5-13.3,12.2c-0.3-0.3,5.1-4.7,11.6-13.5
							c3.3-4.4,6.8-9.9,9.6-16.5c2.8-6.6,4.8-14.3,4.9-22.6c0.2-8.3-1.3-16.1-3.7-22.9c-2.4-6.8-5.6-12.5-8.7-17
							C424.3,157.5,419,153,419.3,152.7z"/>
					</g>
				</g>
			</g>
		</g>
	</g>
	<g>
		<g>
			<path class="st2" d="M434.8,54.6h-47.5c-1.3,0-2.4-1.1-2.4-2.4l0,0c0-1.3,1.1-2.4,2.4-2.4h47.5c1.3,0,2.4,1.1,2.4,2.4l0,0
				C437.2,53.6,436.1,54.6,434.8,54.6z"/>
		</g>
		<g>
			<path class="st2" d="M434.8,65.3h-47.5c-1.3,0-2.4-1.1-2.4-2.4l0,0c0-1.3,1.1-2.4,2.4-2.4h47.5c1.3,0,2.4,1.1,2.4,2.4l0,0
				C437.2,64.3,436.1,65.3,434.8,65.3z"/>
		</g>
		<g>
			<path class="st2" d="M434.8,76h-47.5c-1.3,0-2.4-1.1-2.4-2.4l0,0c0-1.3,1.1-2.4,2.4-2.4h47.5c1.3,0,2.4,1.1,2.4,2.4l0,0
				C437.2,75,436.1,76,434.8,76z"/>
		</g>
	</g>
	<g>
		<g>
			<path class="st3" d="M440.1,309.9h-45.3c-1.3,0-2.3-1-2.3-2.3l0,0c0-1.3,1-2.3,2.3-2.3h45.3c1.3,0,2.3,1,2.3,2.3l0,0
				C442.4,308.9,441.4,309.9,440.1,309.9z"/>
		</g>
		<g>
			<path class="st3" d="M440.1,320.2h-45.3c-1.3,0-2.3-1-2.3-2.3l0,0c0-1.3,1-2.3,2.3-2.3h45.3c1.3,0,2.3,1,2.3,2.3l0,0
				C442.4,319.1,441.4,320.2,440.1,320.2z"/>
		</g>
		<g>
			<path class="st3" d="M440.1,330.4h-45.3c-1.3,0-2.3-1-2.3-2.3l0,0c0-1.3,1-2.3,2.3-2.3h45.3c1.3,0,2.3,1,2.3,2.3l0,0
				C442.4,329.3,441.4,330.4,440.1,330.4z"/>
		</g>
	</g>
	<g>
		<g>
			<path class="st0" d="M73.4,72.2c0-9.2-8.3-16.4-17.8-14.7c-6,1.1-10.8,6-11.8,12c-0.7,3.8,0.1,7.3,1.8,10.2h0l0,0.1
				c0.6,1,1.3,1.7,2,2.7L56.3,94c1.1,1.4,3.2,1.4,4.3,0l8.5-11.3c0,0,1.6-1.9,2.2-2.9l0,0h0C72.6,77.6,73.4,75,73.4,72.2z
				 M58.5,78.7c-3.6,0-6.6-2.9-6.6-6.6s2.9-6.6,6.6-6.6s6.6,2.9,6.6,6.6S62.1,78.7,58.5,78.7z"/>
		</g>
	</g>
	<g>
		<g>
			<g>
				<g>
					<g>
						<g>
							<g>
								<path class="st0" d="M76.8,402.5c0,0-11.4,8.7-0.5,20.2c0.2,0.2,0.5,0.3,0.7,0.3l99.8-0.6c0,0,8.5-9.6,1.5-20.6L76.8,402.5z
									"/>
							</g>
						</g>
					</g>
				</g>
			</g>
			<g>
				<g>
					<g>
						<g>
							<g>
								<g>
									<path class="st2" d="M154.8,411.6c0,0.1-12.4,0.2-27.8,0.2c-15.3,0-27.8-0.1-27.8-0.2c0-0.1,12.4-0.2,27.8-0.2
										C142.4,411.4,154.8,411.5,154.8,411.6z"/>
								</g>
							</g>
						</g>
					</g>
				</g>
			</g>
			<g>
				<g>
					<g>
						<g>
							<g>
								<g>
									<path class="st2" d="M139.3,415.2c0,0.1-5.8,0.2-13,0.2c-7.2,0-13.1-0.1-13.1-0.2c0-0.1,5.8-0.2,13.1-0.2
										C133.4,415,139.3,415.1,139.3,415.2z"/>
								</g>
							</g>
						</g>
					</g>
				</g>
			</g>
			<g>
				<g>
					<g>
						<g>
							<g>
								<g>
									<path class="st2" d="M165,422.1c-0.1,0,0.2-1.1,0.5-3c0.3-1.8,0.6-4.4,0.6-7.3c0-2.9-0.4-5.4-0.7-7.3c-0.3-1.8-0.6-3-0.6-3
										c0,0,0.1,0.3,0.3,0.8c0.2,0.5,0.4,1.2,0.6,2.2c0.4,1.8,0.8,4.4,0.8,7.3c0,2.9-0.3,5.5-0.7,7.3c-0.2,0.9-0.4,1.7-0.5,2.2
										C165.1,421.9,165,422.1,165,422.1z"/>
								</g>
							</g>
						</g>
					</g>
				</g>
			</g>
			<g>
				<g>
					<g>
						<g>
							<g>
								<g>
									<path class="st2" d="M172.5,401.8c0,0,0.2,0.2,0.4,0.7c0.1,0.2,0.3,0.5,0.4,0.9c0.2,0.4,0.4,0.8,0.5,1.2
										c0.4,0.9,0.7,2,0.9,3.3c0.2,1.3,0.4,2.7,0.4,4.2c0,1.5-0.1,2.9-0.4,4.2c-0.2,1.3-0.6,2.4-0.9,3.3c-0.1,0.5-0.3,0.9-0.5,1.2
										c-0.1,0.4-0.3,0.7-0.4,0.9c-0.3,0.5-0.4,0.7-0.4,0.7c-0.1,0,0.5-1.1,1.1-3c0.3-0.9,0.6-2,0.8-3.3c0.2-1.3,0.3-2.7,0.3-4.1
										c0-1.5-0.2-2.9-0.4-4.1c-0.2-1.3-0.5-2.4-0.9-3.3C173,402.9,172.4,401.8,172.5,401.8z"/>
								</g>
							</g>
						</g>
					</g>
				</g>
			</g>
			<g>
				<g>
					<g>
						<g>
							<g>
								<g>
									<path class="st2" d="M92.6,422.3c0,0-0.2-0.2-0.5-0.7c-0.1-0.2-0.3-0.5-0.5-0.8c-0.2-0.3-0.4-0.7-0.5-1.1
										c-0.4-0.9-0.7-1.9-1-3.1c-0.2-1.2-0.4-2.6-0.4-4c0-1.4,0.2-2.8,0.5-4c0.3-1.2,0.7-2.3,1.1-3.1c0.2-0.4,0.4-0.8,0.6-1.1
										c0.2-0.3,0.3-0.6,0.5-0.8c0.3-0.4,0.5-0.7,0.5-0.7c0.1,0-0.6,1-1.3,2.7c-0.4,0.9-0.7,1.9-1,3.1c-0.2,1.2-0.4,2.5-0.5,3.9
										c0,1.4,0.1,2.7,0.3,3.9c0.2,1.2,0.5,2.3,0.9,3.1C92,421.2,92.6,422.2,92.6,422.3z"/>
								</g>
							</g>
						</g>
					</g>
				</g>
			</g>
			<g>
				<g>
					<g>
						<g>
							<g>
								<g>
									<path class="st2" d="M81.8,424.7c0,0-0.2-0.3-0.5-0.8c-0.2-0.2-0.3-0.6-0.5-0.9c-0.2-0.4-0.4-0.8-0.6-1.3
										c-0.4-1-0.8-2.2-1.1-3.5c-0.3-1.4-0.5-2.9-0.6-4.5c0-1.6,0.1-3.1,0.4-4.5c0.3-1.4,0.6-2.6,1-3.6c0.2-0.5,0.4-0.9,0.5-1.3
										c0.2-0.4,0.3-0.7,0.5-1c0.3-0.5,0.5-0.8,0.5-0.8c0.1,0-0.6,1.2-1.2,3.1c-0.3,1-0.6,2.2-0.9,3.5c-0.2,1.4-0.4,2.9-0.3,4.5
										c0,1.6,0.2,3.1,0.5,4.4c0.3,1.3,0.7,2.5,1,3.5C81.2,423.6,81.9,424.7,81.8,424.7z"/>
								</g>
							</g>
						</g>
					</g>
				</g>
			</g>
		</g>
		<g>
			<g>
				<g>
					<g>
						<g>
							<g>
								<g>
									<path class="st0" d="M173.2,452.8c0,0.8,0,19.1,0,19.1h-37v-19.1H173.2z"/>
								</g>
							</g>
						</g>
					</g>
				</g>
				<g>
					<g>
						<g>
							<g>
								<g>
									<path class="st2" d="M53.8,462.6c0,0.2,0,0.3,0,0.5c0.3,5.8,5.2,10.2,11,10.2h110.1v-1.4h-26.1c-5.3,0-9.6-4.3-9.6-9.5l0,0
										c0-5.3,4.3-9.5,9.6-9.5h26.1v-2l-110.1,0.4C58.6,451.2,53.6,456.4,53.8,462.6z"/>
								</g>
							</g>
						</g>
					</g>
				</g>
				<g>
					<g>
						<g>
							<g>
								<g>
									<g>
										<path class="st2" d="M173.2,462.7c0,0.1-7.6,0.2-17,0.2c-9.4,0-17-0.1-17-0.2c0-0.1,7.6-0.2,17-0.2
											C165.6,462.5,173.2,462.5,173.2,462.7z"/>
									</g>
								</g>
							</g>
						</g>
					</g>
				</g>
				<g>
					<g>
						<g>
							<g>
								<g>
									<g>
										<path class="st2" d="M172.7,467c0,0.1-7.2,0.2-16.1,0.2c-8.9,0-16.1-0.1-16.1-0.2c0-0.1,7.2-0.2,16.1-0.2
											C165.5,466.8,172.7,466.8,172.7,467z"/>
									</g>
								</g>
							</g>
						</g>
					</g>
				</g>
				<g>
					<g>
						<g>
							<g>
								<g>
									<g>
										<path class="st2" d="M173.2,470.9c0,0.1-6.5,0.2-14.4,0.2c-8,0-14.4-0.1-14.4-0.2c0-0.1,6.5-0.2,14.4-0.2
											C166.7,470.7,173.2,470.8,173.2,470.9z"/>
									</g>
								</g>
							</g>
						</g>
					</g>
				</g>
				<g>
					<g>
						<g>
							<g>
								<g>
									<g>
										<path class="st2" d="M173.2,458.8c0,0.1-7.4,0.2-16.6,0.2c-9.2,0-16.6-0.1-16.6-0.2c0-0.1,7.4-0.2,16.6-0.2
											C165.8,458.6,173.2,458.7,173.2,458.8z"/>
									</g>
								</g>
							</g>
						</g>
					</g>
				</g>
				<g>
					<g>
						<g>
							<g>
								<g>
									<g>
										<path class="st2" d="M172.7,454.9c0,0.1-6.6,0.2-14.8,0.2c-8.2,0-14.8-0.1-14.8-0.2c0-0.1,6.6-0.2,14.8-0.2
											C166,454.7,172.7,454.8,172.7,454.9z"/>
									</g>
								</g>
							</g>
						</g>
					</g>
				</g>
			</g>
			<g>
				<g>
					<g>
						<g>
							<g>
								<g>
									<path class="st3" d="M67.2,451.5c0.1,0.1-1.1,0.9-2.3,2.8c-1.3,1.8-2.5,4.8-2.5,8.2c0,3.4,1.4,6.4,2.7,8.2
										c1.3,1.8,2.5,2.7,2.4,2.7c0,0-0.3-0.2-0.8-0.6c-0.5-0.4-1.1-1.1-1.8-2c-1.4-1.8-2.8-4.8-2.9-8.3c0-3.5,1.3-6.6,2.7-8.4
										c0.7-0.9,1.3-1.6,1.8-2C66.9,451.7,67.2,451.5,67.2,451.5z"/>
								</g>
							</g>
						</g>
					</g>
				</g>
			</g>
			<g>
				<g>
					<g>
						<g>
							<g>
								<g>
									<path class="st3" d="M63.5,451.1c0.1,0.1-1.1,0.9-2.3,2.8c-1.3,1.8-2.5,4.8-2.5,8.2c0,3.4,1.4,6.4,2.7,8.2
										c1.3,1.8,2.5,2.7,2.4,2.7c0,0-0.3-0.2-0.8-0.6c-0.5-0.4-1.1-1.1-1.8-2c-1.4-1.8-2.8-4.8-2.9-8.3c0-3.5,1.3-6.6,2.7-8.4
										c0.7-0.9,1.3-1.6,1.8-2C63.2,451.3,63.4,451.1,63.5,451.1z"/>
								</g>
							</g>
						</g>
					</g>
				</g>
			</g>
			<g>
				<g>
					<g>
						<g>
							<g>
								<g>
									<path class="st3" d="M138.2,451.5c0.1,0.1-1.1,0.9-2.3,2.8c-1.3,1.8-2.5,4.8-2.5,8.2c0,3.4,1.4,6.4,2.7,8.2
										c1.3,1.8,2.5,2.7,2.4,2.7c0,0-0.3-0.2-0.8-0.6c-0.5-0.4-1.1-1.1-1.8-2c-1.4-1.8-2.8-4.8-2.9-8.3c0-3.5,1.3-6.6,2.7-8.4
										c0.7-0.9,1.3-1.6,1.8-2C137.9,451.7,138.2,451.5,138.2,451.5z"/>
								</g>
							</g>
						</g>
					</g>
				</g>
			</g>
			<g>
				<g>
					<g>
						<g>
							<g>
								<g>
									<path class="st3" d="M134.5,451.1c0.1,0.1-1.1,0.9-2.3,2.8c-1.3,1.8-2.5,4.8-2.5,8.2c0,3.4,1.4,6.4,2.7,8.2
										c1.3,1.8,2.5,2.7,2.4,2.7c0,0-0.3-0.2-0.8-0.6c-0.5-0.4-1.1-1.1-1.8-2c-1.4-1.8-2.8-4.8-2.9-8.3c0-3.5,1.3-6.6,2.7-8.4
										c0.7-0.9,1.3-1.6,1.8-2C134.2,451.3,134.5,451.1,134.5,451.1z"/>
								</g>
							</g>
						</g>
					</g>
				</g>
			</g>
			<g>
				<g>
					<g>
						<g>
							<g>
								<path class="st3" d="M79.7,465.3c0-2.6-0.1-5.2-0.1-7.8c0-0.7,0-1.4-0.3-2c-0.3-0.6-0.8-1.2-1.5-1.2c-1-0.4-2.5,0.4-3.2,1.5
									s-0.8,2.5-0.8,3.8c0,2,0.1,4.1,0.3,6.1c0.1,1,0.2,2,0.7,2.8s1.4,1.5,2.4,1.4c1-0.1,1.7-0.9,2.1-1.8
									C79.7,467.2,79.7,466.2,79.7,465.3z"/>
							</g>
						</g>
					</g>
				</g>
			</g>
			<g>
				<g>
					<g>
						<g>
							<g>
								<g>
									<path class="st3" d="M122.5,463c0,0.1-8,0.2-17.8,0.2c-9.8,0-17.8-0.1-17.8-0.2s8-0.2,17.8-0.2
										C114.5,462.8,122.5,462.9,122.5,463z"/>
								</g>
							</g>
						</g>
					</g>
				</g>
			</g>
		</g>
		<g>
			<g>
				<g>
					<g>
						<g>
							<g>
								<g>
									<g>
										<polygon class="st3" points="72.3,450.7 72.1,432.6 82,432.6 82.3,450.7 										"/>
									</g>
								</g>
							</g>
						</g>
					</g>
					<g>
						<g>
							<g>
								<g>
									<g>
										<g>
											<path class="st2" d="M81.4,435.9c0,0.1-2.1,0.2-4.6,0.2c-2.5,0-4.6-0.1-4.6-0.2c0-0.1,2.1-0.2,4.6-0.2
												C79.4,435.7,81.4,435.8,81.4,435.9z"/>
										</g>
									</g>
								</g>
							</g>
						</g>
					</g>
					<g>
						<g>
							<g>
								<g>
									<g>
										<g>
											<path class="st2" d="M81.4,438.7c0,0.1-2.1,0.2-4.6,0.2c-2.5,0-4.6-0.1-4.6-0.2c0-0.1,2.1-0.2,4.6-0.2
												C79.4,438.5,81.4,438.5,81.4,438.7z"/>
										</g>
									</g>
								</g>
							</g>
						</g>
					</g>
					<g>
						<g>
							<g>
								<g>
									<g>
										<g>
											<path class="st2" d="M81.4,441.5c0,0.1-2.1,0.2-4.6,0.2c-2.5,0-4.6-0.1-4.6-0.2s2.1-0.2,4.6-0.2
												C79.4,441.3,81.4,441.3,81.4,441.5z"/>
										</g>
									</g>
								</g>
							</g>
						</g>
					</g>
					<g>
						<g>
							<g>
								<g>
									<g>
										<g>
											<path class="st2" d="M81.4,444.2c0,0.1-2.1,0.2-4.6,0.2c-2.5,0-4.6-0.1-4.6-0.2s2.1-0.2,4.6-0.2
												C79.4,444,81.4,444.1,81.4,444.2z"/>
										</g>
									</g>
								</g>
							</g>
						</g>
					</g>
					<g>
						<g>
							<g>
								<g>
									<g>
										<g>
											<path class="st2" d="M81.4,447c0,0.1-2.1,0.2-4.6,0.2c-2.5,0-4.6-0.1-4.6-0.2s2.1-0.2,4.6-0.2
												C79.4,446.8,81.4,446.9,81.4,447z"/>
										</g>
									</g>
								</g>
							</g>
						</g>
					</g>
				</g>
				<g>
					<g>
						<g>
							<g>
								<g>
									<path class="st0" d="M71.6,432.2h109.2c1.3,6,1.2,12.6,0,19.6H72.1v-1.3h6.6c1.7,0,3.1-1.4,3.1-3.1v-10.8
										c0-1.7-1.4-3.1-3.1-3.1h-7.1L71.6,432.2L71.6,432.2z"/>
								</g>
							</g>
						</g>
					</g>
				</g>
				<g>
					<g>
						<g>
							<g>
								<g>
									<path class="st4" d="M97.4,442h1.8c0.1,0,0.1,0,0.2,0c0.1,0.1,0.2,0.2,0.2,0.3c0,0,0,0.1,0,0.1c0,0.2-0.1,0.3-0.1,0.5
										c-0.3,0.8-0.6,1.5-1.1,2.1c-0.5,0.5-1,0.8-1.6,0.8c-0.1,0-0.1,0-0.2,0c-0.5-0.1-0.9-0.4-1.2-0.9c-0.4-0.6-0.5-1.3-0.5-2.2
										c0-0.5,0.1-1,0.2-1.6c0.2-0.9,0.6-1.6,1.1-2.1c0.5-0.6,1.1-0.9,1.6-0.9c0.2,0,0.5,0.1,0.7,0.2c0.5,0.2,0.8,0.7,1.1,1.3
										c0,0.1,0,0.1,0,0.2c0,0.1,0,0.1-0.1,0.2c-0.1,0.1-0.2,0.2-0.3,0.2c0,0-0.1,0-0.1,0c-0.1,0-0.2-0.1-0.2-0.2l0,0
										c-0.1-0.2-0.1-0.3-0.2-0.4c-0.2-0.3-0.5-0.5-0.9-0.5c-0.2,0-0.4,0.1-0.6,0.2c-0.4,0.3-0.7,0.8-1,1.4
										c-0.3,0.7-0.4,1.4-0.4,2.1c0,0.6,0.1,1.2,0.3,1.6c0.2,0.5,0.5,0.7,1,0.7c0.3,0,0.6-0.2,0.9-0.5c0.4-0.4,0.7-1,0.9-1.7
										c-0.8,0-1.3,0-1.3,0c-0.3,0-0.4-0.2-0.4-0.4c0,0,0-0.1,0-0.1C97.1,442,97.2,442,97.4,442z"/>
								</g>
							</g>
						</g>
					</g>
					<g>
						<g>
							<g>
								<g>
									<path class="st4" d="M103.6,438.4c0,0,0,0.1,0,0.1c0.1,0.3,0.5,2.5,1.3,6.8c0,0,0,0.1,0,0.1c0,0.1,0,0.1-0.1,0.2
										c-0.1,0.1-0.2,0.2-0.3,0.2c0,0,0,0-0.1,0c-0.2,0-0.3-0.1-0.3-0.3l-0.4-2.2h-2.2l-1.1,2.3c0,0,0,0,0,0.1
										c-0.1,0.1-0.2,0.2-0.3,0.2c-0.1,0-0.1,0-0.2-0.1c-0.1-0.1-0.2-0.2-0.2-0.3c0,0,0-0.1,0-0.1c0.1-0.2,0.2-0.4,0.3-0.7
										c1.6-3.4,2.5-5.5,2.8-6.1c0.1-0.2,0.2-0.3,0.4-0.3C103.4,438.2,103.5,438.3,103.6,438.4z M103.1,439.9l-1.2,2.6h1.7
										L103.1,439.9z"/>
								</g>
							</g>
						</g>
					</g>
					<g>
						<g>
							<g>
								<g>
									<path class="st4" d="M109.7,445.8h-3.3c-0.1,0-0.1,0-0.2-0.1c-0.1-0.1-0.2-0.2-0.2-0.4v0c0-0.1,0.3-2.4,0.9-6.7
										c0,0,0-0.1,0-0.1c0.1-0.2,0.2-0.2,0.4-0.2c0.1,0,0.1,0,0.2,0c0.1,0.1,0.2,0.2,0.2,0.3c0,0.3-0.1,0.9-0.2,1.8
										c-0.4,2.9-0.6,4.4-0.6,4.6h2.8c0.1,0,0.1,0,0.2,0c0.2,0.1,0.2,0.2,0.2,0.4c0,0,0,0.1,0,0.1
										C110.1,445.7,109.9,445.8,109.7,445.8z"/>
								</g>
							</g>
						</g>
					</g>
					<g>
						<g>
							<g>
								<g>
									<path class="st4" d="M114.2,438.4c0,0,0,0.1,0,0.1c0.1,0.3,0.5,2.5,1.3,6.8c0,0,0,0.1,0,0.1c0,0.1,0,0.1-0.1,0.2
										c-0.1,0.1-0.2,0.2-0.3,0.2c0,0,0,0-0.1,0c-0.2,0-0.3-0.1-0.3-0.3l-0.4-2.2h-2.2l-1.1,2.3c0,0,0,0,0,0.1
										c-0.1,0.1-0.2,0.2-0.3,0.2c-0.1,0-0.1,0-0.2-0.1c-0.1-0.1-0.2-0.2-0.2-0.3c0,0,0-0.1,0-0.1c0.1-0.2,0.2-0.4,0.3-0.7
										c1.6-3.4,2.5-5.5,2.8-6.1c0.1-0.2,0.2-0.3,0.4-0.3C114,438.2,114.1,438.3,114.2,438.4z M113.7,439.9l-1.2,2.6h1.7
										L113.7,439.9z"/>
								</g>
							</g>
						</g>
					</g>
					<g>
						<g>
							<g>
								<g>
									<path class="st4" d="M119.5,442.3c0.3,0.7,0.5,1.3,0.6,1.6c0.3,0.9,0.5,1.4,0.5,1.5c0,0.1,0,0.1-0.1,0.2
										c-0.1,0.1-0.2,0.2-0.3,0.2c-0.1,0-0.3-0.1-0.3-0.3c0-0.1,0-0.1-0.1-0.2c-0.2-0.4-0.5-1.2-0.9-2.3l-1.9,2.5
										c-0.1,0.1-0.2,0.2-0.3,0.2c-0.1,0-0.1,0-0.2-0.1c-0.1-0.1-0.2-0.2-0.2-0.3c0,0,0-0.1,0-0.1c0-0.1,0.1-0.2,0.2-0.3
										c0.6-0.8,1.3-1.8,2.1-2.9c-0.1-0.2-0.2-0.4-0.2-0.6c-0.7-1.9-1.1-2.8-1.1-2.9c0-0.1,0-0.1,0-0.2c0.1-0.1,0.2-0.2,0.3-0.2
										c0.2,0,0.3,0.1,0.4,0.2l1.1,3l2.2-3c0.1-0.1,0.2-0.2,0.3-0.2c0.1,0,0.1,0,0.2,0c0.1,0.1,0.2,0.2,0.2,0.4c0,0.1,0,0.1,0,0.2
										L119.5,442.3z"/>
								</g>
							</g>
						</g>
					</g>
					<g>
						<g>
							<g>
								<g>
									<path class="st4" d="M127.6,438.2c0.1,0,0.1,0,0.2,0c0.1,0.1,0.2,0.2,0.2,0.3c-0.5,4.3-0.8,6.6-0.9,6.9
										c-0.1,0.7-0.4,1.3-0.7,1.8c-0.5,0.7-1.3,1.1-2.2,1.1c-0.3,0-0.7-0.1-1.1-0.3c-0.6-0.3-0.9-0.6-1.2-1c0-0.1,0-0.1,0-0.2
										c0-0.1,0-0.1,0.1-0.2c0.1-0.1,0.2-0.2,0.3-0.2c0.1,0,0.2,0.1,0.3,0.2c0.5,0.6,1,1,1.7,1c0.5,0,0.9-0.2,1.3-0.7
										c0.4-0.5,0.7-1.2,0.7-2.1c-0.1,0.2-0.3,0.4-0.5,0.5c-0.4,0.3-0.8,0.4-1.2,0.4c-0.1,0-0.1,0-0.2,0c-0.5-0.1-0.9-0.4-1.2-0.9
										c-0.4-0.6-0.5-1.3-0.5-2.2c0-0.4,0-0.8,0.1-1.2c0.1-0.7,0.2-1.6,0.4-2.8c0,0,0-0.1,0-0.1c0.1-0.2,0.2-0.3,0.4-0.3
										c0.1,0,0.1,0,0.2,0.1c0.1,0.1,0.2,0.2,0.2,0.3c0,0.2-0.1,0.7-0.2,1.5c-0.2,1.2-0.3,1.9-0.3,2.3c0,0.7,0.1,1.3,0.3,1.8
										c0.2,0.5,0.6,0.8,1,0.8c0,0,0.1,0,0.1,0c0.3-0.1,0.6-0.3,1-0.8c0.4-0.5,0.7-1.1,0.8-1.8l0.5-3.8c0-0.1,0-0.1,0-0.2
										C127.3,438.3,127.5,438.2,127.6,438.2z"/>
								</g>
							</g>
						</g>
					</g>
				</g>
				<g>
					<g>
						<g>
							<g>
								<g>
									<g>
										<path class="st3" d="M176.7,452c-0.1,0-0.2-4.5-0.2-10c0-5.5,0.1-10,0.2-10c0.1,0,0.2,4.5,0.2,10
											C176.9,447.5,176.8,452,176.7,452z"/>
									</g>
								</g>
							</g>
						</g>
					</g>
				</g>
				<g>
					<g>
						<g>
							<g>
								<g>
									<g>
										<path class="st2" d="M87.3,452c-0.1,0-0.2-4.5-0.2-10c0-5.5,0.1-10,0.2-10c0.1,0,0.2,4.5,0.2,10
											C87.6,447.5,87.5,452,87.3,452z"/>
									</g>
								</g>
							</g>
						</g>
					</g>
				</g>
				<g>
					<g>
						<g>
							<g>
								<g>
									<g>
										<path class="st3" d="M178.6,452c-0.1,0-0.2-4.5-0.2-10c0-5.5,0.1-10,0.2-10c0.1,0,0.2,4.5,0.2,10
											C178.8,447.5,178.8,452,178.6,452z"/>
									</g>
								</g>
							</g>
						</g>
					</g>
				</g>
				<g>
					<g>
						<g>
							<g>
								<g>
									<g>
										<path class="st2" d="M85.6,452c-0.1,0-0.2-4.5-0.2-10c0-5.5,0.1-10,0.2-10c0.1,0,0.2,4.5,0.2,10
											C85.8,447.5,85.7,452,85.6,452z"/>
									</g>
								</g>
							</g>
						</g>
					</g>
				</g>
			</g>
			<g>
				<g>
					<g>
						<g>
							<g>
								<g>
									<g>
										<g>
											<g>
												<g>
													<g>
														<path class="st2" d="M150.2,435.2L150.2,435.2c3,2.4,7,5.6,11.5,9.3l0.1,0.1l-0.1,0c-0.5,0.1-1,0.3-1.5,0.4
															c-3.5,0.9-6.8,1.8-9.7,2.6l0,0l0,0c-3.6-1.5-6.7-2.8-8.8-3.7c-1.1-0.5-1.9-0.8-2.5-1.1c-0.3-0.1-0.5-0.2-0.7-0.3
															c-0.1,0-0.1-0.1-0.2-0.1c0,0-0.1,0-0.1,0c0,0,0,0,0.1,0c0,0,0.1,0,0.2,0.1c0.2,0.1,0.4,0.2,0.7,0.3
															c0.6,0.2,1.4,0.6,2.5,1c2.2,0.9,5.2,2.2,8.9,3.7l0,0c2.9-0.8,6.2-1.6,9.7-2.6c0.5-0.1,1-0.3,1.5-0.4l0,0.1
															C157.2,440.9,153.1,437.7,150.2,435.2L150.2,435.2L150.2,435.2"/>
													</g>
												</g>
											</g>
										</g>
									</g>
								</g>
							</g>
						</g>
					</g>
				</g>
				<g>
					<g>
						<g>
							<g>
								<g>
									<g>
										<g>
											<g>
												<g>
													<polygon class="st2" points="160.7,443 161.4,443.6 162.2,443.5 161.8,444.2 162.3,445 161.4,444.9 160.8,445.5
														160.7,444.7 159.9,444.3 160.6,443.9 													"/>
												</g>
											</g>
										</g>
									</g>
								</g>
							</g>
						</g>
					</g>
				</g>
				<g>
					<g>
						<g>
							<g>
								<g>
									<g>
										<g>
											<g>
												<g>
													<polygon class="st2" points="149.7,446.7 150.1,447.1 150.6,446.9 150.4,447.4 150.7,447.9 150.2,447.9 149.8,448.3
														149.7,447.8 149.2,447.6 149.6,447.3 													"/>
												</g>
											</g>
										</g>
									</g>
								</g>
							</g>
						</g>
					</g>
				</g>
				<g>
					<g>
						<g>
							<g>
								<g>
									<g>
										<g>
											<g>
												<g>
													<polygon class="st2" points="137.4,441.7 138.1,441.7 138.5,441.2 138.7,441.9 139.3,442.1 138.8,442.5 138.7,443.2
														138.2,442.7 137.6,442.9 137.8,442.3 													"/>
												</g>
											</g>
										</g>
									</g>
								</g>
							</g>
						</g>
					</g>
				</g>
				<g>
					<g>
						<g>
							<g>
								<g>
									<g>
										<g>
											<g>
												<g>
													<polygon class="st2" points="165.9,435.4 166.6,435.4 167,434.9 167.2,435.5 167.8,435.8 167.2,436.1 167.2,436.8
														166.7,436.4 166,436.6 166.3,435.9 													"/>
												</g>
											</g>
										</g>
									</g>
								</g>
							</g>
						</g>
					</g>
				</g>
				<g>
					<g>
						<g>
							<g>
								<g>
									<g>
										<g>
											<g>
												<g>
													<polygon class="st2" points="149.7,434.9 150.1,434.9 150.4,434.6 150.5,435 150.9,435.2 150.5,435.4 150.5,435.8
														150.2,435.6 149.8,435.7 149.9,435.3 													"/>
												</g>
											</g>
										</g>
									</g>
								</g>
							</g>
						</g>
					</g>
				</g>
				<g>
					<g>
						<g>
							<g>
								<g>
									<g>
										<path class="st2" d="M166.9,435.8c0,0-3.7-0.1-8.3-0.3c-4.6-0.2-8.3-0.4-8.3-0.4c0,0,3.7,0.1,8.3,0.3
											C163.1,435.6,166.9,435.8,166.9,435.8z"/>
									</g>
								</g>
							</g>
						</g>
					</g>
				</g>
			</g>
		</g>
		<g>
			<g>
				<g>
					<g>
						<g>
							<g>
								<path class="st2" d="M171.1,432H60.3c-1.5-3.3-1.8-6.4,0-9.2h110.8C172.5,426.1,172.4,429.2,171.1,432z"/>
							</g>
						</g>
					</g>
				</g>
			</g>
			<g>
				<g>
					<g>
						<g>
							<g>
								<rect x="83.2" y="425.4" class="st0" width="60" height="3.4"/>
							</g>
						</g>
					</g>
				</g>
			</g>
			<g>
				<g>
					<g>
						<g>
							<g>
								<g>
									<path class="st2" d="M64.5,432c0,0-0.4-0.4-0.9-1.1c-0.4-0.8-0.9-1.9-1-3.3c-0.1-1.4,0.1-2.6,0.4-3.4
										c0.3-0.8,0.6-1.3,0.7-1.2c0.1,0-0.2,0.5-0.4,1.3c-0.2,0.8-0.4,2-0.3,3.3c0.1,1.3,0.5,2.4,0.9,3.2
										C64.3,431.6,64.6,432,64.5,432z"/>
								</g>
							</g>
						</g>
					</g>
				</g>
			</g>
			<g>
				<g>
					<g>
						<g>
							<g>
								<g>
									<path class="st2" d="M66.9,432c0,0-0.4-0.4-0.9-1.1c-0.4-0.8-0.9-1.9-1-3.3c-0.1-1.4,0.1-2.6,0.4-3.4
										c0.3-0.8,0.6-1.3,0.7-1.2c0.1,0-0.2,0.5-0.4,1.3c-0.2,0.8-0.4,2-0.3,3.3c0.1,1.3,0.5,2.4,0.9,3.2
										C66.7,431.6,67,432,66.9,432z"/>
								</g>
							</g>
						</g>
					</g>
				</g>
			</g>
			<g>
				<g>
					<g>
						<g>
							<g>
								<g>
									<path class="st3" d="M166.6,431.8c-0.1,0,0.8-2,0.8-4.5c0-2.5-0.9-4.5-0.7-4.5c0.1-0.1,1.2,1.9,1.1,4.5
										C167.8,430,166.6,431.9,166.6,431.8z"/>
								</g>
							</g>
						</g>
					</g>
				</g>
			</g>
			<g>
				<g>
					<g>
						<g>
							<g>
								<g>
									<path class="st3" d="M164.5,431.8c-0.1,0,0.3-2,0.3-4.4c0-2.4-0.5-4.4-0.3-4.4c0.1,0,0.8,1.9,0.7,4.4
										C165.3,429.9,164.6,431.8,164.5,431.8z"/>
								</g>
							</g>
						</g>
					</g>
				</g>
			</g>
		</g>
	</g>
</g>
<g id="Background_Simple" class="st5">
	<g class="st6">
		<path class="st3" d="M425.3,117.7l-2.4-4c-20.5-33.8-57.6-54.2-96.7-51.7c-5,0.3-10,1-15,2.1c-35.6,7.6-66.5,34.5-79.3,68.9
			c-7.5,20.3-9.6,43.6-24,59.6c-18.6,20.9-50.3,21.6-78.1,20.7c-27.8-0.9-59.4-0.1-78,20.9c-11.6,13.2-15.3,31.9-14.4,49.5
			c2.5,46.6,35,88.3,76.3,109.1s90,22.6,135.2,13.5c63.4-12.8,123.6-47.9,159.9-102C445.1,250,454.3,176.2,425.3,117.7z"/>
	</g>
</g>
<g id="Plant">
	<g>
		<g>
			<g>
				<g>
					<path class="st7" d="M398.4,426.3c0,0-24.3-28-33.5-55.9c-9.2-28-4.8-24.7-4.8-24.7s12.4,27.2,21.8,40.3
						c9.4,13.1,26.1,32.4,26.1,32.4L398.4,426.3z"/>
				</g>
			</g>
			<g>
				<g>
					<path class="st7" d="M403.3,350c-0.8-1.4-2.9-0.7-2.6,0.9c1.5,9.8,4.7,32.9,4.6,47.8c-0.2,19.4,0,26.9,0,26.9h10.1
						c0,0-1.8-40.1-4.1-52.4C409.6,364.7,406.2,355.2,403.3,350z"/>
				</g>
			</g>
			<g>
				<g>
					<path class="st7" d="M408.8,422.4c0,0,6.4-13.4,8.3-30.2c0.8-7.1-0.7-16.8-2.9-29.7c-1.1-6.2-1.3-11-1.3-14.3
						c0-2.5,3.3-3.3,4.5-1.1c1.2,2.2,4.8,9.6,5.6,14.3c2.4,12.7,5.2,19.1,3.1,31.2c-2.1,12.1-10,30.7-10,30.7L408.8,422.4z"/>
				</g>
			</g>
			<g>
				<g>
					<path class="st7" d="M417.9,423.2c0,0,26.7-57.3,28.5-65.8c1.8-8.5,8.1-28.1,8.9-27c0.7,1.1,1.8,11.5-3,23.3
						C447.5,365.5,427,425,427,425h-9.1"/>
				</g>
			</g>
			<g>
				<g>
					<g>
						<path class="st8" d="M405.9,420.7c0,0-0.3-0.2-0.7-0.5c-0.5-0.4-1.2-0.9-2.1-1.6c-1.8-1.4-4.3-3.5-7.2-6.3
							c-5.8-5.6-13.1-14.2-19.3-24.8c-6.3-10.6-10.5-21-13.2-28.6c-1.3-3.8-2.3-6.9-3-9.1c-0.3-1.1-0.5-1.9-0.7-2.5
							c-0.2-0.6-0.2-0.9-0.2-0.9c0,0,0.1,0.3,0.3,0.9c0.2,0.6,0.5,1.4,0.8,2.5c0.7,2.1,1.7,5.2,3.1,9c2.8,7.6,7,17.9,13.3,28.5
							c6.3,10.6,13.4,19.2,19.1,24.8c2.9,2.8,5.3,5,7,6.4c0.9,0.7,1.5,1.3,2,1.7C405.6,420.4,405.9,420.6,405.9,420.7z"/>
					</g>
				</g>
			</g>
			<g>
				<g>
					<g>
						<path class="st8" d="M408.8,393.2c0,0-0.1-0.6-0.2-1.7c-0.1-1.2-0.3-2.7-0.5-4.6c-0.4-3.9-1.1-9.2-2-15.1
							c-0.9-5.9-2-11.2-2.8-15c-0.4-1.8-0.7-3.4-1-4.5c-0.2-1.1-0.3-1.7-0.3-1.7c0,0,0.2,0.6,0.5,1.6c0.3,1.1,0.7,2.6,1.2,4.5
							c0.9,3.8,2,9.1,3,15c0.9,5.9,1.5,11.3,1.9,15.1c0.2,1.9,0.3,3.5,0.3,4.6C408.8,392.6,408.8,393.2,408.8,393.2z"/>
					</g>
				</g>
			</g>
			<g>
				<g>
					<g>
						<path class="st8" d="M415,346.7c0,0,0.1,0.2,0.3,0.7c0.2,0.5,0.5,1.2,0.8,2.1c0.4,0.9,0.8,2.1,1.1,3.4
							c0.4,1.3,0.9,2.9,1.3,4.6c0.2,0.9,0.4,1.8,0.7,2.7c0.2,0.9,0.4,1.9,0.6,3c0.4,2,0.7,4.2,1,6.6c0.5,4.6,0.8,9.8,0.6,15.2
							c-0.2,5.4-0.9,10.5-1.7,15.1c-0.5,2.3-0.9,4.5-1.5,6.5c-0.3,1-0.5,2-0.8,2.9c-0.3,0.9-0.6,1.8-0.9,2.6
							c-0.5,1.7-1.1,3.2-1.6,4.5c-0.5,1.3-1,2.4-1.4,3.3c-0.4,0.9-0.7,1.5-0.9,2.1c-0.2,0.5-0.3,0.7-0.4,0.7c0,0,0.1-0.3,0.3-0.8
							c0.2-0.5,0.5-1.2,0.9-2.1c0.4-0.9,0.8-2,1.3-3.3c0.5-1.3,1.1-2.8,1.5-4.5c0.3-0.8,0.5-1.7,0.8-2.6c0.3-0.9,0.5-1.9,0.8-2.9
							c0.6-2,1-4.2,1.4-6.4c0.8-4.6,1.5-9.7,1.7-15c0.2-5.4-0.1-10.5-0.6-15.1c-0.3-2.3-0.6-4.5-1-6.5c-0.2-1-0.3-2-0.6-2.9
							c-0.2-0.9-0.4-1.8-0.6-2.7c-0.4-1.7-0.8-3.2-1.2-4.6c-0.4-1.4-0.7-2.5-1-3.4c-0.3-0.9-0.5-1.6-0.7-2.2
							C415.1,346.9,415,346.7,415,346.7z"/>
					</g>
				</g>
			</g>
			<g>
				<g>
					<g>
						<path class="st8" d="M455,331.6c0,0,0,0.1,0,0.3c0,0.2-0.1,0.4-0.1,0.7c-0.1,0.7-0.3,1.6-0.5,2.9c-0.5,2.5-1.4,6-2.7,10.3
							c-1.3,4.3-3.1,9.4-5.3,14.9c-2.2,5.5-4.7,11.6-7,18c-2.4,6.4-4.3,12.7-6,18.4c-1.7,5.7-3.4,10.8-4.9,15
							c-1.6,4.2-3.1,7.6-4.2,9.8c-0.5,1.1-1,2-1.4,2.6c-0.1,0.3-0.3,0.5-0.4,0.7c-0.1,0.1-0.1,0.2-0.1,0.2c0,0,0-0.1,0.1-0.2
							c0.1-0.2,0.2-0.4,0.3-0.7c0.3-0.6,0.7-1.5,1.3-2.6c1.1-2.3,2.5-5.6,4-9.8c1.5-4.2,3.1-9.3,4.8-15c1.7-5.7,3.6-12,6-18.4
							c2.4-6.5,4.9-12.5,7.1-18c2.2-5.5,4-10.5,5.4-14.8c1.4-4.3,2.3-7.8,2.9-10.2c0.3-1.2,0.5-2.2,0.6-2.8c0.1-0.3,0.1-0.5,0.2-0.7
							C454.9,331.7,455,331.6,455,331.6z"/>
					</g>
				</g>
			</g>
			<g>
				<g>
					<g>
						<path class="st7" d="M372.7,318.9c-1.7-1.7-4.5,0.1-3.8,2.3c0.7,2.3,1.8,5.3,3.4,8.6c3.7,7.8,14.4,35.7,19.5,51.1
							s12.1,44,12.1,44l10.8-1.7c0,0-9.8-47.1-19.5-64C387.5,345.6,379.8,325.9,372.7,318.9z"/>
					</g>
				</g>
				<g>
					<g>
						<g>
							<path class="st8" d="M394.7,390.6c0,0,0.2,0.4,0.6,1.3c0.3,0.8,0.8,2.1,1.2,3.6c1,3.1,2.2,7.4,3.4,12.1
								c1.2,4.8,2.2,9.1,2.9,12.2c0.3,1.5,0.6,2.7,0.8,3.7c0.2,0.9,0.3,1.4,0.2,1.4c0,0-0.2-0.5-0.4-1.3c-0.3-1-0.6-2.2-1-3.7
								c-0.8-3.2-1.9-7.5-3.1-12.2c-1.2-4.8-2.4-9.1-3.3-12.1c-0.4-1.5-0.8-2.7-1.1-3.7C394.8,391.1,394.7,390.6,394.7,390.6z"/>
						</g>
					</g>
				</g>
				<g>
					<g>
						<g>
							<path class="st8" d="M409.3,424.1c0,0,0-0.1-0.1-0.3c0-0.2-0.1-0.5-0.1-0.8c-0.1-0.7-0.2-1.8-0.4-3.3
								c-0.4-2.8-1.1-6.9-2.3-11.9c-1.1-5-2.8-10.8-5-17.2c-2.2-6.4-5-13.3-8.1-20.4c-6.3-14.2-12.7-26.9-16.8-36.2
								c-2.1-4.7-3.7-8.5-4.8-11.1c-0.5-1.3-0.9-2.4-1.2-3.1c-0.1-0.3-0.2-0.6-0.3-0.8c-0.1-0.2-0.1-0.3-0.1-0.3
								c0,0,0.1,0.1,0.1,0.3c0.1,0.2,0.2,0.5,0.4,0.8c0.3,0.7,0.8,1.7,1.3,3c1.1,2.6,2.8,6.4,5,11c4.2,9.3,10.6,21.9,17,36.2
								c3.1,7.1,5.9,14.1,8.1,20.5c2.2,6.4,3.8,12.3,4.9,17.3c1.1,5,1.8,9.1,2.1,11.9c0.2,1.4,0.3,2.5,0.3,3.3c0,0.3,0,0.6,0.1,0.9
								C409.3,424,409.3,424.1,409.3,424.1z"/>
						</g>
					</g>
				</g>
				<g>
					<g>
						<g>
							<path class="st8" d="M414.7,423.2c0,0-0.2-0.6-0.4-1.8c-0.2-1.3-0.5-2.9-0.8-4.9c-0.7-4.2-1.9-9.9-3.5-16.2
								c-1.6-6.3-3.4-11.8-4.8-15.8c-0.7-1.9-1.3-3.5-1.7-4.7c-0.4-1.1-0.6-1.7-0.6-1.8c0,0,0.3,0.6,0.8,1.7
								c0.5,1.1,1.1,2.7,1.9,4.7c1.5,4,3.4,9.5,5,15.8c1.6,6.3,2.7,12,3.3,16.2c0.3,2.1,0.5,3.8,0.7,5
								C414.7,422.6,414.7,423.2,414.7,423.2z"/>
						</g>
					</g>
				</g>
			</g>
		</g>
		<g>
			<g>
				<g>
					<rect x="394.8" y="421.7" class="st9" width="42" height="51.2"/>
				</g>
			</g>
			<g class="st10">
				<g>
					<rect x="394.8" y="421.7" width="42" height="51.2"/>
				</g>
			</g>
			<g>
				<g>
					<rect x="386.1" y="421.7" class="st11" width="37.3" height="51.2"/>
				</g>
			</g>
		</g>
	</g>
</g>
<g id="Character_1_">
	<g>
		<g>
			<g>
				<g>
					<path class="st12" d="M156.5,256.9C156.5,256.9,156.5,256.9,156.5,256.9C156.5,256.9,156.5,256.9,156.5,256.9z"/>
				</g>
				<g>
					<path class="st13" d="M353.7,396.3c-0.3-7.2-11.1-103.8-12.7-116.2c-2.6-19.8-18.5-24.8-18.5-24.8l0,0l-54.2-18.7h-53.6
						l-58.1,20.3l0,1c0-0.5,0-0.9,0-1c-0.6,0.3-14.9,4.4-18.3,18.5c-1.9,7.7-23.7,116.9-24,120.1s2.6,22.8,18,25.4
						c5.8,1,18.3,0.1,31.6-1.4L153.3,473h168.4l-6-38.3c13.4-5.2,27.4-11,29.8-13.5C350.1,416.5,354,403.5,353.7,396.3z
						 M163.1,368.8L163.1,368.8L163.1,368.8L163.1,368.8z"/>
				</g>
			</g>
			<g class="st10">
				<g>
					<path d="M207.2,385c-0.4-3.4-1-6.9-2.5-10s-4.2-5.8-7.5-6.7c-3.3-0.9-7.3,0.5-8.8,3.6c-6.1,17.1-0.6,26.7,11,35.9
						c1.8,1.5,4.1,2.6,6.4,1.9c2.2-0.7,2.7-2.3,2.8-4.6C208.9,398.4,208,391.8,207.2,385z"/>
				</g>
			</g>
			<g>
				<path class="st0" d="M280.2,305.3L280.2,305.3L280.2,305.3z"/>
			</g>
			<g>
				<path class="st0" d="M280.2,305.3L280.2,305.3L280.2,305.3z"/>
			</g>
			<g>
				<g>
					<path class="st8" d="M183.5,365.6c0,0-0.4,0.1-1.1,0.2c-0.8,0.1-1.8,0.2-3.1,0.3c-2.6,0.3-6.2,0.6-10.4,0.9l0.1,0
						c-0.9,0.7-1.9,1.3-2.9,2.1c-4.1,2.9-7.5,5.9-9.6,8.5c-1.1,1.3-1.8,2.4-2.3,3.1c-0.5,0.8-0.7,1.2-0.7,1.2c0,0,0.2-0.5,0.6-1.3
						c0.4-0.8,1.1-2,2.2-3.3c2-2.6,5.5-5.7,9.5-8.7c1-0.7,2-1.4,2.9-2.1l0.1,0l0.1,0c4.2-0.3,7.8-0.6,10.4-0.8
						c1.2-0.1,2.3-0.1,3.1-0.2C183.1,365.6,183.5,365.6,183.5,365.6z"/>
				</g>
			</g>
			<g>
				<g>
					<path class="st8" d="M209.7,384.3c0,0,0,0.1,0.1,0.3c0,0.2,0.1,0.5,0.2,0.9c0.1,0.8,0.4,2,0.5,3.5c0.4,3,0.7,7.5,0.7,12.9
						c0,1.4,0,2.8,0,4.3c0.1,1.5-0.4,3.2-1.5,4.4c-1.1,1.3-2.8,2.1-4.5,2.2c-1.7,0.3-3.4,0.6-5.2,0.9c-7.1,1.2-14.9,2.8-23.1,4.1
						c-8.2,1.3-16.1,2.3-23.3,2.9c-7.2,0.7-13.7,1.1-19.2,0.7c-1.4-0.1-2.7-0.3-3.9-0.5c-1.2-0.3-2.3-0.7-3.2-1.3
						c-1.9-1.1-3.2-2.4-4.4-3.5c-1.1-1.1-1.9-1.9-2.4-2.5c-0.3-0.3-0.5-0.5-0.6-0.7c-0.1-0.2-0.2-0.2-0.2-0.2c0,0,0.1,0.1,0.2,0.2
						c0.2,0.2,0.4,0.4,0.7,0.6c0.6,0.6,1.4,1.4,2.5,2.4c1.1,1,2.5,2.3,4.4,3.4c0.9,0.6,2,1,3.2,1.3c1.2,0.2,2.5,0.4,3.8,0.5
						c5.4,0.3,11.9-0.2,19.1-0.9c7.2-0.7,15.1-1.6,23.3-2.9c8.2-1.3,16-2.8,23.1-4c1.8-0.3,3.5-0.6,5.2-0.9c1.7-0.2,3.2-0.9,4.2-2.1
						c1-1.2,1.5-2.7,1.4-4.1c0-1.5,0.1-2.9,0.1-4.3c0-5.5-0.2-9.9-0.5-12.9c-0.1-1.5-0.3-2.7-0.4-3.5c-0.1-0.4-0.1-0.7-0.1-0.9
						C209.7,384.4,209.6,384.3,209.7,384.3z"/>
				</g>
			</g>
			<g>
				<g>
					<path class="st8" d="M175.1,303.3c0.1,0-1.1,14.2-2.9,31.8c-1.7,17.5-3.2,31.7-3.4,31.7c-0.1,0,1.1-14.2,2.9-31.8
						C173.5,317.5,175,303.3,175.1,303.3z"/>
				</g>
			</g>
			<g>
				<g>
					<path class="st8" d="M313.3,290.9c0,0,0,0.1,0,0.2c0,0.2,0,0.4,0,0.7c0,0.7,0,1.6-0.1,2.7c-0.1,2.4-0.2,5.8-0.5,10
						c-0.4,8.5-1.3,20.1-2.2,33c-1,12.9-1.9,24.6-2.4,33c-0.3,4.2-0.5,7.6-0.6,10c-0.1,1.1-0.1,2.1-0.2,2.7c0,0.3,0,0.5-0.1,0.7
						c0,0.2,0,0.2,0,0.2c0,0,0-0.1,0-0.2c0-0.2,0-0.4,0-0.7c0-0.7,0-1.6,0.1-2.7c0.1-2.4,0.2-5.8,0.5-10c0.4-8.5,1.3-20.1,2.2-33
						c1-12.9,1.9-24.5,2.4-33c0.3-4.2,0.5-7.6,0.6-10c0.1-1.1,0.1-2.1,0.2-2.7c0-0.3,0-0.5,0.1-0.7
						C313.3,291,313.3,290.9,313.3,290.9z"/>
				</g>
			</g>
			<g>
				<g>
					<path class="st8" d="M348.7,394.6c-0.1,0.1-0.9-1.9-3.1-4.4c-2.1-2.5-5.8-5.6-10.6-7.2c-2.4-0.8-4.8-1.3-7-1.6
						c-2.2-0.3-4.2-0.2-5.8,0.2c-1.6,0.4-2.9,0.9-3.7,1.4c-0.8,0.4-1.3,0.7-1.3,0.6c0,0,0.1-0.1,0.3-0.2c0.2-0.1,0.5-0.4,0.9-0.6
						c0.8-0.5,2.1-1.1,3.7-1.5c1.6-0.4,3.7-0.6,5.9-0.3c2.2,0.3,4.6,0.8,7.1,1.6c5,1.7,8.6,4.9,10.7,7.5c1.1,1.3,1.8,2.5,2.2,3.3
						C348.5,394.1,348.7,394.6,348.7,394.6z"/>
				</g>
			</g>
			<g>
				<g>
					<path class="st8" d="M320.5,432.9c0,0-0.2,0.1-0.6,0.3c-0.4,0.2-1,0.5-1.7,0.8c-1.5,0.7-3.7,1.6-6.3,2.8
						c-2.7,1.1-5.9,2.5-9.7,3.4c-1.9,0.4-4,0.6-6.1,0.2c-2.1-0.4-4.1-1.6-5.7-3.2c-1.7-1.6-2.7-3.6-3.5-5.5c-0.8-2-1.4-3.9-1.9-5.8
						c-0.9-3.8-1.4-7.2-1.8-10.1c-0.4-2.9-0.6-5.3-0.7-6.9c-0.1-0.8-0.1-1.4-0.1-1.9c0-0.4,0-0.7,0-0.7c0,0,0.1,0.2,0.1,0.6
						c0.1,0.5,0.1,1.1,0.2,1.9c0.2,1.6,0.5,4,0.9,6.9c0.4,2.9,0.9,6.3,1.9,10.1c0.5,1.9,1.1,3.8,1.9,5.7c0.8,1.9,1.8,3.8,3.4,5.3
						c1.6,1.5,3.5,2.7,5.5,3.1c2,0.4,4,0.2,5.9-0.1c3.7-0.9,7-2.2,9.7-3.3c2.7-1.1,4.8-2,6.4-2.6c0.7-0.3,1.3-0.5,1.8-0.7
						C320.2,433,320.5,432.9,320.5,432.9z"/>
				</g>
			</g>
			<g class="st10">
				<g>
					<path d="M209.8,410.2c-1.5,2.1-4.7,2.5-7.2,2.9c-13.4,2.3-25.4,4.4-39,5.9l-1.7,8.8c13.7-2.2,27.8-5.1,40.7-10.1
						c1.8-0.7,3.5-1.4,4.9-2.7C208.9,413.8,209.9,412,209.8,410.2z"/>
				</g>
			</g>
			<g class="st10">
				<g>
					<path d="M287.3,409.2c0.6,7.2,2.6,14.7,6.2,20.9c0.8,1.4,2.1,3,3.7,2.8c1.3-0.1,2.2-1.3,2.8-2.4c2.6-4.2,4.9-8.2,5.7-13
						l-12.8-5.1L287.3,409.2z"/>
				</g>
			</g>
			<g>
				<g>
					<path class="st8" d="M259.4,407.7c0.1,0.1-9.6,7.7-21.7,17c-12.1,9.3-21.9,16.7-22,16.6c-0.1-0.1,9.6-7.7,21.7-17
						C249.5,415,259.3,407.6,259.4,407.7z"/>
				</g>
			</g>
			<g>
				<g>
					<path class="st8" d="M312.6,390c0,0,0.1,0.6,0.1,1.7c0,0.5,0,1.2,0,2c0,0.8-0.1,1.6-0.2,2.6c-0.4,3.8-1.6,9-3.6,14.6
						c-2,5.5-4.3,10.3-6.3,13.6c-1,1.7-1.9,2.9-2.5,3.8c-0.7,0.8-1,1.3-1.1,1.3c0,0,0.3-0.5,0.9-1.4c0.6-0.9,1.4-2.2,2.4-3.8
						c1.9-3.3,4.2-8.1,6.2-13.6c2-5.5,3.2-10.6,3.7-14.4c0.1-0.9,0.2-1.8,0.3-2.6c0-0.8,0.1-1.4,0.1-1.9
						C312.5,390.6,312.5,390,312.6,390z"/>
				</g>
			</g>
		</g>
		<g>
			<g>
				<path class="st14" d="M237.9,356.9c0,0-14.8-23.7-26.5-19.1c0,0-5.9-4.9-9.7-1.7s-2.4,9.4-2.4,9.4s-7.2-5.8-10.4-2.8
					c-3.2,3-0.9,8.2,0,10.7s1.4,7.9,1.4,7.9s-4.4-2.2-6.4,1.4s5.7,15.6,6.9,17.3c1.2,1.6,8.6,9,13.8,7.1c5.1-1.9,8.7-7.1,8.7-7.1
					L237.9,356.9z"/>
			</g>
			<g>
				<g>
					<path class="st15" d="M199.2,346.4c0,0,0.5,0.3,1.3,0.8c0.9,0.6,2.1,1.5,3.6,2.4c1.5,1.1,3.3,2.3,5.2,3.7
						c0.5,0.4,1,0.8,1.4,1.3c0.4,0.5,0.8,1.2,0.8,1.9c0,1.5-0.9,2.8-2.3,3.4c-1.3,0.7-2.8,0.7-4.1,0.4c-1.3-0.3-2.5-0.8-3.6-1.3
						c-2.1-1.1-4-2.2-5.6-3.2c-1.5-1-2.8-1.8-3.6-2.4c-0.8-0.6-1.3-0.9-1.2-1c0,0,0.5,0.3,1.4,0.8c0.9,0.5,2.1,1.3,3.7,2.2
						c1.6,0.9,3.5,2,5.6,3c1.1,0.5,2.2,1,3.5,1.3c1.2,0.2,2.6,0.2,3.8-0.4c1.2-0.6,2-1.8,2-3c0-1.2-1.1-2.1-2-2.8
						c-1.9-1.4-3.7-2.7-5.2-3.8c-1.4-1-2.6-1.9-3.5-2.6C199.6,346.8,199.2,346.4,199.2,346.4z"/>
				</g>
			</g>
			<g>
				<g>
					<path class="st15" d="M199.4,345.7c0,0,0.2,0.1,0.4,0.3c0.3,0.2,0.7,0.5,1.2,0.9c1,0.8,2.6,2,4.5,3.3c1.9,1.3,4.3,2.9,7.2,3.9
						c1.4,0.5,3,0.9,4.7,1c1.6,0.1,3.4,0.1,5-0.7c0.8-0.4,1.4-1,1.8-1.7c0.4-0.7,0.4-1.5,0.2-2.3c-0.5-1.5-1.7-2.8-2.7-3.9
						c-2.1-2.3-4.3-4-6.1-5.5c-1.9-1.4-3.4-2.5-4.5-3.3c-0.5-0.3-0.9-0.6-1.2-0.9c-0.3-0.2-0.4-0.3-0.4-0.3s0.2,0.1,0.5,0.2
						c0.3,0.2,0.7,0.4,1.3,0.8c1.1,0.7,2.7,1.8,4.6,3.2c1.9,1.4,4.1,3.2,6.3,5.4c0.5,0.6,1.1,1.2,1.6,1.8c0.5,0.7,1,1.4,1.2,2.3
						c0.3,0.9,0.2,1.9-0.2,2.7c-0.4,0.8-1.2,1.5-2,1.9c-1.7,0.8-3.6,0.8-5.3,0.7c-1.7-0.1-3.3-0.6-4.8-1.1c-3-1.1-5.3-2.7-7.2-4.1
						c-1.9-1.4-3.4-2.6-4.4-3.4c-0.5-0.4-0.8-0.7-1.1-1C199.5,345.8,199.4,345.7,199.4,345.7z"/>
				</g>
			</g>
			<g>
				<g>
					<path class="st14" d="M189.5,361.2c3.5,1.7,7,3.3,10.4,5c1.2,0.6,2.6,1.4,2.5,2.7c0,0.6-0.4,1.2-0.8,1.6
						c-1.7,1.9-4.4,2.7-6.9,2.5c-2.5-0.2-5-1.1-7.3-2"/>
				</g>
				<g>
					<g>
						<path class="st15" d="M187.4,371.1c0-0.1,1.7,0.6,4.6,1.3c1.4,0.3,3.2,0.6,5.1,0.3c0.9-0.2,1.9-0.5,2.8-1
							c0.9-0.5,1.7-1.2,2.2-2.1c0.2-0.5,0.2-1,0-1.4c-0.2-0.4-0.6-0.8-1-1.1c-0.8-0.6-1.8-1-2.7-1.4c-1.7-0.9-3.3-1.6-4.6-2.3
							c-1.2-0.6-2.3-1.2-3.1-1.6c-0.7-0.4-1.1-0.6-1.1-0.6c0,0,0.4,0.1,1.2,0.5c0.8,0.4,1.9,0.9,3.2,1.4c1.4,0.6,3,1.4,4.7,2.2
							c0.9,0.4,1.8,0.8,2.8,1.4c0.4,0.3,0.9,0.7,1.2,1.3c0.3,0.6,0.3,1.3,0,1.8c-1.2,2.1-3.5,3.1-5.4,3.4c-2,0.3-3.8,0-5.2-0.4
							c-1.4-0.4-2.6-0.8-3.3-1.2C187.8,371.3,187.4,371.1,187.4,371.1z"/>
					</g>
				</g>
			</g>
			<g>
				<path class="st14" d="M205.8,386.4l-15.7,11.9c0,0-7.6-10.6-2.6-23.5h3.8l-0.9,4.2l7.2,1.5L205.8,386.4z"/>
			</g>
			<g>
				<g>
					<path class="st14" d="M187.2,374.4c1.9,2.5,3.9,5,5.8,7.5c0.7,0.9,1.4,1.8,2.2,2.4c0.9,0.7,2,1.1,3.1,0.9"/>
				</g>
				<g>
					<g>
						<path class="st15" d="M198.3,385.3c0,0-1,0.4-2.4-0.2c-0.7-0.3-1.4-0.9-2.1-1.6c-0.7-0.7-1.3-1.6-2-2.5
							c-1.4-1.8-2.6-3.4-3.4-4.6c-0.9-1.2-1.3-1.9-1.3-2c0.1,0,0.7,0.6,1.6,1.8c0.9,1.1,2.2,2.7,3.5,4.5c0.7,0.9,1.3,1.7,1.9,2.5
							c0.6,0.7,1.3,1.3,1.9,1.6C197.4,385.4,198.3,385.2,198.3,385.3z"/>
					</g>
				</g>
			</g>
		</g>
		<g>
			<g>
				<path class="st2" d="M191.7,376.1l19.3-18.4c1.9-1.8,4.4-2.8,7-2.7l98.8,2.9c2,0.1,2.8,2.6,1.2,3.7L290.2,382
					c-0.5,0.4-1.1,0.5-1.7,0.5l-96-4.2C191.4,378.3,190.9,376.9,191.7,376.1z"/>
			</g>
			<g>
				<g>
					<path class="st8" d="M318.8,360.4c0,0-0.1,0-0.3,0c-0.3,0-0.6,0-1,0c-0.9,0-2.2,0-3.9-0.1c-3.4-0.1-8.3-0.2-14.4-0.3
						c-12.2-0.3-28.9-0.8-47.4-1.3c-9.3-0.3-18.1-0.5-26.1-0.8c-2-0.1-4-0.1-5.9-0.2c-1,0-1.9-0.1-2.8,0c-0.9,0.1-1.7,0.4-2.5,0.8
						c-0.8,0.4-1.4,1-2,1.6c-0.6,0.6-1.3,1.2-1.9,1.7c-1.2,1.1-2.4,2.2-3.5,3.2c-4.5,4.1-8.1,7.4-10.6,9.7c-1.2,1.1-2.2,2-2.9,2.6
						c-0.3,0.3-0.6,0.5-0.8,0.7c-0.2,0.1-0.3,0.2-0.3,0.2s0.1-0.1,0.2-0.3c0.2-0.2,0.4-0.4,0.7-0.7c0.7-0.6,1.6-1.5,2.8-2.7
						c2.5-2.3,6.1-5.7,10.5-9.8c1.1-1,2.3-2.1,3.5-3.3c0.6-0.6,1.2-1.1,1.9-1.7c0.6-0.6,1.3-1.2,2.1-1.7c0.8-0.4,1.7-0.7,2.6-0.9
						c1-0.1,1.9,0,2.8,0c1.9,0,3.9,0.1,5.9,0.2c8,0.2,16.9,0.5,26.1,0.7c18.5,0.6,35.3,1.1,47.4,1.4c6,0.2,10.9,0.4,14.4,0.5
						c1.7,0.1,3,0.1,3.9,0.2c0.4,0,0.8,0,1,0.1C318.7,360.3,318.8,360.3,318.8,360.4z"/>
				</g>
			</g>
		</g>
		<g>
			<g>
				<g>
					<path class="st1" d="M338.4,308.4c0.1,0.1-4.8,9.6-11,21.2c-6.2,11.7-11.3,21.1-11.5,21c-0.1-0.1,4.8-9.6,11-21.2
						C333.1,317.7,338.2,308.3,338.4,308.4z"/>
				</g>
			</g>
			<g>
				<g>
					<path class="st1" d="M302.2,306.4c0.1,0-1.8,8.5-4.4,19c-2.6,10.4-4.8,18.9-4.9,18.9c-0.1,0,1.8-8.5,4.4-19
						C299.8,314.8,302,306.4,302.2,306.4z"/>
				</g>
			</g>
			<g>
				<g>
					<path class="st1" d="M151,322c0.1-0.1,6.2,6.6,13.5,15c7.4,8.4,13.2,15.3,13.1,15.4c-0.1,0.1-6.2-6.6-13.5-15
						C156.7,329,150.9,322.1,151,322z"/>
				</g>
			</g>
			<g>
				<g>
					<path class="st1" d="M174.8,288.5c0.1,0,3.3,10.4,7.1,23.3c3.8,12.9,6.7,23.4,6.6,23.5c-0.1,0-3.3-10.4-7.1-23.3
						C177.6,299.1,174.7,288.6,174.8,288.5z"/>
				</g>
			</g>
			<g>
				<g>
					<path class="st1" d="M272.6,277.1c0,0,0,0.2,0,0.7c0,0.5,0,1.2,0,2c0,1.8,0,4.4,0,7.5c0,6.4-0.1,15-0.2,24.6
						c-0.1,9.6-0.2,18.3-0.3,24.6c-0.1,3.1-0.1,5.6-0.2,7.5c0,0.8-0.1,1.5-0.1,2c0,0.5,0,0.7-0.1,0.7s0-0.2,0-0.7c0-0.5,0-1.2,0-2
						c0-1.8,0-4.4,0-7.5c0-6.4,0.1-15,0.2-24.6c0.1-9.6,0.2-18.3,0.3-24.6c0.1-3.1,0.1-5.6,0.2-7.5c0-0.8,0.1-1.5,0.1-2
						C272.6,277.3,272.6,277.1,272.6,277.1z"/>
				</g>
			</g>
		</g>
		<g>
			<g>
				<g>
					<g>
						<g>
							<g>
								<path class="st8" d="M306.3,154.9c-3.7-4-8.3-7.8-9.6-13.1c-1.2-4.9,0.5-10.5-2.1-14.8c-3.2-5.3-11.1-5.7-14.9-10.6
									c-1.9-2.4-2.5-5.5-4.3-7.8c-3.1-4-8.9-5-14-4.2c-5.1,0.7-9.9,2.7-15,3.2c-7,0.7-14.2-1.3-20.9,0.9
									c-7.3,2.5-11.6,9.1-16.2,15.6l-6,7.6c-1.3,1.3-2.6,2.5-4.1,3.5c-2.6,1.8-5.6,3.1-7.8,5.3c-4.7,4.8-4,13.8,1.4,17.8
									c-5.3,1.9-9,7.6-8.5,13.3c0.3,3.1,1.7,6,2.7,8.9c1,2.9,1.7,6.2,0.5,9.1c-1.1,2.9-4.7,5-7.5,3.5c1.1,4,4.1,7.4,7.9,9
									c-1.4,1.5-3.4,2.5-5.5,2.7c6.1,13.1,21.7,19.6,36.2,19.2c14.5-0.4,28.1-6.4,41.3-12.2l38.6-11.4c3.4-0.9,4.7-5.1,4.5-8.6
									c-0.2-3.5-1.2-7.1,0-10.4c1.6-4.5,6.7-7.1,8.3-11.6C313.4,164.5,310.1,158.9,306.3,154.9z"/>
							</g>
						</g>
					</g>
				</g>
				<g>
					<g>
						<g>
							<g>
								<g>
									<g>
										<g>
											<g>
												<g>
													<g>
														<g>
															<g>
																<path class="st8" d="M215.5,193.5c-3.1-8.7-6.2-17.5-7.8-26.6c-1.6-9.1-1.6-18.6,1.4-27.4
																	c0.4-1.3,4.3-10.3,5.7-10.2c1,0.1-1.3,8.4-0.8,9.2c5.1,8.1,6.7,18,6.2,27.5S218,184.3,215.5,193.5"/>
															</g>
														</g>
													</g>
												</g>
											</g>
										</g>
									</g>
								</g>
								<g>
									<g>
										<g>
											<path class="st14" d="M249.6,114.3l-2.1-0.1c-23.2,0.8-35.4,20.9-34,44l0.7,79.8c0.1,14.4,11.5,26.2,25.9,26.9l0,0
												c15.1,0.7,27.9-11.2,28.3-26.3c0.1-4.2,0.2-7.1,0.2-7.1c0,0,22.3-2.9,23.1-25.1c0.4-10.7-0.6-32.9-1.8-53
												C288.8,131.9,271.2,114.9,249.6,114.3z"/>
										</g>
									</g>
								</g>
								<g>
									<g>
										<g>
											<g>
												<g>
													<g>
														<g>
															<g>
																<g>
																	<g>
																		<path class="st15" d="M268.6,231.5c0,0-14,0.5-28.7-9.2c0,0,6.3,16.5,28.5,15.1L268.6,231.5z"/>
																	</g>
																</g>
															</g>
														</g>
													</g>
												</g>
											</g>
										</g>
									</g>
								</g>
								<g>
									<g>
										<g>
											<g>
												<g>
													<g>
														<g>
															<g>
																<g>
																	<g>
																		<g>
																			<g>
																				<g>
																					<g>
																						<g>
																							<g>
																								<path class="st8" d="M280.2,173.9c0,1.7-1.4,3.1-3.1,3.1c-1.7,0.1-3.2-1.3-3.2-2.9c0-1.7,1.4-3.1,3.1-3.1
																									C278.8,170.9,280.2,172.2,280.2,173.9z"/>
																							</g>
																						</g>
																					</g>
																				</g>
																			</g>
																		</g>
																	</g>
																</g>
															</g>
														</g>
													</g>
												</g>
											</g>
										</g>
									</g>
								</g>
								<g>
									<g>
										<g>
											<g>
												<g>
													<g>
														<g>
															<g>
																<g>
																	<g>
																		<g>
																			<g>
																				<g>
																					<g>
																						<g>
																							<g>
																								<g>
																									<path class="st8" d="M285,162.5c-0.4,0.4-2.8-1.4-6.2-1.5c-3.4-0.1-6,1.6-6.3,1.1
																										c-0.2-0.2,0.2-0.9,1.4-1.7c1.1-0.8,2.9-1.5,5.1-1.4c2.1,0.1,3.9,0.9,4.9,1.7
																										C284.9,161.6,285.2,162.3,285,162.5z"/>
																								</g>
																							</g>
																						</g>
																					</g>
																				</g>
																			</g>
																		</g>
																	</g>
																</g>
															</g>
														</g>
													</g>
												</g>
											</g>
										</g>
									</g>
								</g>
								<g>
									<g>
										<g>
											<g>
												<g>
													<g>
														<g>
															<g>
																<g>
																	<g>
																		<g>
																			<g>
																				<g>
																					<g>
																						<g>
																							<g>
																								<path class="st8" d="M249.3,173.9c0,1.7-1.4,3.1-3.1,3.1c-1.7,0.1-3.2-1.3-3.2-2.9c0-1.7,1.4-3.1,3.1-3.1
																									C247.8,170.9,249.3,172.2,249.3,173.9z"/>
																							</g>
																						</g>
																					</g>
																				</g>
																			</g>
																		</g>
																	</g>
																</g>
															</g>
														</g>
													</g>
												</g>
											</g>
										</g>
									</g>
								</g>
								<g>
									<g>
										<g>
											<g>
												<g>
													<g>
														<g>
															<g>
																<g>
																	<g>
																		<g>
																			<g>
																				<g>
																					<g>
																						<g>
																							<g>
																								<g>
																									<path class="st8" d="M251.5,163.1c-0.4,0.4-2.8-1.4-6.2-1.5c-3.4-0.1-6,1.6-6.3,1.1
																										c-0.2-0.2,0.2-0.9,1.4-1.7c1.1-0.8,2.9-1.5,5.1-1.4c2.1,0.1,3.9,0.9,4.9,1.7
																										C251.4,162.2,251.7,162.9,251.5,163.1z"/>
																								</g>
																							</g>
																						</g>
																					</g>
																				</g>
																			</g>
																		</g>
																	</g>
																</g>
															</g>
														</g>
													</g>
												</g>
											</g>
										</g>
									</g>
								</g>
								<g>
									<g>
										<g>
											<g>
												<g>
													<g>
														<g>
															<g>
																<g>
																	<g>
																		<g>
																			<g>
																				<g>
																					<g>
																						<g>
																							<g>
																								<path class="st8" d="M263.2,189.6c0-0.2,2.1-0.5,5.6-0.9c0.9-0.1,1.7-0.2,1.9-0.8c0.2-0.6-0.1-1.6-0.5-2.6
																									c-0.8-2.1-1.6-4.4-2.4-6.7c-3.4-9.5-5.8-17.4-5.4-17.5c0.4-0.1,3.4,7.5,6.8,17c0.8,2.4,1.6,4.6,2.3,6.7
																									c0.3,1,0.8,2.1,0.4,3.4c-0.2,0.6-0.9,1.1-1.5,1.2c-0.6,0.2-1.1,0.2-1.5,0.2
																									C265.3,189.9,263.2,189.8,263.2,189.6z"/>
																							</g>
																						</g>
																					</g>
																				</g>
																			</g>
																		</g>
																	</g>
																</g>
															</g>
														</g>
													</g>
												</g>
											</g>
										</g>
									</g>
								</g>
								<g>
									<g>
										<g>
											<g>
												<g>
													<g>
														<g>
															<g>
																<g>
																	<g>
																		<g>
																			<g>
																				<g>
																					<g>
																						<g>
																							<g>
																								<path class="st8" d="M253.1,191.8c0.6,0,0.5,3.7,3.6,6.4c3.1,2.7,7.1,2.4,7.1,2.9c0,0.2-0.9,0.7-2.6,0.7
																									c-1.6,0-4-0.6-5.9-2.2c-1.9-1.7-2.7-3.8-2.8-5.4C252.4,192.6,252.8,191.7,253.1,191.8z"/>
																							</g>
																						</g>
																					</g>
																				</g>
																			</g>
																		</g>
																	</g>
																</g>
															</g>
														</g>
													</g>
												</g>
											</g>
										</g>
									</g>
								</g>
								<g>
									<g>
										<g>
											<g>
												<g>
													<g>
														<g>
															<g>
																<g>
																	<g>
																		<g>
																			<g>
																				<path class="st8" d="M251.7,149.2c-0.4,0.9-3.8,0.4-7.8,0.8c-4,0.3-7.3,1.4-7.8,0.6c-0.2-0.4,0.4-1.3,1.7-2.1
																					c1.3-0.9,3.4-1.7,5.8-1.9c2.4-0.2,4.6,0.2,6.1,0.9C251.1,148.1,251.8,148.8,251.7,149.2z"/>
																			</g>
																		</g>
																	</g>
																</g>
															</g>
														</g>
													</g>
												</g>
											</g>
										</g>
									</g>
								</g>
								<g>
									<g>
										<g>
											<g>
												<g>
													<g>
														<g>
															<g>
																<g>
																	<g>
																		<g>
																			<g>
																				<path class="st8" d="M283.9,151.1c-0.6,0.8-3-0.1-5.8-0.2c-2.8-0.2-5.2,0.4-5.8-0.4c-0.2-0.4,0.2-1.2,1.2-1.9
																					c1-0.7,2.8-1.3,4.7-1.2c1.9,0.1,3.6,0.9,4.6,1.7C283.9,150,284.2,150.8,283.9,151.1z"/>
																			</g>
																		</g>
																	</g>
																</g>
															</g>
														</g>
													</g>
												</g>
											</g>
										</g>
									</g>
								</g>
								<g>
									<g>
										<g>
											<g>
												<g>
													<g>
														<g>
															<g>
																<path class="st14" d="M214.9,174.8c-0.4-0.2-15.2-4.9-15,10.3c0.1,15.2,15.4,11.9,15.4,11.5
																	C215.3,196.2,214.9,174.8,214.9,174.8z"/>
															</g>
														</g>
													</g>
												</g>
											</g>
										</g>
									</g>
								</g>
								<g>
									<g>
										<g>
											<g>
												<g>
													<g>
														<g>
															<g>
																<g>
																	<path class="st15" d="M210.6,191c-0.1,0-0.3,0.2-0.7,0.4c-0.4,0.2-1.2,0.3-2,0.1c-1.6-0.6-3-3.1-3.1-5.9
																		c0-1.4,0.2-2.7,0.7-3.8c0.5-1.1,1.2-1.9,2-2.1c0.8-0.2,1.4,0.3,1.6,0.7c0.2,0.4,0.1,0.7,0.2,0.8
																		c0,0,0.3-0.3,0.2-0.9c-0.1-0.3-0.2-0.7-0.6-0.9c-0.4-0.3-0.9-0.4-1.5-0.4c-1.2,0.1-2.2,1.2-2.7,2.4
																		c-0.6,1.2-0.9,2.7-0.9,4.2c0.1,3.1,1.7,5.9,3.9,6.5c1.1,0.3,2-0.1,2.4-0.4C210.6,191.3,210.6,191,210.6,191z"/>
																</g>
															</g>
														</g>
													</g>
												</g>
											</g>
										</g>
									</g>
								</g>
								<g>
									<g>
										<g>
											<g>
												<g>
													<g>
														<g>
															<g>
																<path class="st8" d="M279.7,128.4c2.4-1.4-5.1-9.2-11.2-11.9c-9.2-4-23.2-6.3-31.6-3.8c-10.1,3-18.4,8.2-23.4,17.6
																	c-4.9,9.3-6.7,20.1-6.2,30.7c0.1,3.2,0.5,6.6,2.3,9.3c2.2,3.3,6.3,5.4,6.2,10c0,1.7,0.5,3.4,1.7,4.6
																	c2.8,2.9,6.2,0.1,7.7-2.7c3.2-6,3.5-13.1,3.7-20c0.1-4.9,0.2-9.8-1.2-14.4c-0.8-2.5-2-4.9-2.7-7.5s-0.6-5.5,0.9-7.6
																	c0.3-0.3,0.7-0.8,1.2-1.3c4.2-3.8,10.3-5.1,15.7-3.3c8.6,2.9,23.3,7.2,27.1,4.2c5.4-4.3,6.7-7,6.7-7L279.7,128.4z"
																	/>
															</g>
														</g>
													</g>
												</g>
											</g>
										</g>
									</g>
								</g>
							</g>
						</g>
						<g>
							<g>
								<g>
									<g>
										<g>
											<g>
												<g>
													<g>
														<path class="st8" d="M237.7,110.6c8.3-2.9,17.8-3,25.7,1c4.2,2.1,8,5.5,9.3,9.9c1.3,4.5-0.5,10.1-4.8,11.9l-0.3,0.2
															c-6.5,2.3-10.7,1.5-17.2-0.6c-5.5-1.8-10.4-5.1-15.9-6.8c-5.8-1.9-12.2-2-18.1-0.2
															C222.3,119.2,229.4,113.6,237.7,110.6z"/>
													</g>
												</g>
											</g>
										</g>
									</g>
								</g>
							</g>
						</g>
					</g>
				</g>
			</g>
			<g>
				<g>
					<path class="st7" d="M202.3,176c0,0-0.3-0.3-0.8-0.9c-0.4-0.6-1.1-1.6-1.6-2.9c-0.5-1.4-1-3.1-0.9-5.2c0.1-2.1,0.7-4.4,2.2-6.6
						c0.7-1.1,1.7-2.1,2.8-3c1.1-0.9,2.5-1.6,3.9-2.1c2.8-1.1,6.1-1.7,8.8-3.7c1.3-1,2.4-2.4,2.8-4.1c0.4-1.7,0.4-3.5,0.3-5.4
						c-0.3-3.7-0.4-7.7,0.8-11.5c1.2-3.9,4-6.9,7.1-9c3.1-2.1,6.5-3.5,9.9-4.1c3.4-0.7,6.7-0.6,9.7,0c3,0.6,5.7,1.8,7.8,3.3
						c4.3,3,6.6,6.8,7.6,9.5c0.5,1.4,0.8,2.5,0.9,3.2c0,0.4,0.1,0.6,0.1,0.9c0,0.2,0,0.3,0,0.3c-0.1,0-0.1-1.6-1.2-4.3
						c-1.1-2.6-3.3-6.4-7.6-9.2c-2.1-1.5-4.7-2.6-7.7-3.2c-3-0.6-6.2-0.6-9.6,0c-3.3,0.7-6.7,2-9.7,4.1c-3,2.1-5.7,5-6.9,8.8
						c-1.2,3.7-1.1,7.6-0.8,11.3c0.1,1.9,0.2,3.7-0.3,5.5c-0.5,1.8-1.6,3.3-3,4.4c-2.8,2.1-6.2,2.7-9,3.7c-2.9,1-5.1,2.8-6.6,4.9
						c-1.5,2.1-2.1,4.4-2.2,6.4c-0.1,2,0.3,3.8,0.8,5.1C201.1,174.8,202.3,175.9,202.3,176z"/>
				</g>
			</g>
			<g>
				<g>
					<path class="st7" d="M200.6,179.4c0,0-0.4-0.2-1.2-0.7c-0.7-0.5-1.8-1.3-2.9-2.5c-1.1-1.3-2.3-3-3.1-5.3
						c-0.8-2.3-1.2-5.1-0.6-8.1c0.5-3,2-6.1,4.6-8.6c2.6-2.5,5.9-4.3,9.1-6.7c1.6-1.2,3.1-2.5,4.3-4.2c1.2-1.7,2-3.6,2.7-5.6
						c1.4-4.1,2-8.6,3.9-12.8c1.9-4.2,5.2-7.6,8.8-10c3.7-2.4,7.8-3.7,11.8-3.9c4-0.3,7.8,0.4,11.2,1.6c3.3,1.2,6.2,3,8.5,5
						c4.6,4,6.9,8.5,8.1,11.6c1.2,3.1,1.4,5,1.4,5c0,0,0-0.1-0.1-0.3c-0.1-0.2-0.1-0.6-0.3-1c-0.3-0.8-0.6-2.1-1.3-3.6
						c-1.3-3.1-3.6-7.5-8.1-11.4c-2.3-1.9-5.1-3.7-8.4-4.9c-3.3-1.2-7.1-1.9-11-1.6c-3.9,0.3-8,1.5-11.6,3.9
						c-3.6,2.3-6.7,5.7-8.6,9.8c-1.9,4.1-2.5,8.6-3.9,12.7c-0.7,2.1-1.5,4.1-2.8,5.8c-1.2,1.7-2.8,3.1-4.4,4.3
						c-3.2,2.4-6.6,4.1-9.1,6.6c-2.6,2.4-4,5.5-4.6,8.4c-0.6,2.9-0.2,5.7,0.5,7.9c0.8,2.2,1.9,4,3,5.2c1.1,1.3,2.1,2.1,2.8,2.6
						C200.2,179.2,200.6,179.4,200.6,179.4z"/>
				</g>
			</g>
		</g>
		<g>
			<g>
				<path class="st14" d="M290.5,377.5c0,0-41.3-9.6-47.6-10.1c-5.9-0.4-7.5,3.3-7.5,3.3s-8.9-1.1-10.8,4.1c0,0-1.6,3,2.1,4.5
					s23.3,5.9,27.4,9.6s38,23,38,23l13.7,5.6c0,0,6.1-16.1,6.4-20.7c0.3-4.6-1.4-7.1-1.4-7.1s8.5-8.7,9.5-12.2
					c1-3.5,7.1-15.5,7.1-15.5s-5.8-5.9-11.5,1s-8.9,10-10.5,11.3C301,377.9,293.1,378.3,290.5,377.5z"/>
			</g>
			<g>
				<g>
					<path class="st15" d="M276.8,389.5c0,0-0.2,0-0.4-0.2c-0.3-0.2-0.7-0.4-1.2-0.6c-1.1-0.5-2.6-1.3-4.4-2.1
						c-3.8-1.8-9-4.1-15-6.3c-3-1.1-5.9-2.1-8.5-2.9c-2.6-0.8-5-1.4-7-2.3c-1.9-0.8-3.3-1.9-4-2.9c-0.3-0.5-0.5-0.9-0.6-1.2
						c-0.1-0.3-0.1-0.4-0.1-0.5c0.1,0,0.2,0.6,0.9,1.5c0.7,0.9,2.1,1.9,4,2.7c1.9,0.8,4.3,1.3,7,2.2c2.6,0.8,5.5,1.8,8.5,2.9
						c6,2.2,11.2,4.6,15,6.4c1.9,0.9,3.4,1.7,4.4,2.3c0.5,0.3,0.8,0.5,1.2,0.7C276.6,389.4,276.8,389.5,276.8,389.5z"/>
				</g>
			</g>
			<g>
				<g>
					<path class="st15" d="M303.6,375.7c0.1,0.1-1.3,1.8-3.7,3.1c-2.4,1.3-4.6,1.5-4.6,1.4c0-0.2,2.1-0.6,4.4-1.8
						C302,377.1,303.5,375.6,303.6,375.7z"/>
				</g>
			</g>
		</g>
	</g>
</g>
<g id="Table">
	<g>
		<g>
			<path class="st8" d="M449,473.1c0,0.1-89.1,0.3-199,0.3c-109.9,0-199-0.1-199-0.3c0-0.1,89.1-0.3,199-0.3
				C359.9,472.9,449,473,449,473.1z"/>
		</g>
	</g>
</g>
<g id="Windows">
	<g>
		<g>
			<g>
				<polygon class="st1" points="164.9,145.9 33.2,145.9 33.2,200.1 151.6,200.1 159.7,208.2 159.7,200.1 164.9,200.1 				"/>
			</g>
			<g>
				<g>
					<path class="st8" d="M164.9,145.9c0,0,0,0.3,0,0.9c0,0.6,0,1.6,0,2.8c0,2.4,0,6,0,10.7c0,9.3,0.1,22.9,0.1,39.8v0.2h-0.2
						c-1.6,0-3.4,0-5.2,0l0.2-0.2c0,2.5,0,5.2,0,8.1l0,0.5l-0.3-0.3c-2.5-2.5-5.3-5.2-8.1-8.1l0.1,0.1c-31.3,0-70.4,0-112.7,0.1
						c-1.9,0-3.8,0-5.7,0H33v-0.3c0-19,0-37.3,0-54.2v-0.2h0.2c38.3,0,71.3,0.1,94.6,0.1c11.6,0,20.9,0.1,27.3,0.1
						c3.2,0,5.6,0,7.3,0c0.8,0,1.4,0,1.9,0C164.6,145.9,164.9,145.9,164.9,145.9s-0.2,0-0.7,0c-0.4,0-1.1,0-1.9,0
						c-1.7,0-4.1,0-7.3,0c-6.4,0-15.6,0-27.3,0.1c-23.3,0-56.2,0.1-94.5,0.1l0.2-0.2c0,16.9,0,35.2,0,54.2l-0.3-0.3
						c1.9,0,3.8,0,5.7,0c42.3,0,81.3,0,112.7,0.1h0.1l0.1,0.1c2.8,2.8,5.5,5.6,8.1,8.1l-0.3,0.1c0-2.8,0-5.6,0-8.1v-0.2h0.2
						c1.8,0,3.6,0,5.2,0l-0.2,0.2c0-16.9,0.1-30.4,0.1-39.7c0-4.7,0-8.3,0-10.7c0-1.2,0-2.1,0-2.8
						C164.8,146.3,164.9,145.9,164.9,145.9z"/>
				</g>
			</g>
		</g>
		<g>
			<g>
				<path class="st2" d="M150.7,166H90.4c-1.2,0-2.1-1-2.1-2.1v-0.2c0-1.2,1-2.1,2.1-2.1h60.3c1.2,0,2.1,1,2.1,2.1v0.2
					C152.9,165,151.9,166,150.7,166z"/>
			</g>
			<g>
				<path class="st2" d="M150.7,176.1H90.4c-1.2,0-2.1-1-2.1-2.1v-0.2c0-1.2,1-2.1,2.1-2.1h60.3c1.2,0,2.1,1,2.1,2.1v0.2
					C152.9,175.1,151.9,176.1,150.7,176.1z"/>
			</g>
			<g>
				<path class="st2" d="M150.7,186.2H90.4c-1.2,0-2.1-1-2.1-2.1v-0.2c0-1.2,1-2.1,2.1-2.1h60.3c1.2,0,2.1,1,2.1,2.1v0.2
					C152.9,185.2,151.9,186.2,150.7,186.2z"/>
			</g>
		</g>
		<g>
			<g>
				<path class="st7" d="M72.9,190.5H48.6c-2.5,0-4.5-2-4.5-4.5v-24.4c0-2.5,2-4.5,4.5-4.5h24.4c2.5,0,4.5,2,4.5,4.5V186
					C77.4,188.5,75.4,190.5,72.9,190.5z"/>
			</g>
			<g>
				<path class="st1" d="M47.4,183.7l-0.8-0.6l6.7-8c0.8-1.1,2.2-1.3,3.4-0.6l4,2.6l4.7-5.9c0.4-0.6,1.1-0.9,1.8-0.9
					c0.7,0,1.4,0.3,1.9,0.8l5.8,6.2l-0.7,0.7l-5.8-6.2c-0.3-0.3-0.7-0.5-1.1-0.5c-0.4,0-0.8,0.2-1.1,0.6l-5.2,6.6l-4.7-3.2
					c-0.7-0.4-1.5-0.3-2,0.4L47.4,183.7z"/>
			</g>
			<g>
				<circle class="st1" cx="57.8" cy="165.8" r="3"/>
			</g>
		</g>
	</g>
	<g>
		<g>
			<g>
				<polygon class="st1" points="401.9,244.1 282.2,244.1 282.2,295.1 294.5,295.1 295.8,306.3 305.1,295.1 401.9,295.1 				"/>
			</g>
			<g>
				<g>
					<path class="st8" d="M401.9,244.1c0,0,0,0.3,0,0.9c0,0.6,0,1.5,0,2.6c0,2.3,0,5.7,0,10.1c0,8.8,0.1,21.6,0.1,37.5v0.2h-0.2
						c-25.2,0-58.9,0-96.8,0.1l0.2-0.1c-2.9,3.6-6,7.4-9.2,11.2l-0.4,0.5l-0.1-0.6c-0.4-3.6-0.9-7.4-1.3-11.2l0.3,0.2
						c-1.5,0-3.1,0-4.7,0c-2.6,0-5.1,0-7.7,0h-0.3v-0.3c0-17.9,0-35.1,0-51v-0.2h0.2c34.9,0,64.9,0.1,86.1,0.1
						c10.6,0,19,0.1,24.7,0.1c2.9,0,5.1,0,6.6,0c0.7,0,1.3,0,1.7,0C401.7,244.1,401.9,244.1,401.9,244.1s-0.2,0-0.6,0
						c-0.4,0-1,0-1.7,0c-1.5,0-3.7,0-6.6,0c-5.8,0-14.2,0-24.8,0.1c-21.2,0-51.1,0.1-85.9,0.1l0.2-0.2c0,15.9,0,33.1,0,51l-0.3-0.3
						c2.5,0,5.1,0,7.7,0c1.6,0,3.2,0,4.7,0h0.2l0,0.2c0.4,3.9,0.9,7.7,1.3,11.2l-0.5-0.1c3.2-3.9,6.3-7.7,9.2-11.2l0.1-0.1h0.1
						c37.9,0,71.6,0.1,96.8,0.1l-0.2,0.2c0-15.8,0.1-28.6,0.1-37.3c0-4.4,0-7.8,0-10.1c0-1.1,0-2,0-2.6
						C401.8,244.4,401.9,244.1,401.9,244.1z"/>
				</g>
			</g>
		</g>
		<g>
			<g>
				<path class="st2" d="M387.6,260.2h-47.5c-1.3,0-2.4-1.1-2.4-2.4l0,0c0-1.3,1.1-2.4,2.4-2.4h47.5c1.3,0,2.4,1.1,2.4,2.4l0,0
					C390,259.1,388.9,260.2,387.6,260.2z"/>
			</g>
			<g>
				<path class="st2" d="M387.6,270.9h-47.5c-1.3,0-2.4-1.1-2.4-2.4l0,0c0-1.3,1.1-2.4,2.4-2.4h47.5c1.3,0,2.4,1.1,2.4,2.4l0,0
					C390,269.8,388.9,270.9,387.6,270.9z"/>
			</g>
			<g>
				<path class="st2" d="M387.6,281.6h-47.5c-1.3,0-2.4-1.1-2.4-2.4l0,0c0-1.3,1.1-2.4,2.4-2.4h47.5c1.3,0,2.4,1.1,2.4,2.4l0,0
					C390,280.5,388.9,281.6,387.6,281.6z"/>
			</g>
		</g>
		<g>
			<g>
				<path class="st0" d="M321.7,286.2h-26.4c-2.5,0-4.5-2-4.5-4.5v-26.4c0-2.5,2-4.5,4.5-4.5h26.4c2.5,0,4.5,2,4.5,4.5v26.4
					C326.2,284.1,324.2,286.2,321.7,286.2z"/>
			</g>
			<g>
				<path class="st1" d="M294.4,279l-0.8-0.6l7.1-8.5c0.8-1.1,2.3-1.4,3.5-0.6l4.2,2.8l5-6.3c0.5-0.6,1.2-0.9,1.9-1
					c0.7,0,1.5,0.3,2,0.8l6.1,6.6l-0.7,0.7l-6.1-6.6c-0.3-0.3-0.8-0.5-1.2-0.5c-0.5,0-0.9,0.2-1.2,0.6l-5.5,7l-5-3.3
					c-0.7-0.5-1.7-0.3-2.2,0.4L294.4,279z"/>
			</g>
			<g>
				<path class="st1" d="M308.5,260c0,1.7-1.4,3.2-3.2,3.2s-3.2-1.4-3.2-3.2s1.4-3.2,3.2-3.2C307.1,256.9,308.5,258.3,308.5,260z"/>
			</g>
		</g>
	</g>
	<g>
		<g>
			<path class="st1" d="M155.7,233.2H60.4c-3.5,0-6.3,2.8-6.3,6.3v55.4c0,3,2.5,5.5,5.5,5.5h77.6l12.2,12.2v-12.2h4.5
				c3.7,0,6.6-3,6.6-6.6v-55.6C160.7,235.4,158.4,233.2,155.7,233.2z"/>
		</g>
		<g>
			<path class="st2" d="M160.1,246.3H54.7c-0.3,0-0.6-0.3-0.6-0.6v-5.8c0-3.7,3-6.7,6.7-6.7h95c2.7,0,4.9,2.2,4.9,4.9v7.6
				C160.7,246,160.4,246.3,160.1,246.3z"/>
		</g>
		<g>
			<g>
				<path class="st11" d="M92.4,288.9H69.5c-2.5,0-4.5-2-4.5-4.5v-22.9c0-2.5,2-4.5,4.5-4.5h22.9c2.5,0,4.5,2,4.5,4.5v22.9
					C96.9,286.9,94.9,288.9,92.4,288.9z"/>
			</g>
			<g class="st10">
				<g>
					<path d="M94.1,276.6c0,0-0.4-0.3-1.1-1c-0.7-0.7-1.6-1.7-2.7-2.8c-0.6-0.6-1.2-1.3-1.9-2c-0.6-0.7-1.8-0.7-2.4,0.1
						c-1.4,1.7-2.9,3.6-4.4,5.6c-0.1,0.1-0.2,0.3-0.3,0.4l-0.1,0.2l-0.2-0.1c-1.2-0.8-2.3-1.6-3.4-2.3c-0.3-0.2-0.5-0.4-0.8-0.5
						c-0.2-0.1-0.5-0.2-0.8-0.2c-0.6,0-1.1,0.3-1.4,0.7l0,0l0,0c-1.9,2.2-3.5,4.1-4.7,5.5c-0.5,0.6-1,1.1-1.4,1.5
						c-0.3,0.3-0.5,0.5-0.5,0.5c0,0,0.1-0.2,0.4-0.6c0.3-0.4,0.8-1,1.3-1.6c1.2-1.4,2.7-3.4,4.6-5.6l0,0c0.4-0.5,1-0.9,1.8-0.9
						c0.4,0,0.7,0.1,1,0.3c0.3,0.2,0.6,0.4,0.8,0.5c1.1,0.7,2.3,1.5,3.5,2.3l-0.3,0.1c0.1-0.1,0.2-0.3,0.3-0.4
						c1.6-2,3.1-3.9,4.5-5.6c0.4-0.5,1-0.7,1.6-0.7c0.6,0,1.1,0.3,1.5,0.7c0.7,0.7,1.3,1.4,1.8,2c1.1,1.2,1.9,2.2,2.6,3
						C93.8,276.1,94.2,276.5,94.1,276.6z"/>
				</g>
			</g>
			<g class="st10">
				<path d="M81,265.3c0,1.6-1.3,2.9-2.8,2.9s-2.8-1.3-2.8-2.9s1.3-2.9,2.8-2.9S81,263.7,81,265.3z"/>
			</g>
		</g>
		<g>
			<g>
				<path class="st8" d="M155.7,233.2c0,0,0.5-0.1,1.4,0.2c0.9,0.2,2.3,0.9,3.1,2.6c0.4,0.8,0.6,1.9,0.5,3c0,1.1,0,2.3,0,3.7
					c0,2.6,0,5.7,0,9.1c0,6.8,0,15.1,0.1,24.6c0,4.8,0,9.9,0,15.2c0,1.3,0.1,2.8-0.4,4.1c-0.5,1.3-1.3,2.6-2.5,3.4
					c-1.1,0.9-2.6,1.4-4.1,1.5c-1.5,0-2.9,0-4.4,0l0.2-0.2c0,3.8,0,8,0,12.2v0.5l-0.4-0.4c-3.9-3.9-8-8-12.2-12.2l0.2,0.1
					c-21.3,0-44.9,0-69.6,0c-1.5,0-3.1,0-4.6,0h-2.3c-0.7,0-1.5,0.1-2.3-0.1c-1.6-0.3-2.9-1.3-3.8-2.6c-0.4-0.7-0.7-1.4-0.8-2.2
					c-0.1-0.8-0.1-1.5-0.1-2.3c0-6,0-11.8,0-17.6c0-11.5,0-22.7,0-33.3c0-0.7,0-1.3,0-2c0-0.7,0-1.3,0.1-2c0.2-1.3,0.8-2.6,1.7-3.6
					c0.9-1,2.1-1.6,3.4-1.9c0.6-0.1,1.3-0.1,1.9-0.1c0.6,0,1.3,0,1.9,0c5,0,9.9,0,14.6,0c9.4,0,18.2,0,26.2,0c16,0,29,0.1,38,0.1
					c4.5,0,7.9,0,10.3,0c1.2,0,2.1,0,2.7,0C155.4,233.2,155.7,233.2,155.7,233.2s-0.3,0-0.9,0c-0.6,0-1.5,0-2.7,0
					c-2.4,0-5.9,0-10.3,0c-9,0-21.9,0-38,0.1c-8,0-16.8,0-26.2,0c-4.7,0-9.6,0-14.6,0c-1.2,0-2.5-0.1-3.7,0.1
					c-1.2,0.3-2.3,0.9-3.2,1.8c-0.9,0.9-1.4,2.1-1.6,3.3c-0.1,0.6-0.1,1.3-0.1,1.9c0,0.7,0,1.3,0,2c0,10.6,0,21.7,0,33.3
					c0,5.8,0,11.6,0,17.6c0,0.7,0,1.5,0.1,2.2c0.1,0.7,0.3,1.4,0.7,2c0.7,1.2,2,2.1,3.4,2.4c0.7,0.1,1.4,0.1,2.2,0.1h2.3
					c1.5,0,3,0,4.6,0c24.7,0,48.3,0,69.6,0h0.1l0.1,0.1c4.2,4.2,8.3,8.4,12.2,12.2l-0.4,0.2c0-4.2,0-8.4,0-12.2v-0.2l0.2,0
					c1.5,0,3,0,4.4,0c1.4-0.1,2.8-0.6,3.8-1.4c1.1-0.8,1.9-2,2.4-3.2c0.5-1.3,0.4-2.6,0.4-4c0-5.4,0-10.4,0-15.2
					c0-9.5,0-17.8,0.1-24.6c0-3.4,0-6.4,0-9.1c0-1.3,0-2.5,0-3.7c0.1-1.1-0.1-2.1-0.5-2.9c-0.8-1.6-2.2-2.3-3-2.6
					C156.2,233.2,155.7,233.3,155.7,233.2z"/>
			</g>
		</g>
		<g>
			<path class="st1" d="M63.3,239.5c0,1.2-1,2.2-2.2,2.2s-2.2-1-2.2-2.2s1-2.2,2.2-2.2S63.3,238.3,63.3,239.5z"/>
		</g>
		<g>
			<path class="st1" d="M70.1,239.5c0,1.2-1,2.2-2.2,2.2s-2.2-1-2.2-2.2s1-2.2,2.2-2.2S70.1,238.3,70.1,239.5z"/>
		</g>
		<g>
			<path class="st1" d="M76.8,239.5c0,1.2-1,2.2-2.2,2.2s-2.2-1-2.2-2.2s1-2.2,2.2-2.2S76.8,238.3,76.8,239.5z"/>
		</g>
		<g>
			<g>
				<path class="st8" d="M146.4,263.2c0,0.1-8.7,0.3-19.4,0.3c-10.7,0-19.4-0.1-19.4-0.3s8.7-0.3,19.4-0.3
					C137.7,263,146.4,263.1,146.4,263.2z"/>
			</g>
		</g>
		<g>
			<g>
				<path class="st8" d="M146.4,270.6c0,0.1-8.7,0.3-19.4,0.3c-10.7,0-19.4-0.1-19.4-0.3s8.7-0.3,19.4-0.3
					C137.7,270.3,146.4,270.4,146.4,270.6z"/>
			</g>
		</g>
		<g>
			<g>
				<path class="st8" d="M146.4,278c0,0.1-8.7,0.3-19.4,0.3c-10.7,0-19.4-0.1-19.4-0.3c0-0.1,8.7-0.3,19.4-0.3
					C137.7,277.7,146.4,277.8,146.4,278z"/>
			</g>
		</g>
	</g>
	<g>
		<g>
			<g>
				<polygon class="st1" points="322.6,170.1 424.7,170.1 424.7,221.7 340.6,221.7 331.2,231.1 331.2,221.7 322.6,221.7 				"/>
			</g>
			<g>
				<g>
					<path class="st8" d="M322.6,170.1c0,0,0,0.3,0,0.9c0,0.6,0,1.5,0,2.7c0,2.4,0,5.8,0,10.3c0,8.9,0.1,21.8,0.1,37.7l-0.2-0.2
						c2.7,0,5.6,0,8.6,0h0.2v0.2c0,2.9,0,6.1,0,9.4l-0.4-0.2c2.9-2.9,6.1-6.1,9.4-9.4l0.1-0.1h0.1c22.7,0,49.2,0,77.5,0
						c2.2,0,4.4,0,6.6,0l-0.3,0.3c0-18.2,0-35.6,0-51.6l0.2,0.2c-29.9,0-55.3-0.1-73.4-0.1c-9,0-16.2-0.1-21.1-0.1
						c-2.4,0-4.3,0-5.6,0c-0.6,0-1.1,0-1.5,0C322.8,170.1,322.6,170.1,322.6,170.1s0.2,0,0.5,0c0.3,0,0.8,0,1.4,0c1.3,0,3.2,0,5.6,0
						c4.9,0,12,0,21-0.1c18.1,0,43.6-0.1,73.5-0.1h0.2v0.2c0,16,0,33.4,0,51.6v0.3h-0.3c-2.2,0-4.4,0-6.6,0c-28.3,0-54.8,0-77.5,0
						l0.2-0.1c-3.3,3.3-6.4,6.4-9.4,9.4l-0.4,0.4l0-0.5c0-3.3,0-6.5,0-9.4l0.2,0.2c-3,0-5.9,0-8.6,0h-0.2l0-0.2
						c0-16,0.1-28.9,0.1-37.8c0-4.4,0-7.9,0-10.2c0-1.2,0-2,0-2.6C322.6,170.4,322.6,170.1,322.6,170.1z"/>
				</g>
			</g>
		</g>
		<g>
			<g>
				<path class="st8" d="M407.5,185.9c0,0.1-15.3,0.3-34.1,0.3c-18.8,0-34.1-0.1-34.1-0.3s15.3-0.3,34.1-0.3
					C392.3,185.6,407.5,185.7,407.5,185.9z"/>
			</g>
		</g>
		<g>
			<g>
				<path class="st8" d="M407.5,193.2c0,0.1-15.3,0.3-34.1,0.3c-18.8,0-34.1-0.1-34.1-0.3c0-0.1,15.3-0.3,34.1-0.3
					C392.3,193,407.5,193.1,407.5,193.2z"/>
			</g>
		</g>
		<g>
			<g>
				<path class="st8" d="M407.5,200.6c0,0.1-15.3,0.3-34.1,0.3c-18.8,0-34.1-0.1-34.1-0.3s15.3-0.3,34.1-0.3
					C392.3,200.3,407.5,200.5,407.5,200.6z"/>
			</g>
		</g>
	</g>
	<g>
		<g>
			<g>
				<polygon class="st1" points="169.6,72.9 97.3,72.9 97.3,124.5 151.7,124.5 161,133.9 161,124.5 169.6,124.5 				"/>
			</g>
			<g>
				<g>
					<path class="st8" d="M169.6,72.9c0,0,0,0.3,0,0.9c0,0.6,0,1.5,0,2.7c0,2.4,0,5.9,0.1,10.3c0,9,0.1,21.9,0.1,37.7l0,0.2h-0.2
						c-2.7,0-5.6,0-8.6,0l0.2-0.2c0,2.9,0,6.1,0,9.4l0,0.6l-0.4-0.4c-3-3-6.1-6.1-9.4-9.4l0.2,0.1c-14.7,0-30.9,0-47.8,0
						c-2.2,0-4.4,0-6.6,0H97v-0.3c0-18.6,0-36.1,0-51.6v-0.2l0.2,0c21.5,0,39.6,0.1,52.4,0.1c6.3,0,11.3,0,14.8,0.1c1.7,0,3,0,3.9,0
						c0.4,0,0.8,0,1,0C169.5,72.9,169.6,72.9,169.6,72.9s-0.1,0-0.4,0c-0.2,0-0.6,0-1,0c-0.9,0-2.2,0-3.9,0c-3.4,0-8.5,0-14.8,0.1
						c-12.7,0-30.8,0.1-52.2,0.1l0.2-0.2c0,15.5,0,33,0,51.6l-0.3-0.3c2.2,0,4.4,0,6.6,0c16.9,0,33.1,0,47.8,0h0.1l0.1,0.1
						c3.2,3.3,6.4,6.4,9.4,9.4l-0.4,0.2c0-3.3,0-6.4,0-9.4v-0.2h0.2c3,0,5.9,0,8.6,0l-0.2,0.2c0-15.7,0.1-28.6,0.1-37.5
						c0-4.5,0-8,0.1-10.4c0-1.2,0-2.1,0-2.7C169.6,73.3,169.6,72.9,169.6,72.9z"/>
				</g>
			</g>
		</g>
		<g>
			<g>
				<path class="st8" d="M114,88.7c0-0.1,8.7-0.3,19.4-0.3c10.7,0,19.4,0.1,19.4,0.3s-8.7,0.3-19.4,0.3
					C122.7,88.9,114,88.8,114,88.7z"/>
			</g>
		</g>
		<g>
			<g>
				<path class="st8" d="M114,96c0-0.1,8.7-0.3,19.4-0.3c10.7,0,19.4,0.1,19.4,0.3c0,0.1-8.7,0.3-19.4,0.3
					C122.7,96.3,114,96.2,114,96z"/>
			</g>
		</g>
		<g>
			<g>
				<path class="st8" d="M114,103.4c0-0.1,8.7-0.3,19.4-0.3c10.7,0,19.4,0.1,19.4,0.3s-8.7,0.3-19.4,0.3
					C122.7,103.6,114,103.5,114,103.4z"/>
			</g>
		</g>
	</g>
	<g>
		<g>
			<g>
				<polygon class="st1" points="251.4,32.8 201.4,32.8 201.4,82.8 206.2,82.8 206.2,90.2 213.6,82.8 251.4,82.8 				"/>
			</g>
			<g>
				<g>
					<path class="st8" d="M251.4,32.8c0,0,0,0.3,0,0.9c0,0.6,0,1.5,0,2.6c0,2.3,0,5.8,0.1,10.1c0,8.8,0.1,21.3,0.1,36.3l0,0.2h-0.2
						c-11.2,0-24,0-37.7,0l0.2-0.1c-2.4,2.4-4.9,4.9-7.4,7.4l-0.4,0.4v-0.6c0-2.2,0-4.6,0-7c0-0.2,0-0.3,0-0.5l0.3,0.3
						c-1.6,0-3.2,0-4.8,0h-0.3v-0.3c0-18.3,0-35.4,0-50v-0.2l0.2,0c15,0,27.6,0.1,36.3,0.1c4.3,0,7.8,0,10.1,0.1c1.1,0,2,0,2.6,0
						C251.1,32.8,251.4,32.8,251.4,32.8s-0.3,0-0.9,0c-0.6,0-1.5,0-2.7,0c-2.4,0-5.8,0-10.2,0.1c-8.7,0-21.2,0.1-36.2,0.1l0.2-0.2
						c0,14.5,0,31.6,0,50l-0.3-0.3c1.6,0,3.2,0,4.8,0h0.3v0.3c0,0.2,0,0.3,0,0.5c0,2.4,0,4.7,0,7l-0.4-0.2c2.6-2.6,5.1-5.1,7.4-7.4
						l0.1-0.1h0.1c13.7,0,26.5,0,37.7,0l-0.2,0.2c0-15,0.1-27.5,0.1-36.2c0-4.4,0-7.8,0.1-10.1c0-1.2,0-2.1,0-2.7
						C251.4,33.2,251.4,32.8,251.4,32.8z"/>
				</g>
			</g>
		</g>
		<g>
			<g>
				<g>
					<g>
						<path class="st7" d="M229.1,57.8c2.6-1.1,4.5-3.8,4.5-7c0-4.2-3.1-7.6-7.1-7.6c-3.9,0-7.1,3.4-7.1,7.5c0,3.2,1.9,6,4.5,7.1
							c-10.9,1.6-10.4,13.5-10.4,13.5l25.8,0.1C239.3,71.4,239.9,59.5,229.1,57.8z"/>
					</g>
				</g>
			</g>
		</g>
	</g>
	<g>
		<g>
			<g>
				<g>
					<polygon class="st1" points="359.1,99.4 409,99.4 409,149.3 404.3,149.3 404.3,156.8 396.8,149.3 359.1,149.3 					"/>
				</g>
				<g>
					<g>
						<path class="st8" d="M359.1,99.4c0,0,0,0.3,0,0.9c0,0.6,0,1.5,0,2.7c0,2.4,0,5.8,0.1,10.1c0,8.7,0.1,21.2,0.1,36.2l-0.2-0.2
							c11.2,0,24,0,37.7,0h0.1l0.1,0.1c2.4,2.4,4.9,4.9,7.4,7.4l-0.4,0.2c0-2.2,0-4.6,0-7v-0.5v-0.3h0.3c1.6,0,3.2,0,4.8,0l-0.3,0.3
							c0-18.3,0-35.4,0-50l0.2,0.2c-15,0-27.5-0.1-36.2-0.1c-4.4,0-7.8,0-10.2-0.1c-1.2,0-2.1,0-2.7,0
							C359.4,99.4,359.1,99.4,359.1,99.4s0.3,0,0.9,0c0.6,0,1.5,0,2.6,0c2.4,0,5.8,0,10.1-0.1c8.8,0,21.3-0.1,36.3-0.1l0.2,0v0.2
							c0,14.5,0,31.6,0,50v0.3H409c-1.6,0-3.2,0-4.8,0l0.3-0.3c0,0.2,0,0.3,0,0.5c0,2.4,0,4.7,0,7v0.6l-0.4-0.4
							c-2.6-2.6-5.1-5.1-7.4-7.4l0.2,0.1c-13.7,0-26.5,0-37.7,0h-0.2l0-0.2c0-15.1,0.1-27.6,0.1-36.3c0-4.3,0-7.7,0.1-10.1
							c0-1.1,0-2,0-2.6C359,99.7,359.1,99.4,359.1,99.4z"/>
					</g>
				</g>
			</g>
		</g>
		<g>
			<g>
				<path class="st16" d="M396.2,121.3c0-7.5-6.8-13.4-14.5-11.9c-4.9,0.9-8.8,4.9-9.6,9.8c-0.5,3.1,0.1,5.9,1.5,8.3h0l0,0
					c0.5,0.8,1,1.3,1.6,2.2l7.1,9.3c0.9,1.2,2.6,1.2,3.5,0l6.9-9.2c0,0,1.3-1.5,1.8-2.3l0,0h0C395.6,125.7,396.2,123.6,396.2,121.3z
					 M384,126.6c-3,0-5.3-2.4-5.3-5.3c0-3,2.4-5.3,5.3-5.3c3,0,5.3,2.4,5.3,5.3C389.4,124.2,387,126.6,384,126.6z"/>
			</g>
		</g>
	</g>
	<g>
		<g>
			<g>
				<path class="st1" d="M253.9,270.9h-52c-2.6,0-4.7,2.1-4.7,4.7v48c0,2.6,2.1,4.7,4.7,4.7h42.7l8.6,8.6v-8.6h0.8
					c2.6,0,4.7-2.1,4.7-4.7v-48C258.6,273,256.5,270.9,253.9,270.9z"/>
			</g>
			<g>
				<g>
					<path class="st8" d="M253.9,270.9c0,0,0.4-0.1,1.2,0.1c0.7,0.2,1.9,0.7,2.8,1.9c0.4,0.6,0.8,1.4,0.8,2.4c0,0.9,0,1.9,0,3
						c0,2.2,0,4.7,0,7.4c0,5.6,0,12.3,0.1,20.1c0,3.9,0,8,0,12.3c0,1.1,0,2.2,0,3.3c0,0.6,0,1.1,0,1.7c0,0.5,0,1.2-0.2,1.7
						c-0.3,1.2-1,2.2-2,2.9c-0.5,0.3-1.1,0.6-1.7,0.7c-0.6,0.1-1.2,0.1-1.8,0.1l0.2-0.2c0,2.7,0,5.6,0,8.6l0,0.6l-0.4-0.4
						c-2.7-2.7-5.6-5.6-8.6-8.5l0.2,0.1c-11.4,0-23.8,0-36.6,0c-2.1,0-4.2,0-6.2,0c-1.1,0-2.1-0.4-3-1.1c-0.8-0.7-1.4-1.6-1.7-2.7
						c-0.1-0.5-0.2-1.1-0.1-1.6v-1.5c0-1,0-2,0-3c0-2,0-4,0-6c0-7.9,0-15.5,0-22.7c0-3.6,0-7.1,0-10.6c0-0.9,0-1.7,0-2.5l0-1.3
						c0-0.4,0.1-0.9,0.2-1.3c0.4-1.7,1.8-3,3.5-3.5c0.8-0.2,1.7-0.2,2.4-0.2c0.8,0,1.6,0,2.3,0c1.6,0,3.1,0,4.6,0c3,0,5.8,0,8.6,0
						c10.9,0,19.8,0.1,25.9,0.1c3,0,5.4,0,7,0c0.8,0,1.4,0,1.8,0C253.6,270.9,253.9,270.9,253.9,270.9s-0.2,0-0.6,0
						c-0.4,0-1,0-1.8,0c-1.6,0-4,0-7,0c-6.1,0-15,0-25.9,0.1c-2.7,0-5.6,0-8.6,0c-1.5,0-3,0-4.6,0c-0.8,0-1.6,0-2.3,0
						c-0.8,0-1.6,0-2.3,0.2c-1.5,0.4-2.7,1.6-3.1,3.2c-0.2,0.8-0.1,1.6-0.2,2.4c0,0.8,0,1.7,0,2.5c0,3.4,0,7,0,10.6
						c0,7.2,0,14.8,0,22.7c0,2,0,4,0,6c0,1,0,2,0,3c0,1-0.1,2,0.1,3c0.2,0.9,0.8,1.8,1.5,2.4c0.8,0.6,1.7,1,2.7,1c2.1,0,4.1,0,6.2,0
						c12.9,0,25.2,0,36.6,0h0.1l0.1,0.1c3,3,5.8,5.9,8.5,8.6l-0.4,0.2c0-3,0-5.9,0-8.6v-0.2l0.2,0c0.6,0,1.2,0,1.7-0.1
						c0.5-0.1,1.1-0.3,1.5-0.6c0.9-0.6,1.6-1.6,1.9-2.6c0.1-0.5,0.2-1.1,0.2-1.6c0-0.6,0-1.1,0-1.7c0-1.1,0-2.2,0-3.3
						c0-4.3,0-8.5,0-12.3c0-7.7,0-14.5,0.1-20.1c0-2.8,0-5.3,0-7.4c0-1.1,0-2.1,0-3c-0.1-0.9-0.4-1.7-0.8-2.3
						c-0.9-1.2-2-1.7-2.7-1.9C254.3,270.9,253.9,270.9,253.9,270.9z"/>
				</g>
			</g>
		</g>
		<g>
			<g>
				<path class="st7" d="M241.5,317.6H215c-4.2,0-7.7-3.4-7.7-7.7v-19.9c0-4.2,3.4-7.7,7.7-7.7h26.5c4.2,0,7.7,3.4,7.7,7.7V310
					C249.2,314.2,245.8,317.6,241.5,317.6z"/>
			</g>
			<g>
				<path class="st1" d="M225.5,307.8c-1.1,0.6-2.4-0.2-2.4-1.4V300v-6.3c0-1.3,1.4-2,2.4-1.4l5.5,3.2l5.5,3.2
					c1.1,0.6,1.1,2.2,0,2.8l-5.5,3.2L225.5,307.8z"/>
			</g>
		</g>
	</g>
</g>
<g id="Speech_Bubble">
	<g>
		<g>
			<g>

					<ellipse transform="matrix(0.9078 -0.4195 0.4195 0.9078 0.7785 140.022)" class="st1" cx="318.8" cy="68.2" rx="35.6" ry="35.6"/>
			</g>
			<g>
				<g>
					<path class="st8" d="M354.4,68.2c0,0,0-0.2-0.1-0.6c0-0.4-0.1-1-0.1-1.7c0-0.4,0-0.8-0.1-1.2c0-0.5-0.1-1-0.2-1.5
						c-0.2-1.1-0.3-2.3-0.7-3.7c-0.6-2.8-1.9-6-3.9-9.4c-2-3.4-5-7-9-10.1c-4-3-9.1-5.6-14.9-6.6c-1.5-0.2-2.9-0.5-4.5-0.5
						c-0.8,0-1.5-0.1-2.3-0.1c-0.8,0-1.6,0.1-2.3,0.1c-0.4,0-0.8,0-1.2,0.1l-1.2,0.2c-0.8,0.1-1.6,0.2-2.4,0.4
						c-1.6,0.4-3.2,0.7-4.7,1.4c-1.6,0.5-3.1,1.3-4.6,2c-0.7,0.4-1.5,0.9-2.2,1.3c-0.8,0.4-1.4,0.9-2.1,1.5c-1.4,1-2.7,2.2-4,3.4
						c-1.2,1.3-2.4,2.6-3.5,4.1c-2.1,2.9-3.9,6.2-5.1,9.7c-1.2,3.5-1.8,7.3-1.8,11.2c0.1,3.8,0.7,7.6,1.8,11.2
						c0.3,0.9,0.6,1.8,1,2.6c0.4,0.8,0.8,1.7,1.2,2.5c0.2,0.4,0.4,0.8,0.7,1.2l0.7,1.2l0.7,1.2l0.8,1.1c1,1.5,2.3,2.8,3.5,4.1
						c1.3,1.2,2.6,2.4,4,3.4c0.7,0.5,1.4,1.1,2.1,1.5c0.7,0.4,1.5,0.9,2.2,1.3c1.5,0.7,3,1.5,4.6,2c1.5,0.6,3.2,1,4.7,1.4
						c0.8,0.2,1.6,0.3,2.4,0.4l1.2,0.2c0.4,0.1,0.8,0,1.2,0.1c0.8,0,1.6,0.1,2.3,0.1c0.8,0,1.5-0.1,2.3-0.1c1.5,0,3-0.3,4.5-0.5
						c5.8-1,10.9-3.6,14.9-6.6c4-3,7-6.6,9-10.1c2-3.4,3.3-6.7,3.9-9.4c0.4-1.4,0.6-2.6,0.7-3.7c0.1-0.5,0.2-1,0.2-1.5
						c0-0.5,0.1-0.9,0.1-1.2c0-0.7,0.1-1.3,0.1-1.7C354.4,68.4,354.4,68.2,354.4,68.2s0,0.2,0,0.6c0,0.4,0,1-0.1,1.7
						c0,0.4,0,0.8-0.1,1.3c0,0.5-0.1,1-0.2,1.5c-0.2,1.1-0.3,2.3-0.7,3.7c-0.6,2.8-1.9,6.1-3.9,9.5c-2,3.5-5,7.1-9,10.2
						c-4,3.1-9.1,5.7-15.1,6.7c-1.5,0.2-3,0.5-4.5,0.5c-0.8,0-1.6,0.1-2.3,0.1c-0.8,0-1.6-0.1-2.4-0.1c-0.4,0-0.8,0-1.2-0.1
						l-1.2-0.2c-0.8-0.1-1.6-0.2-2.4-0.4c-1.6-0.4-3.2-0.7-4.8-1.4c-1.6-0.5-3.1-1.3-4.7-2c-0.8-0.4-1.5-0.9-2.2-1.3
						c-0.8-0.4-1.5-1-2.2-1.5c-1.5-1-2.7-2.2-4.1-3.5c-1.2-1.3-2.5-2.6-3.5-4.2l-0.8-1.1l-0.7-1.2l-0.7-1.2
						c-0.3-0.4-0.5-0.8-0.7-1.2c-0.4-0.8-0.8-1.7-1.2-2.5c-0.3-0.9-0.6-1.8-1-2.7c-1.2-3.6-1.8-7.4-1.9-11.3
						c0.1-3.9,0.7-7.7,1.9-11.3c1.1-3.6,3-6.9,5.1-9.9c1-1.5,2.3-2.8,3.5-4.2c1.3-1.2,2.6-2.5,4.1-3.5c0.7-0.5,1.4-1.1,2.2-1.5
						c0.8-0.4,1.5-0.9,2.2-1.3c1.6-0.7,3.1-1.5,4.7-2c1.6-0.6,3.2-1,4.8-1.4c0.8-0.2,1.6-0.3,2.4-0.4l1.2-0.2c0.4-0.1,0.8,0,1.2-0.1
						c0.8,0,1.6-0.1,2.4-0.1c0.8,0,1.6,0.1,2.3,0.1c1.6,0,3,0.3,4.5,0.5c5.9,1.1,11,3.7,15.1,6.7c4,3.1,7,6.7,9,10.2
						c2,3.5,3.3,6.8,3.9,9.5c0.4,1.4,0.5,2.6,0.7,3.7c0.1,0.5,0.2,1,0.2,1.5c0,0.5,0,0.9,0.1,1.3c0,0.7,0,1.3,0.1,1.7
						C354.4,68,354.4,68.2,354.4,68.2z"/>
				</g>
			</g>
		</g>
		<g>
			<path class="st8" d="M312.3,82c1.7-0.2,2.8-0.4,3.2-0.9c0.4-0.4,0.7-1.6,0.7-3.4V66.3c0-1-0.1-1.7-0.2-2.1c-0.2-0.7-0.7-1-1.5-1
				c-0.2,0-0.3,0-0.5,0c-0.2,0-0.6,0.2-1.4,0.4v-0.7l1-0.3c2.8-0.9,4.7-1.6,5.8-2c0.4-0.2,0.7-0.3,0.9-0.3c0,0.1,0,0.2,0,0.4v17.1
				c0,1.8,0.2,2.9,0.7,3.4c0.4,0.5,1.4,0.8,3,0.9v0.7h-11.6V82z M316.1,50.1c0.5-0.5,1.1-0.7,1.8-0.7c0.7,0,1.3,0.2,1.8,0.7
				s0.7,1.1,0.7,1.8c0,0.7-0.2,1.3-0.7,1.7c-0.5,0.5-1.1,0.7-1.8,0.7c-0.7,0-1.3-0.2-1.8-0.7c-0.5-0.5-0.7-1.1-0.7-1.7
				C315.3,51.2,315.6,50.6,316.1,50.1z"/>
		</g>
		<g>
			<g>
				<path class="st1" d="M294.8,107.6c0,3.1-2.5,5.6-5.6,5.6c-3.1,0-5.6-2.5-5.6-5.6c0-3.1,2.5-5.6,5.6-5.6S294.8,104.5,294.8,107.6
					z"/>
			</g>
			<g>
				<g>
					<path class="st8" d="M294.8,107.6c-0.1,0,0-0.5-0.3-1.3c-0.2-0.8-0.8-2-2.1-3c-1.2-0.9-3.2-1.4-5.1-0.7c-1.9,0.7-3.5,2.7-3.5,5
						c0,2.4,1.6,4.4,3.5,5c1.9,0.7,3.9,0.2,5.1-0.7c1.2-0.9,1.8-2.1,2.1-3C294.8,108.1,294.7,107.6,294.8,107.6c0,0,0,0.1,0,0.4
						c0,0.2,0,0.6-0.1,1c-0.2,0.9-0.7,2.2-2,3.2c-1.3,1-3.4,1.6-5.5,0.9c-1-0.4-2-1.1-2.7-2c-0.7-1-1.1-2.2-1.1-3.5
						c0-1.3,0.4-2.5,1.1-3.5c0.7-1,1.7-1.7,2.7-2c2.1-0.8,4.2-0.1,5.5,0.9c1.3,1,1.8,2.3,2,3.2c0.1,0.4,0.1,0.8,0.1,1
						C294.8,107.5,294.8,107.6,294.8,107.6z"/>
				</g>
			</g>
		</g>
	</g>
</g>
</svg>
