<svg version="1.1" id="Layer_1" xmlns="http://www.w3.org/2000/svg" x="0" y="0" viewBox="0 0 500 500" style="enable-background:new 0 0 500 500" xml:space="preserve"><style>.st0{fill:#e6e6e6}.st2{fill:#f0f0f0}.st3{fill:#f5f5f5}.st4{fill:#fff}.st7{fill:#407bff}.st9{fill:#263238}.st10{fill:#ff8b7b}.st11,.st12{opacity:.2;enable-background:new}.st12{opacity:.1;fill:#fff}.st14{fill:#ffc3bd}.st17{fill:#e0e0e0}.st18{fill:#ebebeb}</style><g id="Background_Complete"><circle class="st0" cx="83.3" cy="144" r="42.1"/><path d="M108.6 141.2h-.3c1.9 0 3.5-1.4 3.7-3.3.3-2.2-1.5-4.2-3.7-4.2h-1.9l-12.6-1.2c-1.5-.1-2.5-1.5-2.3-2.9.2-1.6.4-3.5.4-5.3.1-4.4-2.8-9.9-6.9-7.9-1.7.8-.7 6.3-1.5 8.5S75.1 133.5 73 138c-1.3.5-2.1 1.8-2.1 3.2v16.3c0 .9.4 1.8 1 2.5l1.8 1.8c1.2 1.2 2.9 1.9 4.6 1.9H104.2c1.9 0 3.5-1.4 3.7-3.3.3-2.2-1.5-4.2-3.7-4.2h2.8c1.9 0 3.5-1.4 3.7-3.3.3-2.2-1.5-4.2-3.7-4.2h1.7c1.9 0 3.5-1.4 3.7-3.3.2-2.3-1.5-4.2-3.8-4.2z" style="fill:#fafafa"/><path class="st2" d="M66.2 163.9h-9.8c-1.2 0-2.2-1-2.2-2.2v-23.6c0-1.2 1-2.2 2.2-2.2h9.8c1.2 0 2.2 1 2.2 2.2v23.6c.1 1.2-.9 2.2-2.2 2.2zM377.9 129.5c-.1-9.5-7.8-17.2-17.3-17.2-2.3 0-4.5.5-6.5 1.3-3.4-7-10.6-11.8-18.8-11.8-10 0-18.4 7-20.5 16.4-9.4.6-16.9 8.4-16.9 18 0 10 8.1 18 18 18h57.4c7.1 0 12.8-5.7 12.8-12.8 0-5.4-3.4-10.1-8.2-11.9z"/><path class="st3" d="M412.7 384.6c0-5.8-4.8-10.5-10.6-10.5-1.4 0-2.7.3-4 .8-2.1-4.3-6.5-7.2-11.5-7.2-6.1 0-11.2 4.3-12.5 10-5.8.4-10.3 5.2-10.3 11 0 6.1 4.9 11 11 11H410c4.3 0 7.8-3.5 7.8-7.8 0-3.3-2.1-6.2-5.1-7.3zM169.2 77.8c0-5.8 4.8-10.5 10.6-10.5 1.4 0 2.8.3 4 .8 2.1-4.3 6.5-7.2 11.5-7.2 6.1 0 11.3 4.3 12.5 10.1 5.8.4 10.3 5.2 10.3 11 0 6.1-5 11.1-11.1 11.1h-35c-4.3 0-7.8-3.5-7.8-7.8 0-3.5 2.1-6.3 5-7.5z"/><g><path class="st2" d="M12.9 200.5h42.3c4.9 0 8.8 4 8.8 8.8V242.9l-8.2-8.2h-43c-4.9 0-8.8-4-8.8-8.8v-16.5c.1-4.9 4.1-8.9 8.9-8.9z"/><path class="st4" d="M14.4 212.6h40c.8 0 1.5-.7 1.5-1.5s-.7-1.5-1.5-1.5h-40c-.8 0-1.5.7-1.5 1.5s.7 1.5 1.5 1.5zM14.4 219.4h40c.8 0 1.5-.7 1.5-1.5s-.7-1.5-1.5-1.5h-40c-.8 0-1.5.7-1.5 1.5s.7 1.5 1.5 1.5zM28 226.2h26.4c.8 0 1.5-.7 1.5-1.5s-.7-1.5-1.5-1.5H28c-.8 0-1.5.7-1.5 1.5s.7 1.5 1.5 1.5z"/></g><g><path class="st3" d="M481.8 101.8h-48.4c-5.6 0-10.1 4.5-10.1 10.1v30.6l9.4-9.4h49.1c5.6 0 10.1-4.5 10.1-10.1v-11.1c0-5.6-4.5-10.1-10.1-10.1z"/><path class="st0" d="M480.1 115.6h-45.7c-.9 0-1.7-.8-1.7-1.7 0-.9.8-1.7 1.7-1.7h45.7c.9 0 1.7.8 1.7 1.7 0 1-.8 1.7-1.7 1.7zM464.6 123.4h-30.1c-.9 0-1.7-.8-1.7-1.7 0-.9.8-1.7 1.7-1.7h30.1c.9 0 1.7.8 1.7 1.7-.1.9-.8 1.7-1.7 1.7z"/></g></g><g id="Character_1"><path class="st4" d="M202.5 332.8c0 35.8-21.6 66.5-52.5 79.9-6.2 2.7-12.8 4.7-19.7 5.9-4.8.8-9.8 1.3-14.8 1.3-1.7 0-3.4 0-5.1-.2-5.9-.3-11.7-1.3-17.3-2.7-37.2-9.9-64.7-43.8-64.7-84.1 0-48 39-87 87-87s87.1 38.9 87.1 86.9z"/><path class="st9" d="M140.6 288c-9.8-3.6 2.3-21.2-15.5-29.3-18.2-8.3-36.6 2.8-33.2 12.2-6 1.7-7.6 16.2-.3 22.9-2.3 3-3.8 6.8-3.8 10.9 0 9.2 6.9 16.8 15.8 17.8h.2c.6.1 1.2.1 1.9.1 1 0 2-.1 3-.3 1-.2 1.9-.4 2.8-.7 3.4-1.2 6.3-3.3 8.4-6.1 2.1 2.7 4.9 4.8 8.1 5.9.2.1.4.2.7.2.8.3 1.6.5 2.4.6 1 .2 1.9.2 3 .2 1.4 0 2.8-.2 4.2-.5 7.9-1.9 13.8-9 13.8-17.4 0-7.4-4.7-13.9-11.5-16.5z"/><path class="st10" d="M100.1 339c0-.8-.1-1.5-.2-2.5-.3-3.5-3.3-6.1-6.8-5.9-3.3.2-5.8 2.7-6.2 5.8v4.9c0 1.2 0 2.5-.1 3.8-.1 2-.3 4-.5 6-.1.5-.1 1.1-.2 1.6-.7 5.1-1.7 10.1-3.1 15-.3 1.2-.8 2.4-1.2 3.7-.4 1.2-.9 2.4-1.3 3.6l-.5 1.4c-.1.3-.2.5-.2.6-.2 0-.4-.1-.6-.2-.8-.4-1.8-1-2.7-1.7-1.9-1.4-3.9-3.2-5.6-5l-.2-.1-.2-.2c-.9-.8-2.2-1-3.4-.5-1.6.7-2.4 2.7-1.7 4.3.6 1.3 1.1 2.4 1.8 3.5.1.2.2.4.3.5.8 1.3 1.6 2.5 2.6 3.8 1 1.2 2.1 2.4 3.6 3.6 1.5 1.1 3.3 2.3 6.1 2.7 1.4.2 3.1 0 4.6-.5 1.5-.5 2.7-1.4 3.7-2.3 1-.9 1.6-1.8 2.2-2.7.3-.4.5-.9.7-1.3l.3-.6c.1-.2.1-.3.2-.5 1.3-2.7 2.4-5.4 3.4-8.1l.6-1.8c.1-.3.2-.6.3-1 1.5-4.5 2.6-9.1 3.3-13.7 0-.2.1-.3.1-.5.1-.4.1-.8.2-1.2v-.1c0-.2.1-.4.1-.6.3-2.3.5-4.5.6-6.8 0-.4 0-.8.1-1.3 0-1.1.1-2.1.1-3.2-.1-1-.2-1.8-.2-2.5z"/><path class="st7" d="M93.1 324.7c9.6-4.4 15.9 14.6 14.2 30.3-13.6 1.9-25-6.3-25-6.3s-.4-18.9 10.8-24z"/><path class="st7" d="M87 334.3c-.1 9.5 1.3 28.7 7.6 67.8h51.8c-.8-19.1-.9-31.6 6.6-66.1 1.4-6.3-2.9-12.4-9.3-13.2-3.1-.4-6.6-.8-10.2-.9-8.7-.4-15.9-.7-23.5 0-4.8.4-9.9 1.2-13.9 1.9-5.2.8-9 5.2-9.1 10.5z"/><path class="st11" d="m142.6 341.6 8.7 2.5c-1.2 5.9-2.1 11.1-2.9 15.8-6.4-2.1-12.4-13.5-5.8-18.3z"/><path class="st10" d="m66.9 361.5-4.6-5.3c-1.2-1.4-3.6-1-4.2.7l-2.7 6.9c-.3.8-.2 1.8.4 2.5l4.7 5.9s3.8 4.7 9.1 5.1l2-5.6-4.7-10.2z"/><path class="st4" d="m105.6 342 1.2 1.9 2-1.1c10.4-6 17.5-12.6 20.8-16.1 1.3-1.4 1.9-3.2 1.6-5-7.7-.4-14.2-.5-21.2.1-2 .2-4 .4-6 .7-.1.1-.2.3-.4.4-1.6 2.4-4.6 8.9 2 19.1z"/><path class="st10" d="M127.1 296.3c-1.2 6.7-2.2 18.5 1.3 24.5.8 1.4.6 3.1-.6 4.3-3.3 3.4-10.2 9.8-20.3 15.7-5.7-8.8-3.5-14.3-2-16.4.4-.6 1-1.1 1.8-1.3 7.5-2.4 7.1-8.4 5.6-14.1l14.2-12.7z"/><path class="st11" d="m123.5 302.3-10.6 6.6c.4 1.4.7 2.8.8 4.2 2.5-.1 8.4-2.6 10-6.7.7-1.6.1-3.3-.2-4.1z"/><path class="st10" d="M128.2 275.6c3.2 12.3 4.7 17.4.7 25.5-6.1 12.2-21.9 13.4-28.6 2.4-6.1-10-10.2-28.3 0-36.9 10-8.5 24.7-3.3 27.9 9z"/><path class="st9" d="M119.4 270.8c2.1 8.6 11 13.4 11 13.4s3.8-6.7 1.2-13.4-12.2 0-12.2 0z"/><path class="st9" d="M125.6 276.7c-2.8 2.9-2.4 7.4-2.4 7.4s3.5-.2 5.4-2.8c1.9-2.6-3-4.6-3-4.6z"/><path class="st9" d="M125.8 274.5c-3.4 2.2-4.1 6.6-4.1 6.6s3.4.7 5.9-1.4c2.4-2.1-1.8-5.2-1.8-5.2zM94.9 271c-2.5 8 37.6 5.4 34-1.2-3.6-6.5-12.9-9.9-18.9-9.3-6 .6-13.2 4.8-15.1 10.5z"/><path class="st9" d="M96.4 268.9c-3.1.7-5.1 12.5-3.1 11.9 2-.6 13.9-14.2 3.1-11.9zM132.5 402.1s-.1.8-.3 2.3c-.4 2.7-1.1 7.7-1.9 14.2-4.8.8-9.8 1.3-14.8 1.3-1.7 0-3.4 0-5.1-.2-5.9-.3-11.7-1.3-17.3-2.7.5-5.7 1-10.1 1.2-12.5.2-1.5.2-2.3.2-2.3h38z"/><path class="st12" d="M132.5 402.1s-.1.8-.3 2.3c-.4 2.7-1.1 7.7-1.9 14.2-4.8.8-9.8 1.3-14.8 1.3-1.7 0-3.4 0-5.1-.2-5.9-.3-11.7-1.3-17.3-2.7.5-5.7 1-10.1 1.2-12.5.2-1.5.2-2.3.2-2.3h38z"/><path class="st9" d="M147.4 404.4c1 2.5 1.9 5.3 2.6 8.3-6.2 2.7-12.8 4.7-19.7 5.9-4.8.8-9.8 1.3-14.8 1.3-1.7 0-3.4 0-5.1-.2-.9-7-1.5-12.4-1.8-15.3-.2-1.5-.3-2.3-.3-2.3h38.1c.3.7.7 1.5 1 2.3z"/><path class="st12" d="M147.4 404.4c1 2.5 1.9 5.3 2.6 8.3-6.2 2.7-12.8 4.7-19.7 5.9-4.8.8-9.8 1.3-14.8 1.3-1.7 0-3.4 0-5.1-.2-.9-7-1.5-12.4-1.8-15.3-.2-1.5-.3-2.3-.3-2.3h38.1c.3.7.7 1.5 1 2.3z"/><path class="st9" d="M110 285.6c.3 1 .1 1.9-.6 2.1-.6.2-1.4-.4-1.7-1.4s-.1-1.9.6-2.1c.6-.2 1.3.4 1.7 1.4zM98.9 289.1c.3 1 .1 1.9-.6 2.1-.6.2-1.4-.4-1.7-1.4s-.1-1.9.6-2.1c.6-.2 1.4.5 1.7 1.4z"/><path class="st9" d="m97.5 287.7-2.6.1s1.8 1.4 2.6-.1z"/><path d="M102.8 289.5s-.3 4.8-1.5 7.4c1.7.8 3.7-.5 3.7-.5l-2.2-6.9z" style="fill:#ff5652"/><path class="st9" d="M112 298.1c-.5.3-1 .5-1.6.7-.2.1-.3 0-.4-.2-.1-.2 0-.3.2-.4 4.3-1.4 5.3-5 5.3-5.1 0-.2.2-.3.4-.2.2 0 .3.2.2.4 0 .2-.9 3.1-4.1 4.8z"/><path class="st10" d="M133 283.5c.3 2.6-.7 5.1-2.1 6.7-2.1 2.5-5 1.1-5.9-1.9-.8-2.6-.8-7.1 2-8.5 2.9-1.3 5.7.8 6 3.7z"/><path class="st9" d="M112.7 279.7c-.2 0-.3 0-.5-.1-2.1-1.7-4.2-.9-4.3-.9-.3.1-.7-.1-.8-.4-.1-.3.1-.7.4-.8.1 0 2.8-.9 5.4 1.1.3.2.3.6.1.8 0 .2-.2.2-.3.3zM93.8 287c-.1.1-.3.1-.4 0-.3-.1-.5-.5-.4-.8 1.1-3.2 3.8-3.9 3.9-3.9.3-.1.7.1.7.4s-.1.7-.4.7c-.1 0-2.2.6-3 3.1-.2.3-.3.5-.4.5z"/><path class="st10" d="M157.8 352.7c-.5-2.8-1.1-5.7-1.8-8.4-.2-1-.5-1.9-.7-2.9-.7-2.5-1.3-5-2-7.5-.4-1.2-.7-2.4-1.2-3.7-1.1-3.3-4.6-5.2-8-4.2-3.5 1-5.5 4.6-4.5 8.1v.1c.7 2.6 1.5 5.3 2.3 8.1l.6 2.4c.5 2.1 1.1 4.3 1.6 6.4.3 1.4.7 2.8 1 4.2.2 1.1.5 2.2.7 3.3.5 2.5 1 4.9 1.3 7.4.1.5.1 1 .2 1.5.3 1.8.5 3.7.6 5.5-.4 0-.8-.1-1.2-.2-.2 0-.4-.1-.5-.1-2.9-.7-6.1-1.7-9.3-2.9-3.1-1.2-6.3-2.5-9.5-3.8-3-1.3-6-2.6-9-4-.1-.1-.3-.1-.4-.2h-.1c-1.4-.6-3-.2-3.9 1-1.1 1.4-.8 3.5.7 4.5.4.3.8.6 1.2.8 2.5 1.8 5.1 3.5 7.7 5.2 3 1.9 6.1 3.7 9.4 5.4 3.3 1.6 6.6 3.2 10.4 4.5.9.3 1.8.5 2.8.8 1.1.3 2.4.5 3.8.5 1.3 0 2.9 0 5-.8 1-.5 2.2-1.2 3.1-2.3.9-1.1 1.5-2.3 1.8-3.5.1-.4.2-.8.2-1.2v-.2c.1-8.4-.9-16.1-2.3-23.8z"/><path class="st7" d="M141.3 322.5c10.5 1.2 13.4 4.4 18.8 19.2-11.3 7.8-22.4 12.6-22.4 12.6s-8.7-33.2 3.6-31.8z"/><path class="st9" d="m147.2 399 1.3 4.6c.2.4-.2.7-.8.7H94.3c-.5 0-.9-.2-.9-.5l-.5-4.6c0-.3.4-.6.9-.6h52.5c.4 0 .7.2.9.4z"/><path class="st9" d="M140.1 404.9h1.4c.3 0 .5-.1.5-.3l-.7-6c0-.2-.3-.3-.5-.3h-1.4c-.3 0-.5.1-.5.3l.7 6c0 .1.2.3.5.3z"/><path class="st12" d="M140.1 404.9h1.4c.3 0 .5-.1.5-.3l-.7-6c0-.2-.3-.3-.5-.3h-1.4c-.3 0-.5.1-.5.3l.7 6c0 .1.2.3.5.3z"/><path class="st9" d="M98.3 404.9h1.4c.3 0 .5-.1.5-.3l-.7-6c0-.2-.3-.3-.5-.3h-1.4c-.3 0-.5.1-.5.3l.7 6c0 .1.2.3.5.3z"/><path class="st12" d="M98.3 404.9h1.4c.3 0 .5-.1.5-.3l-.7-6c0-.2-.3-.3-.5-.3h-1.4c-.3 0-.5.1-.5.3l.7 6c0 .1.2.3.5.3z"/><path class="st9" d="M119.2 404.9h1.4c.3 0 .5-.1.5-.3l-.7-6c0-.2-.3-.3-.5-.3h-1.4c-.3 0-.5.1-.5.3l.7 6c0 .1.2.3.5.3z"/><path class="st12" d="M119.2 404.9h1.4c.3 0 .5-.1.5-.3l-.7-6c0-.2-.3-.3-.5-.3h-1.4c-.3 0-.5.1-.5.3l.7 6c0 .1.2.3.5.3z"/><path d="M108.1 369.9H97.7c-1 0-1.9-.7-2.1-1.7l-5.2-21.7c-.3-1.1.5-2.1 1.6-2.1h10.3c1 0 1.9.7 2.2 1.7l5.2 21.7c.3 1.1-.5 2.1-1.6 2.1z"/><path class="st9" d="M106.8 369.9H96.5c-1 0-1.9-.7-2.2-1.7l-5.2-21.7c-.3-1.1.5-2.1 1.6-2.1H101c1 0 1.9.7 2.2 1.7l5.2 21.7c.3 1.1-.4 2.1-1.6 2.1z"/><path class="st10" d="m119.1 367.5-.3-5.3-7.4-8.4c-1.1-1.2-2.6-2.1-4.2-2.4l-4.8-.9c-1.7-.3-3.2 1-3.2 2.7l.2 6.8c0 1.1.7 2 1.7 2.4l8.4 3.5c2.3 1.3 6.4 3.1 9.6 1.6z"/><path class="st9" d="m108.5 284.1-2.6.1c.1 0 1.9 1.5 2.6-.1z"/><path class="st7" d="M115.5 420.4c-48.3 0-87.6-39.3-87.6-87.6s39.3-87.6 87.6-87.6 87.6 39.3 87.6 87.6-39.3 87.6-87.6 87.6zm0-174c-47.6 0-86.4 38.8-86.4 86.4 0 47.6 38.8 86.4 86.4 86.4s86.4-38.8 86.4-86.4c0-47.6-38.8-86.4-86.4-86.4z"/></g><g id="Character_2"><path class="st4" d="M495.4 248.2c0 41.2-28.6 75.6-67 84.7-6.4 1.5-13.1 2.3-20 2.3-14.6 0-28.4-3.6-40.5-10-27.7-14.6-46.5-43.6-46.5-77 0-48 39-87 87-87s87 38.9 87 87z"/><path class="st9" d="M405.3 185.8c-10.7-5.6-17 8.3-14.4 18 2.6 9.7 9.3 15.9 9.3 15.9s10.2-14.7 10.2-21.6c.1-8.6-1.1-10.2-5.1-12.3z"/><path class="st9" d="M399.1 215.8c-.3-2.1-6.5-.8-5 1.5s5.2-.5 5-1.5z"/><path class="st9" d="M398.6 216.1c-2-.9-4.2 5.1-1.4 5.1 2.8-.1 2.3-4.7 1.4-5.1zM402.3 188.2c-5-4.9 6.6-9.2 17.9-7.2 11.3 2 14.9 11.9 11 16.7-3.2 3.9-22.8-3.5-28.9-9.5z"/><path class="st9" d="M401.9 185.2c1.8-1.2-2.1-6.3-3.5-3.9-1.5 2.4 2.6 4.5 3.5 3.9zM435 280.1c0 1.1-.1 2.3-.1 3.4 0 .6-.1 1.3-.1 1.9-.1 1.7-.2 3.5-.3 5.3 0 .8-.1 1.5-.2 2.3v.3c-.1.8-.1 1.6-.2 2.4-.3 2.9-.6 6-1 9.1-1 8.5-2.6 17.9-4.7 28.1-6.4 1.5-13.1 2.3-20 2.3-14.6 0-28.4-3.6-40.5-10 .7-5.7 1.6-13.1 2.3-21.6.4-4.6.8-9.6 1-14.9v-1.2c.1-1.3.1-2.6.2-3.9 0-.8 0-1.6.1-2.4 0-1.1.1-2.2.1-3.3V272.3c0-2.1 0-4.2-.1-6.3v-.1c-.1-5.5-.4-11.1-.9-16.7 0-.3 0-.7-.1-1-.3-2.8.7-5.5 2.3-7.5 1.8-2.2 4.4-3.6 7.4-3.8h.2c1.4-.1 2.8-.1 4.3-.2 1.3 0 2.7-.1 4.1 0H391.9c.8 0 1.7 0 2.6.1.7 0 1.5 0 2.2.1 4.2.2 8.8.4 12.7.8.3 0 .5 0 .8.1 1.5.1 2.9.3 4.2.5.2 0 .5.1.7.1 1 .2 2.1.3 3.1.5.2 0 .3.1.5.1 1.6.3 3.2.7 4.7 1 5.1 1.3 8.9 2.5 8.9 2.5v.1c.1.5 1 4.2 1.8 10.8.5 4.5.9 10.5 1 17.8.1 2.6 0 5.7-.1 8.9z"/><path class="st14" d="M453.8 304.1c-.1-1.6-.3-2.6-.6-3.6-.5-2.1-.9-3.3-1.4-4.8l-2.6-8.7-5.3-17.5c-1.8-5.8-3.6-11.7-5.5-17.5l-16.3 5c1.7 6 3.5 11.8 5.5 17.7 1.9 5.9 4 11.7 6.1 17.5.1.3.2.7.4 1l-5.5 4.9c1.6 2.9 3.4 5.5 5.5 8.1 1.1 1.3 2.1 2.6 3.5 3.9.7.7 1.4 1.3 2.5 2 .5.4 1.1.7 2 1.1.2.1.5.2.8.3l.4.1.6.1c.7.1 1.9.3 3.4 0l1.2-.3c.4-.2.9-.4 1.3-.6.8-.5 1.6-1.2 2.1-1.8 1.1-1.5 1.4-2.5 1.7-3.5.4-1.7.3-2.6.2-3.4z"/><path class="st9" d="M420.8 248.7c-4.4 9.8 9.5 38 9.5 38l18.9-5.2s.7-16.8-6.3-28.8c-7.2-12.4-17.2-14.8-22.1-4z"/><path class="st7" d="M421.8 241.3c-.5-1.3-1.6-2.2-3-2.5-.2 0-.3-.1-.5-.1-1-.2-2-.4-3.1-.5-6.9-1.1-18.6-1.5-26.3-1.6l2.4 2.9c3.3 3.9 9.3 11.1 20.7 12.5.9.1 1.7.2 2.4.2 4.4 0 6.4-1.9 7.3-3.4 1.3-2.3 1-5.1.1-7.5z"/><path class="st11" d="m382.1 261.6-10.5 4.1v.3c.1 6.1.1 12-.1 17.7 10.9-4.6 11.1-18.2 10.6-22.1z"/><path class="st14" d="M399 221.1c.4 5.9-.6 12.2-5.1 16.3-.4.3-.4.9-.1 1.3 4 4.7 9.3 9.8 18.5 11 9.5 1.2 8.7-5.3 6.5-9.1-.1-.2-.3-.3-.5-.4-7.7-2.7-6.8-8-5.9-13.8.2-1.2-.4-2.4-1.5-3l-8.6-4.4c-1.6-.9-3.4.3-3.3 2.1z"/><path class="st11" d="m412.4 226.7-9.3-.3c.1.4.3.9.5 1.3 1.3 3 4.8 5.5 8.6 6.8-.6-2.4-.2-5.1.2-7.8z"/><path class="st14" d="M401.2 198.7c-3.2 10.7-5.6 16.8-2.2 24.1 5 11 19.7 10.9 26 1.3 5.7-8.6 9.9-24.7 1.2-32.6-8.6-7.7-21.8-3.6-25 7.2z"/><path class="st9" d="M398.7 209c7.6 4 17.8-22.6 6.9-22.6-11-.1-10.5 20.7-6.9 22.6z"/><path class="st14" d="M393.2 204.3c-.1 3 1.2 5.8 2.9 7.6 2.6 2.7 4.8.7 5.7-2.8.8-3.1 1.3-8-2-9.4-3.4-1.4-6.5 1.2-6.6 4.6z"/><path class="st9" d="M415.5 206.9c-.3.9-.1 1.7.4 1.9.6.2 1.3-.3 1.6-1.2.3-.9.1-1.7-.4-1.9-.6-.2-1.3.3-1.6 1.2zM426 211c-.3.9-.1 1.7.4 1.9.6.2 1.3-.3 1.6-1.2.3-.9.1-1.7-.4-1.9-.5-.2-1.3.3-1.6 1.2z"/><path d="M422.5 210.2s.1 5.6 1.4 8.8c-2 .9-4.4-.7-4.4-.7l3-8.1z" style="fill:#ed847e"/><path class="st9" d="M417.2 220.6c-3.2-1.3-4.2-4-4.2-4.2 0-.1 0-.3.2-.3.1 0 .3 0 .3.2 0 0 1.1 3.2 5 4.2.1 0 .2.2.2.3 0 .1-.2.2-.3.2-.4-.1-.8-.2-1.2-.4zM415.1 202.8c-.1 0-.1-.1-.2-.2-.2-.2-.1-.6.2-.7 2.5-1.6 4.7-.6 4.8-.6.3.1.4.4.3.7-.1.3-.4.4-.7.3-.1 0-1.8-.8-3.8.5h-.6zM432.4 209.2c-.2-.1-.3-.2-.3-.4-.2-2.3-1.9-3.3-2-3.3-.3-.1-.4-.5-.2-.7.1-.3.5-.4.7-.2.1.1 2.3 1.2 2.6 4.1 0 .3-.2.6-.5.6-.1 0-.3 0-.3-.1z"/><path class="st14" d="M407.9 275c-3.8 1.6-7.7 3.4-11.5 4.9-3.9 1.6-7.7 3.2-11.6 4.6-3.8 1.4-7.7 2.8-11.4 3.6-.8.2-1.6.4-2.4.5.3-1.2.7-2.5 1.1-3.7 1.2-3.6 2.7-7.2 4.3-10.7 1.7-3.5 3.6-7.1 5.6-10.5 1-1.7 2-3.5 3.1-5.1l1.6-2.5c.5-.8 1.1-1.7 1.5-2.4l-13.8-10c-.8 1.1-1.4 1.9-2.1 2.9-.6.9-1.2 1.9-1.8 2.8-1.2 1.9-2.4 3.8-3.5 5.8-2.2 3.9-4.2 8-6 12.2-1.8 4.2-3.3 8.6-4.5 13.2-.6 2.3-1.1 4.6-1.4 7-.1.6-.2 1.2-.2 1.8l-.1.9v.5l-.1.8c-.1 1.1 0 2.4.3 3.9.4 1.5 1.2 3.3 2.5 4.7 1.3 1.4 2.8 2.3 4.1 2.8 1.4.5 2.4.7 3.5.8 2 .2 3.5 0 5-.2 2.8-.4 5.1-1.2 7.4-2 4.4-1.6 8.5-3.5 12.4-5.6 7.8-4.1 15.1-8.7 22.2-13.8l-4.2-7.2z"/><path class="st9" d="M378.4 237.3c-10.7 1.4-19.3 32.7-19.3 32.7l21.5 7s3.3-6.7 9.9-18.9c7.3-13.3.9-22.5-12.1-20.8z"/><path class="st14" d="m420.6 269.3-5.4-.3c-1-.1-1.9.3-2.6.9l-7.8 6.7 3.1 6.1c4.6 3.2 12.2-4 12.2-4l2.8-.7c2.2-.5 3.2-3.1 1.9-4.9l-1.6-2.4c-.7-.8-1.6-1.4-2.6-1.4z"/><path class="st4" d="m427.3 295.6-9.1-1.4c-.9-.1-1.5-1.1-1.1-2l9-21.5c.3-.6.9-1 1.6-.9l9.1 1.4c.9.1 1.5 1.1 1.1 2l-9 21.5c-.3.7-.9 1-1.6.9z"/><path class="st7" d="m428.5 295.8-9.1-1.4c-.9-.1-1.5-1.1-1.1-2l9-21.5c.3-.6.9-1 1.6-.9l9.1 1.4c.9.1 1.5 1.1 1.1 2l-9 21.5c-.2.6-.9 1-1.6.9z"/><path class="st14" d="m436.8 293.5-9.4-11.4-5.3 11.7s3.1 4.4 8.3 5.1l6.4-5.4zM416.6 283.6l.6 3.9c.2 1.2.8 2.3 1.6 3.1l3.3 3.1 5.3-11.7-7.3-1.6c-2-.4-3.8 1.3-3.5 3.2z"/><path class="st9" d="M418.1 193.1c-3.1 6.8 17.6 14.9 17.6 5.3 0-9.7-16.2-8.5-17.6-5.3z"/><path class="st9" d="M405.2 189.1c-2.7 8.2 35 12.5 33.2 1.8-1.9-10.9-31.9-5.7-33.2-1.8z"/><path class="st9" d="M416.5 191.4c3.1 6.8 22.8-3.6 15.5-9.9-7.4-6.3-17 6.7-15.5 9.9z"/><path class="st7" d="M408.4 335.8c-48.3 0-87.6-39.3-87.6-87.6s39.3-87.6 87.6-87.6 87.6 39.3 87.6 87.6-39.3 87.6-87.6 87.6zm0-174c-47.6 0-86.4 38.8-86.4 86.4 0 47.6 38.8 86.4 86.4 86.4s86.4-38.8 86.4-86.4-38.8-86.4-86.4-86.4z"/></g><g id="Messenger"><path class="st7" d="M178.9 173.3h-1.3V158c0-10.6 8.6-19.2 19.2-19.2v1.3c-9.9 0-18 8.1-18 18v15.2zM177.6 182.8h1.3v9.9h-1.3z"/><path class="st4" d="M327 433.7H196.9c-8.3 0-15-6.8-15-15V158c0-8.3 6.8-15 15-15H327c8.3 0 15 6.8 15 15v260.6c0 8.3-6.7 15.1-15 15.1z"/><path class="st7" d="M327 434.3H196.9c-8.6 0-15.7-7-15.7-15.7V158c0-8.6 7-15.7 15.7-15.7H327c8.6 0 15.7 7 15.7 15.7v260.6c-.1 8.7-7.1 15.7-15.7 15.7zM196.9 143.6c-7.9 0-14.4 6.5-14.4 14.4v260.6c0 7.9 6.5 14.4 14.4 14.4H327c7.9 0 14.4-6.5 14.4-14.4V158c0-7.9-6.5-14.4-14.4-14.4H196.9z"/><path class="st7" d="M327 143H196.9c-8.3 0-15 6.8-15 15H342c0-8.2-6.7-15-15-15z"/><path class="st4" d="M206.4 150.5c0 2.5-2 4.6-4.6 4.6-2.5 0-4.6-2-4.6-4.6s2-4.6 4.6-4.6c2.6.1 4.6 2.1 4.6 4.6zM324.2 150.5c0 .6-.5 1-1 1s-1-.5-1-1c0-.6.5-1 1-1 .6 0 1 .5 1 1zM324.2 154.2c0 .6-.5 1-1 1s-1-.5-1-1c0-.6.5-1 1-1 .6 0 1 .5 1 1z"/><circle class="st4" cx="323.2" cy="146.8" r="1"/><path d="M243.2 152.7h-30.4c-1.2 0-2.2-1-2.2-2.2 0-1.2 1-2.2 2.2-2.2h30.4c1.2 0 2.2 1 2.2 2.2-.1 1.2-1 2.2-2.2 2.2z" style="opacity:.2;fill:#fff;enable-background:new"/><path class="st7" d="M327.2 214.1h-81.7c-3 0-5.4-2.4-5.4-5.4v-29.9c0-3 2.4-5.4 5.4-5.4h81.7c3 0 5.4 2.4 5.4 5.4v29.9c0 3-2.4 5.4-5.4 5.4z"/><path class="st17" d="M278.4 244.4h-81.7c-3 0-5.4-2.4-5.4-5.4v-10.5c0-3 2.4-5.4 5.4-5.4h81.7c3 0 5.4 2.4 5.4 5.4V239c0 3-2.5 5.4-5.4 5.4zM278.4 354.3h-81.7c-3 0-5.4-2.4-5.4-5.4v-59.8c0-3 2.4-5.4 5.4-5.4h81.7c3 0 5.4 2.4 5.4 5.4v59.8c0 3-2.5 5.4-5.4 5.4z"/><path class="st7" d="M327.2 383.7h-32.7c-3 0-5.4-2.4-5.4-5.4v-10.5c0-3 2.4-5.4 5.4-5.4h32.7c3 0 5.4 2.4 5.4 5.4v10.5c0 3-2.4 5.4-5.4 5.4z"/><path class="st4" d="M313.6 371.6c0 1.5-1.2 2.7-2.7 2.7s-2.7-1.2-2.7-2.7c0-1.5 1.2-2.7 2.7-2.7s2.7 1.2 2.7 2.7zM304.5 373c0 1.5-1.2 2.7-2.7 2.7-1.5 0-2.7-1.2-2.7-2.7 0-1.5 1.2-2.7 2.7-2.7 1.5 0 2.7 1.2 2.7 2.7zM322.7 374.4c0 1.5-1.2 2.7-2.7 2.7-1.5 0-2.7-1.2-2.7-2.7s1.2-2.7 2.7-2.7c1.5 0 2.7 1.2 2.7 2.7z"/><path class="st7" d="M327.2 274.7h-81.7c-3 0-5.4-2.4-5.4-5.4v-10.5c0-3 2.4-5.4 5.4-5.4h81.7c3 0 5.4 2.4 5.4 5.4v10.5c0 3-2.4 5.4-5.4 5.4z"/><circle class="st7" cx="196.2" cy="419.3" r="5"/><circle class="st17" cx="211.2" cy="419.3" r="5"/><circle class="st18" cx="226.2" cy="419.3" r="5"/><path class="st18" d="M327.7 424.3h-40.6c-2.7 0-5-2.2-5-5 0-2.7 2.2-5 5-5h40.6c2.7 0 5 2.2 5 5-.1 2.8-2.3 5-5 5z"/><path class="st7" d="M181.8 398.4H342v1.3H181.8z"/></g></svg>