<?xml version="1.0" encoding="utf-8"?>
<!-- Generator: Adobe Illustrator 27.5.0, SVG Export Plug-In . SVG Version: 6.00 Build 0)  -->
<svg version="1.1" id="Layer_1" xmlns="http://www.w3.org/2000/svg" xmlns:xlink="http://www.w3.org/1999/xlink" x="0px" y="0px"
	 viewBox="0 0 1024 1024" style="enable-background:new 0 0 1024 1024;" xml:space="preserve">
<path style="fill:#07206E;" d="M868.788,726.886l0.166-0.771c0.498-2.164,2.136-7.335,3.796-8.696
	c1.203,0.252,1.652,0.415,2.482,1.332l-18.845,62.813l-0.486,0.123c-1.265-3.504,3.089-13.066,4.229-16.96
	c1.114-3.803,2.017-7.647,3.173-11.445c1.991-6.535,4.261-13.569,5.558-20.265c0.208-1.069,0.935-3.52,0.785-4.516
	C869.557,727.896,869.074,727.424,868.788,726.886z"/>
<path style="fill:#4934EB;" d="M788.636,866.548c2.358-0.887,6.425-0.289,9.025-0.273c7.251,0.04,14.503,0.07,21.755,0.079
	c4.25,0.007,8.982,0.313,13.152-0.548c1.237-0.255,1.313-0.069,2.458,0.354c-3.074,3.361-5.95,6.015-10.775,6.354
	c-5.614,0.393-11.371,0.287-17,0.305c-3.685,0.011-8.239,0.382-11.754-0.84c-1.475-0.514-2.771-1.541-3.926-2.563L788.636,866.548z"
	/>
<path style="fill:#010103;" d="M431.128,725.494l1.858,0.42l-0.496,19.305c-6.699,4.02-14.241,6.92-21.532,9.71l-0.398-1.179
	l14.635-20.899L431.128,725.494z"/>
<path style="fill:#ADD1F6;" d="M797.076,143.475c14.962,1.704,31.035,9.168,44.128,16.306c12.729,6.941,23.262,16.645,33.345,26.895
	c1.649,1.675,4.934,4.216,5.399,6.481c0.182,0.886-0.832,1.953-1.308,2.689c-0.63-0.082-1.328,0.052-1.891-0.246
	c-0.482-0.256-1.633-1.819-2.065-2.294c-2.102-2.314-4.207-4.634-6.435-6.828c-6.471-6.369-13.366-11.846-20.825-17.017
	c-10.78-7.474-22.041-13.317-34.499-17.445c-5.352-1.774-10.947-3.011-16.176-5.112
	C796.294,145.435,796.641,144.921,797.076,143.475z"/>
<path style="fill:#010103;" d="M632.163,717.997c-2.42-7.226-4.744-14.445-7.358-21.608c-3.158-8.649-7.67-18.322-8.931-27.438
	c-0.421-3.037-0.493-6.502,1.403-9.056c5.504,11.13,10.78,22.397,16.049,33.641c2.456,5.241,4.959,10.437,7.59,15.593
	c1.34,2.628,2.621,5.674,4.472,7.964l-0.888,0.91L632.163,717.997z"/>
<path style="fill:#4934EB;" d="M578.007,556.895l9.271,2.854c-11.473,14.452-23.721,26.678-43.029,28.805
	c-9.429,1.038-18.798-0.941-26.362-6.923c-6.662-5.268-10.181-13.214-13.604-20.78l8.207-2.693c0.041,2.984,0.289,5.392,1.761,8.061
	c3.13,5.681,8.614,9.842,14.8,11.653l0.95,0.274c7.232,2.155,17.404,0.814,24.514-1.57
	C564.303,573.294,573.401,566.244,578.007,556.895z"/>
<path style="fill:#ADD1F6;" d="M687.539,171.242c1.515-0.992,2.583-1.825,4.438-1.862c1.159-2.111,0.445-3.516,2.273-5.385
	c1.715-0.367,2.814-0.377,4.303,0.677c1.023,0.723,1.835,1.803,1.973,3.078c0.189,1.77-0.151,3.165-1.363,4.5
	c-1.36,1.499-3.022,1.393-4.912,1.147l-1.25-0.326l-1.97,0.505c-9.405,5.561-18.375,12.79-26.244,20.373
	c-29.851,28.767-45.467,70.658-46.267,111.695c1.027,0.993,1.902,1.891,2.684,3.106c0.098,1.321,0.09,2.112-0.682,3.25
	c-0.839,1.239-1.961,2.484-3.521,2.687c-1.348,0.176-2.232-0.232-3.237-1.091c-1.377-1.179-1.743-2.342-1.835-4.096
	c0.426-1.088,0.69-1.774,1.619-2.524c1.352-1.089,0.948-7.655,1.059-9.642c0.7-12.687,3.056-26.237,6.696-38.439
	c5.593-18.742,14.554-37.525,26.767-52.876c5.627-7.071,12.134-13.345,18.835-19.378
	C673.273,180.907,679.964,175.324,687.539,171.242z"/>
<path style="fill:#4934EB;" d="M873.896,202.181c2.379,1.067,4.388,3.046,6.316,4.751c3.17,2.801,6.313,5.633,9.489,8.426
	c5.824,5.121,11.909,9.97,17.604,15.228l-15.484,6.42l-23.889,10.537L873.896,202.181z"/>
<path style="fill:#4934EB;" d="M715.599,126.265l62.569,22.568c-5.877,6.237-14.149,11.196-20.897,16.583
	c-5.675,4.903-11.916,9.258-17.861,13.832c-2.305,1.773-4.624,4.444-7.27,5.584c-2.166-2.603-2.832-8.599-3.75-12.045
	c-2.601-9.763-5.148-19.546-7.83-29.287C718.972,137.73,716.869,132.117,715.599,126.265z"/>
<path style="fill:#FABCAC;" d="M573.044,521.215l1.637,34.21c1.025,0.842,2.082,1.106,3.326,1.47
	c-4.605,9.35-13.704,16.399-23.493,19.682c-7.109,2.385-17.281,3.726-24.514,1.57l-0.95-0.274c-6.186-1.812-11.67-5.973-14.8-11.653
	c-1.472-2.67-1.72-5.077-1.761-8.061c2.583-2.309,5.742-3.886,8.453-6.057c1.482-1.187,1.178-2.114,1.389-3.95
	c0.353,0.91,0.08,0.464,0.919,1.273c15.207-1.079,29.907-6.067,40.716-17.263c3.13-3.242,5.474-7.008,8.472-10.29L573.044,521.215z"
	/>
<path style="fill:#4934EB;" d="M70.011,685.789c7.65,2.691,15.507,4.518,23.228,6.954c11.524,3.635,22.933,7.727,34.489,11.243
	c10.996,3.345,23.292,5.589,33.409,11.17l-5.387-0.119l-0.527,0.463c-0.034,1.426,0.215,1.971,0.502,3.25l0.166,3.727
	c-1.349,2.471-0.417,6.789-0.284,9.67c0.436,9.404,0.995,18.776,2.016,28.14L70.011,685.789z"/>
<path style="fill:#4934EB;" d="M161.137,715.156c8.552,3.484,18.581,10.404,25.358,16.728c1.819,4.615,3.391,9.051,5.874,13.379
	c6.542,11.407,17.69,22.638,27.779,31.073l-3.806,7.149c-3.894,8.138-6.333,15.025-7.662,23.946
	c-8.997-8.122-17.644-16.619-26.638-24.744c-4.683-4.231-9.329-8.507-14.042-12.703c-3.021-2.691-6.663-5.275-8.993-8.595
	l-3.116-38.913l-0.166-3.727c-0.287-1.279-0.536-1.824-0.502-3.25l0.527-0.463L161.137,715.156z"/>
<path style="fill:#E43743;" d="M149.446,277.556c-2.062-8.523-1.849-16.779,2.858-24.47c4.258-6.959,11.433-12.211,19.446-14.011
	c4.181-0.939,9.162-0.938,13.25,0.304l0.91,0.267c8.387,2.545,14.924,8.087,18.967,15.835c3.594,6.888,3.841,14.742,1.707,22.14
	c-0.872,1.416-1.322,2.778-1.806,4.364l-0.486,0.997c-3.653,6.363-10.716,11.101-17.743,12.976l-0.799,0.205
	c-4.44,1.19-9.459,1.196-13.938,0.163c-8.516-1.964-16.129-7.919-20.772-15.206L149.446,277.556z"/>
<path style="fill:#DEEDFC;" d="M825.127,719.948l4.083,1.623c2.571,1.061,5.221,1.556,7.938,2.098
	c-2.207,10.663-5.782,20.982-8.85,31.415c-2.543,8.652-4.599,18.792-8.68,26.736l-1.272-0.417l-0.228-0.435
	c-2.028-4.338-2.997-9.83-4.432-14.435c-0.618-1.987-2.1-5.012-1.348-7.008l-0.685-0.483c-2.551-1.93-3.072-5.373-3.904-8.263
	c-1.398-4.861-2.563-9.478-3.035-14.529l1.165-0.835c1.773,0.392,3.456,0.74,5.272,0.851c7.056-1.774,8.977-9.873,13.331-14.444
	L825.127,719.948z"/>
<path style="fill:#4934EB;" d="M811.151,736.266c7.056-1.774,8.977-9.873,13.331-14.444l-12.143,37.704l-0.685-0.483
	c-2.551-1.93-3.072-5.373-3.904-8.263c-1.398-4.861-2.563-9.478-3.035-14.529l1.165-0.835
	C807.653,735.807,809.336,736.155,811.151,736.266z"/>
<path style="fill:#ADD1F6;" d="M469.525,879.037c-2.188-1.489-4.771-2.61-6.19-4.99c-1.17-1.962-0.849-5.954-0.209-8.039
	c0.368-1.201,1.525-2.121,2.542-2.768c1.275-0.811,2.81-1.572,4.331-1.705c4.824-0.421,9.934-0.061,14.788-0.06
	c9.674,0.003,19.347,0.003,29.021,0.006c30.165,0.01,60.334-0.049,90.499,0.211c9.599,0.083,19.196,0.157,28.796,0.202
	c4.528,0.021,10.209-0.59,14.599,0.437c1.971,2.277,2.942,4.336,2.772,7.419c-0.226,4.106-4.394,6.834-7.233,9.315L469.525,879.037z
	"/>
<path style="fill:#010103;" d="M403.697,277.792c-0.016-8.754-0.049-17.507-0.089-26.261c-0.018-3.693-0.769-9.396,0.612-12.781
	c1.224-0.717,1.157-0.776,2.529-0.48c0.299,0.41,0.689,0.767,0.898,1.23c1.039,2.297-0.129,33.374,0.025,38.404
	c10.132,0.003,21.301-1.303,29.069,6.701c2.731,2.816,4.781,6.356,5.256,10.299c1.02,8.466,0.375,17.65,0.382,26.186
	c0.015,15.924,0.029,31.85-0.034,47.775c-0.085,21.595-0.113,43.188-0.101,64.784c0.007,10.836,0.473,21.822,0.008,32.637
	c-0.241,5.609-2.332,11.205-6.532,15.087c-2.623,2.424-5.68,4.033-9.167,4.806c-8.018,1.777-18.282,0.723-26.509,0.738
	c-14.238,0.028-28.516,0.272-42.747,0.019l-1.603-3.785c14.383-0.177,28.77-0.175,43.153-0.255
	c5.962-0.034,11.925-0.069,17.887-0.11c3.398-0.024,8.052,0.475,11.087-1.249l0.682-0.416c3.525-2.111,5.936-4.299,8.155-7.809
	l-75.392-73.294l-33.089,32.477c0.027,2.012,1.839,4.839,2.786,6.625c-3.146-0.909-6.552-0.639-9.802-0.645
	c-5.107-0.008-10.211-0.006-15.317-0.003l-10.897,0.21l17.219-40.975l15.367,33.258c2.509-3.538,5.909-6.529,8.965-9.597
	c5.082-5.102,10.168-10.2,15.255-15.297l9.732-10.32c17.845,17.139,35.186,34.761,53.021,51.914
	c7.639,7.346,15.204,15.465,23.542,21.957l0.333-4.696c0.479-37.208,0.158-74.463,0.198-111.677
	c0.013-12.491,0.024-24.982,0.029-37.474c0.003-6.463,0.455-13.33-0.176-19.75c-0.363-3.712-2.11-7.046-4.768-9.621
	c-2.282-2.213-6.09-4.159-9.255-4.622c-6.666-0.975-14.377-0.217-21.175-0.212c-15.266,0.011-30.53,0.026-45.795,0.04
	c-50.876,0.045-101.797-0.541-152.665,0.377c0.484-1.586,0.934-2.948,1.806-4.364L403.697,277.792z"/>
<path style="fill:#010103;" d="M317.918,513.479c8.926-0.018,17.851-0.03,26.777-0.023c3.656,0.003,9.785-0.795,12.957,0.886
	c1.086,4.775,1.906,14.199-0.811,18.533c-0.976,1.557-2.08,2.183-3.739,2.858l-1.514,45.778c-5.341-2.491-9.641-7.842-13.787-11.933
	c-5.603-5.53-11.219-11.165-17.269-16.202l-0.111-0.106l-2.433-3.013c-1.09-1.238-1.807-1.763-3.443-2.141
	c-3.029-0.702-6.857-0.26-9.989-0.229c-8.646,0.088-17.649,0.725-26.259,0.113l-0.427-0.034c-0.933-3.955-1.684-8.182-3.302-11.91
	c-0.935-0.224-1.767-0.608-2.564-1.146c-2.067-1.393-3.15-3.524-3.516-5.937c-0.776-5.104-0.705-10.57,2.354-14.838
	c4.34-1.42,10.938-0.638,15.565-0.646C296.91,513.469,307.414,513.471,317.918,513.479z"/>
<path style="fill:#017DF6;" d="M274.568,536.057c2.696-0.53,5.73-0.268,8.488-0.278c5.436-0.019,10.871-0.04,16.307-0.058
	c17.829-0.055,35.941-0.727,53.738,0.012l-1.514,45.778c-5.341-2.491-9.641-7.842-13.787-11.933
	c-5.603-5.53-11.219-11.165-17.269-16.202l-0.111-0.106l-2.433-3.013c-1.09-1.238-1.807-1.763-3.443-2.141
	c-3.029-0.702-6.857-0.26-9.989-0.229c-8.646,0.088-17.649,0.725-26.259,0.113l-0.427-0.034
	C276.937,544.012,276.186,539.785,274.568,536.057z"/>
<path style="fill:#010103;" d="M213.754,833.861c9.785,13.506,23.28,22.454,35.866,33.015c1.734,1.455,5.224,5.425,7.247,6.09
	c2.109,0.607,3.589,2.125,5.383,3.311c1.455,0.962,3.021,1.628,4.374,2.754l42.492,0.066l3.35,0.154l30.063-0.112l126.997-0.102
	l173.716,0.027c34.03-0.062,68.06-0.471,102.09-0.461c23.371,0.006,46.737,0.447,70.108,0.359
	c14.892-0.056,29.808-1.609,44.672-1.471c2.328,0.022,3.656-0.25,5.526,1.258c0.586,1.444,0.447,2.039,0.132,3.5
	c-0.508,0.377-0.946,0.867-1.519,1.131c-1.97,0.907-7.32,0.367-9.629,0.411c-9.934,0.189-19.869,0.482-29.804,0.587
	c-37.644,0.396-75.313-0.091-112.96-0.035c-98.063,0.148-196.126,0.127-294.19,0.168c-55.232,0.023-110.461,0.087-165.692-0.012
	c-15.997-0.028-31.994-0.036-47.991-0.001c-8.355,0.018-16.896,0.41-25.234,0.038c-1.915-0.085-2.328-0.106-3.609-1.563
	c-0.112-1.837-0.222-2.081,0.773-3.724c2.275-0.81,5.771-0.364,8.213-0.36c6.726,0.01,13.834,0.523,20.511-0.22l0.546-0.066
	l49.599,0.253l0.315-5.075c-3.691-3.018-6.917-6.575-10.615-9.571c-7.004-5.675-14.775-10.668-21.286-16.912
	c-3.513-3.37-6.165-7.136-9.048-11.014C213.524,835.443,213.752,834.885,213.754,833.861z"/>
<path style="fill:#FFFFFF;" d="M256.867,872.966c2.109,0.607,3.589,2.125,5.383,3.311c1.455,0.962,3.021,1.628,4.374,2.754
	l-10.417,0.035L256.867,872.966z"/>
<path style="fill:#4934EB;" d="M115.686,795.858l92.755,22.126c-0.077,4.02,1.272,7.716,3.011,11.289
	c0.701,1.439,1.872,3.095,2.302,4.588c-0.002,1.023-0.23,1.582,0.395,2.423c2.883,3.878,5.535,7.643,9.048,11.014
	c6.511,6.244,14.282,11.237,21.286,16.912c3.698,2.996,6.924,6.553,10.615,9.571l-0.315,5.075l-49.599-0.253
	c-0.954-6.918-2.456-14.56-7.555-19.732c-6.206-6.298-16.357-9.821-24.282-13.379c-7.251-3.255-14.445-6.676-21.063-11.113
	c-9.876-6.622-18.357-15.112-25.963-24.202C122.469,805.574,118.745,801.036,115.686,795.858z"/>
<path style="fill:#010103;" d="M771.498,438.161l6.321-0.012c5.782,0.002,11.566,0.007,17.349,0.032
	c2.664,0.013,6.646-0.5,9.059,0.639l-0.287,7.923l-4.014,3.202c-0.783,1.443-0.605,3.449-0.433,5.064
	c0.301,2.81,2.418,3.077,4.352,4.597l0.542,3.144c0.244,3.882-1.781,4.966-4.04,7.5c-0.963,1.08-1.245,4.638-0.732,6
	c1.134,3.004,4.221,2.753,4.427,7.043c0.192,4.02-0.813,7.412-3.688,10.355c-1.984,2.031-4.439,3.153-7.209,3.682
	c-5.39,1.029-12.323,0.312-17.866,0.354c-13.824,0.105-27.652,0.26-41.477,0.096l-1.759-1.839c-2.8-3.03-5.01-6.718-7.392-10.074
	c-1.369-1.929-3.694-4.148-3.597-6.616c0.866-2.021,1.689-2.703,3.506-3.905l0.304-9.157c-1.814-0.796-4.466-1.75-5.539-3.513
	c-0.597-0.978-0.614-2.721-0.254-3.831c0.801-2.465,3.378-3.388,5.526-4.369l-0.277-16.31l25,0.144l6.246,0.023L771.498,438.161z"/>
<path style="fill:#FFFFFF;" d="M361.268,400.016l75.392,73.294c-2.22,3.511-4.63,5.698-8.155,7.809l-0.682,0.416
	c-3.035,1.724-7.689,1.225-11.087,1.249c-5.962,0.041-11.925,0.076-17.887,0.11c-14.384,0.08-28.77,0.078-43.153,0.255
	c-1.381-0.639-1.955-2.414-2.642-3.707c-2.253-4.249-4.393-8.564-6.71-12.777c-5.072-9.232-10.482-18.205-15.379-27.548
	c-0.947-1.786-2.759-4.613-2.786-6.625L361.268,400.016z"/>
<path style="fill:#1299FA;" d="M329.391,777.044c7.019,8.244,13.856,11.731,23.584,15.941
	c13.379,10.007,22.585,22.684,25.021,39.406c1.365,9.378,0.064,18.65-2.689,27.646l-40.462,0.609
	c0.123,4.486-0.54,12.344,2.527,15.817c1.025,1.161,3.697,2.077,5.157,2.675l-30.063,0.112l-13.604-52.631
	c2.633-5.895,6.859-11.69,10.249-17.224L329.391,777.044z"/>
<linearGradient id="SVGID_1_" gradientUnits="userSpaceOnUse" x1="-278.3902" y1="646.6314" x2="-430.4555" y2="698.4534" gradientTransform="matrix(1 0 0 -1 494 1430)">
	<stop  offset="0" style="stop-color:#0B09FF"/>
	<stop  offset="1" style="stop-color:#1857FE"/>
</linearGradient>
<path style="fill:url(#SVGID_1_);" d="M71.803,688.62l136.513,120.576l-0.761,7.132c-16.471-4.715-32.928-8.869-49.58-12.883
	c-14.138-3.408-28.448-6.869-42.902-8.598c-4.134-5.99-7.532-12.548-10.836-19.021c-10.805-21.17-18.121-43.671-25.408-66.234
	C76.562,702.574,73.852,695.707,71.803,688.62z"/>
<path style="fill:#FABCAC;" d="M305.846,438.47c5.106-0.003,10.21-0.005,15.317,0.003c3.25,0.006,6.655-0.265,9.802,0.645
	c4.897,9.343,10.307,18.315,15.379,27.548c2.316,4.214,4.457,8.528,6.71,12.777c0.686,1.293,1.261,3.068,2.642,3.707l1.603,3.785
	c3.169,6.183,6.909,12.814,4.718,19.981c-0.736,2.413-2.173,6.093-4.363,7.425c-3.172-1.681-9.301-0.883-12.957-0.886
	c-8.926-0.007-17.852,0.006-26.777,0.023c-10.504-0.008-21.008-0.01-31.511,0.012c-4.627,0.009-11.225-0.773-15.565,0.646
	c-0.974-0.315-1.747-0.593-2.592-1.179c-4.03-9.561-1.923-15.601,1.171-24.958l-0.811-0.72l1.64-0.284l1.201-2.496L271,483.902
	l-6.211-0.285l7.385-0.166c3.38-6.405,6.554-12.939,9.986-19.307c4.371-8.109,9.757-16.759,12.789-25.465L305.846,438.47z"/>
<path style="fill:#FDB404;" d="M305.846,438.47c5.106-0.003,10.21-0.005,15.317,0.003c3.25,0.006,6.655-0.265,9.802,0.645
	c4.897,9.343,10.307,18.315,15.379,27.548c2.316,4.214,4.457,8.528,6.71,12.777c0.686,1.293,1.261,3.068,2.642,3.707l1.603,3.785
	c3.169,6.183,6.909,12.814,4.718,19.981c-0.736,2.413-2.173,6.093-4.363,7.425c-3.172-1.681-9.301-0.883-12.957-0.886
	c-8.926-0.007-17.852,0.006-26.777,0.023c5.981-20.593,3.664-39.758-4.736-59.246c-2.171-5.036-5.879-9.912-7.201-15.194
	L305.846,438.47z"/>
<path style="fill:#FABCAC;" d="M277.87,547.967l0.427,0.034c8.61,0.611,17.613-0.025,26.259-0.113
	c3.131-0.031,6.959-0.474,9.989,0.229c1.637,0.378,2.353,0.902,3.443,2.141l2.433,3.013l0.111,0.106
	c6.05,5.037,11.665,10.672,17.269,16.202c4.147,4.091,8.446,9.441,13.787,11.933l-0.051,12.626
	c-0.509,9.107,1.079,19.539-6.227,26.363c-2.4,2.244-5.74,3.7-8.945,4.337c-4.438,0.882-9.406,0.595-13.933,0.612
	c-7.27,0.025-14.541,0.031-21.81-0.082l-18.068-0.269l-8.838-6.569c-2.012-1.023-4.847-2.931-5.633-5.153
	c-0.79-2.234,0.304-5.649,1.459-7.573c1.389-2.313,3.183-2.732,5.686-3.38c-1.811-1.13-3.389-2.544-5.015-3.919
	c0.043-1.714-0.322-3.278-0.029-5.018c0.61-3.625,2.583-6.311,5.553-8.375l0.512-0.349l-2.924-0.744
	c-0.88-0.157-1.645-0.366-2.452-0.766c-1.571-0.777-2.816-2.208-3.363-3.87c-0.924-2.808-1.095-8.27,1.552-10.131
	c1.855-1.304,3.566-1.574,4.681-3.671c-0.708-0.326-1.37-0.625-1.994-1.102c-1.704-1.301-3.421-3.033-3.744-5.227
	c-0.4-2.717-0.169-5.779,1.608-7.978C271.668,548.731,274.83,548.204,277.87,547.967z"/>
<path style="fill:#010103;" d="M273.904,564.918c3.89-1.411,9.602-0.943,13.819-1.098c7.863-0.289,15.775-0.854,23.641-0.739
	c0.782,1.08,1.358,1.695,2.489,2.46l-39.269,0.768L273.904,564.918z"/>
<path style="fill:#010103;" d="M323.779,600.509l-2.339,3.042c-10.426-0.292-20.973,0.218-31.404,0.428
	c-3.122,0.063-8.689,0.858-11.536-0.012c-0.56-0.171-1.626-1.202-2.147-1.587c3.211-0.866,7.304-0.596,10.647-0.673
	c7.583-0.175,15.167-0.288,22.75-0.426C314.33,601.198,319.291,601.497,323.779,600.509z"/>
<path style="fill:#010103;" d="M277.4,583.946c2.977-0.953,7.195-0.671,10.383-0.87c12.451-0.775,24.959-1.081,37.425-1.646
	l-3.295,2.959c-11.692-0.904-24.167,0.561-35.914,1.007c-1.884,0.072-5.204,0.48-6.999,0.019
	C278.713,585.343,277.687,584.21,277.4,583.946z"/>
<path style="fill:#E43743;" d="M273.717,618.528l29.659-0.51l-0.217,0.512c-1.023,2.34-2.368,4.146-4.133,5.97
	c0.584,0.61,0.81,0.638,1.597,0.867l-18.068-0.269L273.717,618.528z"/>
<path style="fill:#4934EB;" d="M320.532,553.376c6.05,5.037,11.665,10.672,17.269,16.202c4.147,4.091,8.446,9.441,13.787,11.933
	l-0.051,12.626c-0.509,9.107,1.079,19.539-6.227,26.363c-2.4,2.244-5.74,3.7-8.945,4.337c-4.438,0.882-9.406,0.595-13.933,0.612
	c-7.27,0.025-14.541,0.031-21.81-0.082c-0.787-0.229-1.013-0.257-1.597-0.867c1.765-1.824,3.11-3.63,4.133-5.97l0.217-0.512
	c5.085-0.113,11.772,0.056,15.614-3.732c2.807-2.768,2.4-7.093,2.45-10.736l2.339-3.042c1.402-0.977,3.132-2.266,3.979-3.767
	c0.824-1.46,1.182-5.027,0.602-6.586c-1.113-2.994-3.632-4.624-6.447-5.767l3.295-2.959l0.741-0.637
	c2.396-2.123,3.35-4.429,3.378-7.629c0.018-1.96-1.258-3.847-2.577-5.206c-3.255-3.352-8.581-2.433-12.897-2.418
	c-1.131-0.765-1.707-1.38-2.489-2.46l0.506-0.118l0.841-0.206c2.721-0.61,4.888-1.39,6.745-3.615
	C320.968,557.33,320.649,555.593,320.532,553.376z"/>
<path style="fill:#ADD1F6;" d="M780.877,781.396c1.68,0.935,3.914,0.576,5.786,0.522l28.036-0.154l3.647-0.361l1.272,0.417
	c7.998-0.162,15.991-0.049,23.989,0.023c3.878,0.034,8.52,0.543,12.294-0.157l0.486-0.123c4.423,1.204,7.973,2.508,10.498,6.693
	l0.697,1.494l0.254,0.56c1.37,3.205,1.503,7.847,0.107,11.03c-1.276,2.913-3.839,5.553-6.955,6.47
	c-1.557,0.457-3.224,0.811-4.843,0.584l-0.082,4.279c0.306,15.456,3.196,32.798-8.478,45.038c-3.476,3.645-7.592,6.472-12.401,8.054
	l-0.16,0.396c-1.146-0.424-1.221-0.609-2.458-0.354c-4.171,0.86-8.902,0.555-13.152,0.548c-7.252-0.009-14.504-0.039-21.755-0.079
	c-2.6-0.016-6.666-0.613-9.025,0.273c-5.995-0.813-13.251-5.58-17.524-9.701c-8.729-8.416-8.248-18.217-8.389-29.327
	c-0.082-6.507-0.121-13.014-0.264-19.52c-1.315-0.955-3.921-0.667-5.516-0.709c1.598-1.469,3.279-2.471,5.057-3.672
	c6.3-4.259,7.551-15.132,8.979-21.907C774.155,781.782,777.815,782.196,780.877,781.396z"/>
<path style="fill:#4934EB;" d="M856.065,812.673c-25.266,0.287-50.534,0.306-75.801,0.329c-4.184,0.005-8.367,0.008-12.551,0.011
	c-0.893,0.001-3.271,0.272-3.963,0.003c-0.261-0.101-0.44-0.344-0.661-0.516c-0.026-1.563-0.376-3.503,0.439-4.825
	c23.091,0.969,46.425,0.273,69.55,0.261c5.114-0.003,10.228-0.005,15.342-0.004c2.298,0,5.624-0.429,7.727,0.462L856.065,812.673z"
	/>
<linearGradient id="SVGID_00000055672624542352122730000009374685288348681884_" gradientUnits="userSpaceOnUse" x1="-275.744" y1="868.8008" x2="-337.0554" y2="793.325" gradientTransform="matrix(1 0 0 -1 494 1430)">
	<stop  offset="0" style="stop-color:#0A6BFC"/>
	<stop  offset="1" style="stop-color:#0B9FFE"/>
</linearGradient>
<path style="fill:url(#SVGID_00000055672624542352122730000009374685288348681884_);" d="M167.998,522.056l0.788-5.821
	l89.362,71.414c-5.038,12.688-10.465,25.212-15.495,37.909c-2.376,5.998-5.692,12.743-6.501,19.154
	c-0.423,0.693-0.775,1.358-1.343,1.942c-2.529,0.531-5.27,0.324-7.845,0.327c-5.413,0.003-10.789-0.138-16.192-0.452
	c-11.116,0.085-22.323-0.301-33.421-0.956c-4.957-0.292-10.111-0.152-14.93-1.439l-0.241-0.512
	C157.184,602.964,163.256,562.446,167.998,522.056z"/>
<path style="fill:#ADD1F6;" d="M173.346,524.579c2.348,2.797,3.743,6.136,5.477,9.32c3.661,6.725,7.203,13.497,10.724,20.297
	c10.147,19.593,20.27,39.203,30.306,58.852c5.326,10.429,10.373,21.588,16.299,31.664c-0.423,0.693-0.775,1.358-1.343,1.942
	c-2.529,0.531-5.27,0.324-7.845,0.327c-5.413,0.003-10.789-0.138-16.192-0.452c-11.116,0.085-22.323-0.301-33.421-0.956
	c-4.957-0.292-10.111-0.152-14.93-1.439l-0.241-0.512l43.214,0.934l28.343,0.435c-13.611-26.838-27.356-53.621-41.061-80.412
	c-4.431-8.662-8.906-17.315-13.215-26.038C177.294,534.154,174.393,529.348,173.346,524.579z"/>
<path style="fill:#017DF6;" d="M167.998,522.056l0.788-5.821l89.362,71.414c-5.038,12.688-10.465,25.212-15.495,37.909
	c-2.376,5.998-5.692,12.743-6.501,19.154c-5.926-10.076-10.973-21.235-16.299-31.664c-10.036-19.648-20.159-39.259-30.306-58.852
	c-3.521-6.8-7.063-13.572-10.724-20.297c-1.734-3.185-3.129-6.523-5.477-9.32c-0.351-1.264-0.778-1.147-1.846-1.834
	C170.36,522.012,169.332,522.15,167.998,522.056z"/>
<path style="fill:#FABCAC;" d="M739.958,688.55l4.339,10.2l1.262-0.788c1.099,3.112,2.245,5.841,4.002,8.655l7.416,17.273
	c2.691,5.422,4.487,11.552,6.336,17.305c4.382,13.634,8.019,26.03,7.666,40.517c-1.428,6.775-2.679,17.648-8.979,21.907
	c-1.777,1.201-3.459,2.203-5.057,3.672c-11.565,11.383-25.801,19.44-40.243,26.594c-15.405,7.631-31.201,14.127-47.281,20.197
	c-6.812,2.571-13.761,5.894-20.865,7.522c0.418-2.104,1.504-4.381,2.229-6.427c2.189-6.184,4.786-12.205,6.967-18.396
	c6.047-17.164,12.551-34.159,18.711-51.28c2.82-7.836,5.893-15.553,8.768-23.363c1.651-4.483,2.986-9.242,4.967-13.572l0.969-2.787
	l4.004-10.166c1.174-3.149,2.809-8.979,1.173-12.126c-1.34-2.577-4.577-3.823-7.228-4.632c2.161-0.643,4.538-2.801,6.32-4.156
	c3.335-2.536,6.68-4.982,10.195-7.26C716.612,700.321,728.287,694.438,739.958,688.55z"/>
<path style="fill:#010103;" d="M691.164,745.777c4.409-0.049,12.823-0.209,16.255,2.875l1.021,1.098l-0.444,1.227
	c-1.933,0.696-3.502-0.243-5.399-0.952c-3.959-1.479-8.214-1.513-12.4-1.46L691.164,745.777z"/>
<path style="fill:#B61618;" d="M773.635,703.627c3.557,0.696,7.383,4.422,9.452,7.372l0.499,0.742l-3.287,0.546
	C777.347,709.859,775.611,706.842,773.635,703.627z"/>
<path style="fill:#B61618;" d="M769.729,698.589c0.639,1.463,1.425,2.758,2.272,4.108l-19.022,5.053
	c-0.177-0.905-0.209-1.733-0.243-2.652l-0.175-1.052C757.76,701.059,763.835,699.496,769.729,698.589z"/>
<path style="fill:#FFFFFF;" d="M772.001,702.697l1.634,0.93c1.977,3.215,3.712,6.232,6.664,8.66l-4.584,1.463
	c-0.783,1.58-0.658,3.16-0.67,4.878c-6.089,1.204-12.599,2.232-18.068,5.263l-7.416-17.273l3.175-1.519
	c0.034,0.919,0.066,1.747,0.243,2.652L772.001,702.697z"/>
<path style="fill:#1299FA;" d="M788.616,709.726c3.132,0.395,4.914,1.065,6.94,3.569c3.627,4.482,4.967,10.747,6.823,16.109
	c0.439,1.27,1.142,3.839,1.933,4.846c0.299,0.382,1.091,0.747,1.543,0.903l0.024,0.262l-1.165,0.835
	c0.473,5.051,1.637,9.668,3.035,14.529c0.832,2.89,1.354,6.333,3.904,8.263l0.685,0.483c-0.752,1.996,0.729,5.021,1.348,7.008
	c1.435,4.604,2.403,10.097,4.432,14.435l0.228,0.435l-3.647,0.361l-28.036,0.154c-1.872,0.054-4.107,0.412-5.786-0.522
	c-3.063,0.8-6.722,0.386-9.898,0.315c0.353-14.486-3.284-26.883-7.666-40.517c-1.849-5.753-3.644-11.883-6.336-17.305
	c5.47-3.031,11.979-4.059,18.068-5.263c0.012-1.718-0.113-3.298,0.67-4.878l4.584-1.463l3.287-0.546L788.616,709.726z"/>
<path style="fill:#DEEDFC;" d="M780.877,781.396L768.563,737c0.791-1.425,1.322-1.787,2.688-2.557l1.75,0.018
	c2.911,3.171,3.66,9.744,4.806,13.859c3.112,11.172,5.976,22.367,8.857,33.599C784.791,781.973,782.557,782.331,780.877,781.396z"/>
<path style="fill:#0C517C;" d="M788.616,709.726c3.132,0.395,4.914,1.065,6.94,3.569c3.627,4.482,4.967,10.747,6.823,16.109
	c0.439,1.27,1.142,3.839,1.933,4.846c0.299,0.382,1.091,0.747,1.543,0.903l0.024,0.262l-1.165,0.835
	c0.473,5.051,1.637,9.668,3.035,14.529c0.832,2.89,1.354,6.333,3.904,8.263l0.685,0.483c-0.752,1.996,0.729,5.021,1.348,7.008
	c1.435,4.604,2.403,10.097,4.432,14.435l0.228,0.435l-3.647,0.361c-2.779-10.447-6.642-20.645-9.852-30.973
	c-1.749-5.627-3.564-11.246-5.201-16.906c-1.348-4.657-2.227-10.525-4.896-14.569c-3.582-1.438-11.816,2.349-15.779,3.154
	c-1.376,0.279-2.521,0.795-3.721,0.011l-0.205-3.854c0.012-1.718-0.113-3.298,0.67-4.878l4.584-1.463l3.287-0.546L788.616,709.726z"
	/>
<path style="fill:#1299FA;" d="M162.421,644.134c4.819,1.287,9.973,1.147,14.93,1.439c11.098,0.655,22.305,1.041,33.421,0.956
	c5.403,0.314,10.779,0.455,16.192,0.452c2.575-0.003,5.316,0.204,7.845-0.327l16.494,40.527l11.441,32.891l1.027,3.802l-0.572,1.59
	l1.911,0.854l1.111,3.421l4.334,12.348c1.044-0.691,1.006-1.593,1.337-2.762l26.157,83.672c3.691-4.309,6.685-10.144,9.8-14.975
	l1.263,1.375c-3.389,5.533-7.615,11.329-10.249,17.224l13.604,52.631l-3.35-0.154l-42.492-0.066
	c-1.353-1.126-2.919-1.792-4.374-2.754c-1.794-1.186-3.274-2.705-5.383-3.311c-2.023-0.665-5.513-4.635-7.247-6.09
	c-12.586-10.561-26.081-19.509-35.866-33.015c-0.43-1.493-1.601-3.148-2.302-4.588c-1.739-3.573-3.088-7.269-3.011-11.289
	c-0.145-0.771-0.42-1.044-0.886-1.656l0.761-7.132l0.364-1.765c1.329-8.921,3.768-15.809,7.662-23.946l3.806-7.149
	c-10.089-8.436-21.237-19.666-27.779-31.073c-2.483-4.328-4.055-8.764-5.874-13.379c0.185-2.54-0.068-5.103,0.174-7.662
	c0.629-6.643,2.837-12.832,6.677-18.29l0.436-0.607c1.648-2.46-1.217-4.662-2.763-6.539
	C177.595,682.493,166.754,665.06,162.421,644.134z"/>
<path style="fill:#ADD1F6;" d="M195.941,708.203c8.483,0.865,17.137,3.484,25.407,5.548c14.112,3.521,28.172,7.183,42.422,10.123
	l-0.572,1.59c-2.677,0.188-5.689-0.741-8.301-1.327c-5.814-1.303-11.558-2.815-17.326-4.304c-12.7-3.278-25.474-6.358-38.071-10.015
	l-4-1.041L195.941,708.203z"/>
<path style="fill:#DEEDFC;" d="M216.782,784.156l25.284,21.999c13.874,10.022,28.391,19.206,42.605,28.747
	c4.497,3.019,10.653,6.094,14.347,10.001l-1.795,1.493l-56.129-38.219l-1.07-0.764C235.12,803.696,217.599,789.577,216.782,784.156z
	"/>
<linearGradient id="SVGID_00000096737349912746007980000009736479067917645722_" gradientUnits="userSpaceOnUse" x1="-205.9029" y1="619.7308" x2="-199.6624" y2="621.2317" gradientTransform="matrix(1 0 0 -1 494 1430)">
	<stop  offset="0" style="stop-color:#D2FFE0"/>
	<stop  offset="1" style="stop-color:#F9FFEA"/>
</linearGradient>
<path style="fill:url(#SVGID_00000096737349912746007980000009736479067917645722_);" d="M270.554,742.086
	c1.044-0.691,1.006-1.593,1.337-2.762l26.157,83.672c3.691-4.309,6.685-10.144,9.8-14.975l1.263,1.375
	c-3.389,5.533-7.615,11.329-10.249,17.224l13.604,52.631l-3.35-0.154l-7.923-30.038l-3.97-2.662l1.795-1.493l1.232,0.506
	c0.372-1.613-0.391-3.436-0.796-5.034c-0.984-3.877-1.914-7.756-2.936-11.625C288.793,799.508,279.15,771.043,270.554,742.086z"/>
<path style="fill:#FFFFFF;" d="M149.446,277.556l1.594,3.564c-4.144,0.268-8.237,0.305-12.386,0.32
	c-2.164,0.009-5.178-0.309-7.215,0.438c-1.976,0.725-3.878,2.235-5.265,3.788c-2.419,2.712-3.845,5.715-4.242,9.334
	c-0.888,8.091-0.25,16.771-0.221,24.915c0.061,16.704,0.181,33.409,0.142,50.113c-0.05,21.741-0.194,43.48-0.191,65.221
	c0.002,9.888-0.739,20.541,0.191,30.329c0.208,2.193,1.256,4.168,2.24,6.103c17.547-17.725,35.118-35.41,52.869-52.932
	c4.218-4.163,8.422-8.341,12.631-12.514c2.085-2.066,4.214-4.586,6.576-6.31c4.3-4.786,9.328-9.074,13.854-13.665
	c1.026-1.04,2.883-3.689,3.977-4.24c0.381-0.191,0.833-0.178,1.25-0.267c5.462-5.372,10.923-10.745,16.378-16.124
	c3.02-2.977,6.792-6.046,8.975-9.695l3.98,0.12c18.283-0.64,36.644-0.445,54.938-0.457c4.857-0.004,9.715-0.01,14.571,0.057
	c2.396,0.034,5.764-0.241,7.917,0.912c6.623,8.179,15.021,15.208,22.633,22.474c5.723,5.462,11.114,11.251,16.846,16.707
	l-9.732,10.32c-5.087,5.097-10.173,10.194-15.255,15.297c-3.056,3.067-6.456,6.059-8.965,9.597l-15.367-33.258l-17.219,40.975
	c-3.032,8.706-8.418,17.355-12.789,25.465c-3.432,6.368-6.607,12.901-9.986,19.307l-7.385,0.166l6.211,0.285l0.451,0.598
	l-1.201,2.496l-1.64,0.284c-29.182,0.828-58.54,0.184-87.746,0.165c-9.062-0.006-18.123-0.017-27.185-0.038
	c-5.017-0.011-10.473,0.398-15.429-0.439c-4.39-0.743-8.197-2.72-11.492-5.674c-5.182-4.647-8.219-11.333-8.569-18.211
	c-0.595-11.677-0.155-23.602-0.172-35.301c-0.036-23.643,0.011-47.287,0.037-70.93c0.015-13.824-0.018-27.648-0.017-41.472
	c0-6.785-0.576-14.209,0.26-20.923c0.512-4.111,2.405-8.21,5.297-11.207C130.346,276.252,140.522,277.914,149.446,277.556z"/>
<path style="fill:#010103;" d="M149.446,277.556l1.594,3.564c-4.144,0.268-8.237,0.305-12.386,0.32
	c-2.164,0.009-5.178-0.309-7.215,0.438c-1.976,0.725-3.878,2.235-5.265,3.788c-2.419,2.712-3.845,5.715-4.242,9.334
	c-0.888,8.091-0.25,16.771-0.221,24.915c0.061,16.704,0.181,33.409,0.142,50.113c-0.05,21.741-0.194,43.48-0.191,65.221
	c0.002,9.888-0.739,20.541,0.191,30.329c0.208,2.193,1.256,4.168,2.24,6.103c17.547-17.725,35.118-35.41,52.869-52.932
	c4.218-4.163,8.422-8.341,12.631-12.514c2.085-2.066,4.214-4.586,6.576-6.31c4.3-4.786,9.328-9.074,13.854-13.665
	c1.026-1.04,2.883-3.689,3.977-4.24c0.381-0.191,0.833-0.178,1.25-0.267c5.462-5.372,10.923-10.745,16.378-16.124
	c3.02-2.977,6.792-6.046,8.975-9.695l3.98,0.12c-6.592,6.322-13.079,12.747-19.527,19.216c-3.512,3.523-7.518,7.031-10.536,10.978
	c0.301,1.119,0.973,1.74,1.722,2.59l46.181,44.305c6.973-6.989,41.729-44.667,47.505-46.562c-4.5,6.913-11.852,13.118-17.655,18.99
	c-9.98,10.101-20.073,20.229-29.439,30.905l-48.02-46.24l-1.564-1.606c-1.505,0.4-2.785,2.095-3.88,3.154
	c-2.884,2.791-5.739,5.613-8.638,8.389c-1.321,1.266-2.799,3.046-4.358,3.975l-70.569,70.422c3.115,4.446,7.281,7.816,12.753,8.782
	c5.022,0.886,11.097,0.318,16.219,0.319c10.411,0,20.822-0.003,31.233-0.006c17.763-0.007,35.526-0.018,53.289-0.028
	c8.417-0.005,17.103,0.467,25.49-0.022l6.211,0.285l0.451,0.598l-1.201,2.496l-1.64,0.284c-29.182,0.828-58.54,0.184-87.746,0.165
	c-9.062-0.006-18.123-0.017-27.185-0.038c-5.017-0.011-10.473,0.398-15.429-0.439c-4.39-0.743-8.197-2.72-11.492-5.674
	c-5.182-4.647-8.219-11.333-8.569-18.211c-0.595-11.677-0.155-23.602-0.172-35.301c-0.036-23.643,0.011-47.287,0.037-70.93
	c0.015-13.824-0.018-27.648-0.017-41.472c0-6.785-0.576-14.209,0.26-20.923c0.512-4.111,2.405-8.21,5.297-11.207
	C130.346,276.252,140.522,277.914,149.446,277.556z"/>
<path style="fill:#FDB404;" d="M244.583,356.056c18.283-0.64,36.644-0.445,54.938-0.457c4.857-0.004,9.715-0.01,14.571,0.057
	c2.396,0.034,5.764-0.241,7.917,0.912c6.623,8.179,15.021,15.208,22.633,22.474c5.723,5.462,11.114,11.251,16.846,16.707
	l-9.732,10.32l-32.751-27.646l-0.284,0.236c-3.239,2.37-5.856,5.201-8.792,7.924c-5.776,1.895-40.532,39.572-47.505,46.562
	l-46.181-44.305c-0.749-0.85-1.421-1.471-1.722-2.59c3.018-3.947,7.024-7.455,10.536-10.978
	C231.504,368.804,237.991,362.378,244.583,356.056z"/>
<path style="fill:#010103;" d="M477.704,372.512c2.315,4.711,5.267,9.105,10.546,10.831c3.555,1.162,8.498,0.546,11.992-0.561
	c3.478-1.101,6.838-3.089,10.133-4.669c5.444-2.612,10.934-5.098,16.625-7.133c21.56-7.711,51.518-7.059,64.053,15.645
	c2.01,3.64,2.703,7.121,3.34,11.174c9.533,3.123,15.397,9.346,19.991,18.084c8.049,15.314,4.852,35.148-0.36,50.881
	c-7.5,22.642-21.598,40.177-40.834,54.043l-0.146,0.408l-0.606,0.656c-2.998,3.282-5.342,7.048-8.472,10.29
	c-10.809,11.195-25.509,16.184-40.716,17.263c-0.839-0.81-0.566-0.363-0.919-1.273l0.227-6.045l-0.079-14.515
	c-5.26-1.64-10.244-3.229-14.875-6.306c-12.06-8.011-16.549-25.424-19.25-38.785c-1.33-6.581-1.176-13.332-0.916-20.011
	c0.205-5.338,0.388-10.661,1.336-15.93c-10.121-4.929-18.622-12.65-22.399-23.523c-2.669-7.685-3.077-16.605-1.559-24.556
	l0.179-0.985C466.806,387.923,472.346,380.385,477.704,372.512z"/>
<path style="fill:#FABCAC;" d="M496.987,427.036c10.253,7.666,24.086,8.353,36.409,6.578c13.816-1.99,26.884-6.958,40.096-11.255
	c4.854,10.563,8.002,22.096,10.438,33.433c4.298-1.622,7.651-2.307,12.089-0.29c2.727,1.239,4.584,3.703,5.49,6.498
	c1.109,3.418,0.82,8.878-0.931,12.003c-1.799,3.21-5.353,5.821-8.904,6.769c-2.677,0.714-6.071,0.492-8.809,0.318
	c-2.304,9.816-5.16,16.989-10.585,25.516c1.144,4.695,0.714,9.416,0.908,14.201l-0.146,0.408l-0.606,0.656
	c-2.998,3.282-5.342,7.048-8.472,10.29c-10.809,11.195-25.509,16.184-40.716,17.263c-0.839-0.81-0.566-0.363-0.919-1.273
	l0.227-6.045l-0.079-14.515c-5.26-1.64-10.244-3.229-14.875-6.306c-12.06-8.011-16.549-25.424-19.25-38.785
	c-1.33-6.581-1.176-13.332-0.916-20.011c0.205-5.338,0.388-10.661,1.336-15.93L496.987,427.036z"/>
<path style="fill:#010103;" d="M547.472,462.136c0.526,0.095,0.768,0.12,1.31,0.317c1.194,0.436,2.099,0.982,2.378,2.297
	c0.389,1.831-0.626,3.02-1.559,4.43c-1.709-0.486-2.188-0.483-3.395-1.855C546.033,465.259,546.635,464,547.472,462.136z"/>
<path style="fill:#010103;" d="M500.574,449.982c2.119-0.176,6.529-0.591,8.281,0.623c-0.026,1.348-0.01,1.338-0.89,2.355
	c-1.921-0.081-4.289-0.4-6.132,0.208L501,453.475c-1.09-0.764-1.141-0.693-1.442-1.975L500.574,449.982z"/>
<path style="fill:#010103;" d="M505.271,463.309c0.632,0.039,1.36,0.043,1.979,0.215c1.644,0.453,1.967,1.025,2.73,2.477
	c-0.196,2.221-0.403,2.517-1.772,4.298c-0.926-0.017-1.789-0.136-2.708-0.252c-0.925-0.766-1.4-1.036-1.625-2.296
	C503.544,465.901,504.38,464.8,505.271,463.309z"/>
<path style="fill:#010103;" d="M547.855,450.683c2.888,0.185,5.267,0.602,7.895,1.863c0.865,1.114,1.168,1.133,1,2.51l-1,0.416
	l-3.071-1.978c-3.069-0.802-6.633-0.853-9.689,0.021l-0.489,0.151L541.586,453l0.164-1.239
	C543.581,450.917,545.864,450.897,547.855,450.683z"/>
<path style="fill:#E43743;" d="M523.015,527.973l1.116,0.196c11.43,1.715,24.801-1.112,34.085-8.163
	c5.236-3.977,9.78-8.411,14.065-13.4c1.144,4.695,0.714,9.416,0.908,14.201l-0.146,0.408l-0.606,0.656
	c-2.998,3.282-5.342,7.048-8.472,10.29c-10.809,11.195-25.509,16.184-40.716,17.263c-0.839-0.81-0.566-0.363-0.919-1.273
	l0.227-6.045C523.464,537.619,523.017,532.547,523.015,527.973z"/>
<path style="fill:#4934EB;" d="M482.762,91.676c10.263-1.709,21.949,1.906,30.582,7.322c11.777,7.387,19.122,18.356,22.141,31.812
	c12.628-0.297,23.547-0.355,34.688,6.375c10.357,6.256,17.266,16.322,20.098,28.013c2.907,12.005,0.276,25.26-6.276,35.631
	c-6.08,9.623-15.571,14.823-26.409,17.366c-4.283,1.005-8.463,0.922-12.834,0.951c-5.805,0.039-11.61,0.053-17.416,0.052
	c-17.694-0.002-35.39-0.09-53.084-0.158c-13.13-0.006-26.26-0.015-39.391-0.033c-10.321-0.014-21.868,0.938-31.922-1.493
	c-11.582-2.801-21.741-9.838-27.881-20.123c-6.767-11.336-8.773-23.503-5.363-36.325c2.753-10.352,11.006-20.585,20.285-25.836
	c8.922-5.046,20.416-7.213,30.554-6.064c5.219,0.592,10.491,2.41,15.509,3.878c2.355-7.321,5.544-15.18,10.307-21.277
	C455.325,100.278,468.456,93.527,482.762,91.676z"/>
<path style="fill:#FFFFFF;" d="M487.42,126.636c6.013-0.724,13.041,0.55,18.123,4.021c5.153,3.519,9.017,9.473,10.207,15.577
	c1.352,6.938-0.151,14.286-4.185,20.106c-4.414,6.368-9.98,9.214-17.446,10.608c-6.093,0.308-11.568-0.223-16.841-3.597
	c-5.346-3.42-9.954-10.306-11.333-16.45c-1.404-6.257-0.02-13.844,3.503-19.16C473.69,131.34,480.05,128.039,487.42,126.636z"/>
<path style="fill:#FABCAC;" d="M258.148,587.648l1.385,0.893l10.681,9.962c1.626,1.375,3.204,2.789,5.015,3.919
	c-2.503,0.647-4.297,1.066-5.686,3.38c-1.155,1.924-2.249,5.339-1.459,7.573c0.786,2.223,3.621,4.13,5.633,5.153l8.838,6.569
	l18.068,0.269c7.269,0.113,14.54,0.107,21.81,0.082c4.526-0.018,9.494,0.269,13.933-0.612c3.205-0.637,6.545-2.093,8.945-4.337
	c7.306-6.824,5.718-17.256,6.227-26.363c0.362,1.21,0.715,2.318,1.329,3.428c3.237,5.855,4.564,13.74,6.41,20.139
	c3.65,12.658,7.436,25.193,11.248,37.797c1.237,4.095,1.965,8.377,3.326,12.412l-3.255,5.219l37.105,33.331
	c7.711,6.199,14.657,14.313,23.427,19.032l-5.933,7.356L410.56,753.75l0.398,1.179c-1.922,0.75-3.378,3.555-4.566,5.182
	c-5.227,7.154-10.885,16.06-17.309,22.036c-5.564,5.173-14.057,9.324-21.583,10.438l-0.824,0.129
	c-4.447,0.641-9.21,0.309-13.701,0.272c-9.728-4.21-16.565-7.696-23.584-15.941l-20.28,32.353l-1.263-1.375
	c-3.115,4.83-6.108,10.666-9.8,14.975l-26.157-83.672c-0.331,1.169-0.293,2.07-1.337,2.762l-4.334-12.348l-1.111-3.421l-1.911-0.854
	l0.572-1.59l-1.027-3.802l-11.441-32.891l-16.494-40.527c0.568-0.584,0.92-1.249,1.343-1.942c0.809-6.411,4.125-13.156,6.501-19.154
	C247.683,612.86,253.11,600.336,258.148,587.648z"/>
<path style="fill:#E43743;" d="M372.694,689.607c1.14,0.31,1.571,0.215,2.355,1.143c0.018,11.577-0.975,22.096-3.368,33.431
	c-1.094-0.211-1.01-0.045-1.843-0.931c0.342-4.623,1.579-9.107,1.974-13.721C372.38,702.908,372.005,696.229,372.694,689.607z"/>
<path style="fill:#F25B7E;" d="M407.701,706.462c7.711,6.199,14.657,14.313,23.427,19.032l-5.933,7.356
	c-5.16-5.884-9.522-12.034-13.885-18.514c-0.969-1.438-3.032-3.894-3.56-5.501C407.57,708.289,407.714,707.081,407.701,706.462z"/>
<path style="fill:#1299FA;" d="M295.746,671.966c2.232,5.431,3.35,11.698,4.934,17.376c3.698,13.262,7.763,26.445,11.317,39.741
	c2.169,8.116,4.413,16.202,6.718,24.281c1.417,4.967,2.704,10.476,4.863,15.175c1.154,2.512,3.031,4.79,4.673,7.005l-20.403,32.478
	c-3.115,4.83-6.108,10.666-9.8,14.975l-26.157-83.672l-3.121-8.879l-1.81-5.352c0.046-2.781,1.882-5.052,3.283-7.348
	c2.635-4.319,5.356-8.6,7.855-12.998c3.536-6.226,6.867-12.572,10.32-18.844C290.937,681.331,293.713,676.78,295.746,671.966z"/>
<path style="fill:#017DF6;" d="M258.148,587.648l1.385,0.893l10.681,9.962c1.626,1.375,3.204,2.789,5.015,3.919
	c-2.503,0.647-4.297,1.066-5.686,3.38c-1.155,1.924-2.249,5.339-1.459,7.573c0.786,2.223,3.621,4.13,5.633,5.153l8.838,6.569
	c2.942,5.127,4.162,11.604,5.611,17.299c2.333,9.173,4.489,18.651,7.314,27.676l0.266,1.893c-2.033,4.815-4.809,9.365-7.328,13.938
	c-3.453,6.272-6.784,12.617-10.32,18.844c-2.499,4.399-5.22,8.679-7.855,12.998c-1.401,2.296-3.237,4.566-3.283,7.348l1.81,5.352
	l3.121,8.879c-0.331,1.169-0.293,2.07-1.337,2.762l-4.334-12.348l-1.111-3.421l-1.911-0.854l0.572-1.59l-1.027-3.802l-11.441-32.891
	l-16.494-40.527c0.568-0.584,0.92-1.249,1.343-1.942c0.809-6.411,4.125-13.156,6.501-19.154
	C247.683,612.86,253.11,600.336,258.148,587.648z"/>
<path style="fill:#C4FFBF;" d="M258.148,587.648l1.385,0.893l-22.37,58.285l15.766,38.767l-1.626,1.589l-16.494-40.527
	c0.568-0.584,0.92-1.249,1.343-1.942c0.809-6.411,4.125-13.156,6.501-19.154C247.683,612.86,253.11,600.336,258.148,587.648z"/>
<path style="fill:#DEEDFC;" d="M264.192,717.454c0.372,1.153,0.59,2.285,1.558,3.089c4.161-5.34,7.514-11.762,10.854-17.646
	c6.228-10.972,12.139-22.155,18.876-32.824l0.266,1.893c-2.033,4.815-4.809,9.365-7.328,13.938
	c-3.453,6.272-6.784,12.617-10.32,18.844c-2.499,4.399-5.22,8.679-7.855,12.998c-1.401,2.296-3.237,4.566-3.283,7.348l1.81,5.352
	l3.121,8.879c-0.331,1.169-0.293,2.07-1.337,2.762l-4.334-12.348l-1.111-3.421l-1.911-0.854l0.572-1.59l-1.027-3.802l-11.441-32.891
	l1.626-1.589c2.784,7.485,5.732,14.946,8.304,22.504C262.255,711.1,263.663,714.336,264.192,717.454z"/>
<path style="fill:#FDB404;" d="M724.32,438.165l-1.767-0.415c-0.398-0.925-0.569-1.763-0.754-2.747
	c-3.102-16.588-7.549-31.938-15.753-46.75c-2.935-5.299-5.943-10.791-9.708-15.555c-5.176-6.549-10.901-11.977-15.411-19.141
	c-19.305-30.668-19.329-69.524,0.941-99.692c13.945-20.755,34.376-34.495,58.977-39.271c27.633-5.364,55.076-0.404,78.523,15.464
	c20.241,13.697,34.577,37.034,39.044,60.92c4.704,25.144-2.916,50.366-17.249,71.021c-3.551,5.117-7.604,9.87-11.158,14.986
	c-7.613,10.957-13.941,22.687-18.27,35.332c-1.881,5.495-3.356,11.054-4.767,16.683c-0.755,3.013-1.313,7.093-2.743,9.82
	c-2.412-1.139-6.395-0.626-9.059-0.639c-5.783-0.025-11.566-0.03-17.349-0.032l-6.321,0.012l-15.932,0.171l-6.246-0.023
	L724.32,438.165z"/>
<path style="fill:#FFFFFF;" d="M771.575,349.989c0.063-6.813-0.019-13.628,0.01-20.44c0.017-4.161-0.325-9.188,1.133-13.13
	c1.462-3.952,4.075-6.822,7.989-8.465c5.138-2.157,9.886-2.792,15.043-0.43c4.557,2.087,7.852,6.169,9.408,10.874
	c1.865,5.642,0.124,12.212-2.504,17.362c-5.233,10.256-14.722,14.983-25.115,18.499l0.28,83.891l-6.321,0.012l-15.932,0.171
	l-6.246-0.023l0.154-83.925c-5.045-2.531-10.778-5.013-15.225-8.526c-5.529-4.368-10.65-12.138-11.286-19.239
	c-0.468-5.23,0.501-10.953,4.242-14.869c3.179-3.328,6.86-5.088,11.435-5.258c4.408-0.165,8.398,1.23,11.605,4.309
	c2.016,1.936,3.807,4.69,4.499,7.419c0.867,3.415,0.549,7.761,0.583,11.301c0.064,6.661,0.094,13.322,0.12,19.983L771.575,349.989z"
	/>
<path style="fill:#FDB404;" d="M736.557,312.03l0.94-0.039c3.24-0.089,7.344,1.191,9.608,3.589
	c3.717,3.936,2.332,26.433,2.356,32.507l-5.592-2.747c-5.354-3.167-11.158-7.968-13.647-13.799
	c-1.745-4.091-2.17-9.169-0.401-13.339C731.323,314.662,733.042,313.412,736.557,312.03z"/>
<path style="fill:#FDB404;" d="M786.643,312.059l3.986-0.166c2.456,0.038,4.559,1.008,6.184,2.891
	c2.535,2.941,3.459,6.969,2.965,10.778c-1.037,7.97-6.409,13.684-12.534,18.307c-3.002,1.943-5.933,3.119-9.337,4.112
	c0.014-6.116,0.033-12.232,0.072-18.348c0.021-3.545-0.548-8.268,0.957-11.549C780.511,314.648,783.257,313.281,786.643,312.059z"/>
<path style="fill:#FDB404;" d="M755.565,355.526c5.314,0.701,10.691,0.521,16.041,0.489l-0.108,82.146l-15.932,0.171
	L755.565,355.526z"/>
<path style="fill:#FFFFFF;" d="M151.04,281.12c4.643,7.287,12.256,13.242,20.772,15.206c4.479,1.033,9.498,1.027,13.938-0.163
	l0.799-0.205c7.027-1.875,14.09-6.613,17.743-12.976l0.486-0.997c50.867-0.918,101.789-0.332,152.665-0.377
	c15.265-0.014,30.529-0.029,45.795-0.04c6.798-0.005,14.509-0.763,21.175,0.212c3.165,0.463,6.973,2.409,9.255,4.622
	c2.657,2.575,4.404,5.909,4.768,9.621c0.631,6.42,0.179,13.287,0.176,19.75c-0.005,12.492-0.017,24.983-0.029,37.474
	c-0.04,37.214,0.281,74.469-0.198,111.677l-0.333,4.696c-8.338-6.492-15.903-14.611-23.542-21.957
	c-17.835-17.153-35.176-34.775-53.021-51.914c-5.731-5.456-11.123-11.245-16.846-16.707c-7.612-7.266-16.01-14.295-22.633-22.474
	c-2.153-1.153-5.521-0.878-7.917-0.912c-4.855-0.067-9.714-0.061-14.571-0.057c-18.294,0.012-36.655-0.183-54.938,0.457l-3.98-0.12
	c-2.183,3.649-5.955,6.718-8.975,9.695c-5.455,5.379-10.916,10.752-16.378,16.124c-0.417,0.089-0.869,0.076-1.25,0.267
	c-1.094,0.551-2.951,3.199-3.977,4.24c-4.526,4.591-9.554,8.879-13.854,13.665c-2.362,1.724-4.491,4.243-6.576,6.31
	c-4.209,4.173-8.413,8.351-12.631,12.514c-17.751,17.522-35.322,35.206-52.869,52.932c-0.984-1.935-2.032-3.91-2.24-6.103
	c-0.93-9.788-0.189-20.441-0.191-30.329c-0.003-21.741,0.141-43.48,0.191-65.221c0.039-16.704-0.081-33.409-0.142-50.113
	c-0.029-8.144-0.667-16.824,0.221-24.915c0.397-3.619,1.823-6.622,4.242-9.334c1.387-1.553,3.289-3.063,5.265-3.788
	c2.037-0.747,5.051-0.429,7.215-0.438C142.803,281.425,146.896,281.388,151.04,281.12z"/>
<path style="fill:#010103;" d="M241.347,323.918l0.626-1.499c3.315-0.776,7.247-0.337,10.673-0.341
	c7.188-0.007,14.376,0.001,21.563,0.012c10.462,0.016,20.924,0.027,31.386,0.06c5.221,0.017,11.243-0.551,16.318,0.485l0.748,1.112
	c-3.291,1.586-46.308,0.395-54.912,0.415c-5.598,0.013-11.196,0.053-16.793,0.083C247.831,324.262,244.403,324.575,241.347,323.918z
	"/>
<path style="fill:#FABCAC;" d="M240.603,355.936c0.592-2.576,0.302-5.434,0.267-8.077c-0.099-7.408-1.22-16.799,0.477-23.941
	c3.056,0.657,6.484,0.344,9.609,0.327c5.597-0.03,11.195-0.07,16.793-0.083c8.604-0.02,51.621,1.171,54.912-0.415l-0.652,32.821
	c-2.153-1.153-5.521-0.878-7.917-0.912c-4.855-0.067-9.714-0.061-14.571-0.057c-18.294,0.012-36.655-0.183-54.938,0.457
	L240.603,355.936z"/>
<path style="fill:#FABCAC;" d="M177.751,313.207c6.45,0.184,11.277,1.331,16.422,5.379c6.122,4.816,11.554,11.746,12.407,19.708
	c0.822,7.675-1.26,16.218-6.131,22.285c-6.091,7.587-13.966,10.373-23.355,11.414c-4.79-0.413-8.818-1.186-13.126-3.412
	c-7.53-3.891-12.988-10.42-15.338-18.601c-2.247-7.825-0.558-16.302,3.533-23.23c3.515-5.952,9.285-10.377,15.986-12.133l0.85-0.214
	C171.892,313.629,174.776,313.446,177.751,313.207z"/>
<path style="fill:#1299FA;" d="M377.179,314.116c3.206-0.266,6.718-0.304,9.897,0.235c8.215,1.394,16.807,7.203,21.423,14.098
	c4.22,6.304,6.338,15.311,4.738,22.795L413.064,352c-1.01,4.56-2.646,8.854-5.265,12.75c-5.105,7.598-12.636,12.1-21.51,13.888
	c-8.524,0.618-15.917-0.616-23.089-5.434c-7.414-4.981-12.43-12.571-13.996-21.372c-1.389-7.809,0.47-16.781,4.9-23.299
	C359.78,320.182,367.427,315.966,377.179,314.116z"/>
<path style="fill:#4934EB;" d="M590.541,560.683c20.419,3.911,41.355,9.411,59.923,18.946c5.638,2.895,10.866,6.618,16.017,10.285
	c19.448,13.848,35.371,31.629,48.742,51.32l21.666,36.416c1.202,2.185,4.743,7.039,4.519,9.287l-1.449,1.612
	c-11.671,5.888-23.346,11.771-34.33,18.888c-3.516,2.277-6.86,4.724-10.195,7.26c-1.782,1.355-4.159,3.514-6.32,4.156
	c-4.261-1.209-8.91-0.924-13.311-0.952l-27.01,0.07l-1.937-3.936c-3.07-7.431-6.873-14.624-10.283-21.909
	c-2.915-6.224-15.565-36.004-19.572-38.572l-0.893,0.517c-0.393,2.024,0.526,3.925,1.17,5.825c-1.896,2.554-1.824,6.018-1.403,9.056
	c1.261,9.115,5.772,18.788,8.931,27.438c2.614,7.162,4.938,14.382,7.358,21.608c-27.422,0.099-54.844,0.082-82.267,0.036
	c-11.986-0.021-23.973-0.033-35.959-0.037c-5.618-0.002-13.804-1.094-19.028,0.832l-0.727,0.255
	c-3.718,1.37-6.779,4.206-8.346,7.862L443.64,860.106l-7.39,0.081c-1.192-1.173-0.915-3.259-1.214-4.89
	c-0.474-11.133-1.567-22.097-1.683-33.274c-0.445-42.832,2.566-85.562,4.305-128.333c0.433-10.645,0.844-21.279,1.408-31.919
	c0.176-3.325,1.641-12.103,0.184-14.74c-1.169-0.082-1.957-0.264-3,0.368c-0.701,1.942-0.481,4.311-0.545,6.369
	c-0.132,4.294-0.223,8.591-0.407,12.882c-0.849,19.759-1.714,39.492-2.312,59.264l-1.858-0.42
	c-8.77-4.719-15.716-12.833-23.427-19.032l-37.105-33.331l3.255-5.219c11.565-16.446,22.99-33.003,35.524-48.737
	c8.737-10.967,17.973-21.699,29.105-30.349c17.94-13.939,40.358-21.586,61.983-27.521c6.455,12.961,11.344,23.938,26.026,28.873
	c11.896,4,24.913,1.832,35.927-3.748C573.548,580.792,583.724,571.101,590.541,560.683z"/>
<path style="fill:#010103;" d="M675.802,717.901c3.239-3.031,8.882-5.219,12.729-7.673c5.303-3.383,10.014-7.587,15.313-10.966
	c8.916-5.683,18.342-10.641,27.344-16.236c1.016-0.633,4.461-2.315,5.063-3.181c0.298-0.429,0.479-1.646,0.639-2.195
	c1.202,2.185,4.743,7.039,4.519,9.287l-1.449,1.612c-11.671,5.888-23.346,11.771-34.33,18.888c-3.516,2.277-6.86,4.724-10.195,7.26
	c-1.782,1.355-4.159,3.514-6.32,4.156C684.852,717.645,680.202,717.93,675.802,717.901z"/>
</svg>
