<?xml version="1.0"?>
<svg xmlns="http://www.w3.org/2000/svg" viewBox="0 0 469.99 330.9"><defs><style>.cls-1{fill:#bdbafd;}.cls-2{fill:#c8c5fd;}.cls-3{fill:#b4b0fd;}.cls-4{fill:#4200dd;}</style></defs><g id="Calque_2" data-name="Calque 2"><g id="_04-_Hired" data-name="04- Hired"><path class="cls-1" d="M215.7,265.46c-57.62,50.45-15,75.77,13.58,55.28,6.89-4.94,15.48-11.71,24.78-19.36Z"/><path class="cls-1" d="M171.68,239.4c-57.61,50.45-15,75.77,13.59,55.28,6.88-4.94,15.47-11.72,24.77-19.37Z"/><path class="cls-1" d="M133.46,206.5c-67.2,42.06-27.79,75,4.76,58.74,7.85-3.92,17.74-9.43,28.51-15.71Z"/><path class="cls-1" d="M94.58,162.19c-74.36,27.49-42.47,67.74-7.3,58.47,8.48-2.23,19.29-5.61,31.11-9.57Z"/><path class="cls-2" d="M376.17,210.41c4.59,7.47,6.52,15.59,5.48,22.74-2.08,14.37-16.15,24.83-44.81,18.19h0c3.4,7.4,4.27,15.12,2.32,21.67-3.77,12.68-18.05,21.05-44.94,14.57h0c.88,6.7-.43,13.1-4.19,18.08-12.7,16.94-53.37,17.62-130.55-41.16,0,0-35.4-21.93-72.06-80.31L28.83,153.54a43.47,43.47,0,0,1-22.11-28C-1.21,93.43-4.18,31.69,80.39,9.74a43.67,43.67,0,0,1,29,2.51l87.34,39.53,36.66,15.16s116.31,57,161.13,86C425.33,172.88,424.41,218.18,376.17,210.41Z"/><path class="cls-1" d="M381.65,233.15c-29.2-10.11-73-27.57-96.09-47.85-36.53-32.13-5.16-25.12-5.16-25.12,42.54,32.39,74,46.73,95.77,50.23C380.76,217.88,382.69,226,381.65,233.15Z"/><path class="cls-1" d="M339.14,273c-35.47-9.73-75.32-32.7-95.35-51-23-21,3.13-19.75,3.13-19.75,38.86,29.59,68.46,44.11,89.9,49.06C340.22,258.73,341.09,266.45,339.14,273Z"/><path class="cls-1" d="M290,305.64c-24-10.37-56-30.17-80-46.47-30.65-20.87-4.89-20.48-4.89-20.48,38.34,29.18,67.67,43.72,89,48.87C295.06,294.26,293.75,300.66,290,305.64Z"/><path class="cls-1" d="M467,118.65A46.38,46.38,0,0,1,438.41,161l-26.64,11.18a48,48,0,0,0-17.3-19.2c-31.18-20.15-97-53.89-134.09-72.54-6.53-3.28-12.17-6.1-16.59-8.29-55,85.35-109.88,41.44-118.17,23.57-8.6-18.55,13.57-19.91,85.09-73.76C261.43-16.29,311.9,12.21,337,32l17.73-9.27a46.76,46.76,0,0,1,42.85-.17A179.42,179.42,0,0,1,420.41,36.3C458.63,63.41,467.13,95.29,467,118.65Z"/><path class="cls-3" d="M260.38,80.4c-6.53-3.28-12.17-6.1-16.59-8.29,2.09-3.27,8.17-16.28,10.27-19.94C254.06,52.17,272.43,31.86,260.38,80.4Z"/><path class="cls-3" d="M420.41,36.3,368,62.14l-14.7-15.33A144.82,144.82,0,0,0,337,32l17.73-9.27a46.76,46.76,0,0,1,42.85-.17A179.42,179.42,0,0,1,420.41,36.3Z"/><path class="cls-4" d="M398.92,19.92a49.83,49.83,0,0,0-45.59.19l-16,8.36C310.72,7.94,260.07-19,208.91,19.52,198,27.74,188.24,34.73,179.57,40.74l-69-31.22A46.78,46.78,0,0,0,79.64,6.84c-38,9.85-62.71,28.65-73.56,55.88-9.16,23-6.29,47.24-2.27,63.52a46.51,46.51,0,0,0,23.63,30L63.2,174.9c-14.36,10.68-20,23.27-15.14,34.29,4.33,9.8,16,15.8,29,15.79a42.82,42.82,0,0,0,11-1.42c5.37-1.41,11.89-3.34,19.36-5.72.78,1,1.56,2,2.33,2.92-15.3,14.74-20,29.88-12.5,40.86,4.81,7.06,13.7,10.82,23.54,10.82a42.54,42.54,0,0,0,18.78-4.52q3-1.49,6.3-3.25c-7.55,13.44-7.66,25.56,0,33.29,4.53,4.54,11.09,6.8,18.23,6.8a39.85,39.85,0,0,0,22.5-7.36c-6,15.12.2,23.67,3.65,27,4.57,4.37,10.95,6.53,17.87,6.53A39.9,39.9,0,0,0,231,323.18c3.3-2.37,7.06-5.21,11.16-8.42a83.09,83.09,0,0,0,23.37,3.84c9,0,15.18-2.13,19.32-4.53,8.2-4.76,12.65-12.9,12.58-22.72,24.37,4.81,35.47-3.35,40-8.85,5.82-7.08,7.25-16.95,4.11-27.15,23.9,4.06,34.38-4.65,38.6-10.51,5.94-8.25,6.34-19.65,1.35-30.75,1.82.15,3.55.23,5.2.23,20.83,0,27.78-11.53,29.92-17.09,2.78-7.24,2.27-15.55-.89-23.5l23.83-10A49.26,49.26,0,0,0,470,118.67C470.17,90.2,458,50,398.92,19.92ZM86.51,217.76c-15.76,4.15-29.14-2.33-33-11-3.94-8.93,1.74-19.35,15.6-28.75l16.13,8.43c6.17,9.79,12.29,18.53,18.21,26.33C97,214.83,91.28,216.51,86.51,217.76Zm50.37,44.79c-13.07,6.51-28.63,4.58-34.7-4.31-5.65-8.28-1.39-20.42,11.38-32.83a258.27,258.27,0,0,0,32.16,32.53C142.56,259.65,139.58,261.19,136.88,262.55Zm46.63,29.69c-12.73,9.14-27,7.94-33.38,1.49s-5.19-17.19,3.2-29.82c2.38,1.74,3.91,2.73,4.41,3q16.06,12.23,30.77,21.61Q185.75,290.65,183.51,292.24Zm44,26.06c-12.49,9-26.65,7.93-33.13,1.73-6.09-5.82-5.65-15.61,1.1-27.11,14.38,8.71,27.69,15.26,39.81,19.58C232.51,314.65,229.89,316.61,227.53,318.3ZM411,195.08c-4.11,10.72-16.64,15.23-34.38,12.37h0c-16.9-2.72-47-13.54-94.42-49.65a3,3,0,0,0-3.63,4.77c37.62,28.64,70.65,46.09,95.69,50.55,5.74,10.09,6.18,21,1,28.22-6.3,8.75-19.73,11.26-37.8,7.07h0C314,243,283.27,226.18,248.74,199.88a3,3,0,1,0-3.63,4.77c35,26.67,65.13,43.22,89.55,49.25,3.91,9.41,3.26,18.6-1.83,24.78-6.69,8.14-20.17,10.25-37.94,6-23.72-5.71-53.3-22-87.92-48.34a3,3,0,1,0-3.63,4.77c34.29,26.11,63.9,42.54,88,48.88.5,8.26-2.9,15.09-9.52,18.93-6.33,3.67-18.59,6.5-41.08-.83-13.55-4.42-28.77-11.9-45.47-22.29l-.1-.05q-16.08-10-34-23.62l-.23-.16c-.35-.21-35.31-22.35-71.11-79.35a3,3,0,0,0-1.15-1.07L30.23,150.88A40.45,40.45,0,0,1,9.64,124.8C1.52,92,0,33.7,81.15,12.64a40.85,40.85,0,0,1,27,2.34L173.8,44.71c-8.75,6-16.29,10.9-22.72,15.09C125.73,76.37,116.24,82.57,122.9,97c5,10.69,23.21,27.27,46.6,28.88,18.56,1.28,46.58-6.43,75.33-49.85,28.49,14.17,112,56.22,148,79.48C407.85,165.16,415.84,182.56,411,195.08Zm26.23-36.88-24.11,10.12a51.94,51.94,0,0,0-17-17.9C360.05,127.12,277,85.26,248,70.83c1.27-2.4,2.87-5.64,4.44-8.81,1.75-3.52,3.4-6.84,4.26-8.36a3,3,0,0,0-5.2-3c-1,1.67-2.65,5.07-4.43,8.68-2.19,4.41-4.67,9.42-5.76,11.13h0c-21.91,34-46.58,51.07-71.35,49.36-21.73-1.51-37.79-17.3-41.56-25.43-4.21-9.07-.65-12.17,26-29.59,13.89-9.07,32.9-21.5,58.16-40.52,49-36.86,97.82-9.51,122.6,10.07h0a144.81,144.81,0,0,1,15.92,14.44,3,3,0,0,0,2.22,1,3,3,0,0,0,2.23-5,138.14,138.14,0,0,0-13.08-12.23l13.69-7.15a43.8,43.8,0,0,1,40.09-.15c56.34,28.65,68,66.59,67.79,93.36A43.28,43.28,0,0,1,437.26,158.2Z"/></g></g></svg>
