<svg height="512pt" viewBox="0 0 512 512" width="512pt" xmlns="http://www.w3.org/2000/svg"><path d="m512 30.90625v450.1875c0 17.070312-13.835938 30.90625-30.90625 30.90625h-450.1875c-17.070312 0-30.90625-13.835938-30.90625-30.90625v-450.1875c0-17.070312 13.835938-30.90625 30.90625-30.90625h450.1875c17.070312 0 30.90625 13.835938 30.90625 30.90625zm0 0" fill="#f73e80"/><path d="m512 30.90625v450.1875c0 17.070312-13.835938 30.90625-30.90625 30.90625h-371.554688c248.316407-130.390625 294.179688-420.992188 295.035157-512h76.519531c17.070312 0 30.90625 13.835938 30.90625 30.90625zm0 0" fill="#f89928"/><path d="m512 30.90625v450.1875c0 17.070312-13.835938 30.90625-30.90625 30.90625h-229.9375c152.582031-175.789062 169.972656-420.992188 170.828125-512h59.109375c17.070312 0 30.90625 13.835938 30.90625 30.90625zm0 0" fill="#f8c828"/><path d="m64.222656 512h-33.316406c-17.070312 0-30.90625-13.835938-30.90625-30.90625v-450.1875c0-17.070312 13.835938-30.90625 30.90625-30.90625h33.316406c-17.070312 0-30.90625 13.835938-30.90625 30.90625v450.1875c0 17.070312 13.835938 30.90625 30.90625 30.90625zm0 0" fill="#f86091"/><path d="m328.289062 0c-169.25 70.050781-253.28125 174.6875-294.972656 262.59375-17.503906 36.871094-27.546875 70.804688-33.316406 98v-329.6875c0-17.070312 13.835938-30.90625 30.90625-30.90625zm0 0" fill="#4c60dc"/><path d="m64.222656 0c-17.070312 0-30.90625 13.835938-30.90625 30.90625v231.6875c-17.503906 36.871094-27.546875 70.804688-33.316406 98v-329.6875c0-17.070312 13.835938-30.90625 30.90625-30.90625zm0 0" fill="#1680f6"/><path d="m512 30.90625v450.1875c0 17.070312-13.835938 30.90625-30.90625 30.90625h-199.03125c152.582031-175.789062 169.96875-420.992188 170.824219-512h28.207031c17.070312 0 30.90625 13.835938 30.90625 30.90625zm0 0" fill="#f8b824"/><path d="m440.1875 146.636719c-.980469-4.675781-2.308594-9.230469-3.957031-13.621094-13.742188-36.929687-49.355469-63.3125-91.027344-63.3125h-178.40625c-5.121094 0-10.148437.402344-15.050781 1.164063-45.132813 7.054687-80.066406 45.316406-81.960938 91.953124-.050781 1.308594-.082031 2.636719-.082031 3.988282v178.382812c0 53.550782 43.554687 97.105469 97.09375 97.105469h178.40625c53.539063 0 97.097656-43.554687 97.097656-97.105469v-178.382812c-.003906-6.914063-.722656-13.660156-2.113281-20.171875zm-40.125 198.554687c0 25.40625-17.328125 46.8125-40.785156 53.035156-4.492188 1.195313-9.210938 1.835938-14.074219 1.835938h-178.40625c-30.246094 0-54.855469-24.601562-54.855469-54.867188v-178.386718c0-30.257813 24.609375-54.867188 54.855469-54.867188h178.40625c30.246094 0 54.859375 24.609375 54.859375 54.867188zm0 0" fill="#deefff"/><path d="m442.296875 166.808594v178.382812c0 53.550782-43.554687 97.105469-97.09375 97.105469h-11.414063c9.179688-14.484375 17.65625-29.203125 25.488282-44.070313 23.457031-6.222656 40.785156-27.628906 40.785156-53.035156v-40.269531c19.796875-55.320313 32.292969-109.734375 40.125-158.285156 1.390625 6.511719 2.109375 13.257812 2.109375 20.171875zm0 0" fill="#b8daef"/><g fill="#deefff"><path d="m256 342.507812c-47.699219 0-86.507812-38.808593-86.507812-86.507812s38.808593-86.507812 86.507812-86.507812 86.507812 38.808593 86.507812 86.507812-38.808593 86.507812-86.507812 86.507812zm0-132.003906c-25.089844 0-45.5 20.410156-45.5 45.496094 0 25.089844 20.410156 45.5 45.5 45.5 25.085938 0 45.496094-20.410156 45.496094-45.5 0-25.085938-20.410156-45.496094-45.496094-45.496094zm0 0"/><path d="m366.050781 161.222656c0 9.574219-7.761719 17.335938-17.335937 17.335938-9.574219 0-17.335938-7.761719-17.335938-17.335938 0-9.574218 7.761719-17.335937 17.335938-17.335937 9.574218 0 17.335937 7.761719 17.335937 17.335937zm0 0"/></g></svg>