<svg version="1.1" id="Layer_1" xmlns="http://www.w3.org/2000/svg" x="0" y="0" viewBox="0 0 500 500" style="enable-background:new 0 0 500 500" xml:space="preserve"><style>.st0{fill:#ebebeb}.st1{fill:#fff}.st2{fill:#e0e0e0}.st3{fill:#f5f5f5}.st4{fill:#fafafa}.st7{fill:#455a64}.st8{fill:#263238}.st10{opacity:.3}.st11{fill:#865fff}.st14{fill:#ffbe9d}.st15{fill:#eb996e}</style><g id="Background_Complete"><path class="st0" d="M88.3 365.6H56.4c-2.5 0-4.5-2-4.5-4.5v-31.9c0-2.5 2-4.5 4.5-4.5h31.9c2.5 0 4.5 2 4.5 4.5v31.9c0 2.5-2 4.5-4.5 4.5z"/><path class="st1" d="m55.9 357.2-.8-.6 8.3-9.8c.9-1.3 2.6-1.6 4-.7l5 3.3 5.8-7.3c.5-.7 1.3-1.1 2.2-1.1.8 0 1.7.3 2.3.9l7.1 7.6-.7.7-7.1-7.6c-.4-.4-.9-.6-1.5-.6s-1.1.3-1.4.7l-6.4 8.1L67 347c-.9-.6-2-.4-2.6.5l-8.5 9.7zM72.4 335.4c0 2-1.6 3.7-3.7 3.7s-3.7-1.6-3.7-3.7 1.6-3.7 3.7-3.7 3.7 1.6 3.7 3.7z"/><path class="st0" d="M471.3 207.2c-.1 0-.2-1.2-.4-3.4 0-1.1-.1-2.5-.5-4.1-.2-1.6-.5-3.4-1.1-5.5-.9-4.1-2.7-8.9-5.7-14s-7.2-10.5-13.1-15c-5.8-4.5-13.2-8.4-21.7-10.1-8.5-1.6-18.1-1.6-27.3 1.7-4.6 1.5-9.1 3.8-13.3 6.8-2.1 1.4-4 3.2-6 4.9-1.8 1.9-3.7 3.7-5.2 5.9-6.6 8.3-10.4 19.1-10.8 30.4-.2 11.2 3.1 22.2 9.3 30.9 1.4 2.2 3.2 4.2 4.9 6.1 1.9 1.8 3.7 3.6 5.7 5.1 4 3.2 8.4 5.7 12.9 7.4 9 3.7 18.7 4.2 27.2 3 8.6-1.3 16.2-4.8 22.2-9.1 6.1-4.3 10.6-9.4 13.8-14.4 3.2-5 5.3-9.7 6.3-13.8.7-2 1-3.8 1.3-5.4.4-1.6.5-2.9.6-4 .6-2.3.8-3.4.9-3.4.1 0 .1 1.2 0 3.4 0 1.1-.1 2.5-.4 4.1-.2 1.6-.5 3.5-1.1 5.6-.9 4.2-2.9 9.1-6.1 14.3-3.2 5.2-7.7 10.6-13.9 15.2-6.2 4.5-14 8.3-23 9.8-8.9 1.4-19 .9-28.6-2.9-4.8-1.8-9.4-4.4-13.7-7.7-2.2-1.6-4.1-3.5-6.1-5.4-1.8-2.1-3.7-4.1-5.2-6.5-6.5-9.1-10.1-20.7-9.9-32.6.4-11.9 4.5-23.3 11.5-32 1.6-2.3 3.6-4.2 5.5-6.2 2.1-1.8 4.1-3.6 6.3-5.1 4.4-3.1 9.1-5.5 14-7 9.7-3.4 19.8-3.3 28.7-1.5 8.9 1.9 16.6 6.1 22.5 10.9 6 4.9 10.3 10.5 13.2 15.9 2.9 5.4 4.6 10.4 5.4 14.6.5 2.1.7 4 .8 5.6.2 1.6.2 3 .2 4.1 0 2.2 0 3.4-.1 3.4z"/><path class="st0" d="M460.6 173.9c.1.2-.8 1-2.7 2.4-1 .7-2.2 1.5-3.4 2.5-.7.5-1.4 1-2.2 1.5-.8.4-1.7.9-2.6 1.4-7.1 4.1-18.4 8.3-31.3 7.9-1.6-.1-3.2-.1-4.7-.2-1.5-.2-3.1-.5-4.5-.7-.7-.1-1.5-.2-2.2-.4l-2.1-.6c-1.4-.4-2.8-.7-4.1-1.1-5.2-1.8-9.7-3.9-13.3-6.1-7.1-4.3-10.6-8.2-10.3-8.5.3-.3 4.2 3 11.4 6.7 3.6 1.9 8 3.7 13.1 5.3 1.3.4 2.6.6 3.9 1 .7.2 1.4.3 2 .5l2.1.3c1.4.2 2.9.4 4.3.6 1.5.1 3 .1 4.5.2 12.3.4 23.1-3.2 30.3-6.8l2.7-1.2c.8-.4 1.5-.9 2.2-1.3 1.3-.7 2.6-1.4 3.6-2 2-1 3.2-1.5 3.3-1.4zM375.5 238.6c-.1-.2.8-1 2.7-2.4 1-.7 2.2-1.5 3.4-2.5.7-.5 1.4-1 2.2-1.5.8-.4 1.7-.9 2.6-1.4 7.1-4.1 18.4-8.3 31.3-7.9 1.6.1 3.2.1 4.7.2 1.5.2 3.1.5 4.5.7.7.1 1.5.2 2.2.4l2.1.6c1.4.4 2.8.7 4.1 1.1 5.2 1.8 9.7 3.9 13.3 6.1 7.1 4.3 10.6 8.2 10.3 8.5-.3.3-4.2-3-11.4-6.7-3.6-1.9-8-3.7-13.1-5.3-1.3-.4-2.6-.6-3.9-1-.7-.2-1.4-.3-2-.5l-2.1-.3c-1.4-.2-2.9-.4-4.3-.6-1.5-.1-3-.1-4.5-.2-12.3-.4-23.1 3.2-30.3 6.8l-2.7 1.2c-.8.4-1.5.9-2.2 1.3-1.3.7-2.6 1.4-3.6 2-2 1.1-3.2 1.6-3.3 1.4zM471.2 208.4c0 .8-23.9.9-53.2.2-29.4-.7-53.2-1.9-53.2-2.8 0-.8 23.9-.9 53.3-.2 29.3.8 53.2 2 53.1 2.8z"/><path class="st0" d="M415.6 259.1c-.8 0-.9-23.9-.2-53.2.7-29.4 1.9-53.2 2.8-53.2.8 0 .9 23.9.2 53.2-.8 29.4-2 53.2-2.8 53.2z"/><path class="st0" d="M415.6 259c-.2.3-6.1-3.7-12.8-12.7-3.3-4.5-6.9-10.3-9.5-17.3-2.6-7-4.3-15.2-4.1-23.8.2-8.7 2.3-16.8 5.4-23.6 3-6.8 6.9-12.4 10.4-16.7 7.2-8.7 13.1-12.5 13.3-12.2.3.3-5.1 4.7-11.6 13.5-3.3 4.4-6.8 9.9-9.6 16.5s-4.8 14.3-4.9 22.6c-.2 8.3 1.3 16.1 3.7 22.9 2.4 6.8 5.6 12.5 8.7 17 6 9 11.3 13.5 11 13.8zM419.3 152.7c.2-.3 6.1 3.7 12.8 12.7 3.3 4.5 6.9 10.3 9.5 17.3 2.6 7 4.3 15.2 4.1 23.8-.2 8.7-2.3 16.8-5.4 23.6-3 6.8-6.9 12.4-10.4 16.7-7.2 8.7-13.1 12.5-13.3 12.2-.3-.3 5.1-4.7 11.6-13.5 3.3-4.4 6.8-9.9 9.6-16.5s4.8-14.3 4.9-22.6c.2-8.3-1.3-16.1-3.7-22.9-2.4-6.8-5.6-12.5-8.7-17-6-9-11.3-13.5-11-13.8z"/><g><path class="st2" d="M434.8 54.6h-47.5c-1.3 0-2.4-1.1-2.4-2.4 0-1.3 1.1-2.4 2.4-2.4h47.5c1.3 0 2.4 1.1 2.4 2.4 0 1.4-1.1 2.4-2.4 2.4zM434.8 65.3h-47.5c-1.3 0-2.4-1.1-2.4-2.4 0-1.3 1.1-2.4 2.4-2.4h47.5c1.3 0 2.4 1.1 2.4 2.4 0 1.4-1.1 2.4-2.4 2.4zM434.8 76h-47.5c-1.3 0-2.4-1.1-2.4-2.4 0-1.3 1.1-2.4 2.4-2.4h47.5c1.3 0 2.4 1.1 2.4 2.4 0 1.4-1.1 2.4-2.4 2.4z"/></g><g><path class="st3" d="M440.1 309.9h-45.3c-1.3 0-2.3-1-2.3-2.3 0-1.3 1-2.3 2.3-2.3h45.3c1.3 0 2.3 1 2.3 2.3 0 1.3-1 2.3-2.3 2.3zM440.1 320.2h-45.3c-1.3 0-2.3-1-2.3-2.3 0-1.3 1-2.3 2.3-2.3h45.3c1.3 0 2.3 1 2.3 2.3 0 1.2-1 2.3-2.3 2.3zM440.1 330.4h-45.3c-1.3 0-2.3-1-2.3-2.3 0-1.3 1-2.3 2.3-2.3h45.3c1.3 0 2.3 1 2.3 2.3 0 1.2-1 2.3-2.3 2.3z"/></g><g><path class="st0" d="M73.4 72.2c0-9.2-8.3-16.4-17.8-14.7-6 1.1-10.8 6-11.8 12-.7 3.8.1 7.3 1.8 10.2v.1c.6 1 1.3 1.7 2 2.7L56.3 94c1.1 1.4 3.2 1.4 4.3 0l8.5-11.3s1.6-1.9 2.2-2.9c1.3-2.2 2.1-4.8 2.1-7.6zm-14.9 6.5c-3.6 0-6.6-2.9-6.6-6.6s2.9-6.6 6.6-6.6 6.6 2.9 6.6 6.6-3 6.6-6.6 6.6z"/></g><g><path class="st0" d="M76.8 402.5s-11.4 8.7-.5 20.2c.2.2.5.3.7.3l99.8-.6s8.5-9.6 1.5-20.6l-101.5.7z"/><path class="st2" d="M154.8 411.6c0 .1-12.4.2-27.8.2-15.3 0-27.8-.1-27.8-.2s12.4-.2 27.8-.2 27.8.1 27.8.2zM139.3 415.2c0 .1-5.8.2-13 .2s-13.1-.1-13.1-.2 5.8-.2 13.1-.2c7.1 0 13 .1 13 .2zM165 422.1c-.1 0 .2-1.1.5-3 .3-1.8.6-4.4.6-7.3 0-2.9-.4-5.4-.7-7.3-.3-1.8-.6-3-.6-3s.1.3.3.8c.2.5.4 1.2.6 2.2.4 1.8.8 4.4.8 7.3 0 2.9-.3 5.5-.7 7.3-.2.9-.4 1.7-.5 2.2-.2.6-.3.8-.3.8zM172.5 401.8s.2.2.4.7c.1.2.3.5.4.9.2.4.4.8.5 1.2.4.9.7 2 .9 3.3.2 1.3.4 2.7.4 4.2s-.1 2.9-.4 4.2c-.2 1.3-.6 2.4-.9 3.3-.1.5-.3.9-.5 1.2-.1.4-.3.7-.4.9-.3.5-.4.7-.4.7-.1 0 .5-1.1 1.1-3 .3-.9.6-2 .8-3.3.2-1.3.3-2.7.3-4.1 0-1.5-.2-2.9-.4-4.1-.2-1.3-.5-2.4-.9-3.3-.4-1.7-1-2.8-.9-2.8zM92.6 422.3s-.2-.2-.5-.7c-.1-.2-.3-.5-.5-.8-.2-.3-.4-.7-.5-1.1-.4-.9-.7-1.9-1-3.1-.2-1.2-.4-2.6-.4-4s.2-2.8.5-4c.3-1.2.7-2.3 1.1-3.1.2-.4.4-.8.6-1.1.2-.3.3-.6.5-.8.3-.4.5-.7.5-.7.1 0-.6 1-1.3 2.7-.4.9-.7 1.9-1 3.1-.2 1.2-.4 2.5-.5 3.9 0 1.4.1 2.7.3 3.9.2 1.2.5 2.3.9 3.1.7 1.6 1.3 2.6 1.3 2.7zM81.8 424.7s-.2-.3-.5-.8c-.2-.2-.3-.6-.5-.9-.2-.4-.4-.8-.6-1.3-.4-1-.8-2.2-1.1-3.5-.3-1.4-.5-2.9-.6-4.5 0-1.6.1-3.1.4-4.5.3-1.4.6-2.6 1-3.6.2-.5.4-.9.5-1.3.2-.4.3-.7.5-1 .3-.5.5-.8.5-.8.1 0-.6 1.2-1.2 3.1-.3 1-.6 2.2-.9 3.5-.2 1.4-.4 2.9-.3 4.5 0 1.6.2 3.1.5 4.4.3 1.3.7 2.5 1 3.5.7 2.1 1.4 3.2 1.3 3.2z"/><g><path class="st0" d="M173.2 452.8v19.1h-37v-19.1h37z"/><path class="st2" d="M53.8 462.6v.5c.3 5.8 5.2 10.2 11 10.2h110.1v-1.4h-26.1c-5.3 0-9.6-4.3-9.6-9.5 0-5.3 4.3-9.5 9.6-9.5h26.1v-2l-110.1.4c-6.2-.1-11.2 5.1-11 11.3z"/><path class="st2" d="M173.2 462.7c0 .1-7.6.2-17 .2s-17-.1-17-.2 7.6-.2 17-.2 17 0 17 .2zM172.7 467c0 .1-7.2.2-16.1.2-8.9 0-16.1-.1-16.1-.2s7.2-.2 16.1-.2c8.9 0 16.1 0 16.1.2zM173.2 470.9c0 .1-6.5.2-14.4.2-8 0-14.4-.1-14.4-.2s6.5-.2 14.4-.2 14.4.1 14.4.2zM173.2 458.8c0 .1-7.4.2-16.6.2-9.2 0-16.6-.1-16.6-.2s7.4-.2 16.6-.2c9.2 0 16.6.1 16.6.2zM172.7 454.9c0 .1-6.6.2-14.8.2-8.2 0-14.8-.1-14.8-.2s6.6-.2 14.8-.2c8.1 0 14.8.1 14.8.2z"/><g><path class="st3" d="M67.2 451.5c.1.1-1.1.9-2.3 2.8-1.3 1.8-2.5 4.8-2.5 8.2 0 3.4 1.4 6.4 2.7 8.2 1.3 1.8 2.5 2.7 2.4 2.7 0 0-.3-.2-.8-.6-.5-.4-1.1-1.1-1.8-2-1.4-1.8-2.8-4.8-2.9-8.3 0-3.5 1.3-6.6 2.7-8.4.7-.9 1.3-1.6 1.8-2 .4-.4.7-.6.7-.6z"/></g><g><path class="st3" d="M63.5 451.1c.1.1-1.1.9-2.3 2.8-1.3 1.8-2.5 4.8-2.5 8.2 0 3.4 1.4 6.4 2.7 8.2 1.3 1.8 2.5 2.7 2.4 2.7 0 0-.3-.2-.8-.6-.5-.4-1.1-1.1-1.8-2-1.4-1.8-2.8-4.8-2.9-8.3 0-3.5 1.3-6.6 2.7-8.4.7-.9 1.3-1.6 1.8-2 .4-.4.6-.6.7-.6z"/></g><g><path class="st3" d="M138.2 451.5c.1.1-1.1.9-2.3 2.8-1.3 1.8-2.5 4.8-2.5 8.2 0 3.4 1.4 6.4 2.7 8.2 1.3 1.8 2.5 2.7 2.4 2.7 0 0-.3-.2-.8-.6-.5-.4-1.1-1.1-1.8-2-1.4-1.8-2.8-4.8-2.9-8.3 0-3.5 1.3-6.6 2.7-8.4.7-.9 1.3-1.6 1.8-2 .4-.4.7-.6.7-.6z"/></g><g><path class="st3" d="M134.5 451.1c.1.1-1.1.9-2.3 2.8-1.3 1.8-2.5 4.8-2.5 8.2 0 3.4 1.4 6.4 2.7 8.2 1.3 1.8 2.5 2.7 2.4 2.7 0 0-.3-.2-.8-.6-.5-.4-1.1-1.1-1.8-2-1.4-1.8-2.8-4.8-2.9-8.3 0-3.5 1.3-6.6 2.7-8.4.7-.9 1.3-1.6 1.8-2 .4-.4.7-.6.7-.6z"/></g><g><path class="st3" d="M79.7 465.3c0-2.6-.1-5.2-.1-7.8 0-.7 0-1.4-.3-2-.3-.6-.8-1.2-1.5-1.2-1-.4-2.5.4-3.2 1.5s-.8 2.5-.8 3.8c0 2 .1 4.1.3 6.1.1 1 .2 2 .7 2.8s1.4 1.5 2.4 1.4c1-.1 1.7-.9 2.1-1.8.4-.9.4-1.9.4-2.8z"/></g><g><path class="st3" d="M122.5 463c0 .1-8 .2-17.8.2s-17.8-.1-17.8-.2 8-.2 17.8-.2 17.8.1 17.8.2z"/></g></g><g><path class="st3" d="m72.3 450.7-.2-18.1H82l.3 18.1z"/><path class="st2" d="M81.4 435.9c0 .1-2.1.2-4.6.2-2.5 0-4.6-.1-4.6-.2s2.1-.2 4.6-.2c2.6 0 4.6.1 4.6.2zM81.4 438.7c0 .1-2.1.2-4.6.2-2.5 0-4.6-.1-4.6-.2s2.1-.2 4.6-.2c2.6 0 4.6 0 4.6.2zM81.4 441.5c0 .1-2.1.2-4.6.2-2.5 0-4.6-.1-4.6-.2s2.1-.2 4.6-.2c2.6 0 4.6 0 4.6.2zM81.4 444.2c0 .1-2.1.2-4.6.2-2.5 0-4.6-.1-4.6-.2s2.1-.2 4.6-.2c2.6 0 4.6.1 4.6.2zM81.4 447c0 .1-2.1.2-4.6.2-2.5 0-4.6-.1-4.6-.2s2.1-.2 4.6-.2c2.6 0 4.6.1 4.6.2z"/><path class="st0" d="M71.6 432.2h109.2c1.3 6 1.2 12.6 0 19.6H72.1v-1.3h6.6c1.7 0 3.1-1.4 3.1-3.1v-10.8c0-1.7-1.4-3.1-3.1-3.1h-7.1v-1.3z"/><g><path class="st4" d="M97.4 442h2c.1.1.2.2.2.3v.1c0 .2-.1.3-.1.5-.3.8-.6 1.5-1.1 2.1-.5.5-1 .8-1.6.8h-.2c-.5-.1-.9-.4-1.2-.9-.4-.6-.5-1.3-.5-2.2 0-.5.1-1 .2-1.6.2-.9.6-1.6 1.1-2.1.5-.6 1.1-.9 1.6-.9.2 0 .5.1.7.2.5.2.8.7 1.1 1.3v.2c0 .1 0 .1-.1.2s-.2.2-.3.2h-.1c-.1 0-.2-.1-.2-.2-.1-.2-.1-.3-.2-.4-.2-.3-.5-.5-.9-.5-.2 0-.4.1-.6.2-.4.3-.7.8-1 1.4-.3.7-.4 1.4-.4 2.1 0 .6.1 1.2.3 1.6.2.5.5.7 1 .7.3 0 .6-.2.9-.5.4-.4.7-1 .9-1.7h-1.3c-.3 0-.4-.2-.4-.4v-.1c-.1-.4 0-.4.2-.4zM103.6 438.4v.1c.1.3.5 2.5 1.3 6.8v.1c0 .1 0 .1-.1.2s-.2.2-.3.2h-.1c-.2 0-.3-.1-.3-.3l-.4-2.2h-2.2l-1.1 2.3v.1c-.1.1-.2.2-.3.2-.1 0-.1 0-.2-.1s-.2-.2-.2-.3v-.1c.1-.2.2-.4.3-.7 1.6-3.4 2.5-5.5 2.8-6.1.1-.2.2-.3.4-.3.2-.1.3 0 .4.1zm-.5 1.5-1.2 2.6h1.7l-.5-2.6zM109.7 445.8h-3.3c-.1 0-.1 0-.2-.1s-.2-.2-.2-.4c0-.1.3-2.4.9-6.7v-.1c.1-.2.2-.2.4-.2h.2c.1.1.2.2.2.3 0 .3-.1.9-.2 1.8-.4 2.9-.6 4.4-.6 4.6h3c.2.1.2.2.2.4v.1c0 .2-.2.3-.4.3zM114.2 438.4v.1c.1.3.5 2.5 1.3 6.8v.1c0 .1 0 .1-.1.2s-.2.2-.3.2h-.1c-.2 0-.3-.1-.3-.3l-.4-2.2h-2.2l-1.1 2.3v.1c-.1.1-.2.2-.3.2-.1 0-.1 0-.2-.1s-.2-.2-.2-.3v-.1c.1-.2.2-.4.3-.7 1.6-3.4 2.5-5.5 2.8-6.1.1-.2.2-.3.4-.3.2-.1.3 0 .4.1zm-.5 1.5-1.2 2.6h1.7l-.5-2.6zM119.5 442.3c.3.7.5 1.3.6 1.6.3.9.5 1.4.5 1.5 0 .1 0 .1-.1.2s-.2.2-.3.2c-.1 0-.3-.1-.3-.3 0-.1 0-.1-.1-.2-.2-.4-.5-1.2-.9-2.3l-1.9 2.5c-.1.1-.2.2-.3.2-.1 0-.1 0-.2-.1s-.2-.2-.2-.3v-.1c0-.1.1-.2.2-.3.6-.8 1.3-1.8 2.1-2.9-.1-.2-.2-.4-.2-.6-.7-1.9-1.1-2.8-1.1-2.9v-.2c.1-.1.2-.2.3-.2.2 0 .3.1.4.2l1.1 3 2.2-3c.1-.1.2-.2.3-.2h.2c.1.1.2.2.2.4v.2l-2.5 3.6zM127.6 438.2h.2c.1.1.2.2.2.3-.5 4.3-.8 6.6-.9 6.9-.1.7-.4 1.3-.7 1.8-.5.7-1.3 1.1-2.2 1.1-.3 0-.7-.1-1.1-.3-.6-.3-.9-.6-1.2-1v-.2c0-.1 0-.1.1-.2s.2-.2.3-.2c.1 0 .2.1.3.2.5.6 1 1 1.7 1 .5 0 .9-.2 1.3-.7.4-.5.7-1.2.7-2.1-.1.2-.3.4-.5.5-.4.3-.8.4-1.2.4h-.2c-.5-.1-.9-.4-1.2-.9-.4-.6-.5-1.3-.5-2.2 0-.4 0-.8.1-1.2.1-.7.2-1.6.4-2.8v-.1c.1-.2.2-.3.4-.3.1 0 .1 0 .2.1s.2.2.2.3c0 .2-.1.7-.2 1.5-.2 1.2-.3 1.9-.3 2.3 0 .7.1 1.3.3 1.8.2.5.6.8 1 .8h.1c.3-.1.6-.3 1-.8s.7-1.1.8-1.8l.5-3.8v-.2c.1-.1.3-.2.4-.2z"/></g><g><path class="st3" d="M176.7 452c-.1 0-.2-4.5-.2-10s.1-10 .2-10 .2 4.5.2 10-.1 10-.2 10z"/></g><g><path class="st2" d="M87.3 452c-.1 0-.2-4.5-.2-10s.1-10 .2-10 .2 4.5.2 10c.1 5.5 0 10-.2 10z"/></g><g><path class="st3" d="M178.6 452c-.1 0-.2-4.5-.2-10s.1-10 .2-10 .2 4.5.2 10 0 10-.2 10z"/></g><g><path class="st2" d="M85.6 452c-.1 0-.2-4.5-.2-10s.1-10 .2-10 .2 4.5.2 10-.1 10-.2 10z"/></g><g><path class="st2" d="M150.2 435.2c3 2.4 7 5.6 11.5 9.3l.1.1h-.1c-.5.1-1 .3-1.5.4-3.5.9-6.8 1.8-9.7 2.6-3.6-1.5-6.7-2.8-8.8-3.7-1.1-.5-1.9-.8-2.5-1.1-.3-.1-.5-.2-.7-.3-.1 0-.1-.1-.2-.1h-.1.1s.1 0 .2.1c.2.1.4.2.7.3.6.2 1.4.6 2.5 1 2.2.9 5.2 2.2 8.9 3.7 2.9-.8 6.2-1.6 9.7-2.6.5-.1 1-.3 1.5-.4v.1c-4.6-3.7-8.7-6.9-11.6-9.4"/><path class="st2" d="m160.7 443 .7.6.8-.1-.4.7.5.8-.9-.1-.6.6-.1-.8-.8-.4.7-.4zM149.7 446.7l.4.4.5-.2-.2.5.3.5h-.5l-.4.4-.1-.5-.5-.2.4-.3zM137.4 441.7h.7l.4-.5.2.7.6.2-.5.4-.1.7-.5-.5-.6.2.2-.6zM165.9 435.4h.7l.4-.5.2.6.6.3-.6.3v.7l-.5-.4-.7.2.3-.7zM149.7 434.9h.4l.3-.3.1.4.4.2-.4.2v.4l-.3-.2-.4.1.1-.4z"/><path class="st2" d="M166.9 435.8s-3.7-.1-8.3-.3c-4.6-.2-8.3-.4-8.3-.4s3.7.1 8.3.3c4.5.2 8.3.4 8.3.4z"/></g></g><g><path class="st2" d="M171.1 432H60.3c-1.5-3.3-1.8-6.4 0-9.2h110.8c1.4 3.3 1.3 6.4 0 9.2z"/><path class="st0" d="M83.2 425.4h60v3.4h-60z"/><path class="st2" d="M64.5 432s-.4-.4-.9-1.1c-.4-.8-.9-1.9-1-3.3-.1-1.4.1-2.6.4-3.4.3-.8.6-1.3.7-1.2.1 0-.2.5-.4 1.3s-.4 2-.3 3.3c.1 1.3.5 2.4.9 3.2.4.8.7 1.2.6 1.2zM66.9 432s-.4-.4-.9-1.1c-.4-.8-.9-1.9-1-3.3-.1-1.4.1-2.6.4-3.4.3-.8.6-1.3.7-1.2.1 0-.2.5-.4 1.3s-.4 2-.3 3.3c.1 1.3.5 2.4.9 3.2.4.8.7 1.2.6 1.2z"/><path class="st3" d="M166.6 431.8c-.1 0 .8-2 .8-4.5s-.9-4.5-.7-4.5c.1-.1 1.2 1.9 1.1 4.5 0 2.7-1.2 4.6-1.2 4.5zM164.5 431.8c-.1 0 .3-2 .3-4.4 0-2.4-.5-4.4-.3-4.4.1 0 .8 1.9.7 4.4.1 2.5-.6 4.4-.7 4.4z"/></g></g></g><g id="Plant"><path class="st7" d="M398.4 426.3s-24.3-28-33.5-55.9c-9.2-28-4.8-24.7-4.8-24.7s12.4 27.2 21.8 40.3c9.4 13.1 26.1 32.4 26.1 32.4l-9.6 7.9z"/><path class="st7" d="M403.3 350c-.8-1.4-2.9-.7-2.6.9 1.5 9.8 4.7 32.9 4.6 47.8-.2 19.4 0 26.9 0 26.9h10.1s-1.8-40.1-4.1-52.4c-1.7-8.5-5.1-18-8-23.2z"/><path class="st7" d="M408.8 422.4s6.4-13.4 8.3-30.2c.8-7.1-.7-16.8-2.9-29.7-1.1-6.2-1.3-11-1.3-14.3 0-2.5 3.3-3.3 4.5-1.1 1.2 2.2 4.8 9.6 5.6 14.3 2.4 12.7 5.2 19.1 3.1 31.2-2.1 12.1-10 30.7-10 30.7l-7.3-.9zM417.9 423.2s26.7-57.3 28.5-65.8c1.8-8.5 8.1-28.1 8.9-27 .7 1.1 1.8 11.5-3 23.3S427 425 427 425h-9.1"/><path class="st8" d="M405.9 420.7s-.3-.2-.7-.5c-.5-.4-1.2-.9-2.1-1.6-1.8-1.4-4.3-3.5-7.2-6.3-5.8-5.6-13.1-14.2-19.3-24.8-6.3-10.6-10.5-21-13.2-28.6-1.3-3.8-2.3-6.9-3-9.1-.3-1.1-.5-1.9-.7-2.5-.2-.6-.2-.9-.2-.9l.3.9c.2.6.5 1.4.8 2.5.7 2.1 1.7 5.2 3.1 9 2.8 7.6 7 17.9 13.3 28.5 6.3 10.6 13.4 19.2 19.1 24.8 2.9 2.8 5.3 5 7 6.4.9.7 1.5 1.3 2 1.7.5.2.8.4.8.5zM408.8 393.2s-.1-.6-.2-1.7c-.1-1.2-.3-2.7-.5-4.6-.4-3.9-1.1-9.2-2-15.1-.9-5.9-2-11.2-2.8-15-.4-1.8-.7-3.4-1-4.5-.2-1.1-.3-1.7-.3-1.7s.2.6.5 1.6c.3 1.1.7 2.6 1.2 4.5.9 3.8 2 9.1 3 15 .9 5.9 1.5 11.3 1.9 15.1.2 1.9.3 3.5.3 4.6-.1 1.2-.1 1.8-.1 1.8zM415 346.7s.1.2.3.7c.2.5.5 1.2.8 2.1.4.9.8 2.1 1.1 3.4.4 1.3.9 2.9 1.3 4.6.2.9.4 1.8.7 2.7.2.9.4 1.9.6 3 .4 2 .7 4.2 1 6.6.5 4.6.8 9.8.6 15.2-.2 5.4-.9 10.5-1.7 15.1-.5 2.3-.9 4.5-1.5 6.5-.3 1-.5 2-.8 2.9-.3.9-.6 1.8-.9 2.6-.5 1.7-1.1 3.2-1.6 4.5-.5 1.3-1 2.4-1.4 3.3-.4.9-.7 1.5-.9 2.1-.2.5-.3.7-.4.7 0 0 .1-.3.3-.8.2-.5.5-1.2.9-2.1.4-.9.8-2 1.3-3.3.5-1.3 1.1-2.8 1.5-4.5.3-.8.5-1.7.8-2.6.3-.9.5-1.9.8-2.9.6-2 1-4.2 1.4-6.4.8-4.6 1.5-9.7 1.7-15 .2-5.4-.1-10.5-.6-15.1-.3-2.3-.6-4.5-1-6.5-.2-1-.3-2-.6-2.9l-.6-2.7c-.4-1.7-.8-3.2-1.2-4.6-.4-1.4-.7-2.5-1-3.4-.3-.9-.5-1.6-.7-2.2-.1-.8-.2-1-.2-1zM455 331.6v.3c0 .2-.1.4-.1.7-.1.7-.3 1.6-.5 2.9-.5 2.5-1.4 6-2.7 10.3-1.3 4.3-3.1 9.4-5.3 14.9-2.2 5.5-4.7 11.6-7 18-2.4 6.4-4.3 12.7-6 18.4-1.7 5.7-3.4 10.8-4.9 15-1.6 4.2-3.1 7.6-4.2 9.8-.5 1.1-1 2-1.4 2.6-.1.3-.3.5-.4.7-.1.1-.1.2-.1.2s0-.1.1-.2c.1-.2.2-.4.3-.7.3-.6.7-1.5 1.3-2.6 1.1-2.3 2.5-5.6 4-9.8 1.5-4.2 3.1-9.3 4.8-15 1.7-5.7 3.6-12 6-18.4 2.4-6.5 4.9-12.5 7.1-18 2.2-5.5 4-10.5 5.4-14.8 1.4-4.3 2.3-7.8 2.9-10.2.3-1.2.5-2.2.6-2.8.1-.3.1-.5.2-.7-.2-.5-.1-.6-.1-.6z"/><path class="st7" d="M372.7 318.9c-1.7-1.7-4.5.1-3.8 2.3.7 2.3 1.8 5.3 3.4 8.6 3.7 7.8 14.4 35.7 19.5 51.1s12.1 44 12.1 44l10.8-1.7s-9.8-47.1-19.5-64c-7.7-13.6-15.4-33.3-22.5-40.3z"/><path class="st8" d="M394.7 390.6s.2.4.6 1.3c.3.8.8 2.1 1.2 3.6 1 3.1 2.2 7.4 3.4 12.1 1.2 4.8 2.2 9.1 2.9 12.2.3 1.5.6 2.7.8 3.7.2.9.3 1.4.2 1.4 0 0-.2-.5-.4-1.3-.3-1-.6-2.2-1-3.7-.8-3.2-1.9-7.5-3.1-12.2-1.2-4.8-2.4-9.1-3.3-12.1-.4-1.5-.8-2.7-1.1-3.7-.1-.8-.2-1.3-.2-1.3zM409.3 424.1s0-.1-.1-.3c0-.2-.1-.5-.1-.8-.1-.7-.2-1.8-.4-3.3-.4-2.8-1.1-6.9-2.3-11.9-1.1-5-2.8-10.8-5-17.2-2.2-6.4-5-13.3-8.1-20.4-6.3-14.2-12.7-26.9-16.8-36.2-2.1-4.7-3.7-8.5-4.8-11.1-.5-1.3-.9-2.4-1.2-3.1-.1-.3-.2-.6-.3-.8-.1-.2-.1-.3-.1-.3s.1.1.1.3c.1.2.2.5.4.8.3.7.8 1.7 1.3 3 1.1 2.6 2.8 6.4 5 11 4.2 9.3 10.6 21.9 17 36.2 3.1 7.1 5.9 14.1 8.1 20.5 2.2 6.4 3.8 12.3 4.9 17.3 1.1 5 1.8 9.1 2.1 11.9.2 1.4.3 2.5.3 3.3 0 .3 0 .6.1.9-.1.1-.1.2-.1.2zM414.7 423.2s-.2-.6-.4-1.8c-.2-1.3-.5-2.9-.8-4.9-.7-4.2-1.9-9.9-3.5-16.2-1.6-6.3-3.4-11.8-4.8-15.8-.7-1.9-1.3-3.5-1.7-4.7-.4-1.1-.6-1.7-.6-1.8 0 0 .3.6.8 1.7s1.1 2.7 1.9 4.7c1.5 4 3.4 9.5 5 15.8 1.6 6.3 2.7 12 3.3 16.2.3 2.1.5 3.8.7 5 .1 1.2.1 1.8.1 1.8z"/><g><path style="fill:#9d5fff" d="M394.8 421.7h42v51.2h-42z"/><path d="M394.8 421.7h42v51.2h-42z" class="st10"/><path class="st11" d="M386.1 421.7h37.3v51.2h-37.3z"/></g></g><g id="Character_1_"><path d="M156.5 256.9z" style="fill:#ff725e"/><path d="M353.7 396.3c-.3-7.2-11.1-103.8-12.7-116.2-2.6-19.8-18.5-24.8-18.5-24.8l-54.2-18.7h-53.6l-58.1 20.3v1-1c-.6.3-14.9 4.4-18.3 18.5-1.9 7.7-23.7 116.9-24 120.1s2.6 22.8 18 25.4c5.8 1 18.3.1 31.6-1.4L153.3 473h168.4l-6-38.3c13.4-5.2 27.4-11 29.8-13.5 4.6-4.7 8.5-17.7 8.2-24.9zm-190.6-27.5z" style="fill:#ad5fff"/><path d="M207.2 385c-.4-3.4-1-6.9-2.5-10s-4.2-5.8-7.5-6.7c-3.3-.9-7.3.5-8.8 3.6-6.1 17.1-.6 26.7 11 35.9 1.8 1.5 4.1 2.6 6.4 1.9 2.2-.7 2.7-2.3 2.8-4.6.3-6.7-.6-13.3-1.4-20.1z" class="st10"/><path class="st0" d="M280.2 305.3zM280.2 305.3z"/><path class="st8" d="M183.5 365.6s-.4.1-1.1.2c-.8.1-1.8.2-3.1.3-2.6.3-6.2.6-10.4.9h.1c-.9.7-1.9 1.3-2.9 2.1-4.1 2.9-7.5 5.9-9.6 8.5-1.1 1.3-1.8 2.4-2.3 3.1-.5.8-.7 1.2-.7 1.2s.2-.5.6-1.3c.4-.8 1.1-2 2.2-3.3 2-2.6 5.5-5.7 9.5-8.7 1-.7 2-1.4 2.9-2.1h.2c4.2-.3 7.8-.6 10.4-.8 1.2-.1 2.3-.1 3.1-.2.7.1 1.1.1 1.1.1zM209.7 384.3s0 .1.1.3c0 .2.1.5.2.9.1.8.4 2 .5 3.5.4 3 .7 7.5.7 12.9v4.3c.1 1.5-.4 3.2-1.5 4.4-1.1 1.3-2.8 2.1-4.5 2.2-1.7.3-3.4.6-5.2.9-7.1 1.2-14.9 2.8-23.1 4.1-8.2 1.3-16.1 2.3-23.3 2.9-7.2.7-13.7 1.1-19.2.7-1.4-.1-2.7-.3-3.9-.5-1.2-.3-2.3-.7-3.2-1.3-1.9-1.1-3.2-2.4-4.4-3.5-1.1-1.1-1.9-1.9-2.4-2.5-.3-.3-.5-.5-.6-.7-.1-.2-.2-.2-.2-.2l.2.2c.2.2.4.4.7.6.6.6 1.4 1.4 2.5 2.4s2.5 2.3 4.4 3.4c.9.6 2 1 3.2 1.3 1.2.2 2.5.4 3.8.5 5.4.3 11.9-.2 19.1-.9 7.2-.7 15.1-1.6 23.3-2.9 8.2-1.3 16-2.8 23.1-4 1.8-.3 3.5-.6 5.2-.9 1.7-.2 3.2-.9 4.2-2.1 1-1.2 1.5-2.7 1.4-4.1 0-1.5.1-2.9.1-4.3 0-5.5-.2-9.9-.5-12.9-.1-1.5-.3-2.7-.4-3.5-.1-.4-.1-.7-.1-.9-.2-.2-.3-.3-.2-.3z"/><path class="st8" d="M175.1 303.3c.1 0-1.1 14.2-2.9 31.8-1.7 17.5-3.2 31.7-3.4 31.7-.1 0 1.1-14.2 2.9-31.8 1.8-17.5 3.3-31.7 3.4-31.7zM313.3 290.9V291.8c0 .7 0 1.6-.1 2.7-.1 2.4-.2 5.8-.5 10-.4 8.5-1.3 20.1-2.2 33-1 12.9-1.9 24.6-2.4 33-.3 4.2-.5 7.6-.6 10-.1 1.1-.1 2.1-.2 2.7 0 .3 0 .5-.1.7v.2V383.2c0-.7 0-1.6.1-2.7.1-2.4.2-5.8.5-10 .4-8.5 1.3-20.1 2.2-33 1-12.9 1.9-24.5 2.4-33 .3-4.2.5-7.6.6-10 .1-1.1.1-2.1.2-2.7 0-.3 0-.5.1-.7v-.2zM348.7 394.6c-.1.1-.9-1.9-3.1-4.4-2.1-2.5-5.8-5.6-10.6-7.2-2.4-.8-4.8-1.3-7-1.6-2.2-.3-4.2-.2-5.8.2-1.6.4-2.9.9-3.7 1.4-.8.4-1.3.7-1.3.6 0 0 .1-.1.3-.2.2-.1.5-.4.9-.6.8-.5 2.1-1.1 3.7-1.5 1.6-.4 3.7-.6 5.9-.3s4.6.8 7.1 1.6c5 1.7 8.6 4.9 10.7 7.5 1.1 1.3 1.8 2.5 2.2 3.3.5.7.7 1.2.7 1.2zM320.5 432.9l-.6.3c-.4.2-1 .5-1.7.8-1.5.7-3.7 1.6-6.3 2.8-2.7 1.1-5.9 2.5-9.7 3.4-1.9.4-4 .6-6.1.2-2.1-.4-4.1-1.6-5.7-3.2-1.7-1.6-2.7-3.6-3.5-5.5-.8-2-1.4-3.9-1.9-5.8-.9-3.8-1.4-7.2-1.8-10.1-.4-2.9-.6-5.3-.7-6.9-.1-.8-.1-1.4-.1-1.9v-.7s.1.2.1.6c.1.5.1 1.1.2 1.9.2 1.6.5 4 .9 6.9.4 2.9.9 6.3 1.9 10.1.5 1.9 1.1 3.8 1.9 5.7.8 1.9 1.8 3.8 3.4 5.3 1.6 1.5 3.5 2.7 5.5 3.1 2 .4 4 .2 5.9-.1 3.7-.9 7-2.2 9.7-3.3 2.7-1.1 4.8-2 6.4-2.6.7-.3 1.3-.5 1.8-.7.1-.2.4-.3.4-.3z"/><path d="M209.8 410.2c-1.5 2.1-4.7 2.5-7.2 2.9-13.4 2.3-25.4 4.4-39 5.9l-1.7 8.8c13.7-2.2 27.8-5.1 40.7-10.1 1.8-.7 3.5-1.4 4.9-2.7 1.4-1.2 2.4-3 2.3-4.8zM287.3 409.2c.6 7.2 2.6 14.7 6.2 20.9.8 1.4 2.1 3 3.7 2.8 1.3-.1 2.2-1.3 2.8-2.4 2.6-4.2 4.9-8.2 5.7-13l-12.8-5.1-5.6-3.2z" class="st10"/><path class="st8" d="M259.4 407.7c.1.1-9.6 7.7-21.7 17s-21.9 16.7-22 16.6c-.1-.1 9.6-7.7 21.7-17s21.9-16.7 22-16.6z"/><g><path class="st8" d="M312.6 390s.1.6.1 1.7v2c0 .8-.1 1.6-.2 2.6-.4 3.8-1.6 9-3.6 14.6-2 5.5-4.3 10.3-6.3 13.6-1 1.7-1.9 2.9-2.5 3.8-.7.8-1 1.3-1.1 1.3 0 0 .3-.5.9-1.4.6-.9 1.4-2.2 2.4-3.8 1.9-3.3 4.2-8.1 6.2-13.6s3.2-10.6 3.7-14.4c.1-.9.2-1.8.3-2.6 0-.8.1-1.4.1-1.9-.1-1.3-.1-1.9 0-1.9z"/></g><g><path class="st14" d="M237.9 356.9s-14.8-23.7-26.5-19.1c0 0-5.9-4.9-9.7-1.7s-2.4 9.4-2.4 9.4-7.2-5.8-10.4-2.8-.9 8.2 0 10.7 1.4 7.9 1.4 7.9-4.4-2.2-6.4 1.4 5.7 15.6 6.9 17.3c1.2 1.6 8.6 9 13.8 7.1 5.1-1.9 8.7-7.1 8.7-7.1l24.6-23.1z"/><path class="st15" d="M199.2 346.4s.5.3 1.3.8c.9.6 2.1 1.5 3.6 2.4 1.5 1.1 3.3 2.3 5.2 3.7.5.4 1 .8 1.4 1.3.4.5.8 1.2.8 1.9 0 1.5-.9 2.8-2.3 3.4-1.3.7-2.8.7-4.1.4-1.3-.3-2.5-.8-3.6-1.3-2.1-1.1-4-2.2-5.6-3.2-1.5-1-2.8-1.8-3.6-2.4-.8-.6-1.3-.9-1.2-1 0 0 .5.3 1.4.8.9.5 2.1 1.3 3.7 2.2 1.6.9 3.5 2 5.6 3 1.1.5 2.2 1 3.5 1.3 1.2.2 2.6.2 3.8-.4 1.2-.6 2-1.8 2-3s-1.1-2.1-2-2.8c-1.9-1.4-3.7-2.7-5.2-3.8-1.4-1-2.6-1.9-3.5-2.6-.8-.3-1.2-.7-1.2-.7zM199.4 345.7s.2.1.4.3c.3.2.7.5 1.2.9 1 .8 2.6 2 4.5 3.3 1.9 1.3 4.3 2.9 7.2 3.9 1.4.5 3 .9 4.7 1 1.6.1 3.4.1 5-.7.8-.4 1.4-1 1.8-1.7.4-.7.4-1.5.2-2.3-.5-1.5-1.7-2.8-2.7-3.9-2.1-2.3-4.3-4-6.1-5.5-1.9-1.4-3.4-2.5-4.5-3.3-.5-.3-.9-.6-1.2-.9-.3-.2-.4-.3-.4-.3s.2.1.5.2c.3.2.7.4 1.3.8 1.1.7 2.7 1.8 4.6 3.2 1.9 1.4 4.1 3.2 6.3 5.4.5.6 1.1 1.2 1.6 1.8.5.7 1 1.4 1.2 2.3.3.9.2 1.9-.2 2.7-.4.8-1.2 1.5-2 1.9-1.7.8-3.6.8-5.3.7-1.7-.1-3.3-.6-4.8-1.1-3-1.1-5.3-2.7-7.2-4.1-1.9-1.4-3.4-2.6-4.4-3.4-.5-.4-.8-.7-1.1-1-.5-.1-.6-.2-.6-.2z"/><path class="st14" d="M189.5 361.2c3.5 1.7 7 3.3 10.4 5 1.2.6 2.6 1.4 2.5 2.7 0 .6-.4 1.2-.8 1.6-1.7 1.9-4.4 2.7-6.9 2.5-2.5-.2-5-1.1-7.3-2"/><path class="st15" d="M187.4 371.1c0-.1 1.7.6 4.6 1.3 1.4.3 3.2.6 5.1.3.9-.2 1.9-.5 2.8-1 .9-.5 1.7-1.2 2.2-2.1.2-.5.2-1 0-1.4-.2-.4-.6-.8-1-1.1-.8-.6-1.8-1-2.7-1.4-1.7-.9-3.3-1.6-4.6-2.3-1.2-.6-2.3-1.2-3.1-1.6-.7-.4-1.1-.6-1.1-.6s.4.1 1.2.5c.8.4 1.9.9 3.2 1.4 1.4.6 3 1.4 4.7 2.2.9.4 1.8.8 2.8 1.4.4.3.9.7 1.2 1.3.3.6.3 1.3 0 1.8-1.2 2.1-3.5 3.1-5.4 3.4-2 .3-3.8 0-5.2-.4-1.4-.4-2.6-.8-3.3-1.2-1-.3-1.4-.5-1.4-.5z"/><path class="st14" d="m205.8 386.4-15.7 11.9s-7.6-10.6-2.6-23.5h3.8l-.9 4.2 7.2 1.5 8.2 5.9z"/><g><path class="st14" d="M187.2 374.4c1.9 2.5 3.9 5 5.8 7.5.7.9 1.4 1.8 2.2 2.4.9.7 2 1.1 3.1.9"/><path class="st15" d="M198.3 385.3s-1 .4-2.4-.2c-.7-.3-1.4-.9-2.1-1.6-.7-.7-1.3-1.6-2-2.5-1.4-1.8-2.6-3.4-3.4-4.6-.9-1.2-1.3-1.9-1.3-2 .1 0 .7.6 1.6 1.8.9 1.1 2.2 2.7 3.5 4.5.7.9 1.3 1.7 1.9 2.5.6.7 1.3 1.3 1.9 1.6 1.4.6 2.3.4 2.3.5z"/></g></g><g><path class="st2" d="m191.7 376.1 19.3-18.4c1.9-1.8 4.4-2.8 7-2.7l98.8 2.9c2 .1 2.8 2.6 1.2 3.7L290.2 382c-.5.4-1.1.5-1.7.5l-96-4.2c-1.1 0-1.6-1.4-.8-2.2z"/><path class="st8" d="M318.8 360.4h-1.3c-.9 0-2.2 0-3.9-.1-3.4-.1-8.3-.2-14.4-.3-12.2-.3-28.9-.8-47.4-1.3-9.3-.3-18.1-.5-26.1-.8-2-.1-4-.1-5.9-.2-1 0-1.9-.1-2.8 0-.9.1-1.7.4-2.5.8s-1.4 1-2 1.6c-.6.6-1.3 1.2-1.9 1.7-1.2 1.1-2.4 2.2-3.5 3.2-4.5 4.1-8.1 7.4-10.6 9.7-1.2 1.1-2.2 2-2.9 2.6-.3.3-.6.5-.8.7-.2.1-.3.2-.3.2s.1-.1.2-.3l.7-.7c.7-.6 1.6-1.5 2.8-2.7 2.5-2.3 6.1-5.7 10.5-9.8 1.1-1 2.3-2.1 3.5-3.3.6-.6 1.2-1.1 1.9-1.7.6-.6 1.3-1.2 2.1-1.7.8-.4 1.7-.7 2.6-.9 1-.1 1.9 0 2.8 0 1.9 0 3.9.1 5.9.2 8 .2 16.9.5 26.1.7 18.5.6 35.3 1.1 47.4 1.4 6 .2 10.9.4 14.4.5 1.7.1 3 .1 3.9.2.4 0 .8 0 1 .1.4.1.5.1.5.2z"/></g><g><path class="st1" d="M338.4 308.4c.1.1-4.8 9.6-11 21.2-6.2 11.7-11.3 21.1-11.5 21-.1-.1 4.8-9.6 11-21.2 6.2-11.7 11.3-21.1 11.5-21zM302.2 306.4c.1 0-1.8 8.5-4.4 19-2.6 10.4-4.8 18.9-4.9 18.9-.1 0 1.8-8.5 4.4-19 2.5-10.5 4.7-18.9 4.9-18.9zM151 322c.1-.1 6.2 6.6 13.5 15 7.4 8.4 13.2 15.3 13.1 15.4-.1.1-6.2-6.6-13.5-15-7.4-8.4-13.2-15.3-13.1-15.4zM174.8 288.5c.1 0 3.3 10.4 7.1 23.3s6.7 23.4 6.6 23.5c-.1 0-3.3-10.4-7.1-23.3s-6.7-23.4-6.6-23.5zM272.6 277.1v10.2c0 6.4-.1 15-.2 24.6-.1 9.6-.2 18.3-.3 24.6-.1 3.1-.1 5.6-.2 7.5 0 .8-.1 1.5-.1 2s0 .7-.1.7 0-.2 0-.7v-9.5c0-6.4.1-15 .2-24.6.1-9.6.2-18.3.3-24.6.1-3.1.1-5.6.2-7.5 0-.8.1-1.5.1-2 .1-.5.1-.7.1-.7z"/></g><g><path class="st8" d="M306.3 154.9c-3.7-4-8.3-7.8-9.6-13.1-1.2-4.9.5-10.5-2.1-14.8-3.2-5.3-11.1-5.7-14.9-10.6-1.9-2.4-2.5-5.5-4.3-7.8-3.1-4-8.9-5-14-4.2-5.1.7-9.9 2.7-15 3.2-7 .7-14.2-1.3-20.9.9-7.3 2.5-11.6 9.1-16.2 15.6l-6 7.6c-1.3 1.3-2.6 2.5-4.1 3.5-2.6 1.8-5.6 3.1-7.8 5.3-4.7 4.8-4 13.8 1.4 17.8-5.3 1.9-9 7.6-8.5 13.3.3 3.1 1.7 6 2.7 8.9 1 2.9 1.7 6.2.5 9.1-1.1 2.9-4.7 5-7.5 3.5 1.1 4 4.1 7.4 7.9 9-1.4 1.5-3.4 2.5-5.5 2.7 6.1 13.1 21.7 19.6 36.2 19.2 14.5-.4 28.1-6.4 41.3-12.2l38.6-11.4c3.4-.9 4.7-5.1 4.5-8.6-.2-3.5-1.2-7.1 0-10.4 1.6-4.5 6.7-7.1 8.3-11.6 2.1-5.3-1.2-10.9-5-14.9z"/><path class="st8" d="M215.5 193.5c-3.1-8.7-6.2-17.5-7.8-26.6-1.6-9.1-1.6-18.6 1.4-27.4.4-1.3 4.3-10.3 5.7-10.2 1 .1-1.3 8.4-.8 9.2 5.1 8.1 6.7 18 6.2 27.5s-2.2 18.3-4.7 27.5"/><path class="st14" d="m249.6 114.3-2.1-.1c-23.2.8-35.4 20.9-34 44l.7 79.8c.1 14.4 11.5 26.2 25.9 26.9 15.1.7 27.9-11.2 28.3-26.3.1-4.2.2-7.1.2-7.1s22.3-2.9 23.1-25.1c.4-10.7-.6-32.9-1.8-53-1.1-21.5-18.7-38.5-40.3-39.1z"/><path class="st15" d="M268.6 231.5s-14 .5-28.7-9.2c0 0 6.3 16.5 28.5 15.1l.2-5.9z"/><path class="st8" d="M280.2 173.9c0 1.7-1.4 3.1-3.1 3.1-1.7.1-3.2-1.3-3.2-2.9 0-1.7 1.4-3.1 3.1-3.1 1.8-.1 3.2 1.2 3.2 2.9zM285 162.5c-.4.4-2.8-1.4-6.2-1.5-3.4-.1-6 1.6-6.3 1.1-.2-.2.2-.9 1.4-1.7 1.1-.8 2.9-1.5 5.1-1.4 2.1.1 3.9.9 4.9 1.7 1 .9 1.3 1.6 1.1 1.8zM249.3 173.9c0 1.7-1.4 3.1-3.1 3.1-1.7.1-3.2-1.3-3.2-2.9 0-1.7 1.4-3.1 3.1-3.1 1.7-.1 3.2 1.2 3.2 2.9zM251.5 163.1c-.4.4-2.8-1.4-6.2-1.5-3.4-.1-6 1.6-6.3 1.1-.2-.2.2-.9 1.4-1.7 1.1-.8 2.9-1.5 5.1-1.4 2.1.1 3.9.9 4.9 1.7 1 .9 1.3 1.6 1.1 1.8zM263.2 189.6c0-.2 2.1-.5 5.6-.9.9-.1 1.7-.2 1.9-.8.2-.6-.1-1.6-.5-2.6-.8-2.1-1.6-4.4-2.4-6.7-3.4-9.5-5.8-17.4-5.4-17.5.4-.1 3.4 7.5 6.8 17 .8 2.4 1.6 4.6 2.3 6.7.3 1 .8 2.1.4 3.4-.2.6-.9 1.1-1.5 1.2-.6.2-1.1.2-1.5.2-3.6.3-5.7.2-5.7 0zM253.1 191.8c.6 0 .5 3.7 3.6 6.4s7.1 2.4 7.1 2.9c0 .2-.9.7-2.6.7-1.6 0-4-.6-5.9-2.2-1.9-1.7-2.7-3.8-2.8-5.4-.1-1.6.3-2.5.6-2.4zM251.7 149.2c-.4.9-3.8.4-7.8.8-4 .3-7.3 1.4-7.8.6-.2-.4.4-1.3 1.7-2.1 1.3-.9 3.4-1.7 5.8-1.9 2.4-.2 4.6.2 6.1.9 1.4.6 2.1 1.3 2 1.7zM283.9 151.1c-.6.8-3-.1-5.8-.2-2.8-.2-5.2.4-5.8-.4-.2-.4.2-1.2 1.2-1.9s2.8-1.3 4.7-1.2c1.9.1 3.6.9 4.6 1.7 1.1.9 1.4 1.7 1.1 2z"/><path class="st14" d="M214.9 174.8c-.4-.2-15.2-4.9-15 10.3.1 15.2 15.4 11.9 15.4 11.5 0-.4-.4-21.8-.4-21.8z"/><path class="st15" d="M210.6 191c-.1 0-.3.2-.7.4-.4.2-1.2.3-2 .1-1.6-.6-3-3.1-3.1-5.9 0-1.4.2-2.7.7-3.8.5-1.1 1.2-1.9 2-2.1.8-.2 1.4.3 1.6.7.2.4.1.7.2.8 0 0 .3-.3.2-.9-.1-.3-.2-.7-.6-.9-.4-.3-.9-.4-1.5-.4-1.2.1-2.2 1.2-2.7 2.4-.6 1.2-.9 2.7-.9 4.2.1 3.1 1.7 5.9 3.9 6.5 1.1.3 2-.1 2.4-.4.5-.4.5-.7.5-.7z"/><path class="st8" d="M279.7 128.4c2.4-1.4-5.1-9.2-11.2-11.9-9.2-4-23.2-6.3-31.6-3.8-10.1 3-18.4 8.2-23.4 17.6-4.9 9.3-6.7 20.1-6.2 30.7.1 3.2.5 6.6 2.3 9.3 2.2 3.3 6.3 5.4 6.2 10 0 1.7.5 3.4 1.7 4.6 2.8 2.9 6.2.1 7.7-2.7 3.2-6 3.5-13.1 3.7-20 .1-4.9.2-9.8-1.2-14.4-.8-2.5-2-4.9-2.7-7.5s-.6-5.5.9-7.6c.3-.3.7-.8 1.2-1.3 4.2-3.8 10.3-5.1 15.7-3.3 8.6 2.9 23.3 7.2 27.1 4.2 5.4-4.3 6.7-7 6.7-7l3.1 3.1z"/><g><path class="st8" d="M237.7 110.6c8.3-2.9 17.8-3 25.7 1 4.2 2.1 8 5.5 9.3 9.9 1.3 4.5-.5 10.1-4.8 11.9l-.3.2c-6.5 2.3-10.7 1.5-17.2-.6-5.5-1.8-10.4-5.1-15.9-6.8-5.8-1.9-12.2-2-18.1-.2 5.9-6.8 13-12.4 21.3-15.4z"/></g><g><path class="st7" d="M202.3 176s-.3-.3-.8-.9c-.4-.6-1.1-1.6-1.6-2.9-.5-1.4-1-3.1-.9-5.2.1-2.1.7-4.4 2.2-6.6.7-1.1 1.7-2.1 2.8-3 1.1-.9 2.5-1.6 3.9-2.1 2.8-1.1 6.1-1.7 8.8-3.7 1.3-1 2.4-2.4 2.8-4.1.4-1.7.4-3.5.3-5.4-.3-3.7-.4-7.7.8-11.5 1.2-3.9 4-6.9 7.1-9 3.1-2.1 6.5-3.5 9.9-4.1 3.4-.7 6.7-.6 9.7 0 3 .6 5.7 1.8 7.8 3.3 4.3 3 6.6 6.8 7.6 9.5.5 1.4.8 2.5.9 3.2 0 .4.1.6.1.9v.3c-.1 0-.1-1.6-1.2-4.3-1.1-2.6-3.3-6.4-7.6-9.2-2.1-1.5-4.7-2.6-7.7-3.2-3-.6-6.2-.6-9.6 0-3.3.7-6.7 2-9.7 4.1-3 2.1-5.7 5-6.9 8.8-1.2 3.7-1.1 7.6-.8 11.3.1 1.9.2 3.7-.3 5.5-.5 1.8-1.6 3.3-3 4.4-2.8 2.1-6.2 2.7-9 3.7-2.9 1-5.1 2.8-6.6 4.9-1.5 2.1-2.1 4.4-2.2 6.4-.1 2 .3 3.8.8 5.1 1.2 2.6 2.4 3.7 2.4 3.8z"/></g><g><path class="st7" d="M200.6 179.4s-.4-.2-1.2-.7c-.7-.5-1.8-1.3-2.9-2.5-1.1-1.3-2.3-3-3.1-5.3-.8-2.3-1.2-5.1-.6-8.1.5-3 2-6.1 4.6-8.6 2.6-2.5 5.9-4.3 9.1-6.7 1.6-1.2 3.1-2.5 4.3-4.2 1.2-1.7 2-3.6 2.7-5.6 1.4-4.1 2-8.6 3.9-12.8 1.9-4.2 5.2-7.6 8.8-10 3.7-2.4 7.8-3.7 11.8-3.9 4-.3 7.8.4 11.2 1.6 3.3 1.2 6.2 3 8.5 5 4.6 4 6.9 8.5 8.1 11.6 1.2 3.1 1.4 5 1.4 5s0-.1-.1-.3c-.1-.2-.1-.6-.3-1-.3-.8-.6-2.1-1.3-3.6-1.3-3.1-3.6-7.5-8.1-11.4-2.3-1.9-5.1-3.7-8.4-4.9-3.3-1.2-7.1-1.9-11-1.6-3.9.3-8 1.5-11.6 3.9-3.6 2.3-6.7 5.7-8.6 9.8-1.9 4.1-2.5 8.6-3.9 12.7-.7 2.1-1.5 4.1-2.8 5.8-1.2 1.7-2.8 3.1-4.4 4.3-3.2 2.4-6.6 4.1-9.1 6.6-2.6 2.4-4 5.5-4.6 8.4-.6 2.9-.2 5.7.5 7.9.8 2.2 1.9 4 3 5.2 1.1 1.3 2.1 2.1 2.8 2.6.9.6 1.3.8 1.3.8z"/></g></g><g><path class="st14" d="M290.5 377.5s-41.3-9.6-47.6-10.1c-5.9-.4-7.5 3.3-7.5 3.3s-8.9-1.1-10.8 4.1c0 0-1.6 3 2.1 4.5s23.3 5.9 27.4 9.6 38 23 38 23l13.7 5.6s6.1-16.1 6.4-20.7c.3-4.6-1.4-7.1-1.4-7.1s8.5-8.7 9.5-12.2 7.1-15.5 7.1-15.5-5.8-5.9-11.5 1-8.9 10-10.5 11.3c-4.4 3.6-12.3 4-14.9 3.2z"/><path class="st15" d="M276.8 389.5s-.2 0-.4-.2c-.3-.2-.7-.4-1.2-.6-1.1-.5-2.6-1.3-4.4-2.1-3.8-1.8-9-4.1-15-6.3-3-1.1-5.9-2.1-8.5-2.9-2.6-.8-5-1.4-7-2.3-1.9-.8-3.3-1.9-4-2.9-.3-.5-.5-.9-.6-1.2-.1-.3-.1-.4-.1-.5.1 0 .2.6.9 1.5s2.1 1.9 4 2.7c1.9.8 4.3 1.3 7 2.2 2.6.8 5.5 1.8 8.5 2.9 6 2.2 11.2 4.6 15 6.4 1.9.9 3.4 1.7 4.4 2.3.5.3.8.5 1.2.7 0 .2.2.3.2.3zM303.6 375.7c.1.1-1.3 1.8-3.7 3.1-2.4 1.3-4.6 1.5-4.6 1.4 0-.2 2.1-.6 4.4-1.8 2.3-1.3 3.8-2.8 3.9-2.7z"/></g></g><path class="st8" d="M449 473.1c0 .1-89.1.3-199 .3s-199-.1-199-.3c0-.1 89.1-.3 199-.3 109.9.1 199 .2 199 .3z" id="Table"/><g id="Windows"><path class="st1" d="M164.9 145.9H33.2v54.2h118.4l8.1 8.1v-8.1h5.2z"/><path class="st8" d="M164.9 145.9V160.3c0 9.3.1 22.9.1 39.8v.2h-5.4l.2-.2v8.6l-.3-.3c-2.5-2.5-5.3-5.2-8.1-8.1l.1.1c-31.3 0-70.4 0-112.7.1H33v-54.7h.2c38.3 0 71.3.1 94.6.1 11.6 0 20.9.1 27.3.1h9.2c.3-.1.6-.1.6-.1H155c-6.4 0-15.6 0-27.3.1-23.3 0-56.2.1-94.5.1l.2-.2v54.2l-.3-.3h5.7c42.3 0 81.3 0 112.7.1h.1l.1.1c2.8 2.8 5.5 5.6 8.1 8.1l-.3.1V199.9h5.4l-.2.2c0-16.9.1-30.4.1-39.7v-13.5c0-.6.1-1 .1-1z"/><path class="st2" d="M150.7 166H90.4c-1.2 0-2.1-1-2.1-2.1v-.2c0-1.2 1-2.1 2.1-2.1h60.3c1.2 0 2.1 1 2.1 2.1v.2c.1 1.1-.9 2.1-2.1 2.1zM150.7 176.1H90.4c-1.2 0-2.1-1-2.1-2.1v-.2c0-1.2 1-2.1 2.1-2.1h60.3c1.2 0 2.1 1 2.1 2.1v.2c.1 1.1-.9 2.1-2.1 2.1zM150.7 186.2H90.4c-1.2 0-2.1-1-2.1-2.1v-.2c0-1.2 1-2.1 2.1-2.1h60.3c1.2 0 2.1 1 2.1 2.1v.2c.1 1.1-.9 2.1-2.1 2.1z"/><path class="st7" d="M72.9 190.5H48.6c-2.5 0-4.5-2-4.5-4.5v-24.4c0-2.5 2-4.5 4.5-4.5H73c2.5 0 4.5 2 4.5 4.5V186c-.1 2.5-2.1 4.5-4.6 4.5z"/><path class="st1" d="m47.4 183.7-.8-.6 6.7-8c.8-1.1 2.2-1.3 3.4-.6l4 2.6 4.7-5.9c.4-.6 1.1-.9 1.8-.9s1.4.3 1.9.8l5.8 6.2-.7.7-5.8-6.2c-.3-.3-.7-.5-1.1-.5-.4 0-.8.2-1.1.6l-5.2 6.6-4.7-3.2c-.7-.4-1.5-.3-2 .4l-6.9 8z"/><circle class="st1" cx="57.8" cy="165.8" r="3"/><g><path class="st1" d="M401.9 244.1H282.2v51h12.3l1.3 11.2 9.3-11.2h96.8z"/><path class="st8" d="M401.9 244.1v13.6c0 8.8.1 21.6.1 37.5v.2h-.2c-25.2 0-58.9 0-96.8.1l.2-.1c-2.9 3.6-6 7.4-9.2 11.2l-.4.5-.1-.6c-.4-3.6-.9-7.4-1.3-11.2l.3.2H281.8V244h.2c34.9 0 64.9.1 86.1.1 10.6 0 19 .1 24.7.1H401.1c.6-.1.8-.1.8-.1H393c-5.8 0-14.2 0-24.8.1-21.2 0-51.1.1-85.9.1l.2-.2v51l-.3-.3h12.6v.2c.4 3.9.9 7.7 1.3 11.2l-.5-.1c3.2-3.9 6.3-7.7 9.2-11.2l.1-.1h.1c37.9 0 71.6.1 96.8.1l-.2.2c0-15.8.1-28.6.1-37.3v-12.7c.1-.7.2-1 .2-1z"/><path class="st2" d="M387.6 260.2h-47.5c-1.3 0-2.4-1.1-2.4-2.4 0-1.3 1.1-2.4 2.4-2.4h47.5c1.3 0 2.4 1.1 2.4 2.4 0 1.3-1.1 2.4-2.4 2.4zM387.6 270.9h-47.5c-1.3 0-2.4-1.1-2.4-2.4 0-1.3 1.1-2.4 2.4-2.4h47.5c1.3 0 2.4 1.1 2.4 2.4 0 1.3-1.1 2.4-2.4 2.4zM387.6 281.6h-47.5c-1.3 0-2.4-1.1-2.4-2.4 0-1.3 1.1-2.4 2.4-2.4h47.5c1.3 0 2.4 1.1 2.4 2.4 0 1.3-1.1 2.4-2.4 2.4z"/><g><path class="st0" d="M321.7 286.2h-26.4c-2.5 0-4.5-2-4.5-4.5v-26.4c0-2.5 2-4.5 4.5-4.5h26.4c2.5 0 4.5 2 4.5 4.5v26.4c0 2.4-2 4.5-4.5 4.5z"/><path class="st1" d="m294.4 279-.8-.6 7.1-8.5c.8-1.1 2.3-1.4 3.5-.6l4.2 2.8 5-6.3c.5-.6 1.2-.9 1.9-1 .7 0 1.5.3 2 .8l6.1 6.6-.7.7-6.1-6.6c-.3-.3-.8-.5-1.2-.5-.5 0-.9.2-1.2.6l-5.5 7-5-3.3c-.7-.5-1.7-.3-2.2.4l-7.1 8.5zM308.5 260c0 1.7-1.4 3.2-3.2 3.2s-3.2-1.4-3.2-3.2 1.4-3.2 3.2-3.2c1.8.1 3.2 1.5 3.2 3.2z"/></g></g><g><path class="st1" d="M155.7 233.2H60.4c-3.5 0-6.3 2.8-6.3 6.3v55.4c0 3 2.5 5.5 5.5 5.5h77.6l12.2 12.2v-12.2h4.5c3.7 0 6.6-3 6.6-6.6v-55.6c.2-2.8-2.1-5-4.8-5z"/><path class="st2" d="M160.1 246.3H54.7c-.3 0-.6-.3-.6-.6v-5.8c0-3.7 3-6.7 6.7-6.7h95c2.7 0 4.9 2.2 4.9 4.9v7.6c0 .3-.3.6-.6.6z"/><path class="st11" d="M92.4 288.9H69.5c-2.5 0-4.5-2-4.5-4.5v-22.9c0-2.5 2-4.5 4.5-4.5h22.9c2.5 0 4.5 2 4.5 4.5v22.9c0 2.5-2 4.5-4.5 4.5z"/><path d="M94.1 276.6s-.4-.3-1.1-1c-.7-.7-1.6-1.7-2.7-2.8-.6-.6-1.2-1.3-1.9-2-.6-.7-1.8-.7-2.4.1-1.4 1.7-2.9 3.6-4.4 5.6-.1.1-.2.3-.3.4l-.1.2-.2-.1c-1.2-.8-2.3-1.6-3.4-2.3-.3-.2-.5-.4-.8-.5-.2-.1-.5-.2-.8-.2-.6 0-1.1.3-1.4.7-1.9 2.2-3.5 4.1-4.7 5.5-.5.6-1 1.1-1.4 1.5l-.5.5s.1-.2.4-.6c.3-.4.8-1 1.3-1.6 1.2-1.4 2.7-3.4 4.6-5.6.4-.5 1-.9 1.8-.9.4 0 .7.1 1 .3.3.2.6.4.8.5 1.1.7 2.3 1.5 3.5 2.3l-.3.1c.1-.1.2-.3.3-.4 1.6-2 3.1-3.9 4.5-5.6.4-.5 1-.7 1.6-.7.6 0 1.1.3 1.5.7.7.7 1.3 1.4 1.8 2 1.1 1.2 1.9 2.2 2.6 3 .4.4.8.8.7.9zM81 265.3c0 1.6-1.3 2.9-2.8 2.9s-2.8-1.3-2.8-2.9 1.3-2.9 2.8-2.9 2.8 1.3 2.8 2.9z" class="st10"/><path class="st8" d="M155.7 233.2s.5-.1 1.4.2c.9.2 2.3.9 3.1 2.6.4.8.6 1.9.5 3v12.8c0 6.8 0 15.1.1 24.6v15.2c0 1.3.1 2.8-.4 4.1-.5 1.3-1.3 2.6-2.5 3.4-1.1.9-2.6 1.4-4.1 1.5h-4.4l.2-.2v12.7l-.4-.4-12.2-12.2.2.1H60.7c-.7 0-1.5.1-2.3-.1-1.6-.3-2.9-1.3-3.8-2.6-.4-.7-.7-1.4-.8-2.2-.1-.8-.1-1.5-.1-2.3v-52.9c0-.7 0-1.3.1-2 .2-1.3.8-2.6 1.7-3.6.9-1 2.1-1.6 3.4-1.9.6-.1 1.3-.1 1.9-.1h42.7c16 0 29 .1 38 .1h13c.9.2 1.2.2 1.2.2h-13.9c-9 0-21.9 0-38 .1H63c-1.2 0-2.5-.1-3.7.1-1.2.3-2.3.9-3.2 1.8-.9.9-1.4 2.1-1.6 3.3-.1.6-.1 1.3-.1 1.9v52.9c0 .7 0 1.5.1 2.2.1.7.3 1.4.7 2 .7 1.2 2 2.1 3.4 2.4.7.1 1.4.1 2.2.1h76.6l.1.1c4.2 4.2 8.3 8.4 12.2 12.2l-.4.2V300.1H153.9c1.4-.1 2.8-.6 3.8-1.4 1.1-.8 1.9-2 2.4-3.2.5-1.3.4-2.6.4-4v-15.2c0-9.5 0-17.8.1-24.6v-12.8c.1-1.1-.1-2.1-.5-2.9-.8-1.6-2.2-2.3-3-2.6-.9-.2-1.4-.1-1.4-.2z"/><path class="st1" d="M63.3 239.5c0 1.2-1 2.2-2.2 2.2s-2.2-1-2.2-2.2 1-2.2 2.2-2.2 2.2 1 2.2 2.2zM70.1 239.5c0 1.2-1 2.2-2.2 2.2s-2.2-1-2.2-2.2 1-2.2 2.2-2.2 2.2 1 2.2 2.2zM76.8 239.5c0 1.2-1 2.2-2.2 2.2s-2.2-1-2.2-2.2 1-2.2 2.2-2.2 2.2 1 2.2 2.2z"/><path class="st8" d="M146.4 263.2c0 .1-8.7.3-19.4.3s-19.4-.1-19.4-.3 8.7-.3 19.4-.3c10.7.1 19.4.2 19.4.3z"/><g><path class="st8" d="M146.4 270.6c0 .1-8.7.3-19.4.3s-19.4-.1-19.4-.3 8.7-.3 19.4-.3 19.4.1 19.4.3z"/></g><g><path class="st8" d="M146.4 278c0 .1-8.7.3-19.4.3s-19.4-.1-19.4-.3c0-.1 8.7-.3 19.4-.3s19.4.1 19.4.3z"/></g></g><g><path class="st1" d="M322.6 170.1h102.1v51.6h-84.1l-9.4 9.4v-9.4h-8.6z"/><path class="st8" d="M322.6 170.1V184c0 8.9.1 21.8.1 37.7l-.2-.2H331.3v9.6l-.4-.2 9.4-9.4.1-.1H424.6l-.3.3v-51.6l.2.2c-29.9 0-55.3-.1-73.4-.1-9 0-16.2-.1-21.1-.1H322.6h7.5c4.9 0 12 0 21-.1 18.1 0 43.6-.1 73.5-.1h.2V222h-84.4l.2-.1-9.4 9.4-.4.4v-9.9l.2.2H322.2v-.2c0-16 .1-28.9.1-37.8V171.2c.3-.8.3-1.1.3-1.1z"/><path class="st8" d="M407.5 185.9c0 .1-15.3.3-34.1.3s-34.1-.1-34.1-.3 15.3-.3 34.1-.3c18.9 0 34.1.1 34.1.3zM407.5 193.2c0 .1-15.3.3-34.1.3s-34.1-.1-34.1-.3c0-.1 15.3-.3 34.1-.3 18.9.1 34.1.2 34.1.3z"/><g><path class="st8" d="M407.5 200.6c0 .1-15.3.3-34.1.3s-34.1-.1-34.1-.3 15.3-.3 34.1-.3c18.9 0 34.1.2 34.1.3z"/></g></g><g><path class="st1" d="M169.6 72.9H97.3v51.6h54.4l9.3 9.4v-9.4h8.6z"/><path class="st8" d="M169.6 72.9v3.6c0 2.4 0 5.9.1 10.3 0 9 .1 21.9.1 37.7v.2H161l.2-.2v10l-.4-.4-9.4-9.4.2.1H97V72.7h.2c21.5 0 39.6.1 52.4.1 6.3 0 11.3 0 14.8.1h5.2-5.3c-3.4 0-8.5 0-14.8.1-12.7 0-30.8.1-52.2.1l.2-.2v51.6l-.3-.3h54.5l.1.1c3.2 3.3 6.4 6.4 9.4 9.4l-.4.2v-9.6H169.6l-.2.2c0-15.7.1-28.6.1-37.5 0-4.5 0-8 .1-10.4v-3.7z"/><path class="st8" d="M114 88.7c0-.1 8.7-.3 19.4-.3s19.4.1 19.4.3-8.7.3-19.4.3c-10.7-.1-19.4-.2-19.4-.3zM114 96c0-.1 8.7-.3 19.4-.3s19.4.1 19.4.3c0 .1-8.7.3-19.4.3S114 96.2 114 96z"/><g><path class="st8" d="M114 103.4c0-.1 8.7-.3 19.4-.3s19.4.1 19.4.3-8.7.3-19.4.3c-10.7-.1-19.4-.2-19.4-.3z"/></g></g><g><path class="st1" d="M251.4 32.8h-50v50h4.8v7.4l7.4-7.4h37.8z"/><path class="st8" d="M251.4 32.8v3.5c0 2.3 0 5.8.1 10.1 0 8.8.1 21.3.1 36.3v.2H213.7l.2-.1-7.4 7.4-.4.4v-8.1l.3.3h-5.1V32.3h.2c15 0 27.6.1 36.3.1 4.3 0 7.8 0 10.1.1h2.6c.6.3.9.3.9.3h-3.6c-2.4 0-5.8 0-10.2.1-8.7 0-21.2.1-36.2.1l.2-.2v50l-.3-.3h5.1v7.8l-.4-.2 7.4-7.4.1-.1H251.3l-.2.2c0-15 .1-27.5.1-36.2 0-4.4 0-7.8.1-10.1v-2.7c.1-.6.1-1 .1-1z"/><g><path class="st7" d="M229.1 57.8c2.6-1.1 4.5-3.8 4.5-7 0-4.2-3.1-7.6-7.1-7.6-3.9 0-7.1 3.4-7.1 7.5 0 3.2 1.9 6 4.5 7.1-10.9 1.6-10.4 13.5-10.4 13.5l25.8.1s.6-11.9-10.2-13.6z"/></g></g><g><path class="st1" d="M359.1 99.4H409v49.9h-4.7v7.5l-7.5-7.5h-37.7z"/><path class="st8" d="M359.1 99.4v3.6c0 2.4 0 5.8.1 10.1 0 8.7.1 21.2.1 36.2l-.2-.2H396.9l.1.1 7.4 7.4-.4.2V149h5.1l-.3.3v-50l.2.2c-15 0-27.5-.1-36.2-.1-4.4 0-7.8 0-10.2-.1h-2.7c-.5.1-.8.1-.8.1h3.5c2.4 0 5.8 0 10.1-.1 8.8 0 21.3-.1 36.3-.1h.2v50.5h-5l.3-.3v8.1l-.4-.4-7.4-7.4.2.1H359v-.2c0-15.1.1-27.6.1-36.3 0-4.3 0-7.7.1-10.1v-2.6c-.2-.9-.1-1.2-.1-1.2z"/><g><path d="M396.2 121.3c0-7.5-6.8-13.4-14.5-11.9-4.9.9-8.8 4.9-9.6 9.8-.5 3.1.1 5.9 1.5 8.3.5.8 1 1.3 1.6 2.2l7.1 9.3c.9 1.2 2.6 1.2 3.5 0l6.9-9.2s1.3-1.5 1.8-2.3c1.1-1.8 1.7-3.9 1.7-6.2zm-12.2 5.3c-3 0-5.3-2.4-5.3-5.3 0-3 2.4-5.3 5.3-5.3 3 0 5.3 2.4 5.3 5.3.1 2.9-2.3 5.3-5.3 5.3z" style="fill:#825fff"/></g></g><g><path class="st1" d="M253.9 270.9h-52c-2.6 0-4.7 2.1-4.7 4.7v48c0 2.6 2.1 4.7 4.7 4.7h42.7l8.6 8.6v-8.6h.8c2.6 0 4.7-2.1 4.7-4.7v-48c-.1-2.6-2.2-4.7-4.8-4.7z"/><path class="st8" d="M253.9 270.9s.4-.1 1.2.1c.7.2 1.9.7 2.8 1.9.4.6.8 1.4.8 2.4v10.4c0 5.6 0 12.3.1 20.1v17.3c0 .5 0 1.2-.2 1.7-.3 1.2-1 2.2-2 2.9-.5.3-1.1.6-1.7.7-.6.1-1.2.1-1.8.1l.2-.2v9.2l-.4-.4c-2.7-2.7-5.6-5.6-8.6-8.5l.2.1H201.7c-1.1 0-2.1-.4-3-1.1-.8-.7-1.4-1.6-1.7-2.7-.1-.5-.2-1.1-.1-1.6v-47.6c0-.4.1-.9.2-1.3.4-1.7 1.8-3 3.5-3.5.8-.2 1.7-.2 2.4-.2h15.5c10.9 0 19.8.1 25.9.1h8.8c.4.1.7.1.7.1h-9.4c-6.1 0-15 0-25.9.1h-15.5c-.8 0-1.6 0-2.3.2-1.5.4-2.7 1.6-3.1 3.2-.2.8-.1 1.6-.2 2.4v44.8c0 1-.1 2 .1 3 .2.9.8 1.8 1.5 2.4.8.6 1.7 1 2.7 1H244.7l.1.1c3 3 5.8 5.9 8.5 8.6l-.4.2V328.1h.2c.6 0 1.2 0 1.7-.1s1.1-.3 1.5-.6c.9-.6 1.6-1.6 1.9-2.6.1-.5.2-1.1.2-1.6v-17.3c0-7.7 0-14.5.1-20.1v-10.4c-.1-.9-.4-1.7-.8-2.3-.9-1.2-2-1.7-2.7-1.9-.7-.3-1.1-.3-1.1-.3z"/><g><path class="st7" d="M241.5 317.6H215c-4.2 0-7.7-3.4-7.7-7.7V290c0-4.2 3.4-7.7 7.7-7.7h26.5c4.2 0 7.7 3.4 7.7 7.7v20c0 4.2-3.4 7.6-7.7 7.6z"/><path class="st1" d="M225.5 307.8c-1.1.6-2.4-.2-2.4-1.4v-12.7c0-1.3 1.4-2 2.4-1.4l5.5 3.2 5.5 3.2c1.1.6 1.1 2.2 0 2.8l-5.5 3.2-5.5 3.1z"/></g></g></g><g id="Speech_Bubble"><circle transform="rotate(-24.802 318.779 68.238)" class="st1" cx="318.8" cy="68.2" r="35.6"/><path class="st8" d="M354.4 68.2s0-.2-.1-.6c0-.4-.1-1-.1-1.7 0-.4 0-.8-.1-1.2 0-.5-.1-1-.2-1.5-.2-1.1-.3-2.3-.7-3.7-.6-2.8-1.9-6-3.9-9.4-2-3.4-5-7-9-10.1-4-3-9.1-5.6-14.9-6.6-1.5-.2-2.9-.5-4.5-.5-.8 0-1.5-.1-2.3-.1-.8 0-1.6.1-2.3.1-.4 0-.8 0-1.2.1l-1.2.2c-.8.1-1.6.2-2.4.4-1.6.4-3.2.7-4.7 1.4-1.6.5-3.1 1.3-4.6 2-.7.4-1.5.9-2.2 1.3-.8.4-1.4.9-2.1 1.5-1.4 1-2.7 2.2-4 3.4-1.2 1.3-2.4 2.6-3.5 4.1-2.1 2.9-3.9 6.2-5.1 9.7-1.2 3.5-1.8 7.3-1.8 11.2.1 3.8.7 7.6 1.8 11.2.3.9.6 1.8 1 2.6s.8 1.7 1.2 2.5c.2.4.4.8.7 1.2l.7 1.2.7 1.2.8 1.1c1 1.5 2.3 2.8 3.5 4.1 1.3 1.2 2.6 2.4 4 3.4.7.5 1.4 1.1 2.1 1.5.7.4 1.5.9 2.2 1.3 1.5.7 3 1.5 4.6 2 1.5.6 3.2 1 4.7 1.4.8.2 1.6.3 2.4.4l1.2.2c.4.1.8 0 1.2.1.8 0 1.6.1 2.3.1.8 0 1.5-.1 2.3-.1 1.5 0 3-.3 4.5-.5 5.8-1 10.9-3.6 14.9-6.6 4-3 7-6.6 9-10.1 2-3.4 3.3-6.7 3.9-9.4.4-1.4.6-2.6.7-3.7.1-.5.2-1 .2-1.5s.1-.9.1-1.2c0-.7.1-1.3.1-1.7.1-.5.1-.7.1-.7v.6c0 .4 0 1-.1 1.7 0 .4 0 .8-.1 1.3 0 .5-.1 1-.2 1.5-.2 1.1-.3 2.3-.7 3.7-.6 2.8-1.9 6.1-3.9 9.5-2 3.5-5 7.1-9 10.2-4 3.1-9.1 5.7-15.1 6.7-1.5.2-3 .5-4.5.5-.8 0-1.6.1-2.3.1-.8 0-1.6-.1-2.4-.1-.4 0-.8 0-1.2-.1l-1.2-.2c-.8-.1-1.6-.2-2.4-.4-1.6-.4-3.2-.7-4.8-1.4-1.6-.5-3.1-1.3-4.7-2-.8-.4-1.5-.9-2.2-1.3-.8-.4-1.5-1-2.2-1.5-1.5-1-2.7-2.2-4.1-3.5-1.2-1.3-2.5-2.6-3.5-4.2l-.8-1.1-.7-1.2-.7-1.2c-.3-.4-.5-.8-.7-1.2-.4-.8-.8-1.7-1.2-2.5-.3-.9-.6-1.8-1-2.7-1.2-3.6-1.8-7.4-1.9-11.3.1-3.9.7-7.7 1.9-11.3 1.1-3.6 3-6.9 5.1-9.9 1-1.5 2.3-2.8 3.5-4.2 1.3-1.2 2.6-2.5 4.1-3.5.7-.5 1.4-1.1 2.2-1.5.8-.4 1.5-.9 2.2-1.3 1.6-.7 3.1-1.5 4.7-2 1.6-.6 3.2-1 4.8-1.4.8-.2 1.6-.3 2.4-.4l1.2-.2c.4-.1.8 0 1.2-.1.8 0 1.6-.1 2.4-.1.8 0 1.6.1 2.3.1 1.6 0 3 .3 4.5.5 5.9 1.1 11 3.7 15.1 6.7 4 3.1 7 6.7 9 10.2 2 3.5 3.3 6.8 3.9 9.5.4 1.4.5 2.6.7 3.7.1.5.2 1 .2 1.5s0 .9.1 1.3c0 .7 0 1.3.1 1.7v.8z"/><path class="st8" d="M312.3 82c1.7-.2 2.8-.4 3.2-.9.4-.4.7-1.6.7-3.4V66.3c0-1-.1-1.7-.2-2.1-.2-.7-.7-1-1.5-1h-.5c-.2 0-.6.2-1.4.4v-.7l1-.3c2.8-.9 4.7-1.6 5.8-2 .4-.2.7-.3.9-.3v17.5c0 1.8.2 2.9.7 3.4.4.5 1.4.8 3 .9v.7h-11.6V82zm3.8-31.9c.5-.5 1.1-.7 1.8-.7s1.3.2 1.8.7.7 1.1.7 1.8-.2 1.3-.7 1.7c-.5.5-1.1.7-1.8.7s-1.3-.2-1.8-.7c-.5-.5-.7-1.1-.7-1.7-.1-.7.2-1.3.7-1.8z"/><g><path class="st1" d="M294.8 107.6c0 3.1-2.5 5.6-5.6 5.6-3.1 0-5.6-2.5-5.6-5.6 0-3.1 2.5-5.6 5.6-5.6s5.6 2.5 5.6 5.6z"/><path class="st8" d="M294.8 107.6c-.1 0 0-.5-.3-1.3-.2-.8-.8-2-2.1-3-1.2-.9-3.2-1.4-5.1-.7-1.9.7-3.5 2.7-3.5 5 0 2.4 1.6 4.4 3.5 5 1.9.7 3.9.2 5.1-.7 1.2-.9 1.8-2.1 2.1-3 .3-.8.2-1.3.3-1.3v.4c0 .2 0 .6-.1 1-.2.9-.7 2.2-2 3.2s-3.4 1.6-5.5.9c-1-.4-2-1.1-2.7-2-.7-1-1.1-2.2-1.1-3.5 0-1.3.4-2.5 1.1-3.5.7-1 1.7-1.7 2.7-2 2.1-.8 4.2-.1 5.5.9 1.3 1 1.8 2.3 2 3.2.1.4.1.8.1 1v.4z"/></g></g></svg>