<svg version="1.1" xmlns="http://www.w3.org/2000/svg" width="123" height="117" fill="none"><g><path d="M116.902 31.828a13.537 13.537 0 0 0-8.095-6.584l-5.678-1.693a13.89 13.89 0 0 0-1.164-.292 13.54 13.54 0 0 0-15.315 8.129 25.776 25.776 0 0 0-3.945-1.546l-28.392-8.466a25.687 25.687 0 0 0-2.178-.547 25.519 25.519 0 0 0-1.97-.319c.58-3.068.098-6.217-1.405-9a13.534 13.534 0 0 0-8.094-6.584l-5.679-1.694a13.697 13.697 0 0 0-1.163-.293c-6.969-1.43-13.76 2.643-15.794 9.475l-1.695 5.685a13.566 13.566 0 0 0 1.07 10.387 13.605 13.605 0 0 0 3.48 4.174 19.391 19.391 0 0 0-6.979 9.183 17 17 0 0 0-.92 7.877 10.654 10.654 0 0 0-4.823 6.18 34.252 34.252 0 0 0 .565 21.344 5.425 5.425 0 0 0-1.527 2.446 5.426 5.426 0 0 0 .43 4.157 5.427 5.427 0 0 0 4.532 2.848 5.429 5.429 0 0 0 1.292 5.205 5.464 5.464 0 0 0 2.86 1.592c.755.155 1.52.136 2.253-.023a5.424 5.424 0 0 0 2.599 4.702 5.4 5.4 0 0 0 1.751.692 5.468 5.468 0 0 0 4.87-1.415c.734.308 1.487.588 2.252.848.39.138.784.266 1.183.386l.05.016 28.392 8.466a25.383 25.383 0 0 0 20.315-2.533 25.442 25.442 0 0 0 11.387-14.634l8.47-28.427a25.94 25.94 0 0 0 .87-4.155c6.889 1.298 13.556-2.756 15.57-9.515l1.695-5.685a13.565 13.565 0 0 0-1.07-10.387Z" fill="#fff"></path><path d="m41.052 34.755-14.197-4.233c-4.704-1.403-7.38-6.358-5.976-11.068l1.694-5.686c1.403-4.71 6.354-7.39 11.059-5.988l5.678 1.693c4.704 1.403 7.38 6.359 5.976 11.069l-4.235 14.213Z" fill="#0E1014"></path><path d="M32.147 93.997c.158.052.322.105.481.152l28.392 8.468c10.977 3.27 22.529-2.983 25.805-13.973l8.472-28.426c3.272-10.99-2.97-22.552-13.945-25.827l-28.396-8.468c-10.977-3.27-22.53 2.983-25.801 13.973l-4.238 14.213-2.837-.844a5.925 5.925 0 0 0-7.371 3.991C8.076 72.797 16.764 89.13 32.146 93.997Z" fill="#edecea"></path><path d="m92.517 43.606-1.892 1.792a4.448 4.448 0 0 1 4.317 4.573l-3.162-.087 8.897 2.65c4.702 1.4 9.656-1.28 11.058-5.987l1.695-5.689c1.401-4.707-1.273-9.665-5.975-11.066l-5.682-1.694c-4.702-1.401-9.656 1.279-11.058 5.99l-2.458 8.251a4.432 4.432 0 0 1 4.26 1.267Zm-20.21 15.946c-1.686 7.19-9.113 11.211-16.588 8.982-7.475-2.229-11.489-9.662-8.965-16.602 2.524-6.94 9.95-10.961 16.588-8.982 6.637 1.98 10.651 9.412 8.965 16.602Z" fill="#0E1014"></path><path d="M69.329 59.135c-1.875 5.418-7.782 8.291-13.194 6.417-5.411-1.875-8.278-7.787-6.403-13.206l19.597 6.79Z" fill="#F1E9BC"></path><path d="M49.732 52.347c1.875-5.418 7.782-8.291 13.194-6.416 5.411 1.874 8.278 7.786 6.403 13.205l-19.597-6.79Z" fill="#0E1014"></path><path d="M58.835 59.132a3.459 3.459 0 0 1-2.69-4.085 3.459 3.459 0 0 1 4.081-2.695 3.459 3.459 0 0 1 2.69 4.085 3.459 3.459 0 0 1-4.081 2.695Zm-39.991-6.097c.244.016.488.052.73.102.167.034.337.078.506.128l18.35 5.471c2.688-1.662 4.704-4.315 5.485-7.648 1.684-7.193-2.327-14.625-8.967-16.603-6.634-1.982-14.06 2.041-16.588 8.98-1.191 3.282-.924 6.67.484 9.57Z" fill="#0E1014"></path><path d="M41.195 49.801c-1.397 5.56-7.032 8.938-12.586 7.543-5.554-1.395-8.925-7.035-7.529-12.596l20.115 5.053Z" fill="#F1E9BC"></path><path d="M21.08 44.749c1.397-5.561 7.032-8.939 12.586-7.543 5.555 1.395 8.926 7.034 7.53 12.595L21.08 44.75Z" fill="#0E1014"></path><path d="M30.442 50.666a3.459 3.459 0 0 1-2.69-4.085 3.459 3.459 0 0 1 4.081-2.695 3.459 3.459 0 0 1 2.69 4.085 3.459 3.459 0 0 1-4.081 2.695Zm-5.68 2.446 8.517 2.54a2.965 2.965 0 0 1 1.992 3.69 2.964 2.964 0 0 1-3.686 1.996l-8.518-2.54a2.965 2.965 0 0 1-1.992-3.69 2.964 2.964 0 0 1 3.687-1.996Z" fill="#0E1014"></path><path d="M24.158 70.7a.712.712 0 0 1-.478-.886l3.388-11.37a.712.712 0 1 1 1.363.406l-3.388 11.37a.712.712 0 0 1-.885.48Z" fill="#0E1014"></path><path d="M23.958 71.372a57.49 57.49 0 0 1-8.421-3.252.712.712 0 0 1 .614-1.284 55.939 55.939 0 0 0 16.822 5.016.712.712 0 0 1-.188 1.412 57.416 57.416 0 0 1-8.827-1.891ZM23.813 94.2a.711.711 0 0 1-.402-1.055l3.105-5.054a.711.711 0 1 1 1.21.746l-3.105 5.053a.711.711 0 0 1-.809.31Zm-6.603-5.37a.712.712 0 0 1-.284-1.2l4.306-4.077a.71.71 0 1 1 .977 1.034l-4.307 4.077a.71.71 0 0 1-.693.165Zm-4.987-6.9a.712.712 0 0 1-.135-1.308l5.214-2.822a.712.712 0 0 1 .676 1.252l-5.214 2.823a.707.707 0 0 1-.54.056Z" fill="#0E1014"></path></g><defs><linearGradient id="svg-1248083367_4359_b" x1="84.707" y1="94.48" x2="28.338" y2="34.941" gradientUnits="userSpaceOnUse"><stop stop-color="#ECEBE7"></stop><stop offset="1" stop-color="#F2F0F2"></stop></linearGradient><clipPath id="svg-1248083367_4359_a"><path fill="#fff" transform="scale(-1 1) rotate(-11.598 42.75 612.95)" d="M0 0h105v97H0z"></path></clipPath></defs></svg>