<svg height="512" viewBox="0 0 176 176" width="512" xmlns="http://www.w3.org/2000/svg"><g data-name="Layer 2"><g data-name="10.linkedin"><path d="M0 0h144.46A31.54 31.54 0 0 1 176 31.54V176H31.54A31.54 31.54 0 0 1 0 144.46V0z" fill="#0b69c7"/><g fill="#fff"><path d="M65.64 51.65A13.66 13.66 0 1 1 52 38a13.66 13.66 0 0 1 13.64 13.65zM62.55 74.37v60.25a3.38 3.38 0 0 1-3.38 3.38H44.8a3.38 3.38 0 0 1-3.38-3.38V74.37A3.38 3.38 0 0 1 44.8 71h14.37a3.38 3.38 0 0 1 3.38 3.37zM137.67 105.73v29.16a3.1 3.1 0 0 1-3.1 3.11h-15.43a3.1 3.1 0 0 1-3.1-3.11v-28.26c0-4.22 1.23-18.48-11-18.48-9.5 0-11.43 9.76-11.81 14.14v32.6a3.11 3.11 0 0 1-3.14 3.11H75.17a3.1 3.1 0 0 1-3.11-3.11V74.1a3.11 3.11 0 0 1 3.11-3.1h14.92a3.11 3.11 0 0 1 3.11 3.1v5.25C96.72 74.06 102 70 113.11 70c24.7 0 24.56 23.05 24.56 35.73z"/></g></g></g></svg>