<svg id="Layer_1" height="512" viewBox="0 0 50 50" width="512" xmlns="http://www.w3.org/2000/svg" fill="none" stroke="#1da8ff" stroke-width="2px"><g><g><g><path d="m25 7c-7.5-14.2-25.5 5.8 0 19.2 25.5-13.4 7.5-33.3 0-19.2z" /></g></g><g><g><path d="m39.3 28.1c1.1-.7 2.5-.4 3.3.6.7 1 .6 2.4-.3 3.3-.1.1-.2.2-.3.3l-5 3.7"/><path d="m35.5 47.8.5-1.5c.5-1.6 1.4-3.1 2.7-4.2l4.9-4.1c1.4-1 2.3-2.6 2.4-4.3l1.1-21.1c.1-.8-.2-1.5-.7-2-.4-.4-1-.7-1.6-.7-1.4-.1-2.6 1-2.7 2.3l-2.9 15.8c-.1 0-.1.1-.2.1l-9 7c-1.1.8-1.9 2.1-2.1 3.4l-.8 5.3"/></g><g><path d="m10.7 28.1c-1.1-.7-2.5-.4-3.3.6-.7 1-.6 2.4.3 3.3.1.1.2.2.3.3l5 3.7"/><path d="m14.5 47.8-.5-1.5c-.5-1.6-1.4-3.1-2.7-4.2l-4.9-4.1c-1.4-1-2.3-2.6-2.4-4.3l-1.2-21c-.1-.8.2-1.5.7-2 .4-.4 1-.7 1.6-.7 1.4-.1 2.6 1 2.7 2.3l2.9 15.8c.1 0 .1.1.2.1l9.1 6.9c1.1.8 1.9 2.1 2.1 3.4l.8 5.3"/></g></g></g></svg>