<svg xmlns="http://www.w3.org/2000/svg" viewBox="0 0 1024 1024" style="enable-background:new 0 0 1024 1024" xml:space="preserve"><path style="fill:#07206e" d="m868.788 726.886.166-.771c.498-2.164 2.136-7.335 3.796-8.696 1.203.252 1.652.415 2.482 1.332l-18.845 62.813-.486.123c-1.265-3.504 3.089-13.066 4.229-16.96 1.114-3.803 2.017-7.647 3.173-11.445 1.991-6.535 4.261-13.569 5.558-20.265.208-1.069.935-3.52.785-4.516-.089-.605-.572-1.077-.858-1.615z"/><path style="fill:#4934eb" d="M788.636 866.548c2.358-.887 6.425-.289 9.025-.273 7.251.04 14.503.07 21.755.079 4.25.007 8.982.313 13.152-.548 1.237-.255 1.313-.069 2.458.354-3.074 3.361-5.95 6.015-10.775 6.354-5.614.393-11.371.287-17 .305-3.685.011-8.239.382-11.754-.84-1.475-.514-2.771-1.541-3.926-2.563l-2.935-2.868z"/><path style="fill:#010103" d="m431.128 725.494 1.858.42-.496 19.305c-6.699 4.02-14.241 6.92-21.532 9.71l-.398-1.179 14.635-20.899 5.933-7.357z"/><path style="fill:#add1f6" d="M797.076 143.475c14.962 1.704 31.035 9.168 44.128 16.306 12.729 6.941 23.262 16.645 33.345 26.895 1.649 1.675 4.934 4.216 5.399 6.481.182.886-.832 1.953-1.308 2.689-.63-.082-1.328.052-1.891-.246-.482-.256-1.633-1.819-2.065-2.294-2.102-2.314-4.207-4.634-6.435-6.828-6.471-6.369-13.366-11.846-20.825-17.017-10.78-7.474-22.041-13.317-34.499-17.445-5.352-1.774-10.947-3.011-16.176-5.112-.455-1.469-.108-1.983.327-3.429z"/><path style="fill:#010103" d="M632.163 717.997c-2.42-7.226-4.744-14.445-7.358-21.608-3.158-8.649-7.67-18.322-8.931-27.438-.421-3.037-.493-6.502 1.403-9.056 5.504 11.13 10.78 22.397 16.049 33.641 2.456 5.241 4.959 10.437 7.59 15.593 1.34 2.628 2.621 5.674 4.472 7.964l-.888.91-12.337-.006z"/><path style="fill:#4934eb" d="m578.007 556.895 9.271 2.854c-11.473 14.452-23.721 26.678-43.029 28.805-9.429 1.038-18.798-.941-26.362-6.923-6.662-5.268-10.181-13.214-13.604-20.78l8.207-2.693c.041 2.984.289 5.392 1.761 8.061 3.13 5.681 8.614 9.842 14.8 11.653l.95.274c7.232 2.155 17.404.814 24.514-1.57 9.788-3.282 18.886-10.332 23.492-19.681z"/><path style="fill:#add1f6" d="M687.539 171.242c1.515-.992 2.583-1.825 4.438-1.862 1.159-2.111.445-3.516 2.273-5.385 1.715-.367 2.814-.377 4.303.677 1.023.723 1.835 1.803 1.973 3.078.189 1.77-.151 3.165-1.363 4.5-1.36 1.499-3.022 1.393-4.912 1.147l-1.25-.326-1.97.505c-9.405 5.561-18.375 12.79-26.244 20.373-29.851 28.767-45.467 70.658-46.267 111.695 1.027.993 1.902 1.891 2.684 3.106.098 1.321.09 2.112-.682 3.25-.839 1.239-1.961 2.484-3.521 2.687-1.348.176-2.232-.232-3.237-1.091-1.377-1.179-1.743-2.342-1.835-4.096.426-1.088.69-1.774 1.619-2.524 1.352-1.089.948-7.655 1.059-9.642.7-12.687 3.056-26.237 6.696-38.439 5.593-18.742 14.554-37.525 26.767-52.876 5.627-7.071 12.134-13.345 18.835-19.378 6.368-5.734 13.059-11.317 20.634-15.399z"/><path style="fill:#4934eb" d="M873.896 202.181c2.379 1.067 4.388 3.046 6.316 4.751 3.17 2.801 6.313 5.633 9.489 8.426 5.824 5.121 11.909 9.97 17.604 15.228l-15.484 6.42-23.889 10.537 5.964-45.362zM715.599 126.265l62.569 22.568c-5.877 6.237-14.149 11.196-20.897 16.583-5.675 4.903-11.916 9.258-17.861 13.832-2.305 1.773-4.624 4.444-7.27 5.584-2.166-2.603-2.832-8.599-3.75-12.045-2.601-9.763-5.148-19.546-7.83-29.287-1.588-5.77-3.691-11.383-4.961-17.235z"/><path style="fill:#fabcac" d="m573.044 521.215 1.637 34.21c1.025.842 2.082 1.106 3.326 1.47-4.605 9.35-13.704 16.399-23.493 19.682-7.109 2.385-17.281 3.726-24.514 1.57l-.95-.274c-6.186-1.812-11.67-5.973-14.8-11.653-1.472-2.67-1.72-5.077-1.761-8.061 2.583-2.309 5.742-3.886 8.453-6.057 1.482-1.187 1.178-2.114 1.389-3.95.353.91.08.464.919 1.273 15.207-1.079 29.907-6.067 40.716-17.263 3.13-3.242 5.474-7.008 8.472-10.29l.606-.657z"/><path style="fill:#4934eb" d="M70.011 685.789c7.65 2.691 15.507 4.518 23.228 6.954 11.524 3.635 22.933 7.727 34.489 11.243 10.996 3.345 23.292 5.589 33.409 11.17l-5.387-.119-.527.463c-.034 1.426.215 1.971.502 3.25l.166 3.727c-1.349 2.471-.417 6.789-.284 9.67.436 9.404.995 18.776 2.016 28.14l-87.612-74.498z"/><path style="fill:#4934eb" d="M161.137 715.156c8.552 3.484 18.581 10.404 25.358 16.728 1.819 4.615 3.391 9.051 5.874 13.379 6.542 11.407 17.69 22.638 27.779 31.073l-3.806 7.149c-3.894 8.138-6.333 15.025-7.662 23.946-8.997-8.122-17.644-16.619-26.638-24.744-4.683-4.231-9.329-8.507-14.042-12.703-3.021-2.691-6.663-5.275-8.993-8.595l-3.116-38.913-.166-3.727c-.287-1.279-.536-1.824-.502-3.25l.527-.463 5.387.12z"/><path style="fill:#e43743" d="M149.446 277.556c-2.062-8.523-1.849-16.779 2.858-24.47 4.258-6.959 11.433-12.211 19.446-14.011 4.181-.939 9.162-.938 13.25.304l.91.267c8.387 2.545 14.924 8.087 18.967 15.835 3.594 6.888 3.841 14.742 1.707 22.14-.872 1.416-1.322 2.778-1.806 4.364l-.486.997c-3.653 6.363-10.716 11.101-17.743 12.976l-.799.205c-4.44 1.19-9.459 1.196-13.938.163-8.516-1.964-16.129-7.919-20.772-15.206l-1.594-3.564z"/><path style="fill:#deedfc" d="m825.127 719.948 4.083 1.623c2.571 1.061 5.221 1.556 7.938 2.098-2.207 10.663-5.782 20.982-8.85 31.415-2.543 8.652-4.599 18.792-8.68 26.736l-1.272-.417-.228-.435c-2.028-4.338-2.997-9.83-4.432-14.435-.618-1.987-2.1-5.012-1.348-7.008l-.685-.483c-2.551-1.93-3.072-5.373-3.904-8.263-1.398-4.861-2.563-9.478-3.035-14.529l1.165-.835c1.773.392 3.456.74 5.272.851 7.056-1.774 8.977-9.873 13.331-14.444l.645-1.874z"/><path style="fill:#4934eb" d="M811.151 736.266c7.056-1.774 8.977-9.873 13.331-14.444l-12.143 37.704-.685-.483c-2.551-1.93-3.072-5.373-3.904-8.263-1.398-4.861-2.563-9.478-3.035-14.529l1.165-.835c1.773.391 3.456.739 5.271.85z"/><path style="fill:#add1f6" d="M469.525 879.037c-2.188-1.489-4.771-2.61-6.19-4.99-1.17-1.962-.849-5.954-.209-8.039.368-1.201 1.525-2.121 2.542-2.768 1.275-.811 2.81-1.572 4.331-1.705 4.824-.421 9.934-.061 14.788-.06l29.021.006c30.165.01 60.334-.049 90.499.211 9.599.083 19.196.157 28.796.202 4.528.021 10.209-.59 14.599.437 1.971 2.277 2.942 4.336 2.772 7.419-.226 4.106-4.394 6.834-7.233 9.315l-173.716-.028z"/><path style="fill:#010103" d="M403.697 277.792c-.016-8.754-.049-17.507-.089-26.261-.018-3.693-.769-9.396.612-12.781 1.224-.717 1.157-.776 2.529-.48.299.41.689.767.898 1.23 1.039 2.297-.129 33.374.025 38.404 10.132.003 21.301-1.303 29.069 6.701 2.731 2.816 4.781 6.356 5.256 10.299 1.02 8.466.375 17.65.382 26.186.015 15.924.029 31.85-.034 47.775-.085 21.595-.113 43.188-.101 64.784.007 10.836.473 21.822.008 32.637-.241 5.609-2.332 11.205-6.532 15.087-2.623 2.424-5.68 4.033-9.167 4.806-8.018 1.777-18.282.723-26.509.738-14.238.028-28.516.272-42.747.019l-1.603-3.785c14.383-.177 28.77-.175 43.153-.255 5.962-.034 11.925-.069 17.887-.11 3.398-.024 8.052.475 11.087-1.249l.682-.416c3.525-2.111 5.936-4.299 8.155-7.809l-75.392-73.294-33.089 32.477c.027 2.012 1.839 4.839 2.786 6.625-3.146-.909-6.552-.639-9.802-.645-5.107-.008-10.211-.006-15.317-.003l-10.897.21 17.219-40.975 15.367 33.258c2.509-3.538 5.909-6.529 8.965-9.597 5.082-5.102 10.168-10.2 15.255-15.297l9.732-10.32c17.845 17.139 35.186 34.761 53.021 51.914 7.639 7.346 15.204 15.465 23.542 21.957l.333-4.696c.479-37.208.158-74.463.198-111.677.013-12.491.024-24.982.029-37.474.003-6.463.455-13.33-.176-19.75-.363-3.712-2.11-7.046-4.768-9.621-2.282-2.213-6.09-4.159-9.255-4.622-6.666-.975-14.377-.217-21.175-.212-15.266.011-30.53.026-45.795.04-50.876.045-101.797-.541-152.665.377.484-1.586.934-2.948 1.806-4.364l197.117.169zM317.918 513.479c8.926-.018 17.851-.03 26.777-.023 3.656.003 9.785-.795 12.957.886 1.086 4.775 1.906 14.199-.811 18.533-.976 1.557-2.08 2.183-3.739 2.858l-1.514 45.778c-5.341-2.491-9.641-7.842-13.787-11.933-5.603-5.53-11.219-11.165-17.269-16.202l-.111-.106-2.433-3.013c-1.09-1.238-1.807-1.763-3.443-2.141-3.029-.702-6.857-.26-9.989-.229-8.646.088-17.649.725-26.259.113l-.427-.034c-.933-3.955-1.684-8.182-3.302-11.91a7.73 7.73 0 0 1-2.564-1.146c-2.067-1.393-3.15-3.524-3.516-5.937-.776-5.104-.705-10.57 2.354-14.838 4.34-1.42 10.938-.638 15.565-.646 10.503-.02 21.007-.018 31.511-.01z"/><path style="fill:#017df6" d="M274.568 536.057c2.696-.53 5.73-.268 8.488-.278 5.436-.019 10.871-.04 16.307-.058 17.829-.055 35.941-.727 53.738.012l-1.514 45.778c-5.341-2.491-9.641-7.842-13.787-11.933-5.603-5.53-11.219-11.165-17.269-16.202l-.111-.106-2.433-3.013c-1.09-1.238-1.807-1.763-3.443-2.141-3.029-.702-6.857-.26-9.989-.229-8.646.088-17.649.725-26.259.113l-.427-.034c-.932-3.954-1.683-8.181-3.301-11.909z"/><path style="fill:#010103" d="M213.754 833.861c9.785 13.506 23.28 22.454 35.866 33.015 1.734 1.455 5.224 5.425 7.247 6.09 2.109.607 3.589 2.125 5.383 3.311 1.455.962 3.021 1.628 4.374 2.754l42.492.066 3.35.154 30.063-.112 126.997-.102 173.716.027c34.03-.062 68.06-.471 102.09-.461 23.371.006 46.737.447 70.108.359 14.892-.056 29.808-1.609 44.672-1.471 2.328.022 3.656-.25 5.526 1.258.586 1.444.447 2.039.132 3.5-.508.377-.946.867-1.519 1.131-1.97.907-7.32.367-9.629.411-9.934.189-19.869.482-29.804.587-37.644.396-75.313-.091-112.96-.035-98.063.148-196.126.127-294.19.168-55.232.023-110.461.087-165.692-.012-15.997-.028-31.994-.036-47.991-.001-8.355.018-16.896.41-25.234.038-1.915-.085-2.328-.106-3.609-1.563-.112-1.837-.222-2.081.773-3.724 2.275-.81 5.771-.364 8.213-.36 6.726.01 13.834.523 20.511-.22l.546-.066 49.599.253.315-5.075c-3.691-3.018-6.917-6.575-10.615-9.571-7.004-5.675-14.775-10.668-21.286-16.912-3.513-3.37-6.165-7.136-9.048-11.014-.626-.841-.398-1.399-.396-2.423z"/><path style="fill:#fff" d="M256.867 872.966c2.109.607 3.589 2.125 5.383 3.311 1.455.962 3.021 1.628 4.374 2.754l-10.417.035.66-6.1z"/><path style="fill:#4934eb" d="m115.686 795.858 92.755 22.126c-.077 4.02 1.272 7.716 3.011 11.289.701 1.439 1.872 3.095 2.302 4.588-.002 1.023-.23 1.582.395 2.423 2.883 3.878 5.535 7.643 9.048 11.014 6.511 6.244 14.282 11.237 21.286 16.912 3.698 2.996 6.924 6.553 10.615 9.571l-.315 5.075-49.599-.253c-.954-6.918-2.456-14.56-7.555-19.732-6.206-6.298-16.357-9.821-24.282-13.379-7.251-3.255-14.445-6.676-21.063-11.113-9.876-6.622-18.357-15.112-25.963-24.202-3.852-4.603-7.576-9.141-10.635-14.319z"/><path style="fill:#010103" d="m771.498 438.161 6.321-.012c5.782.002 11.566.007 17.349.032 2.664.013 6.646-.5 9.059.639l-.287 7.923-4.014 3.202c-.783 1.443-.605 3.449-.433 5.064.301 2.81 2.418 3.077 4.352 4.597l.542 3.144c.244 3.882-1.781 4.966-4.04 7.5-.963 1.08-1.245 4.638-.732 6 1.134 3.004 4.221 2.753 4.427 7.043.192 4.02-.813 7.412-3.688 10.355-1.984 2.031-4.439 3.153-7.209 3.682-5.39 1.029-12.323.312-17.866.354-13.824.105-27.652.26-41.477.096l-1.759-1.839c-2.8-3.03-5.01-6.718-7.392-10.074-1.369-1.929-3.694-4.148-3.597-6.616.866-2.021 1.689-2.703 3.506-3.905l.304-9.157c-1.814-.796-4.466-1.75-5.539-3.513-.597-.978-.614-2.721-.254-3.831.801-2.465 3.378-3.388 5.526-4.369l-.277-16.31 25 .144 6.246.023 15.932-.172z"/><path style="fill:#fff" d="m361.268 400.016 75.392 73.294c-2.22 3.511-4.63 5.698-8.155 7.809l-.682.416c-3.035 1.724-7.689 1.225-11.087 1.249-5.962.041-11.925.076-17.887.11-14.384.08-28.77.078-43.153.255-1.381-.639-1.955-2.414-2.642-3.707-2.253-4.249-4.393-8.564-6.71-12.777-5.072-9.232-10.482-18.205-15.379-27.548-.947-1.786-2.759-4.613-2.786-6.625l33.089-32.476z"/><path style="fill:#1299fa" d="M329.391 777.044c7.019 8.244 13.856 11.731 23.584 15.941 13.379 10.007 22.585 22.684 25.021 39.406 1.365 9.378.064 18.65-2.689 27.646l-40.462.609c.123 4.486-.54 12.344 2.527 15.817 1.025 1.161 3.697 2.077 5.157 2.675l-30.063.112-13.604-52.631c2.633-5.895 6.859-11.69 10.249-17.224l20.28-32.351z"/><linearGradient id="a" gradientUnits="userSpaceOnUse" x1="-278.39" y1="646.631" x2="-430.455" y2="698.453" gradientTransform="matrix(1 0 0 -1 494 1430)"><stop offset="0" style="stop-color:#0b09ff"/><stop offset="1" style="stop-color:#1857fe"/></linearGradient><path style="fill:url(#a)" d="m71.803 688.62 136.513 120.576-.761 7.132c-16.471-4.715-32.928-8.869-49.58-12.883-14.138-3.408-28.448-6.869-42.902-8.598-4.134-5.99-7.532-12.548-10.836-19.021-10.805-21.17-18.121-43.671-25.408-66.234-2.267-7.018-4.977-13.885-7.026-20.972z"/><path style="fill:#fabcac" d="M305.846 438.47c5.106-.003 10.21-.005 15.317.003 3.25.006 6.655-.265 9.802.645 4.897 9.343 10.307 18.315 15.379 27.548 2.316 4.214 4.457 8.528 6.71 12.777.686 1.293 1.261 3.068 2.642 3.707l1.603 3.785c3.169 6.183 6.909 12.814 4.718 19.981-.736 2.413-2.173 6.093-4.363 7.425-3.172-1.681-9.301-.883-12.957-.886a9958.1 9958.1 0 0 0-26.777.023c-10.504-.008-21.008-.01-31.511.012-4.627.009-11.225-.773-15.565.646-.974-.315-1.747-.593-2.592-1.179-4.03-9.561-1.923-15.601 1.171-24.958l-.811-.72 1.64-.284 1.201-2.496-.453-.597-6.211-.285 7.385-.166c3.38-6.405 6.554-12.939 9.986-19.307 4.371-8.109 9.757-16.759 12.789-25.465l10.897-.209z"/><path style="fill:#fdb404" d="M305.846 438.47c5.106-.003 10.21-.005 15.317.003 3.25.006 6.655-.265 9.802.645 4.897 9.343 10.307 18.315 15.379 27.548 2.316 4.214 4.457 8.528 6.71 12.777.686 1.293 1.261 3.068 2.642 3.707l1.603 3.785c3.169 6.183 6.909 12.814 4.718 19.981-.736 2.413-2.173 6.093-4.363 7.425-3.172-1.681-9.301-.883-12.957-.886a9958.1 9958.1 0 0 0-26.777.023c5.981-20.593 3.664-39.758-4.736-59.246-2.171-5.036-5.879-9.912-7.201-15.194l-.137-.568z"/><path style="fill:#fabcac" d="m277.87 547.967.427.034c8.61.611 17.613-.025 26.259-.113 3.131-.031 6.959-.474 9.989.229 1.637.378 2.353.902 3.443 2.141l2.433 3.013.111.106c6.05 5.037 11.665 10.672 17.269 16.202 4.147 4.091 8.446 9.441 13.787 11.933l-.051 12.626c-.509 9.107 1.079 19.539-6.227 26.363-2.4 2.244-5.74 3.7-8.945 4.337-4.438.882-9.406.595-13.933.612-7.27.025-14.541.031-21.81-.082l-18.068-.269-8.838-6.569c-2.012-1.023-4.847-2.931-5.633-5.153-.79-2.234.304-5.649 1.459-7.573 1.389-2.313 3.183-2.732 5.686-3.38-1.811-1.13-3.389-2.544-5.015-3.919.043-1.714-.322-3.278-.029-5.018.61-3.625 2.583-6.311 5.553-8.375l.512-.349-2.924-.744c-.88-.157-1.645-.366-2.452-.766a6.728 6.728 0 0 1-3.363-3.87c-.924-2.808-1.095-8.27 1.552-10.131 1.855-1.304 3.566-1.574 4.681-3.671-.708-.326-1.37-.625-1.994-1.102-1.704-1.301-3.421-3.033-3.744-5.227-.4-2.717-.169-5.779 1.608-7.978 2.055-2.543 5.217-3.07 8.257-3.307z"/><path style="fill:#010103" d="M273.904 564.918c3.89-1.411 9.602-.943 13.819-1.098 7.863-.289 15.775-.854 23.641-.739.782 1.08 1.358 1.695 2.489 2.46l-39.269.768-.68-1.391zM323.779 600.509l-2.339 3.042c-10.426-.292-20.973.218-31.404.428-3.122.063-8.689.858-11.536-.012-.56-.171-1.626-1.202-2.147-1.587 3.211-.866 7.304-.596 10.647-.673 7.583-.175 15.167-.288 22.75-.426 4.58-.083 9.541.216 14.029-.772zM277.4 583.946c2.977-.953 7.195-.671 10.383-.87 12.451-.775 24.959-1.081 37.425-1.646l-3.295 2.959c-11.692-.904-24.167.561-35.914 1.007-1.884.072-5.204.48-6.999.019-.287-.072-1.313-1.205-1.6-1.469z"/><path style="fill:#e43743" d="m273.717 618.528 29.659-.51-.217.512c-1.023 2.34-2.368 4.146-4.133 5.97.584.61.81.638 1.597.867l-18.068-.269-8.838-6.57z"/><path style="fill:#4934eb" d="M320.532 553.376c6.05 5.037 11.665 10.672 17.269 16.202 4.147 4.091 8.446 9.441 13.787 11.933l-.051 12.626c-.509 9.107 1.079 19.539-6.227 26.363-2.4 2.244-5.74 3.7-8.945 4.337-4.438.882-9.406.595-13.933.612-7.27.025-14.541.031-21.81-.082-.787-.229-1.013-.257-1.597-.867 1.765-1.824 3.11-3.63 4.133-5.97l.217-.512c5.085-.113 11.772.056 15.614-3.732 2.807-2.768 2.4-7.093 2.45-10.736l2.339-3.042c1.402-.977 3.132-2.266 3.979-3.767.824-1.46 1.182-5.027.602-6.586-1.113-2.994-3.632-4.624-6.447-5.767l3.295-2.959.741-.637c2.396-2.123 3.35-4.429 3.378-7.629.018-1.96-1.258-3.847-2.577-5.206-3.255-3.352-8.581-2.433-12.897-2.418-1.131-.765-1.707-1.38-2.489-2.46l.506-.118.841-.206c2.721-.61 4.888-1.39 6.745-3.615 1.513-1.81 1.194-3.547 1.077-5.764z"/><path style="fill:#add1f6" d="M780.877 781.396c1.68.935 3.914.576 5.786.522l28.036-.154 3.647-.361 1.272.417c7.998-.162 15.991-.049 23.989.023 3.878.034 8.52.543 12.294-.157l.486-.123c4.423 1.204 7.973 2.508 10.498 6.693l.697 1.494.254.56c1.37 3.205 1.503 7.847.107 11.03-1.276 2.913-3.839 5.553-6.955 6.47-1.557.457-3.224.811-4.843.584l-.082 4.279c.306 15.456 3.196 32.798-8.478 45.038-3.476 3.645-7.592 6.472-12.401 8.054l-.16.396c-1.146-.424-1.221-.609-2.458-.354-4.171.86-8.902.555-13.152.548-7.252-.009-14.504-.039-21.755-.079-2.6-.016-6.666-.613-9.025.273-5.995-.813-13.251-5.58-17.524-9.701-8.729-8.416-8.248-18.217-8.389-29.327-.082-6.507-.121-13.014-.264-19.52-1.315-.955-3.921-.667-5.516-.709 1.598-1.469 3.279-2.471 5.057-3.672 6.3-4.259 7.551-15.132 8.979-21.907 3.178.069 6.838.483 9.9-.317z"/><path style="fill:#4934eb" d="M856.065 812.673c-25.266.287-50.534.306-75.801.329-4.184.005-8.367.008-12.551.011-.893.001-3.271.272-3.963.003-.261-.101-.44-.344-.661-.516-.026-1.563-.376-3.503.439-4.825 23.091.969 46.425.273 69.55.261 5.114-.003 10.228-.005 15.342-.004 2.298 0 5.624-.429 7.727.462l-.082 4.279z"/><linearGradient id="b" gradientUnits="userSpaceOnUse" x1="-275.744" y1="868.801" x2="-337.055" y2="793.325" gradientTransform="matrix(1 0 0 -1 494 1430)"><stop offset="0" style="stop-color:#0a6bfc"/><stop offset="1" style="stop-color:#0b9ffe"/></linearGradient><path style="fill:url(#b)" d="m167.998 522.056.788-5.821 89.362 71.414c-5.038 12.688-10.465 25.212-15.495 37.909-2.376 5.998-5.692 12.743-6.501 19.154-.423.693-.775 1.358-1.343 1.942-2.529.531-5.27.324-7.845.327a275.829 275.829 0 0 1-16.192-.452c-11.116.085-22.323-.301-33.421-.956-4.957-.292-10.111-.152-14.93-1.439l-.241-.512c-4.996-40.658 1.076-81.176 5.818-121.566z"/><path style="fill:#add1f6" d="M173.346 524.579c2.348 2.797 3.743 6.136 5.477 9.32 3.661 6.725 7.203 13.497 10.724 20.297 10.147 19.593 20.27 39.203 30.306 58.852 5.326 10.429 10.373 21.588 16.299 31.664-.423.693-.775 1.358-1.343 1.942-2.529.531-5.27.324-7.845.327a275.829 275.829 0 0 1-16.192-.452c-11.116.085-22.323-.301-33.421-.956-4.957-.292-10.111-.152-14.93-1.439l-.241-.512 43.214.934 28.343.435c-13.611-26.838-27.356-53.621-41.061-80.412-4.431-8.662-8.906-17.315-13.215-26.038-2.167-4.387-5.068-9.193-6.115-13.962z"/><path style="fill:#017df6" d="m167.998 522.056.788-5.821 89.362 71.414c-5.038 12.688-10.465 25.212-15.495 37.909-2.376 5.998-5.692 12.743-6.501 19.154-5.926-10.076-10.973-21.235-16.299-31.664-10.036-19.648-20.159-39.259-30.306-58.852-3.521-6.8-7.063-13.572-10.724-20.297-1.734-3.185-3.129-6.523-5.477-9.32-.351-1.264-.778-1.147-1.846-1.834-1.14-.733-2.168-.595-3.502-.689z"/><path style="fill:#fabcac" d="m739.958 688.55 4.339 10.2 1.262-.788c1.099 3.112 2.245 5.841 4.002 8.655l7.416 17.273c2.691 5.422 4.487 11.552 6.336 17.305 4.382 13.634 8.019 26.03 7.666 40.517-1.428 6.775-2.679 17.648-8.979 21.907-1.777 1.201-3.459 2.203-5.057 3.672-11.565 11.383-25.801 19.44-40.243 26.594-15.405 7.631-31.201 14.127-47.281 20.197-6.812 2.571-13.761 5.894-20.865 7.522.418-2.104 1.504-4.381 2.229-6.427 2.189-6.184 4.786-12.205 6.967-18.396 6.047-17.164 12.551-34.159 18.711-51.28 2.82-7.836 5.893-15.553 8.768-23.363 1.651-4.483 2.986-9.242 4.967-13.572l.969-2.787 4.004-10.166c1.174-3.149 2.809-8.979 1.173-12.126-1.34-2.577-4.577-3.823-7.228-4.632 2.161-.643 4.538-2.801 6.32-4.156 3.335-2.536 6.68-4.982 10.195-7.26 10.983-7.118 22.658-13.001 34.329-18.889z"/><path style="fill:#010103" d="M691.164 745.777c4.409-.049 12.823-.209 16.255 2.875l1.021 1.098-.444 1.227c-1.933.696-3.502-.243-5.399-.952-3.959-1.479-8.214-1.513-12.4-1.46l.967-2.788z"/><path style="fill:#b61618" d="M773.635 703.627c3.557.696 7.383 4.422 9.452 7.372l.499.742-3.287.546c-2.952-2.428-4.688-5.445-6.664-8.66zM769.729 698.589c.639 1.463 1.425 2.758 2.272 4.108l-19.022 5.053c-.177-.905-.209-1.733-.243-2.652l-.175-1.052c5.199-2.987 11.274-4.55 17.168-5.457z"/><path style="fill:#fff" d="m772.001 702.697 1.634.93c1.977 3.215 3.712 6.232 6.664 8.66l-4.584 1.463c-.783 1.58-.658 3.16-.67 4.878-6.089 1.204-12.599 2.232-18.068 5.263l-7.416-17.273 3.175-1.519c.034.919.066 1.747.243 2.652l19.022-5.054z"/><path style="fill:#1299fa" d="M788.616 709.726c3.132.395 4.914 1.065 6.94 3.569 3.627 4.482 4.967 10.747 6.823 16.109.439 1.27 1.142 3.839 1.933 4.846.299.382 1.091.747 1.543.903l.024.262-1.165.835c.473 5.051 1.637 9.668 3.035 14.529.832 2.89 1.354 6.333 3.904 8.263l.685.483c-.752 1.996.729 5.021 1.348 7.008 1.435 4.604 2.403 10.097 4.432 14.435l.228.435-3.647.361-28.036.154c-1.872.054-4.107.412-5.786-.522-3.063.8-6.722.386-9.898.315.353-14.486-3.284-26.883-7.666-40.517-1.849-5.753-3.644-11.883-6.336-17.305 5.47-3.031 11.979-4.059 18.068-5.263.012-1.718-.113-3.298.67-4.878l4.584-1.463 3.287-.546 5.03-2.013z"/><path style="fill:#deedfc" d="M780.877 781.396 768.563 737c.791-1.425 1.322-1.787 2.688-2.557l1.75.018c2.911 3.171 3.66 9.744 4.806 13.859 3.112 11.172 5.976 22.367 8.857 33.599-1.873.054-4.107.412-5.787-.523z"/><path style="fill:#0c517c" d="M788.616 709.726c3.132.395 4.914 1.065 6.94 3.569 3.627 4.482 4.967 10.747 6.823 16.109.439 1.27 1.142 3.839 1.933 4.846.299.382 1.091.747 1.543.903l.024.262-1.165.835c.473 5.051 1.637 9.668 3.035 14.529.832 2.89 1.354 6.333 3.904 8.263l.685.483c-.752 1.996.729 5.021 1.348 7.008 1.435 4.604 2.403 10.097 4.432 14.435l.228.435-3.647.361c-2.779-10.447-6.642-20.645-9.852-30.973-1.749-5.627-3.564-11.246-5.201-16.906-1.348-4.657-2.227-10.525-4.896-14.569-3.582-1.438-11.816 2.349-15.779 3.154-1.376.279-2.521.795-3.721.011l-.205-3.854c.012-1.718-.113-3.298.67-4.878l4.584-1.463 3.287-.546 5.03-2.014z"/><path style="fill:#1299fa" d="M162.421 644.134c4.819 1.287 9.973 1.147 14.93 1.439 11.098.655 22.305 1.041 33.421.956 5.403.314 10.779.455 16.192.452 2.575-.003 5.316.204 7.845-.327l16.494 40.527 11.441 32.891 1.027 3.802-.572 1.59 1.911.854 1.111 3.421 4.334 12.348c1.044-.691 1.006-1.593 1.337-2.762l26.157 83.672c3.691-4.309 6.685-10.144 9.8-14.975l1.263 1.375c-3.389 5.533-7.615 11.329-10.249 17.224l13.604 52.631-3.35-.154-42.492-.066c-1.353-1.126-2.919-1.792-4.374-2.754-1.794-1.186-3.274-2.705-5.383-3.311-2.023-.665-5.513-4.635-7.247-6.09-12.586-10.561-26.081-19.509-35.866-33.015-.43-1.493-1.601-3.148-2.302-4.588-1.739-3.573-3.088-7.269-3.011-11.289-.145-.771-.42-1.044-.886-1.656l.761-7.132.364-1.765c1.329-8.921 3.768-15.809 7.662-23.946l3.806-7.149c-10.089-8.436-21.237-19.666-27.779-31.073-2.483-4.328-4.055-8.764-5.874-13.379.185-2.54-.068-5.103.174-7.662.629-6.643 2.837-12.832 6.677-18.29l.436-.607c1.648-2.46-1.217-4.662-2.763-6.539-13.425-16.294-24.266-33.727-28.599-54.653z"/><path style="fill:#add1f6" d="M195.941 708.203c8.483.865 17.137 3.484 25.407 5.548 14.112 3.521 28.172 7.183 42.422 10.123l-.572 1.59c-2.677.188-5.689-.741-8.301-1.327-5.814-1.303-11.558-2.815-17.326-4.304-12.7-3.278-25.474-6.358-38.071-10.015l-4-1.041.441-.574z"/><path style="fill:#deedfc" d="m216.782 784.156 25.284 21.999c13.874 10.022 28.391 19.206 42.605 28.747 4.497 3.019 10.653 6.094 14.347 10.001l-1.795 1.493-56.129-38.219-1.07-.764c-4.904-3.717-22.425-17.836-23.242-23.257z"/><linearGradient id="c" gradientUnits="userSpaceOnUse" x1="-205.903" y1="619.731" x2="-199.662" y2="621.232" gradientTransform="matrix(1 0 0 -1 494 1430)"><stop offset="0" style="stop-color:#d2ffe0"/><stop offset="1" style="stop-color:#f9ffea"/></linearGradient><path style="fill:url(#c)" d="M270.554 742.086c1.044-.691 1.006-1.593 1.337-2.762l26.157 83.672c3.691-4.309 6.685-10.144 9.8-14.975l1.263 1.375c-3.389 5.533-7.615 11.329-10.249 17.224l13.604 52.631-3.35-.154-7.923-30.038-3.97-2.662 1.795-1.493 1.232.506c.372-1.613-.391-3.436-.796-5.034-.984-3.877-1.914-7.756-2.936-11.625-7.725-29.243-17.368-57.708-25.964-86.665z"/><path style="fill:#fff" d="m149.446 277.556 1.594 3.564c-4.144.268-8.237.305-12.386.32-2.164.009-5.178-.309-7.215.438-1.976.725-3.878 2.235-5.265 3.788-2.419 2.712-3.845 5.715-4.242 9.334-.888 8.091-.25 16.771-.221 24.915.061 16.704.181 33.409.142 50.113-.05 21.741-.194 43.48-.191 65.221.002 9.888-.739 20.541.191 30.329.208 2.193 1.256 4.168 2.24 6.103 17.547-17.725 35.118-35.41 52.869-52.932 4.218-4.163 8.422-8.341 12.631-12.514 2.085-2.066 4.214-4.586 6.576-6.31 4.3-4.786 9.328-9.074 13.854-13.665 1.026-1.04 2.883-3.689 3.977-4.24.381-.191.833-.178 1.25-.267 5.462-5.372 10.923-10.745 16.378-16.124 3.02-2.977 6.792-6.046 8.975-9.695l3.98.12c18.283-.64 36.644-.445 54.938-.457 4.857-.004 9.715-.01 14.571.057 2.396.034 5.764-.241 7.917.912 6.623 8.179 15.021 15.208 22.633 22.474 5.723 5.462 11.114 11.251 16.846 16.707l-9.732 10.32a20003.496 20003.496 0 0 0-15.255 15.297c-3.056 3.067-6.456 6.059-8.965 9.597l-15.367-33.258-17.219 40.975c-3.032 8.706-8.418 17.355-12.789 25.465-3.432 6.368-6.607 12.901-9.986 19.307l-7.385.166 6.211.285.451.598-1.201 2.496-1.64.284c-29.182.828-58.54.184-87.746.165-9.062-.006-18.123-.017-27.185-.038-5.017-.011-10.473.398-15.429-.439-4.39-.743-8.197-2.72-11.492-5.674-5.182-4.647-8.219-11.333-8.569-18.211-.595-11.677-.155-23.602-.172-35.301-.036-23.643.011-47.287.037-70.93.015-13.824-.018-27.648-.017-41.472 0-6.785-.576-14.209.26-20.923.512-4.111 2.405-8.21 5.297-11.207 6.751-6.997 16.927-5.335 25.851-5.693z"/><path style="fill:#010103" d="m149.446 277.556 1.594 3.564c-4.144.268-8.237.305-12.386.32-2.164.009-5.178-.309-7.215.438-1.976.725-3.878 2.235-5.265 3.788-2.419 2.712-3.845 5.715-4.242 9.334-.888 8.091-.25 16.771-.221 24.915.061 16.704.181 33.409.142 50.113-.05 21.741-.194 43.48-.191 65.221.002 9.888-.739 20.541.191 30.329.208 2.193 1.256 4.168 2.24 6.103 17.547-17.725 35.118-35.41 52.869-52.932 4.218-4.163 8.422-8.341 12.631-12.514 2.085-2.066 4.214-4.586 6.576-6.31 4.3-4.786 9.328-9.074 13.854-13.665 1.026-1.04 2.883-3.689 3.977-4.24.381-.191.833-.178 1.25-.267 5.462-5.372 10.923-10.745 16.378-16.124 3.02-2.977 6.792-6.046 8.975-9.695l3.98.12c-6.592 6.322-13.079 12.747-19.527 19.216-3.512 3.523-7.518 7.031-10.536 10.978.301 1.119.973 1.74 1.722 2.59l46.181 44.305c6.973-6.989 41.729-44.667 47.505-46.562-4.5 6.913-11.852 13.118-17.655 18.99-9.98 10.101-20.073 20.229-29.439 30.905l-48.02-46.24-1.564-1.606c-1.505.4-2.785 2.095-3.88 3.154-2.884 2.791-5.739 5.613-8.638 8.389-1.321 1.266-2.799 3.046-4.358 3.975l-70.569 70.422c3.115 4.446 7.281 7.816 12.753 8.782 5.022.886 11.097.318 16.219.319 10.411 0 20.822-.003 31.233-.006 17.763-.007 35.526-.018 53.289-.028 8.417-.005 17.103.467 25.49-.022l6.211.285.451.598-1.201 2.496-1.64.284c-29.182.828-58.54.184-87.746.165-9.062-.006-18.123-.017-27.185-.038-5.017-.011-10.473.398-15.429-.439-4.39-.743-8.197-2.72-11.492-5.674-5.182-4.647-8.219-11.333-8.569-18.211-.595-11.677-.155-23.602-.172-35.301-.036-23.643.011-47.287.037-70.93.015-13.824-.018-27.648-.017-41.472 0-6.785-.576-14.209.26-20.923.512-4.111 2.405-8.21 5.297-11.207 6.752-6.996 16.928-5.334 25.852-5.692z"/><path style="fill:#fdb404" d="M244.583 356.056c18.283-.64 36.644-.445 54.938-.457 4.857-.004 9.715-.01 14.571.057 2.396.034 5.764-.241 7.917.912 6.623 8.179 15.021 15.208 22.633 22.474 5.723 5.462 11.114 11.251 16.846 16.707l-9.732 10.32-32.751-27.646-.284.236c-3.239 2.37-5.856 5.201-8.792 7.924-5.776 1.895-40.532 39.572-47.505 46.562l-46.181-44.305c-.749-.85-1.421-1.471-1.722-2.59 3.018-3.947 7.024-7.455 10.536-10.978 6.447-6.468 12.934-12.894 19.526-19.216z"/><path style="fill:#010103" d="M477.704 372.512c2.315 4.711 5.267 9.105 10.546 10.831 3.555 1.162 8.498.546 11.992-.561 3.478-1.101 6.838-3.089 10.133-4.669 5.444-2.612 10.934-5.098 16.625-7.133 21.56-7.711 51.518-7.059 64.053 15.645 2.01 3.64 2.703 7.121 3.34 11.174 9.533 3.123 15.397 9.346 19.991 18.084 8.049 15.314 4.852 35.148-.36 50.881-7.5 22.642-21.598 40.177-40.834 54.043l-.146.408-.606.656c-2.998 3.282-5.342 7.048-8.472 10.29-10.809 11.195-25.509 16.184-40.716 17.263-.839-.81-.566-.363-.919-1.273l.227-6.045-.079-14.515c-5.26-1.64-10.244-3.229-14.875-6.306-12.06-8.011-16.549-25.424-19.25-38.785-1.33-6.581-1.176-13.332-.916-20.011.205-5.338.388-10.661 1.336-15.93-10.121-4.929-18.622-12.65-22.399-23.523-2.669-7.685-3.077-16.605-1.559-24.556l.179-.985c1.811-9.572 7.351-17.11 12.709-24.983z"/><path style="fill:#fabcac" d="M496.987 427.036c10.253 7.666 24.086 8.353 36.409 6.578 13.816-1.99 26.884-6.958 40.096-11.255 4.854 10.563 8.002 22.096 10.438 33.433 4.298-1.622 7.651-2.307 12.089-.29 2.727 1.239 4.584 3.703 5.49 6.498 1.109 3.418.82 8.878-.931 12.003-1.799 3.21-5.353 5.821-8.904 6.769-2.677.714-6.071.492-8.809.318-2.304 9.816-5.16 16.989-10.585 25.516 1.144 4.695.714 9.416.908 14.201l-.146.408-.606.656c-2.998 3.282-5.342 7.048-8.472 10.29-10.809 11.195-25.509 16.184-40.716 17.263-.839-.81-.566-.363-.919-1.273l.227-6.045-.079-14.515c-5.26-1.64-10.244-3.229-14.875-6.306-12.06-8.011-16.549-25.424-19.25-38.785-1.33-6.581-1.176-13.332-.916-20.011.205-5.338.388-10.661 1.336-15.93l8.215-19.523z"/><path style="fill:#010103" d="M547.472 462.136c.526.095.768.12 1.31.317 1.194.436 2.099.982 2.378 2.297.389 1.831-.626 3.02-1.559 4.43-1.709-.486-2.188-.483-3.395-1.855-.173-2.066.429-3.325 1.266-5.189zM500.574 449.982c2.119-.176 6.529-.591 8.281.623-.026 1.348-.01 1.338-.89 2.355-1.921-.081-4.289-.4-6.132.208l-.833.307c-1.09-.764-1.141-.693-1.442-1.975l1.016-1.518zM505.271 463.309c.632.039 1.36.043 1.979.215 1.644.453 1.967 1.025 2.73 2.477-.196 2.221-.403 2.517-1.772 4.298-.926-.017-1.789-.136-2.708-.252-.925-.766-1.4-1.036-1.625-2.296-.331-1.85.505-2.951 1.396-4.442zM547.855 450.683c2.888.185 5.267.602 7.895 1.863.865 1.114 1.168 1.133 1 2.51l-1 .416-3.071-1.978c-3.069-.802-6.633-.853-9.689.021l-.489.151-.915-.666.164-1.239c1.831-.844 4.114-.864 6.105-1.078z"/><path style="fill:#e43743" d="m523.015 527.973 1.116.196c11.43 1.715 24.801-1.112 34.085-8.163 5.236-3.977 9.78-8.411 14.065-13.4 1.144 4.695.714 9.416.908 14.201l-.146.408-.606.656c-2.998 3.282-5.342 7.048-8.472 10.29-10.809 11.195-25.509 16.184-40.716 17.263-.839-.81-.566-.363-.919-1.273l.227-6.045c.907-4.487.46-9.559.458-14.133z"/><path style="fill:#4934eb" d="M482.762 91.676c10.263-1.709 21.949 1.906 30.582 7.322 11.777 7.387 19.122 18.356 22.141 31.812 12.628-.297 23.547-.355 34.688 6.375 10.357 6.256 17.266 16.322 20.098 28.013 2.907 12.005.276 25.26-6.276 35.631-6.08 9.623-15.571 14.823-26.409 17.366-4.283 1.005-8.463.922-12.834.951-5.805.039-11.61.053-17.416.052-17.694-.002-35.39-.09-53.084-.158-13.13-.006-26.26-.015-39.391-.033-10.321-.014-21.868.938-31.922-1.493-11.582-2.801-21.741-9.838-27.881-20.123-6.767-11.336-8.773-23.503-5.363-36.325 2.753-10.352 11.006-20.585 20.285-25.836 8.922-5.046 20.416-7.213 30.554-6.064 5.219.592 10.491 2.41 15.509 3.878 2.355-7.321 5.544-15.18 10.307-21.277 8.975-11.489 22.106-18.24 36.412-20.091z"/><path style="fill:#fff" d="M487.42 126.636c6.013-.724 13.041.55 18.123 4.021 5.153 3.519 9.017 9.473 10.207 15.577 1.352 6.938-.151 14.286-4.185 20.106-4.414 6.368-9.98 9.214-17.446 10.608-6.093.308-11.568-.223-16.841-3.597-5.346-3.42-9.954-10.306-11.333-16.45-1.404-6.257-.02-13.844 3.503-19.16 4.242-6.401 10.602-9.702 17.972-11.105z"/><path style="fill:#fabcac" d="m258.148 587.648 1.385.893 10.681 9.962c1.626 1.375 3.204 2.789 5.015 3.919-2.503.647-4.297 1.066-5.686 3.38-1.155 1.924-2.249 5.339-1.459 7.573.786 2.223 3.621 4.13 5.633 5.153l8.838 6.569 18.068.269c7.269.113 14.54.107 21.81.082 4.526-.018 9.494.269 13.933-.612 3.205-.637 6.545-2.093 8.945-4.337 7.306-6.824 5.718-17.256 6.227-26.363.362 1.21.715 2.318 1.329 3.428 3.237 5.855 4.564 13.74 6.41 20.139 3.65 12.658 7.436 25.193 11.248 37.797 1.237 4.095 1.965 8.377 3.326 12.412l-3.255 5.219 37.105 33.331c7.711 6.199 14.657 14.313 23.427 19.032l-5.933 7.356-14.635 20.9.398 1.179c-1.922.75-3.378 3.555-4.566 5.182-5.227 7.154-10.885 16.06-17.309 22.036-5.564 5.173-14.057 9.324-21.583 10.438l-.824.129c-4.447.641-9.21.309-13.701.272-9.728-4.21-16.565-7.696-23.584-15.941l-20.28 32.353-1.263-1.375c-3.115 4.83-6.108 10.666-9.8 14.975l-26.157-83.672c-.331 1.169-.293 2.07-1.337 2.762l-4.334-12.348-1.111-3.421-1.911-.854.572-1.59-1.027-3.802-11.441-32.891-16.494-40.527c.568-.584.92-1.249 1.343-1.942.809-6.411 4.125-13.156 6.501-19.154 5.031-12.699 10.458-25.223 15.496-37.911z"/><path style="fill:#e43743" d="M372.694 689.607c1.14.31 1.571.215 2.355 1.143.018 11.577-.975 22.096-3.368 33.431-1.094-.211-1.01-.045-1.843-.931.342-4.623 1.579-9.107 1.974-13.721.568-6.621.193-13.3.882-19.922z"/><path style="fill:#f25b7e" d="M407.701 706.462c7.711 6.199 14.657 14.313 23.427 19.032l-5.933 7.356c-5.16-5.884-9.522-12.034-13.885-18.514-.969-1.438-3.032-3.894-3.56-5.501-.18-.546-.036-1.754-.049-2.373z"/><path style="fill:#1299fa" d="M295.746 671.966c2.232 5.431 3.35 11.698 4.934 17.376 3.698 13.262 7.763 26.445 11.317 39.741a1501.114 1501.114 0 0 0 6.718 24.281c1.417 4.967 2.704 10.476 4.863 15.175 1.154 2.512 3.031 4.79 4.673 7.005l-20.403 32.478c-3.115 4.83-6.108 10.666-9.8 14.975l-26.157-83.672-3.121-8.879-1.81-5.352c.046-2.781 1.882-5.052 3.283-7.348 2.635-4.319 5.356-8.6 7.855-12.998 3.536-6.226 6.867-12.572 10.32-18.844 2.519-4.573 5.295-9.124 7.328-13.938z"/><path style="fill:#017df6" d="m258.148 587.648 1.385.893 10.681 9.962c1.626 1.375 3.204 2.789 5.015 3.919-2.503.647-4.297 1.066-5.686 3.38-1.155 1.924-2.249 5.339-1.459 7.573.786 2.223 3.621 4.13 5.633 5.153l8.838 6.569c2.942 5.127 4.162 11.604 5.611 17.299 2.333 9.173 4.489 18.651 7.314 27.676l.266 1.893c-2.033 4.815-4.809 9.365-7.328 13.938-3.453 6.272-6.784 12.617-10.32 18.844-2.499 4.399-5.22 8.679-7.855 12.998-1.401 2.296-3.237 4.566-3.283 7.348l1.81 5.352 3.121 8.879c-.331 1.169-.293 2.07-1.337 2.762l-4.334-12.348-1.111-3.421-1.911-.854.572-1.59-1.027-3.802-11.441-32.891-16.494-40.527c.568-.584.92-1.249 1.343-1.942.809-6.411 4.125-13.156 6.501-19.154 5.031-12.697 10.458-25.221 15.496-37.909z"/><path style="fill:#c4ffbf" d="m258.148 587.648 1.385.893-22.37 58.285 15.766 38.767-1.626 1.589-16.494-40.527c.568-.584.92-1.249 1.343-1.942.809-6.411 4.125-13.156 6.501-19.154 5.03-12.699 10.457-25.223 15.495-37.911z"/><path style="fill:#deedfc" d="M264.192 717.454c.372 1.153.59 2.285 1.558 3.089 4.161-5.34 7.514-11.762 10.854-17.646 6.228-10.972 12.139-22.155 18.876-32.824l.266 1.893c-2.033 4.815-4.809 9.365-7.328 13.938-3.453 6.272-6.784 12.617-10.32 18.844-2.499 4.399-5.22 8.679-7.855 12.998-1.401 2.296-3.237 4.566-3.283 7.348l1.81 5.352 3.121 8.879c-.331 1.169-.293 2.07-1.337 2.762l-4.334-12.348-1.111-3.421-1.911-.854.572-1.59-1.027-3.802-11.441-32.891 1.626-1.589c2.784 7.485 5.732 14.946 8.304 22.504 1.023 3.004 2.431 6.24 2.96 9.358z"/><path style="fill:#fdb404" d="m724.32 438.165-1.767-.415c-.398-.925-.569-1.763-.754-2.747-3.102-16.588-7.549-31.938-15.753-46.75-2.935-5.299-5.943-10.791-9.708-15.555-5.176-6.549-10.901-11.977-15.411-19.141-19.305-30.668-19.329-69.524.941-99.692 13.945-20.755 34.376-34.495 58.977-39.271 27.633-5.364 55.076-.404 78.523 15.464 20.241 13.697 34.577 37.034 39.044 60.92 4.704 25.144-2.916 50.366-17.249 71.021-3.551 5.117-7.604 9.87-11.158 14.986-7.613 10.957-13.941 22.687-18.27 35.332-1.881 5.495-3.356 11.054-4.767 16.683-.755 3.013-1.313 7.093-2.743 9.82-2.412-1.139-6.395-.626-9.059-.639-5.783-.025-11.566-.03-17.349-.032l-6.321.012-15.932.171-6.246-.023-24.998-.144z"/><path style="fill:#fff" d="M771.575 349.989c.063-6.813-.019-13.628.01-20.44.017-4.161-.325-9.188 1.133-13.13 1.462-3.952 4.075-6.822 7.989-8.465 5.138-2.157 9.886-2.792 15.043-.43 4.557 2.087 7.852 6.169 9.408 10.874 1.865 5.642.124 12.212-2.504 17.362-5.233 10.256-14.722 14.983-25.115 18.499l.28 83.891-6.321.012-15.932.171-6.246-.023.154-83.925c-5.045-2.531-10.778-5.013-15.225-8.526-5.529-4.368-10.65-12.138-11.286-19.239-.468-5.23.501-10.953 4.242-14.869 3.179-3.328 6.86-5.088 11.435-5.258 4.408-.165 8.398 1.23 11.605 4.309 2.016 1.936 3.807 4.69 4.499 7.419.867 3.415.549 7.761.583 11.301.064 6.661.094 13.322.12 19.983l16.128.484z"/><path style="fill:#fdb404" d="m736.557 312.03.94-.039c3.24-.089 7.344 1.191 9.608 3.589 3.717 3.936 2.332 26.433 2.356 32.507l-5.592-2.747c-5.354-3.167-11.158-7.968-13.647-13.799-1.745-4.091-2.17-9.169-.401-13.339 1.502-3.54 3.221-4.79 6.736-6.172zM786.643 312.059l3.986-.166c2.456.038 4.559 1.008 6.184 2.891 2.535 2.941 3.459 6.969 2.965 10.778-1.037 7.97-6.409 13.684-12.534 18.307-3.002 1.943-5.933 3.119-9.337 4.112.014-6.116.033-12.232.072-18.348.021-3.545-.548-8.268.957-11.549 1.575-3.436 4.321-4.803 7.707-6.025zM755.565 355.526c5.314.701 10.691.521 16.041.489l-.108 82.146-15.932.171-.001-82.806z"/><path style="fill:#fff" d="M151.04 281.12c4.643 7.287 12.256 13.242 20.772 15.206 4.479 1.033 9.498 1.027 13.938-.163l.799-.205c7.027-1.875 14.09-6.613 17.743-12.976l.486-.997c50.867-.918 101.789-.332 152.665-.377 15.265-.014 30.529-.029 45.795-.04 6.798-.005 14.509-.763 21.175.212 3.165.463 6.973 2.409 9.255 4.622 2.657 2.575 4.404 5.909 4.768 9.621.631 6.42.179 13.287.176 19.75-.005 12.492-.017 24.983-.029 37.474-.04 37.214.281 74.469-.198 111.677l-.333 4.696c-8.338-6.492-15.903-14.611-23.542-21.957-17.835-17.153-35.176-34.775-53.021-51.914-5.731-5.456-11.123-11.245-16.846-16.707-7.612-7.266-16.01-14.295-22.633-22.474-2.153-1.153-5.521-.878-7.917-.912-4.855-.067-9.714-.061-14.571-.057-18.294.012-36.655-.183-54.938.457l-3.98-.12c-2.183 3.649-5.955 6.718-8.975 9.695a17786.714 17786.714 0 0 1-16.378 16.124c-.417.089-.869.076-1.25.267-1.094.551-2.951 3.199-3.977 4.24-4.526 4.591-9.554 8.879-13.854 13.665-2.362 1.724-4.491 4.243-6.576 6.31-4.209 4.173-8.413 8.351-12.631 12.514-17.751 17.522-35.322 35.206-52.869 52.932-.984-1.935-2.032-3.91-2.24-6.103-.93-9.788-.189-20.441-.191-30.329-.003-21.741.141-43.48.191-65.221.039-16.704-.081-33.409-.142-50.113-.029-8.144-.667-16.824.221-24.915.397-3.619 1.823-6.622 4.242-9.334 1.387-1.553 3.289-3.063 5.265-3.788 2.037-.747 5.051-.429 7.215-.438 4.148-.017 8.241-.054 12.385-.322z"/><path style="fill:#010103" d="m241.347 323.918.626-1.499c3.315-.776 7.247-.337 10.673-.341 7.188-.007 14.376.001 21.563.012 10.462.016 20.924.027 31.386.06 5.221.017 11.243-.551 16.318.485l.748 1.112c-3.291 1.586-46.308.395-54.912.415-5.598.013-11.196.053-16.793.083-3.125.017-6.553.33-9.609-.327z"/><path style="fill:#fabcac" d="M240.603 355.936c.592-2.576.302-5.434.267-8.077-.099-7.408-1.22-16.799.477-23.941 3.056.657 6.484.344 9.609.327 5.597-.03 11.195-.07 16.793-.083 8.604-.02 51.621 1.171 54.912-.415l-.652 32.821c-2.153-1.153-5.521-.878-7.917-.912-4.855-.067-9.714-.061-14.571-.057-18.294.012-36.655-.183-54.938.457l-3.98-.12zM177.751 313.207c6.45.184 11.277 1.331 16.422 5.379 6.122 4.816 11.554 11.746 12.407 19.708.822 7.675-1.26 16.218-6.131 22.285-6.091 7.587-13.966 10.373-23.355 11.414-4.79-.413-8.818-1.186-13.126-3.412-7.53-3.891-12.988-10.42-15.338-18.601-2.247-7.825-.558-16.302 3.533-23.23 3.515-5.952 9.285-10.377 15.986-12.133l.85-.214c2.893-.774 5.777-.957 8.752-1.196z"/><path style="fill:#1299fa" d="M377.179 314.116c3.206-.266 6.718-.304 9.897.235 8.215 1.394 16.807 7.203 21.423 14.098 4.22 6.304 6.338 15.311 4.738 22.795l-.173.756c-1.01 4.56-2.646 8.854-5.265 12.75-5.105 7.598-12.636 12.1-21.51 13.888-8.524.618-15.917-.616-23.089-5.434-7.414-4.981-12.43-12.571-13.996-21.372-1.389-7.809.47-16.781 4.9-23.299 5.676-8.351 13.323-12.567 23.075-14.417z"/><path style="fill:#4934eb" d="M590.541 560.683c20.419 3.911 41.355 9.411 59.923 18.946 5.638 2.895 10.866 6.618 16.017 10.285 19.448 13.848 35.371 31.629 48.742 51.32l21.666 36.416c1.202 2.185 4.743 7.039 4.519 9.287l-1.449 1.612c-11.671 5.888-23.346 11.771-34.33 18.888-3.516 2.277-6.86 4.724-10.195 7.26-1.782 1.355-4.159 3.514-6.32 4.156-4.261-1.209-8.91-.924-13.311-.952l-27.01.07-1.937-3.936c-3.07-7.431-6.873-14.624-10.283-21.909-2.915-6.224-15.565-36.004-19.572-38.572l-.893.517c-.393 2.024.526 3.925 1.17 5.825-1.896 2.554-1.824 6.018-1.403 9.056 1.261 9.115 5.772 18.788 8.931 27.438 2.614 7.162 4.938 14.382 7.358 21.608-27.422.099-54.844.082-82.267.036-11.986-.021-23.973-.033-35.959-.037-5.618-.002-13.804-1.094-19.028.832l-.727.255c-3.718 1.37-6.779 4.206-8.346 7.862l-42.197 133.16-7.39.081c-1.192-1.173-.915-3.259-1.214-4.89-.474-11.133-1.567-22.097-1.683-33.274-.445-42.832 2.566-85.562 4.305-128.333.433-10.645.844-21.279 1.408-31.919.176-3.325 1.641-12.103.184-14.74-1.169-.082-1.957-.264-3 .368-.701 1.942-.481 4.311-.545 6.369-.132 4.294-.223 8.591-.407 12.882-.849 19.759-1.714 39.492-2.312 59.264l-1.858-.42c-8.77-4.719-15.716-12.833-23.427-19.032l-37.105-33.331 3.255-5.219c11.565-16.446 22.99-33.003 35.524-48.737 8.737-10.967 17.973-21.699 29.105-30.349 17.94-13.939 40.358-21.586 61.983-27.521 6.455 12.961 11.344 23.938 26.026 28.873 11.896 4 24.913 1.832 35.927-3.748 11.132-5.638 21.308-15.329 28.125-25.747z"/><path style="fill:#010103" d="M675.802 717.901c3.239-3.031 8.882-5.219 12.729-7.673 5.303-3.383 10.014-7.587 15.313-10.966 8.916-5.683 18.342-10.641 27.344-16.236 1.016-.633 4.461-2.315 5.063-3.181.298-.429.479-1.646.639-2.195 1.202 2.185 4.743 7.039 4.519 9.287l-1.449 1.612c-11.671 5.888-23.346 11.771-34.33 18.888-3.516 2.277-6.86 4.724-10.195 7.26-1.782 1.355-4.159 3.514-6.32 4.156-4.263-1.208-8.913-.923-13.313-.952z"/></svg>