<svg id="Chat" enable-background="new 0 0 64 64" height="512" viewBox="0 0 64 64" width="512" xmlns="http://www.w3.org/2000/svg"><g><path d="m57.52112 5.73051h-51.04148c-3.08748 0-5.59037 2.5029-5.59037 5.59037v32.07597c0 3.08748 2.5029 5.59037 5.59037 5.59037h17.4629l5.54437 7.96898c1.21822 1.75097 3.80871 1.75097 5.02693 0l5.54437-7.96898h17.46291c3.08747 0 5.59037-2.5029 5.59037-5.59037v-32.07597c0-3.08748-2.5029-5.59037-5.59037-5.59037z" fill="#f0f0fc"/><path d="m63.11236 11.32193v32.07107c0 3.09332-2.50662 5.60004-5.59993 5.60004h-15.30676c3.02224-4.78223 6.52452-11.96452 7.7156-21.1734 1.20888-9.4222-.48003-17.20888-2.04449-22.09776h9.63564c3.09332.00001 5.59994 2.50674 5.59994 5.60005z" opacity=".1"/><g fill="#101016"><path d="m32 59.15799s0 0-.00087 0c-1.29167 0-2.50347-.63368-3.24132-1.69444l-5.27951-7.58681h-16.99827c-3.57291 0-6.48003-2.90625-6.48003-6.47917v-32.07639c0-3.57292 2.90712-6.47917 6.48003-6.47917h51.0408c3.57292 0 6.47917 2.90625 6.47917 6.47917v32.07639c0 3.57292-2.90625 6.47917-6.47917 6.47917h-16.99826l-5.27951 7.58681c-.73785 1.06076-1.95139 1.69444-3.24306 1.69444zm-25.51997-52.5382c-2.59288 0-4.70226 2.10938-4.70226 4.70139v32.07639c0 2.59201 2.10938 4.70139 4.70226 4.70139h17.46267c.2908 0 .56337.14236.73003.38195l5.54427 7.96875c.41146.59028 1.06163.93055 1.78299.93055.72222 0 1.37153-.34027 1.78472-.93229l5.54514-7.96701c.16493-.23959.4375-.38195.72917-.38195h17.4618c2.59201 0 4.70139-2.10938 4.70139-4.70139v-32.07639c0-2.59201-2.10938-4.70139-4.70139-4.70139z"/><path d="m16.24747 27.35887c0 .84775-.68724 1.53498-1.53498 1.53498-.84775 0-1.53498-.68723-1.53498-1.53498s.68723-1.53498 1.53498-1.53498c.84774-.00001 1.53498.68723 1.53498 1.53498zm9.99028-1.53499c-.84775 0-1.53498.68723-1.53498 1.53498s.68723 1.53498 1.53498 1.53498 1.53498-.68723 1.53498-1.53498c0-.84774-.68724-1.53498-1.53498-1.53498zm11.52526 0c-.84775 0-1.53498.68723-1.53498 1.53498s.68724 1.53498 1.53498 1.53498 1.53498-.68723 1.53498-1.53498c0-.84774-.68723-1.53498-1.53498-1.53498zm11.52526 0c-.84774 0-1.53498.68723-1.53498 1.53498s.68724 1.53498 1.53498 1.53498c.84775 0 1.53498-.68723 1.53498-1.53498.00001-.84774-.68723-1.53498-1.53498-1.53498z"/></g></g></svg>