<svg xmlns="http://www.w3.org/2000/svg" display="block" viewBox="0 0 1400 239"><g id="mdwaE7C55" fill="transparent"><path id="McGov664i" fill="transparent" d="M0 0h1400v239.474H0Z"/><path id="RXCO2R3a0" fill="#0f1014" d="M76.205 239.474q-21.949 0-36.032-3.657c-9.388-2.438-16.84-5.965-22.295-10.521a39.7 39.7 0 0 1-12.011-17.064c-2.487-6.798-4.142-14.627-4.832-23.414C.344 176.029 0 166.278 0 155.627s.344-20.017 1.035-28.675c.69-8.726 2.416-16.552 5.176-23.416 2.763-6.93 6.834-12.702 12.149-17.384 5.385-4.685 12.701-8.213 21.951-10.715 9.251-2.437 21.123-3.653 35.55-3.653 9.112 0 18.36.445 27.61 1.28q13.873 1.252 24.85 3.85v36.053c-4.556-.645-10.491-1.157-17.672-1.606a323 323 0 0 0-20.085-.641q-12.01 0-18.845 1.731c-4.556 1.158-8.007 3.273-10.285 6.353s-3.798 7.571-4.627 13.536-1.172 13.727-1.172 23.287c0 9.558.414 17.384 1.176 23.413.828 6.095 2.345 10.651 4.623 13.73s5.864 5.13 10.629 6.22c4.833 1.093 11.114 1.606 18.912 1.606 5.527 0 11.738-.193 18.707-.645 6.972-.445 13.668-.961 20.088-1.602v36.059c-7.522 1.474-16.152 2.696-25.746 3.656a278 278 0 0 1-27.816 1.413Zm149.926 0c-15.529 0-28.507-.835-38.792-2.567-10.285-1.667-18.43-4.427-24.365-8.274-5.938-3.85-10.285-8.916-13.048-15.333-2.763-6.352-4.486-14.307-5.315-23.929-.829-9.557-1.172-20.91-1.172-34.128 0-13.214.414-24.503 1.172-33.934.829-9.432 2.555-17.387 5.315-23.736 2.763-6.352 7.11-11.482 13.048-15.332 5.935-3.85 14.08-6.543 24.365-8.145 10.285-1.606 23.192-2.377 38.792-2.377 15.602 0 28.786.771 39.138 2.377 10.285 1.602 18.431 4.298 24.368 8.145 5.935 3.85 10.285 8.919 13.045 15.332 2.764 6.417 4.486 14.307 5.315 23.736.829 9.431 1.173 20.785 1.173 33.934 0 13.153-.412 24.571-1.173 34.128-.758 9.561-2.554 17.513-5.315 23.929-2.763 6.417-7.11 11.483-13.048 15.333-5.934 3.85-14.08 6.607-24.365 8.274s-23.33 2.567-39.138 2.567m0-38.875c6.834 0 12.219-.448 16.152-1.283 3.868-.835 6.628-2.757 8.216-5.711 1.587-3.015 2.554-7.568 2.898-13.726.347-6.159.485-14.369.485-24.571 0-10.199-.209-18.283-.485-24.248-.344-5.966-1.311-10.393-2.898-13.408-1.588-2.95-4.348-4.875-8.216-5.71-3.865-.832-9.247-1.284-16.149-1.284-6.905 0-12.22.452-15.947 1.284-3.798.835-6.49 2.76-8.074 5.71-1.591 3.015-2.555 7.442-2.902 13.408-.343 5.965-.482 14.049-.482 24.248s.206 18.412.482 24.571c.347 6.158 1.311 10.714 2.899 13.726 1.587 2.954 4.279 4.876 8.074 5.711 3.798.835 9.116 1.283 15.947 1.283m155.796 38.875q-15.12 0-26.094-3.85c-7.316-2.564-13.254-6.927-17.877-13.214-4.556-6.288-7.94-14.82-10.147-25.661-2.14-10.841-3.245-24.438-3.245-40.799 0-16.358 1.034-29.701 3.107-40.671 2.069-10.97 5.385-19.566 9.938-25.851 4.556-6.288 10.494-10.779 17.672-13.539 7.178-2.757 15.946-4.105 26.231-4.105 6.831 0 13.322.512 19.395 1.605 6.075 1.09 11.596 3.015 16.637 5.772 5.038 2.76 9.385 6.93 13.045 12.447h2.76V0h55.223v236.907h-52.53l-1.379-19.434H431.9c-3.451 6.156-7.869 10.776-13.183 13.852a55.2 55.2 0 0 1-17.534 6.353 107.3 107.3 0 0 1-19.394 1.731Zm24.709-42.083c7.11 0 12.425-.768 15.946-2.373 3.522-1.603 6.143-4.492 7.731-8.79 1.381-3.847 2.21-8.21 2.554-13.214.344-5.005.482-10.777.482-17.384 0-6.61-.138-12.317-.482-17.257s-1.173-9.045-2.554-12.447c-1.382-4.682-3.866-7.89-7.525-9.557-3.657-1.667-9.042-2.567-16.152-2.567-6.144 0-11.111.452-14.771 1.284-3.66.835-6.349 2.631-8.075 5.262-1.728 2.628-2.83 6.733-3.245 12.25-.485 5.517-.691 13.152-.691 22.965 0 9.818.206 17.515.691 23.097.482 5.646 1.517 9.751 3.245 12.443 1.726 2.696 4.415 4.363 8.075 5.133 3.66.768 8.56 1.09 14.771 1.09Zm190.789 42.083c-16.496 0-30.093-.961-40.864-2.886-10.767-1.925-19.256-4.943-25.537-9.109-6.282-4.173-10.976-9.497-14.083-16.104s-5.038-14.432-5.797-23.609c-.829-9.106-1.176-19.757-1.176-31.881 0-14.691.762-27.328 2.211-37.978 1.449-10.647 4.832-19.308 10.147-26.173 5.244-6.798 13.46-11.866 24.503-15.136 11.114-3.273 26.161-4.943 45.144-4.943 15.323 0 27.819 1.028 37.413 3.018 9.594 1.986 17.187 5.13 22.848 9.235 5.591 4.172 9.595 9.496 12.011 16.103s3.933 14.497 4.623 23.732c.691 9.242 1.035 19.957 1.035 32.078v12.446H564.568c0 7.249.347 13.021 1.038 17.383.688 4.363 2.484 7.636 5.52 9.751 2.969 2.119 7.525 3.531 13.736 4.299 6.214.77 14.774 1.089 25.75 1.089 4.347 0 9.456-.125 15.461-.319a517 517 0 0 0 18.707-.961c6.487-.451 12.631-.835 18.359-1.283v35.731c-5.038 1.089-11.114 2.054-18.359 2.886-7.181.835-14.912 1.473-23.195 1.925-8.213.448-16.22.644-24.021.644Zm20.571-92.443v-5.127c0-7.7-.415-13.73-1.173-18.158-.829-4.491-2.208-7.828-4.142-10.07-1.934-2.247-4.624-3.659-8.078-4.298q-5.175-.966-13.045-.964c-5.934 0-10.699.387-14.218 1.09-3.521.706-6.214 2.309-8.077 4.621-1.793 2.308-3.107 5.771-3.795 10.199-.691 4.491-1.038 10.328-1.038 17.576h59.365l-5.867 5.134h.068Zm260.025 92.443q-21.953 0-36.035-3.657c-9.385-2.438-16.84-5.965-22.295-10.521a39.75 39.75 0 0 1-12.011-17.064c-2.484-6.801-4.141-14.627-4.829-23.414-.691-8.789-1.038-18.54-1.038-29.188 0-10.65.347-20.017 1.038-28.675.688-8.726 2.416-16.551 5.176-23.416 2.76-6.93 6.834-12.702 12.149-17.384 5.385-4.685 12.701-8.212 21.949-10.715 9.25-2.437 21.122-3.653 35.549-3.653 9.112 0 18.363.445 27.61 1.28q13.876 1.253 24.85 3.85v36.053c-4.556-.645-10.491-1.157-17.669-1.606a321 321 0 0 0-20.088-.641q-12.01 0-18.845 1.731c-4.556 1.158-8.007 3.273-10.285 6.353s-3.794 7.571-4.623 13.536-1.173 13.727-1.173 23.287c0 9.558.414 17.384 1.173 23.413.829 6.095 2.345 10.651 4.623 13.73s5.867 5.131 10.632 6.22c4.83 1.093 11.111 1.606 18.913 1.606 5.523 0 11.734-.193 18.706-.645 6.973-.445 13.666-.961 20.085-1.602v36.056c-7.522 1.474-16.152 2.696-25.746 3.656a278 278 0 0 1-27.816 1.413Zm149.923 0c-15.529 0-28.507-.835-38.792-2.567-10.285-1.667-18.43-4.427-24.365-8.274-5.937-3.85-10.285-8.916-13.048-15.333-2.76-6.352-4.485-14.307-5.314-23.929-.829-9.557-1.173-20.91-1.173-34.128 0-13.214.414-24.503 1.173-33.934.829-9.432 2.554-17.387 5.314-23.736 2.763-6.352 7.111-11.482 13.048-15.332 5.935-3.85 14.08-6.543 24.365-8.145 10.285-1.606 23.192-2.377 38.792-2.377 15.603 0 28.786.771 39.138 2.377 10.286 1.602 18.431 4.298 24.368 8.145 5.935 3.85 10.286 8.919 13.046 15.332 2.76 6.417 4.488 14.307 5.314 23.736.829 9.431 1.176 20.785 1.176 33.934 0 13.153-.414 24.571-1.176 34.128-.758 9.561-2.554 17.513-5.314 23.929-2.76 6.417-7.111 11.483-13.046 15.333-5.937 3.85-14.082 6.607-24.368 8.274s-23.33 2.567-39.138 2.567m0-38.875c6.834 0 12.219-.448 16.152-1.283 3.868-.835 6.628-2.757 8.216-5.711 1.587-3.015 2.554-7.568 2.898-13.726.347-6.159.485-14.369.485-24.571 0-10.199-.209-18.283-.485-24.248-.344-5.966-1.311-10.393-2.898-13.408-1.588-2.95-4.348-4.875-8.216-5.71-3.865-.832-9.247-1.284-16.152-1.284-6.902 0-12.216.452-15.944 1.284-3.797.835-6.487 2.76-8.077 5.71-1.588 3.015-2.552 7.442-2.899 13.408-.343 5.965-.482 14.049-.482 24.248s.206 18.412.482 24.571c.347 6.158 1.311 10.714 2.899 13.726 1.59 2.954 4.28 4.876 8.077 5.711 3.795.835 9.113 1.283 15.944 1.283m104.3 36.308V74.286h52.116l1.382 19.76h3.104c3.453-5.517 7.663-9.945 12.701-13.217 5.041-3.27 10.77-5.643 17.19-6.991 6.419-1.413 13.389-2.054 20.914-2.054 11.666 0 20.984 1.412 27.957 4.105 6.969 2.76 12.287 6.8 15.943 12.127 3.66 5.323 6.144 11.93 7.387 19.756 1.243 7.891 1.931 17 1.931 27.457v101.746h-55.22v-86.097c0-8.723-.209-15.588-.691-20.592s-1.519-8.658-3.107-11.034c-1.587-2.373-4.071-3.786-7.384-4.298-3.315-.513-7.73-.768-13.186-.768-5.453 0-10.353.577-13.874 1.732-3.518 1.154-6.143 3.143-7.869 5.9s-2.898 6.672-3.451 11.676q-.828 7.508-.829 18.667v84.807h-54.876Zm-354.452.706-83.315-47.535v-66.009l83.315-47.858v51.64l-55.014 28.995 55.014 28.998Z"/><path id="dlGO3OoWj" fill="#0f1014" d="M83.245.003v51.64L0 95.651V47.855L83.245 0Zm538.892 0 83.316 47.536v66.008l-83.316 47.858v-51.64l55.015-28.998-55.015-28.995Z" transform="translate(694.547 76.272)"/><path id="ln5rBwYLL" fill="#0f1014" d="M0 95.648v-51.64L83.315 0v47.855Z" transform="translate(1316.685 141.965)"/></g></svg>