<svg xmlns="http://www.w3.org/2000/svg" xml:space="preserve" id="Layer_1" width="100%" x="0" y="0" viewBox="0 0 3003 300"><path fill="transparent" d="M3004 208v92.945H1c0-46.383 0-92.71.382-139.352 2.678 16.537 11.566 29.43 24.875 39.376 11.79 8.811 23.966 17.104 35.906 25.716 26.516 19.125 53.237 37.98 79.396 57.584 16.755 12.557 34.683 18.792 55.55 14.716 18.539-3.62 32.577-13.712 41.87-30.13 7.382-13.044 9.696-27.002 7.078-41.868-2.547-14.458-8.719-27.263-20.112-36.198-18.018-14.131-37.034-26.99-55.546-40.33 11.387-8.18 22.843-16.348 34.231-24.61 7.737-5.613 16.18-10.548 22.911-17.198 18.78-18.55 24.249-41.087 16.097-66.213-5.679-17.505-17.536-29.962-34.727-36.94C204.408 3.672 199.644 2.483 195 1c50.03 0 100.062 0 150.41.38-1.423.74-3.177 1.05-4.903 1.47-14.357 3.496-25.701 11.556-34.217 23.437-12.527 17.476-14.742 36.762-8.452 56.993 4.8 15.436 15.487 26.153 28.72 35.072 15.13 10.198 29.63 21.33 44.584 32.186-15.722 11.288-31.037 22.7-46.78 33.486-22.715 15.563-32.92 37.031-29.112 63.995 2.905 20.567 14.642 36.09 33.28 45.784 10.522 5.473 21.925 6.941 33.683 6.214 9.176-.567 18.129-2.72 25.689-7.668 14.196-9.291 27.799-19.492 41.604-29.377a25195 25195 0 0 0 59.901-43.035c9.986-7.194 20.541-13.759 29.732-21.864 17.612-15.532 24.844-35.406 20.803-58.804-2.073-12-6.507-23.29-15.844-31.424-9.28-8.085-19.376-15.26-29.336-22.53-26.537-19.372-53.132-38.667-79.834-57.81-10.093-7.237-20.314-14.353-30.933-20.768C379.243 3.866 373.366 2.855 368 1h2636c0 63.444 0 126.769-.36 190.429-1.244-1.881-1.818-4.29-3.057-6.284-6.776-10.904-17.973-14.75-29.437-18.157-8.765-2.604-17.555-5.148-26.216-8.067-4.91-1.656-7.54-5.696-7.853-10.76-.328-5.32 2.906-8.768 7.294-11.21 13.744-7.647 33.506-3.142 40.532 11.361l18.682-8.569c-5.032-5.39-8.897-10.728-13.88-14.646-15.75-12.389-45.033-11.815-61.624.599-12.125 9.072-12.992 31.957-3.982 41.027 8.028 8.082 18.105 11.48 28.641 14.302 9.29 2.488 19.11 3.748 26.965 9.977 7.673 6.083 6.86 14.914.485 19.797-9.58 7.338-20.773 6.89-31.577 2.936-8.418-3.08-14.07-9.67-17.884-18.1-5.073 2.227-9.813 4.141-14.364 6.432-1.04.523-2.33 2.896-1.971 3.482 3.279 5.37 6.003 11.555 10.588 15.555 11.89 10.373 25.993 13.926 41.971 12.086 17.112-1.97 30.121-8.805 37.047-25.19M710.99 114.511c6.572-9.056 14.975-15.634 25.501-19.667 12.148-4.655 24.266-6.172 37.177-3.051 11.778 2.847 21.597 8.452 29.457 16.734l14.555-14.202c-6.231-4.49-11.952-9.632-18.537-13.161-18.89-10.123-39.201-11.912-59.794-7.017-22.857 5.433-39.88 19.112-50.827 39.911-9.174 17.431-11.361 35.837-7.671 55.306 3.676 19.4 13.499 35.005 28.393 47.102 18.611 15.115 40.649 19.923 64.105 16.375 19.181-2.902 35.802-11.287 47.63-27.37 12.852-17.473 16.614-37.102 13.763-58.126H759.36V165h56.915c-1.138 12.309-4.729 22.884-12.507 31.655-8.963 10.108-20.165 15.64-33.757 17.561-18.903 2.672-35.565-1.575-49.983-13.773-25.178-21.3-27.704-60.283-9.036-85.932m1649.547-14.544c-1.182 1.363-2.476 2.644-3.527 4.1-13.822 19.16-17.677 40.573-13.988 63.551 4.084 25.437 17.903 44.113 40.347 56.378 17.478 9.55 36.08 11.834 55.64 8.062 22.824-4.401 40.158-16.426 50.844-36.99 7.75-14.911 9.927-31.053 6.947-47.828h-74.549v17.824h56.352c-.252 1.161-.514 1.955-.589 2.765-1.431 15.55-8.145 28.344-21.086 37.087-22.846 15.436-54.534 13.936-75.683-5.37-17.988-16.42-23.424-37.649-18.823-61.083 2.879-14.661 10.212-27.335 22.82-36.15 15.181-10.614 31.71-14.864 50.198-10.594 11.858 2.74 22.026 8.043 29.216 16.356l14.231-13.68c-12.625-13.524-28.877-20.403-47.064-22.222-15.92-1.593-31.69.182-46.2 7.849-9.368 4.95-18.331 10.497-25.086 19.945M1170.957 265.404c.287-.57.467-1.236.877-1.697 7.978-8.973 12.11-19.48 12.137-31.453.08-35.983.029-71.967.029-107.95v-5.101h-18.003v13.781c-4.64-3.668-8.933-7.868-13.947-10.857-10.151-6.05-21.164-7.015-32.92-5.287-18.701 2.748-35.01 19.022-40.176 37.247-3.507 12.374-3.78 24.795-.87 37.192 2.523 10.757 7.702 20.466 15.83 27.904 10.193 9.329 22.408 13.498 36.603 13 14.72-.516 26.05-6.5 35.483-18.183 0 5.809.508 11.129-.114 16.313-1.05 8.747-3.311 17.235-10.227 23.478-5.843 5.275-12.727 7.646-20.681 8.37-12.337 1.123-22.453-2.263-30.227-11.965-2.294-2.863-4.197-6.04-6.229-8.998l-17.264 7.18c.668 1.809 1.097 3.566 1.921 5.112 12.464 23.384 34.977 28.796 57.88 25.967 11.182-1.381 21.024-5.937 29.898-14.053M1396 216.492V230c15.568 0 30.549.218 45.518-.09 7.838-.16 15.867-.332 23.447-2.076 25.666-5.903 43.57-20.94 52.235-46.347 5.357-15.704 6.053-31.573 2.795-47.718-3.702-18.354-12.493-33.67-27.81-44.688-13.72-9.869-29.513-13.67-46.176-14.035-11.16-.244-22.329-.046-33.493-.046H1396zm1502.542-83.464c-3.185-2.85-6.054-6.197-9.611-8.462-16.254-10.353-33.385-12.055-50.67-3.036-5.976 3.117-10.971 8.112-16.322 12.18v-14.466h-17.714v157.521h18.84v-60.948c1.953 2.257 3.213 4.145 4.875 5.564 11.117 9.491 23.615 13.629 38.532 11.813 16.637-2.025 28.801-10.21 37.608-23.87 7.298-11.319 9.254-24.023 8.989-37.323-.29-14.506-5.026-27.212-14.527-38.973M1999 170.5v106.206h19v-60.934c.707.872 1.758 2.478 3.103 3.78 11.554 11.179 25.092 15.767 41.27 13.557 19.796-2.705 32.719-14.01 40.482-31.496 5.456-12.287 6.025-25.358 4.296-38.81-2.741-21.332-18.59-40.56-39.619-45.463-13.95-3.251-27.546-1.954-39.412 7.118-3.9 2.982-7.366 6.534-11.297 10.066v-15.23h-17.539c-.13.606-.255.917-.255 1.23-.017 16.325-.022 32.65-.029 49.976m-224.495 43.568c-14.429-3.86-25.428-18.076-25.233-35.172h87.558c-.996-8.438-1.146-16.4-2.998-23.943-3.338-13.592-10.165-24.992-23.094-32.057-11.94-6.523-24.36-8.184-37.651-5.951-18.538 3.114-30.442 14.356-38.029 30.717-6.27 13.523-7.207 27.685-4.123 42.297 3.57 16.909 12.557 29.884 27.782 37.83 10.503 5.48 21.911 6.537 33.973 5.464 16.779-1.492 34.48-13.5 40.984-29.367l-15.458-7.787c-4.453 4.781-8.155 9.996-13.01 13.701-8.935 6.821-19.327 7.727-30.701 4.268m346.533-72.43c-1.014 1.991-2.146 3.933-3.023 5.983-5.848 13.67-7.076 27.74-4.064 42.324 3.495 16.928 12.537 29.893 27.762 37.842 10.504 5.484 21.915 6.536 33.978 5.466 16.78-1.488 34.513-13.53 40.977-29.372l-15.892-8c-14.61 22.834-32.725 22.536-45.797 17.573-14.541-5.522-23.628-21.59-22.525-34.454h86.97c-.499-6.85-.501-13.284-1.522-19.552-2.064-12.681-7.49-23.962-17.488-32.196-10.248-8.44-22.506-11.618-35.797-11.295-19.044.462-33.112 9.222-43.58 25.68m-583.636 68.28c.59.585 1.292 1.095 1.756 1.768 10.003 14.498 24.48 21.19 41.412 22.125 12.943.714 25.78-1.764 36.111-10.295 6.439-5.316 13.123-10.991 15.556-20.048l-15.83-7.211c-13.988 20.85-29.311 22.875-44.886 17.423-14.972-5.24-24.358-20.674-23.186-34.679h80.253c6.412 0 6.517-.005 6.368-6.638-.073-3.256-.616-6.501-.956-9.75-1.173-11.21-4.995-21.287-12.635-29.763-8.137-9.028-17.905-14.332-30.227-16.107-12.106-1.745-23.716-.778-34.068 4.99-19.14 10.665-27.576 28.361-29.047 49.7-.932 13.515 2.496 26.054 9.379 38.485M1231 191.394c3.763 16.269 12.88 28.726 27.646 36.366 10.53 5.449 21.913 6.624 33.972 5.462 18.356-1.77 30.224-12.265 39.908-26.452.496-.727-.492-3.47-1.493-4.044-4.397-2.515-9.054-4.577-13.554-6.773-12.861 20.492-29.453 23.329-45.22 17.669-16.161-5.802-25.08-24.457-22.663-34.622h4.853c25.488 0 50.975-.074 76.461.078 3.89.024 5.62-.987 5.121-5.052-.478-3.898-.632-7.835-1.042-11.743-1.6-15.23-7.854-28.21-20.513-36.995-22.86-15.864-58.043-12.45-74.762 13.524-10.274 15.962-13.149 33.237-8.714 52.582m-350.17-73.359c-.74.32-1.459.7-2.22.953-11.657 3.868-20.883 10.889-27.63 21.17-9.401 14.326-11.867 30.017-8.948 46.653 3.237 18.445 13.222 32.406 29.73 41.007 10.326 5.38 21.571 6.684 33.474 5.381 19.747-2.162 33.484-12.391 42.673-29.215 6.476-11.857 8.097-24.626 6.242-38.187-2.328-17.02-10.29-30.35-24.05-40.116-14.742-10.463-31.223-11.794-49.271-7.646m996.202 74.072c.328.904.661 1.807.985 2.712 11.28 31.562 38.314 42.923 66.335 37.874 12.498-2.253 23.084-8.594 31.314-18.744 7.913-9.761 12.305-20.816 13.254-33.159.833-10.838-.322-21.563-4.968-31.571-5.915-12.744-14.766-22.604-27.976-28.301-10.957-4.726-22.066-5.756-33.876-4.072-12.135 1.732-22.4 7.04-30.615 15.46-11.183 11.461-16.254 25.98-16.372 41.957-.041 5.657 1.222 11.323 1.919 17.844M2630.37 116c-4.582.333-9.21.357-13.736 1.054-16.443 2.533-28.79 11.4-37.391 25.407-6.864 11.179-8.91 23.534-8.317 36.57.669 14.744 5.783 27.636 15.92 38.123 9.15 9.468 20.57 14.455 33.947 16.08 11.794 1.434 22.87-.247 33.013-5.39 21.425-10.861 30.464-29.989 30.848-53.006.187-11.173-2.265-22.4-8.689-32.293-10.559-16.263-25.239-25.306-45.595-26.545m-1643.657 7.032c-.927.658-1.847 1.327-2.782 1.972-9.04 6.234-15.706 14.237-20.2 24.418-4.24 9.603-4.89 19.469-4.761 29.646.185 14.656 5.524 27.418 15.526 37.69 12.803 13.147 28.655 18.334 47.259 16.412 17.948-1.855 31.586-9.905 41.326-24.808 7.29-11.155 9.371-23.517 9.079-36.757-.304-13.766-4.784-25.727-13.299-36.112-17.1-20.858-48.278-25.303-72.148-12.46M2693 194.257c1.656 14.34 5.305 28.097 19.634 34.66 21.732 9.956 41.052 5.388 57.567-13.167v13.944h18.506V119.303H2769c0 21.268-.135 42.235.047 63.2.123 14.21-9.885 30.032-25.274 33.12-8.995 1.806-20.197-.545-26.702-9.982-4.213-6.111-4.769-13.137-4.928-19.974-.422-18.145-.143-36.307-.143-54.461v-11.972h-19zm-991-37.747-19.648 50.484-33.772-87.758h-20.543c.055.893-.072 1.61.16 2.18 5.234 12.781 10.593 25.511 15.752 38.322 8.759 21.747 17.422 43.532 26.059 65.328 1.375 3.47 3.076 5.622 7.417 5.044 3.927-.524 7.987.034 11.97-.199 1.219-.07 3.01-.885 3.457-1.856 2.552-5.543 4.825-11.217 7.104-16.882 8.388-20.856 16.708-41.739 25.12-62.585 3.936-9.754 8.023-19.448 12.145-29.418h-20.458c-4.997 12.404-9.859 24.473-14.763 37.34m582.16-40.508c-15.84-.26-28.705 5.132-37.286 20.51v-17.24h-17.606V229.72H2248c0-19.742-.218-39.21.138-58.669.102-5.56 1.067-11.396 3.041-16.57 3.638-9.537 14.423-19.632 26.217-18.43 5.088.517 10.12 1.595 15.604 2.488v-10.546c0-9.119 0-9.119-8.84-11.991m246.867 39.89c.525-1.006.998-2.044 1.582-3.015 6.357-10.573 14.672-18.071 28.015-16.8 4.399.42 8.71 1.755 13.21 2.703v-20.713c-19.506-5.208-34.795.21-46.173 18.132v-16.991h-17.44v110.556H2529v-5.118c0-19-.103-38 .09-56.997.038-3.652 1.24-7.291 1.937-11.757M1200 167.5v62.199h18.71V75.3H1200zm660.38 62.5h4.37V75.262h-18.495V230z"/><path fill="#101011" d="M194.531 1c5.113 1.482 9.877 2.67 14.38 4.499 17.191 6.977 29.048 19.434 34.727 36.94 8.152 25.125 2.683 47.663-16.097 66.212-6.732 6.65-15.174 11.585-22.91 17.198-11.389 8.262-22.845 16.43-34.232 24.61 18.512 13.34 37.528 26.199 55.546 40.33 11.393 8.935 17.565 21.74 20.112 36.198 2.618 14.866.304 28.824-7.078 41.867-9.293 16.419-23.331 26.51-41.87 30.131-20.867 4.076-38.795-2.16-55.55-14.716-26.159-19.604-52.88-38.459-79.396-57.584-11.94-8.612-24.116-16.905-35.906-25.716-13.309-9.946-22.197-22.839-24.875-39.83-.382-6.827-.382-13.514 0-20.81 2.609-16.889 10.775-29.933 23.597-39.607 18.975-14.318 38.553-27.835 57.86-41.713 13.922-10.006 27.75-20.145 41.753-30.037 10.411-7.355 20.775-14.84 31.676-21.413C161.57 4.363 168.052 3.125 174 1zM60.306 212.203c31.22 22.437 62.428 44.893 93.668 67.304 11.889 8.53 24.866 12.437 39.596 9.473 22.546-4.537 39.784-21.14 42.26-45.3 2.06-20.102-5.302-36.618-22.065-48.633a49684 49684 0 0 1-119.18-85.704c-13.112-9.456-27.553-12.268-43.254-9.264-20.271 3.878-39.172 25.064-40.282 45.477-1.047 19.264 6.145 34.979 21.544 46.666 8.88 6.74 18.057 13.089 27.713 19.98M73.64 79.129l-12.728 9.346c2.037.323 2.64.52 3.232.497 14.288-.575 26.507 4.692 37.835 12.94 19.38 14.109 38.911 28.008 58.349 41.974.596-.287 1.08-.44 1.472-.72 18.263-13.105 36.775-25.88 54.705-39.424 20.368-15.386 24.455-41.68 14.75-63.01-13.634-29.959-52.087-37.417-76.718-19.734-26.78 19.228-53.532 38.494-80.897 58.131"/><path fill="#10110f" d="M367.531 1c5.835 1.855 11.712 2.866 16.464 5.737 10.619 6.415 20.84 13.531 30.933 20.767 26.702 19.144 53.297 38.439 79.834 57.81 9.96 7.271 20.057 14.446 29.336 22.53 9.337 8.136 13.771 19.424 15.844 31.425 4.041 23.398-3.191 43.272-20.803 58.804-9.19 8.105-19.746 14.67-29.732 21.864a25195 25195 0 0 1-59.901 43.035c-13.805 9.885-27.408 20.086-41.604 29.377-7.56 4.947-16.513 7.101-25.689 7.668-11.758.727-23.161-.74-33.683-6.214-18.638-9.695-30.375-25.217-33.28-45.784-3.808-26.964 6.397-48.432 29.111-63.995 15.744-10.787 31.059-22.198 46.781-33.486-14.954-10.856-29.454-21.988-44.584-32.186-13.233-8.92-23.92-19.636-28.72-35.072-6.29-20.231-4.075-39.517 8.452-56.993 8.516-11.88 19.86-19.94 34.217-23.437 1.726-.42 3.48-.73 5.357-1.47C353.02 1 360.042 1 367.53 1m162.577 149.498c-.013-16.744-6.32-30.81-19.769-40.623-41.426-30.226-83.192-59.983-124.834-89.912-11.903-8.555-25.646-10.047-39.18-7.33-21.362 4.29-35.21 18.151-39.848 39.365-4.58 20.948 2.148 38.826 19.228 52.191 8.124 6.357 16.701 12.134 25.082 18.16 32.713 23.524 65.261 47.282 98.215 70.463 16.8 11.817 35.176 12.862 53.405 3.404 17.88-9.275 27-24.561 27.701-45.718M341.181 287.656c4.507.78 8.999 2.102 13.526 2.239 12.473.377 23.66-3.623 33.768-10.922 24.217-17.487 48.494-34.89 72.746-52.327 5.885-4.23 11.768-8.462 18.684-13.436-13.272-.906-24.764-3.596-34.76-10.44-11.497-7.873-22.716-16.149-34.047-24.263-10.084-7.221-20.155-14.461-30.157-21.639-3.79 2.724-7.153 5.13-10.505 7.55-15.348 11.082-30.913 21.877-45.978 33.33-16.452 12.508-23.74 36.102-17.428 54.772 5.678 16.796 16.654 28.608 34.15 35.136"/><path fill="transparent" d="M173.531 1c-5.479 2.125-11.961 3.363-17.263 6.56-10.9 6.571-21.265 14.057-31.676 21.412-14.003 9.892-27.83 20.03-41.752 30.037-19.308 13.878-38.886 27.395-57.86 41.713-12.823 9.674-20.99 22.718-23.598 39.138C1 93.732 1 47.463 1 1z"/><path fill="#1e1e1e" d="M3004 207.533c-6.926 16.852-19.935 23.686-37.047 25.657-15.978 1.84-30.08-1.713-41.97-12.086-4.586-4-7.31-10.186-10.59-15.555-.357-.586.933-2.959 1.972-3.482 4.551-2.29 9.291-4.205 14.364-6.432 3.814 8.43 9.466 15.02 17.884 18.1 10.804 3.954 21.998 4.402 31.577-2.936 6.374-4.883 7.188-13.714-.485-19.797-7.856-6.229-17.674-7.489-26.965-9.977-10.536-2.823-20.613-6.22-28.64-14.302-9.01-9.07-8.144-31.955 3.981-41.027 16.59-12.414 45.874-12.988 61.625-.599 4.982 3.918 8.847 9.256 13.879 14.646l-18.682 8.569c-7.026-14.503-26.788-19.008-40.532-11.36-4.388 2.44-7.622 5.889-7.294 11.209.313 5.064 2.943 9.104 7.853 10.76 8.661 2.92 17.451 5.463 26.216 8.067 11.464 3.406 22.661 7.253 29.437 18.157 1.239 1.995 1.813 4.403 3.056 6.738.361 5.14.361 10.161.361 15.65M710.727 114.767c-18.404 25.393-15.878 64.375 9.3 85.676 14.418 12.198 31.08 16.445 49.983 13.773 13.592-1.92 24.794-7.453 33.757-17.56 7.778-8.772 11.37-19.347 12.507-31.656h-56.915v-17.655h75.383c2.851 21.024-.91 40.653-13.762 58.126-11.83 16.083-28.45 24.468-47.631 27.37-23.456 3.548-45.494-1.26-64.105-16.375-14.894-12.097-24.717-27.703-28.393-47.102-3.69-19.469-1.503-37.875 7.671-55.306 10.946-20.799 27.97-34.478 50.827-39.91 20.593-4.896 40.904-3.107 59.794 7.016 6.585 3.529 12.306 8.672 18.537 13.161l-14.555 14.202c-7.86-8.282-17.679-13.887-29.457-16.734-12.91-3.12-25.029-1.604-37.177 3.05-10.526 4.034-18.929 10.612-25.764 19.924M2360.749 99.67c6.544-9.151 15.507-14.698 24.875-19.648 14.51-7.667 30.28-9.442 46.2-7.85 18.187 1.82 34.44 8.699 47.064 22.223l-14.23 13.68c-7.191-8.313-17.36-13.617-29.217-16.356-18.489-4.27-35.017-.02-50.197 10.594-12.609 8.815-19.942 21.489-22.82 36.15-4.602 23.434.834 44.662 18.822 61.083 21.149 19.306 52.837 20.806 75.683 5.37 12.941-8.743 19.655-21.536 21.086-37.087.075-.81.337-1.604.59-2.765h-56.353V147.24h74.549c2.98 16.775.802 32.917-6.947 47.829-10.686 20.563-28.02 32.588-50.844 36.99-19.56 3.771-38.162 1.488-55.64-8.063-22.444-12.265-36.263-30.941-40.347-56.378-3.689-22.978.166-44.39 13.988-63.55 1.051-1.457 2.345-2.738 3.738-4.397M1170.732 265.695c-8.649 7.825-18.49 12.381-29.674 13.762-22.902 2.829-45.415-2.583-57.879-25.967-.824-1.546-1.253-3.303-1.921-5.112l17.264-7.18c2.032 2.959 3.935 6.135 6.23 8.998 7.773 9.702 17.89 13.088 30.226 11.965 7.954-.724 14.838-3.095 20.68-8.37 6.917-6.243 9.178-14.731 10.228-23.478.622-5.184.114-10.504.114-16.313-9.433 11.684-20.763 17.667-35.483 18.183-14.195.498-26.41-3.671-36.603-13-8.128-7.438-13.307-17.147-15.83-27.904-2.91-12.397-2.637-24.818.87-37.192 5.166-18.225 21.475-34.499 40.176-37.247 11.756-1.728 22.769-.764 32.92 5.287 5.014 2.99 9.307 7.189 13.947 10.857v-13.781H1184v5.1c0 35.984.051 71.968-.029 107.951-.026 11.973-4.159 22.48-12.137 31.453-.41.46-.59 1.127-1.102 1.988m-11.143-66.772c4.67-8.606 7.19-17.744 6.386-27.582-1.097-13.408-5.163-24.923-17.54-32.725-14-8.825-35.813-5.096-45.468 9.497-6.43 9.718-8.452 20.193-7.095 31.764 1.164 9.92 4.594 18.247 11.765 25.395 15.097 15.047 40.25 11.472 51.952-6.35M1396 215.994V75h16.516c11.164 0 22.333-.198 33.493.046 16.663.365 32.457 4.166 46.175 14.035 15.318 11.018 24.109 26.334 27.811 44.688 3.258 16.145 2.562 32.014-2.795 47.718-8.666 25.407-26.569 40.444-52.235 46.347-7.58 1.744-15.609 1.916-23.447 2.077-14.97.307-29.95.089-45.518.089zm85.41-111.053c-19.956-15.005-43.012-10.203-65.043-10.905V211c12.45 0 24.552.472 36.6-.13 12.667-.632 24.174-5.375 33.014-14.53 16.483-17.068 18.451-38.115 14.554-60.22-2.203-12.493-8.955-22.54-19.124-31.179M2898.79 133.29c9.253 11.499 13.99 24.205 14.279 38.71.265 13.3-1.69 26.005-8.989 37.325-8.807 13.66-20.971 21.844-37.608 23.87-14.917 1.815-27.415-2.323-38.532-11.814-1.662-1.419-2.922-3.307-4.876-5.564v60.948h-18.839v-157.52h17.714v14.464c5.35-4.067 10.346-9.062 16.322-12.18 17.285-9.018 34.416-7.316 50.67 3.037 3.557 2.265 6.426 5.613 9.858 8.725m-54.266 3.642c-4.841 4.027-10.514 7.389-14.365 12.207-10.362 12.966-10.61 37.656.397 52.192 14.357 18.958 40.88 20.494 55.305-.355 11-15.9 11.044-33.042 1.647-49.893-8.298-14.88-26.26-21.395-42.984-14.15M1999 170c.007-16.826.012-33.151.029-49.477 0-.312.125-.623.255-1.228h17.539v15.229c3.931-3.532 7.396-7.084 11.297-10.066 11.866-9.072 25.462-10.37 39.412-7.118 21.03 4.902 36.878 24.131 39.62 45.462 1.728 13.453 1.159 26.524-4.297 38.811-7.763 17.486-20.686 28.79-40.482 31.496-16.178 2.21-29.716-2.378-41.27-13.557-1.345-1.302-2.396-2.908-3.103-3.78v60.934h-19zm36.07 40.58c17.638 11.112 36.928 4.752 47.238-11.613 5.703-9.052 7.506-19.27 5.874-30.256-1.584-10.663-5.346-19.636-13.655-26.786-15.408-13.26-37.723-10.036-49.455 7.04-6.846 9.964-9.302 20.94-7.237 33.225 1.97 11.722 6.807 21.165 17.234 28.39m-260.256 3.772c11.066 3.175 21.458 2.27 30.393-4.552 4.855-3.705 8.557-8.92 13.01-13.701l15.458 7.787c-6.505 15.867-24.205 27.875-40.984 29.367-12.062 1.073-23.47.017-33.973-5.464-15.225-7.946-24.213-20.921-27.782-37.83-3.084-14.612-2.147-28.774 4.123-42.297 7.587-16.361 19.491-27.603 38.029-30.717 13.292-2.233 25.711-.572 37.65 5.951 12.93 7.065 19.757 18.465 23.095 32.057 1.852 7.543 2.002 15.505 2.998 23.943h-87.558c-.195 17.096 10.804 31.313 25.54 35.456m-14.823-70.833c-5.192 5.366-8.198 11.851-10.03 19.276 22.027 0 43.794 0 65.562.01-1.784-14.409-9.058-24.773-23.472-28.03-11.49-2.596-22.859-1.464-32.06 8.744m361.267-2.189c10.249-16.15 24.317-24.91 43.361-25.373 13.291-.323 25.549 2.855 35.797 11.295 9.998 8.234 15.424 19.515 17.488 32.196 1.02 6.268 1.023 12.701 1.522 19.552h-86.97c-1.103 12.865 7.984 28.932 22.525 34.454 13.072 4.963 31.187 5.26 45.797-17.573l15.892 8c-6.464 15.842-24.196 27.884-40.977 29.372-12.063 1.07-23.474.018-33.978-5.466-15.225-7.95-24.267-20.914-27.762-37.842-3.012-14.585-1.784-28.655 4.064-42.324.877-2.05 2.009-3.992 3.24-6.292m36.335-6.44c-14.657 3.57-20.648 14.664-24.673 27.949h65.77c-1.095-10.84-6.27-19.04-15.253-24.876-7.842-5.093-16.565-4.154-25.844-3.073m-620.375 74.7c-6.697-12.103-10.125-24.642-9.193-38.157 1.47-21.339 9.906-39.035 29.047-49.7 10.352-5.768 21.962-6.735 34.068-4.99 12.322 1.775 22.09 7.079 30.227 16.107 7.64 8.476 11.462 18.553 12.635 29.763.34 3.249.883 6.494.956 9.75.15 6.633.044 6.637-6.368 6.638h-80.253c-1.172 14.005 8.214 29.439 23.186 34.68 15.575 5.451 30.898 3.427 44.886-17.424l15.83 7.211c-2.433 9.057-9.117 14.732-15.556 20.048-10.331 8.53-23.168 11.009-36.11 10.295-16.932-.934-31.41-7.627-41.413-22.125-.464-.673-1.165-1.183-1.942-2.096M1556.597 163h57.32c-.535-15.216-11.806-27.249-26.407-28.95-22.653-2.64-35.34 11.672-38.378 28.95zm-325.6 27.958c-4.432-18.91-1.557-36.184 8.717-52.146 16.719-25.974 51.901-29.388 74.762-13.524 12.66 8.785 18.913 21.766 20.513 36.995.41 3.908.564 7.845 1.042 11.743.498 4.065-1.231 5.076-5.12 5.052-25.487-.152-50.974-.078-76.462-.078h-4.853c-2.416 10.165 6.502 28.82 22.663 34.622 15.767 5.66 32.359 2.823 45.22-17.669 4.5 2.196 9.157 4.258 13.554 6.773 1.001.573 1.989 3.317 1.493 4.044-9.684 14.187-21.552 24.683-39.908 26.452-12.06 1.162-23.442-.013-33.972-5.462-14.765-7.64-23.883-20.097-27.649-36.802M1263.51 163h51.241c.591-14.18-11.716-27.15-24.9-28.925-23.723-3.194-36.953 12.314-39.75 28.925zm-382.257-44.981c17.625-4.132 34.106-2.8 48.848 7.662 13.76 9.766 21.722 23.097 24.05 40.116 1.855 13.56.234 26.33-6.242 38.187-9.189 16.824-22.926 27.053-42.673 29.215-11.903 1.303-23.148-.001-33.474-5.381-16.508-8.601-26.493-22.562-29.73-41.007-2.92-16.636-.453-32.327 8.947-46.652 6.748-10.282 15.974-17.303 27.63-21.171.762-.253 1.482-.632 2.644-.97m-7.182 89.566c4.578 2.26 8.97 5.091 13.772 6.67 13.056 4.295 24.54.866 34.603-8.188 9.856-8.868 13.106-20.032 12.67-33.013-.44-13.152-4.966-23.837-15.498-31.984-16.11-12.463-39.356-8.566-51.283 7.387-12.95 17.322-11.013 43.905 5.736 59.128m1002.946-15.906c-.682-6.092-1.945-11.758-1.904-17.415.118-15.978 5.19-30.496 16.372-41.957 8.216-8.42 18.48-13.728 30.615-15.46 11.81-1.684 22.92-.654 33.876 4.072 13.21 5.697 22.06 15.557 27.976 28.3 4.646 10.01 5.8 20.734 4.968 31.572-.95 12.343-5.34 23.398-13.254 33.159-8.23 10.15-18.816 16.491-31.314 18.744-28.02 5.049-55.055-6.312-66.335-37.874-.324-.905-.657-1.808-1-3.14m92.98-19.882c-.666-3.32-1.202-6.672-2.02-9.953-3.343-13.403-12.133-22.493-24.781-26.474-13.108-4.126-25.983-1.573-36.227 8.295-10.494 10.11-14.05 22.696-12.054 37.192 2.082 15.12 9.16 25.954 23.46 32.31 14.394 6.4 31.59 1.092 40.55-8.713 8.137-8.903 11.172-19.837 11.072-32.657M2630.846 116c19.881 1.239 34.561 10.282 45.12 26.545 6.424 9.894 8.876 21.12 8.69 32.293-.385 23.017-9.424 42.145-30.849 53.006-10.144 5.143-21.22 6.824-33.013 5.39-13.377-1.625-24.797-6.612-33.948-16.08-10.136-10.487-15.25-23.379-15.92-38.122-.591-13.037 1.454-25.392 8.318-36.571 8.6-14.007 20.948-22.874 37.391-25.407 4.525-.697 9.154-.721 14.21-1.054m-5.224 18c-12.501.13-21.588 6.492-28.598 16.157-10.086 13.907-10.011 37.133 1.363 51.516 13.7 17.324 37.561 19.504 53.867 4.563 9.837-9.013 12.883-20.459 12.863-33.482-.033-20.574-17.342-40.516-39.495-38.754M987.093 122.99c23.491-12.8 54.669-8.355 71.77 12.503 8.514 10.385 12.994 22.346 13.298 36.112.292 13.24-1.789 25.602-9.08 36.757-9.739 14.903-23.377 22.953-41.325 24.808-18.604 1.922-34.456-3.265-47.259-16.413-10.002-10.271-15.341-23.033-15.526-37.69-.128-10.176.522-20.042 4.76-29.645 4.495-10.181 11.162-18.184 20.2-24.418.936-.645 1.856-1.314 3.162-2.014m-7.066 35.923c-.133.963-.19 1.944-.41 2.887-3.976 16.974-2.041 32.544 11.585 44.828 16.58 14.947 40.832 11.896 53.683-5.501 10.087-13.655 11.104-29.304 4.721-44.438-6.753-16.011-22.288-26.066-42.195-21.864-13.575 2.865-21.371 11.712-27.384 24.088M2693 193.781v-74.547h19v11.972c0 18.154-.28 36.316.143 54.46.16 6.838.715 13.864 4.928 19.975 6.505 9.437 17.707 11.788 26.702 9.983 15.39-3.09 25.397-18.91 25.274-33.12-.182-20.966-.047-41.933-.047-63.201h19.707v110.392H2770.2v-13.944c-16.515 18.555-35.835 23.123-57.567 13.168-14.33-6.564-17.978-20.32-19.634-35.138m-990.979-37.669c4.884-12.468 9.746-24.537 14.743-36.94h20.458c-4.122 9.969-8.209 19.663-12.145 29.417-8.412 20.846-16.732 41.729-25.12 62.585-2.279 5.665-4.552 11.339-7.104 16.882-.447.971-2.238 1.785-3.457 1.856-3.983.233-8.043-.325-11.97.199-4.34.578-6.042-1.575-7.417-5.044-8.637-21.796-17.3-43.581-26.059-65.328-5.16-12.81-10.518-25.541-15.751-38.322-.233-.57-.106-1.287-.161-2.18h20.543l33.772 87.758c6.65-17.087 13.149-33.785 19.669-50.883m582.593-40.094c8.386 2.857 8.386 2.857 8.386 11.976v10.546c-5.485-.893-10.516-1.97-15.604-2.489-11.794-1.2-22.579 8.894-26.217 18.431-1.974 5.174-2.94 11.01-3.041 16.57-.356 19.458-.138 38.927-.138 58.67h-18.732v-110.45h17.606v17.241c8.581-15.378 21.446-20.77 37.74-20.495m246.396 40.285c-.68 4.056-1.882 7.695-1.92 11.347-.193 18.997-.09 37.998-.09 56.997v5.118h-18.779V119.21h17.44v16.99c11.378-17.92 26.667-23.34 46.172-18.13v20.712c-4.5-.948-8.81-2.284-13.209-2.703-13.343-1.271-21.658 6.227-28.015 16.8-.584.971-1.057 2.009-1.598 3.425M1200 167V75.301h18.71V229.7H1200zm659.892 63h-13.637V75.262h18.495V230z"/><path fill="#4285f3" d="M60 212.02c-9.35-6.709-18.526-13.059-27.407-19.798-15.4-11.687-22.59-27.402-21.544-46.666 1.11-20.413 20.01-41.599 40.282-45.477 15.701-3.004 30.142-.192 43.253 9.264a49684 49684 0 0 0 119.181 85.704c16.763 12.015 24.125 28.531 22.065 48.634-2.476 24.16-19.714 40.762-42.26 45.299-14.73 2.964-27.707-.944-39.596-9.473-31.24-22.411-62.447-44.867-93.975-67.488"/><path fill="#e94335" d="M73.94 78.934c27.065-19.443 53.817-38.71 80.597-57.937 24.63-17.683 63.084-10.225 76.717 19.734 9.706 21.33 5.619 47.624-14.749 63.01-17.93 13.544-36.442 26.319-54.705 39.423-.392.281-.876.434-1.472.72-19.438-13.965-38.97-27.864-58.35-41.974-11.327-8.247-23.546-13.514-37.834-12.94-.593.025-1.195-.173-3.232-.496 4.912-3.607 8.82-6.476 13.028-9.54"/><path fill="#34a853" d="M530.108 150.975c-.7 20.68-9.821 35.966-27.7 45.241-18.23 9.458-36.607 8.413-53.406-3.404-32.954-23.181-65.502-46.939-98.215-70.462-8.38-6.027-16.958-11.804-25.082-18.16-17.08-13.366-23.808-31.244-19.228-52.192 4.638-21.214 18.486-35.075 39.847-39.364 13.535-2.718 27.278-1.226 39.18 7.33 41.643 29.928 83.41 59.685 124.835 89.91 13.45 9.814 19.756 23.88 19.77 41.1"/><path fill="#f8aa00" d="M340.888 287.377c-17.204-6.249-28.18-18.06-33.858-34.857-6.312-18.67.976-42.264 17.428-54.772 15.065-11.453 30.63-22.248 45.978-33.33 3.352-2.42 6.714-4.826 10.505-7.55 10.002 7.178 20.073 14.418 30.157 21.64 11.33 8.113 22.55 16.39 34.047 24.261 9.996 6.845 21.488 9.535 34.76 10.441l-18.684 13.436c-24.252 17.437-48.53 34.84-72.746 52.327-10.108 7.3-21.295 11.3-33.768 10.922-4.527-.137-9.019-1.458-13.819-2.518"/><path fill="transparent" d="M1159.316 199.18c-11.43 17.564-36.582 21.139-51.679 6.092-7.171-7.148-10.6-15.476-11.765-25.395-1.357-11.57.665-22.046 7.095-31.764 9.655-14.593 31.468-18.322 45.467-9.497 12.378 7.802 16.444 19.317 17.54 32.725.805 9.838-1.715 18.976-6.658 27.839m322.364-93.996c9.9 8.396 16.652 18.443 18.855 30.937 3.897 22.104 1.929 43.15-14.554 60.22-8.84 9.154-20.347 13.897-33.014 14.53-12.048.601-24.15.13-36.6.13V94.035c22.031.702 45.087-4.1 65.314 11.148M2844.81 136.66c16.437-6.97 34.399-.457 42.697 14.424 9.397 16.851 9.353 33.993-1.647 49.893-14.425 20.85-40.948 19.313-55.305.355-11.007-14.536-10.76-39.226-.397-52.192 3.851-4.818 9.524-8.18 14.653-12.48m-809.999 73.648c-10.17-6.953-15.007-16.396-16.977-28.118-2.065-12.285.39-23.26 7.237-33.225 11.732-17.076 34.047-20.3 49.455-7.04 8.31 7.15 12.07 16.123 13.655 26.786 1.632 10.986-.17 21.204-5.874 30.256-10.31 16.365-29.6 22.725-47.496 11.341m-274.572-67.046c8.95-9.95 20.32-11.083 31.81-8.487 14.413 3.257 21.687 13.621 23.47 28.025-21.767-.005-43.534-.005-65.561-.005 1.832-7.425 4.838-13.91 10.282-19.533m397.661-8.68c8.967-.774 17.69-1.713 25.532 3.38 8.984 5.836 14.158 14.036 15.253 24.876h-65.77c4.025-13.285 10.016-24.38 24.985-28.256M1556.113 163h-6.98c3.038-17.278 15.724-31.59 38.377-28.95 14.6 1.701 25.872 13.734 26.407 28.95zm-293.1 0h-12.911c2.796-16.61 16.026-32.119 39.75-28.925 13.183 1.775 25.49 14.746 24.9 28.925zm-389.191 44.315c-16.5-14.954-18.437-41.537-5.487-58.859 11.927-15.953 35.172-19.85 51.283-7.387 10.532 8.147 15.057 18.832 15.499 31.984.435 12.98-2.815 24.145-12.671 33.013-10.062 9.054-21.547 12.483-34.603 8.189-4.803-1.58-9.194-4.41-14.021-6.94m1096.176-35.06c.1 12.362-2.936 23.296-11.072 32.199-8.96 9.805-26.157 15.113-40.55 8.714-14.301-6.357-21.38-17.192-23.461-32.31-1.996-14.497 1.56-27.084 12.054-37.193 10.244-9.868 23.12-12.42 36.227-8.295 12.648 3.981 21.438 13.07 24.78 26.474.819 3.281 1.355 6.633 2.022 10.41M2626.091 134c21.683-1.762 38.992 18.18 39.025 38.754.02 13.023-3.026 24.469-12.863 33.482-16.306 14.941-40.167 12.761-53.867-4.563-11.374-14.383-11.45-37.609-1.363-51.516 7.01-9.665 16.097-16.028 29.068-16.157M980.176 158.534c5.864-11.997 13.66-20.844 27.235-23.71 19.907-4.2 35.442 5.854 42.195 21.865 6.383 15.134 5.366 30.783-4.72 44.438-12.852 17.397-37.105 20.448-53.684 5.501-13.626-12.284-15.56-27.854-11.585-44.828.22-.943.277-1.924.559-3.266"/></svg>