<svg id="Layer_1" enable-background="new 0 0 512 512" height="512" viewBox="0 0 512 512" width="512" xmlns="http://www.w3.org/2000/svg"><g><path d="m258.775 1.728 75.518 154.464c.446.913 1.317 1.547 2.325 1.695l168.935 24.78c2.518.369 3.53 3.443 1.72 5.224l-122.297 120.339c-.715.704-1.041 1.71-.873 2.697l28.863 169.876c.427 2.516-2.234 4.423-4.496 3.223l-151.018-80.146c-.908-.482-1.997-.482-2.904 0l-151.018 80.146c-2.262 1.2-4.923-.708-4.496-3.223l28.863-169.876c.168-.987-.158-1.993-.873-2.697l-122.298-120.339c-1.81-1.781-.798-4.855 1.72-5.224l168.935-24.78c1.009-.148 1.879-.782 2.325-1.695l75.519-154.464c1.126-2.304 4.424-2.304 5.55 0z" fill="#fee45a"/><g fill="#fed402"><path d="m295.861 150.389c.446.913 1.316 1.547 2.325 1.695l36.737 5.389-76.147-155.745c-1.126-2.304-4.425-2.304-5.551 0l-15.025 30.73z"/><path d="m507.274 187.891c1.81-1.781.798-4.855-1.72-5.224l-38.374-5.629c-.133.224-.299.438-.5.636l-122.298 120.338c-.715.704-1.041 1.71-.873 2.697l27.795 163.592 37.167 19.725c2.262 1.2 4.923-.707 4.496-3.223l-28.863-169.876c-.167-.987.158-1.993.874-2.697z"/></g><g fill="#ffceed"><path d="m286.645 474.373c-2.341-3.493-7.068-4.426-10.56-2.085-3.492 2.34-4.425 7.069-2.084 10.56l17.277 25.776c1.468 2.191 3.876 3.375 6.329 3.375 1.457 0 2.93-.418 4.231-1.29 3.492-2.34 4.425-7.069 2.084-10.56z"/><path d="m235.915 472.288c-3.493-2.34-8.221-1.407-10.56 2.085l-17.277 25.776c-2.341 3.492-1.407 8.22 2.084 10.56 1.301.872 2.774 1.29 4.231 1.29 2.453 0 4.861-1.184 6.329-3.375l17.277-25.776c2.341-3.491 1.407-8.219-2.084-10.56z"/><path d="m503.597 302.302c-1.092-4.059-5.266-6.465-9.327-5.374l-30.33 8.154c-4.059 1.091-6.466 5.267-5.375 9.327.914 3.398 3.988 5.637 7.346 5.637.654 0 1.319-.085 1.981-.263l30.33-8.154c4.06-1.092 6.466-5.268 5.375-9.327z"/><path d="m456.781 353.003c-2.658-3.257-7.453-3.744-10.709-1.085-3.258 2.658-3.743 7.452-1.085 10.71l19.652 24.085c1.504 1.844 3.694 2.799 5.902 2.799 1.692 0 3.394-.561 4.807-1.714 3.258-2.658 3.743-7.452 1.085-10.71z"/><path d="m363.983 49.512c-4.198-.189-7.766 3.043-7.964 7.241l-1.467 30.816c-.2 4.199 3.042 7.765 7.241 7.965.123.005.246.008.368.008 4.038 0 7.403-3.174 7.597-7.25l1.467-30.816c.199-4.198-3.043-7.764-7.242-7.964z"/><path d="m428.29 97.95-29.423 10.891c-3.943 1.459-5.955 5.838-4.496 9.78 1.137 3.071 4.045 4.971 7.139 4.971.877 0 1.77-.153 2.641-.475l29.423-10.891c3.943-1.459 5.955-5.838 4.496-9.78-1.459-3.943-5.836-5.956-9.78-4.496z"/><path d="m115.075 108.222-29.424-10.891c-3.943-1.46-8.32.555-9.78 4.496-1.46 3.942.553 8.321 4.496 9.78l29.423 10.891c.871.323 1.763.475 2.641.475 3.094 0 6.002-1.9 7.139-4.971 1.46-3.941-.553-8.32-4.495-9.78z"/><path d="m157.923 56.134c-.199-4.199-3.762-7.428-7.964-7.241-4.199.2-7.441 3.766-7.241 7.965l1.467 30.816c.193 4.076 3.559 7.25 7.597 7.25.122 0 .245-.003.368-.008 4.199-.2 7.441-3.766 7.241-7.965z"/><path d="m66.669 350.917c-3.259-2.659-8.053-2.171-10.71 1.086l-19.651 24.085c-2.657 3.257-2.171 8.052 1.086 10.709 1.413 1.153 3.115 1.714 4.807 1.714 2.208 0 4.398-.956 5.903-2.8l19.651-24.085c2.658-3.257 2.172-8.052-1.086-10.709z"/><path d="m46.831 319.044c3.358 0 6.432-2.24 7.346-5.637 1.091-4.059-1.315-8.235-5.375-9.327l-30.33-8.154c-4.059-1.09-8.235 1.315-9.327 5.374-1.091 4.059 1.315 8.235 5.375 9.327l30.33 8.154c.662.178 1.327.263 1.981.263z"/></g></g></svg>