<svg xmlns="http://www.w3.org/2000/svg" viewBox="0 0 711.75 127.23"><defs><linearGradient id="A" x1="478.13" x2="688.65" y1="70.45" y2="44.77" href="#BO"><stop offset=".16" stop-color="#71cff5"/><stop offset=".84" stop-color="#da68a8"/></linearGradient><linearGradient id="B" x1="475.4" x2="685.92" y1="48.03" y2="22.34" href="#BO"><stop offset=".16" stop-color="#71cff5"/><stop offset=".84" stop-color="#da68a8"/></linearGradient><linearGradient id="C" x1="483.22" x2="693.74" y1="112.14" y2="86.46" href="#BO"><stop offset=".16" stop-color="#71cff5"/><stop offset=".84" stop-color="#da68a8"/></linearGradient><linearGradient id="D" x1="480.01" x2="690.53" y1="85.84" y2="60.16" href="#BO"><stop offset=".16" stop-color="#71cff5"/><stop offset=".84" stop-color="#da68a8"/></linearGradient><linearGradient id="E" x1="479.41" x2="689.93" y1="80.93" y2="55.25" href="#BO"><stop offset=".16" stop-color="#71cff5"/><stop offset=".84" stop-color="#da68a8"/></linearGradient><linearGradient id="F" x1="478.8" x2="689.32" y1="75.91" y2="50.22" href="#BO"><stop offset=".16" stop-color="#71cff5"/><stop offset=".84" stop-color="#da68a8"/></linearGradient><linearGradient id="G" x1="478.19" x2="688.72" y1="70.97" y2="45.28" href="#BO"><stop offset=".16" stop-color="#71cff5"/><stop offset=".84" stop-color="#da68a8"/></linearGradient><linearGradient id="H" x1="477.56" x2="688.08" y1="65.79" y2="40.1" href="#BO"><stop offset=".16" stop-color="#71cff5"/><stop offset=".84" stop-color="#da68a8"/></linearGradient><linearGradient id="I" x1="476.95" x2="687.47" y1="60.74" y2="35.06" href="#BO"><stop offset=".16" stop-color="#71cff5"/><stop offset=".84" stop-color="#da68a8"/></linearGradient><linearGradient id="J" x1="476.37" x2="686.89" y1="55.96" y2="30.28" href="#BO"><stop offset=".16" stop-color="#71cff5"/><stop offset=".84" stop-color="#da68a8"/></linearGradient><linearGradient id="K" x1="475.76" x2="686.29" y1="51.04" y2="25.36" href="#BO"><stop offset=".16" stop-color="#71cff5"/><stop offset=".84" stop-color="#da68a8"/></linearGradient><linearGradient id="L" x1="475.16" x2="685.68" y1="46.09" y2="20.41" href="#BO"><stop offset=".16" stop-color="#71cff5"/><stop offset=".84" stop-color="#da68a8"/></linearGradient><linearGradient id="M" x1="474.56" x2="685.08" y1="41.17" y2="15.48" href="#BO"><stop offset=".16" stop-color="#71cff5"/><stop offset=".84" stop-color="#da68a8"/></linearGradient><linearGradient id="N" x1="473.94" x2="684.46" y1="36.07" y2="10.38" href="#BO"><stop offset=".16" stop-color="#71cff5"/><stop offset=".84" stop-color="#da68a8"/></linearGradient><linearGradient id="O" x1="473.31" x2="683.84" y1="30.97" y2="5.28" href="#BO"><stop offset=".16" stop-color="#71cff5"/><stop offset=".84" stop-color="#da68a8"/></linearGradient><linearGradient id="P" x1="480.75" x2="691.27" y1="91.89" y2="66.21" href="#BO"><stop offset=".16" stop-color="#71cff5"/><stop offset=".84" stop-color="#da68a8"/></linearGradient><linearGradient id="Q" x1="481.47" x2="692" y1="97.85" y2="72.16" href="#BO"><stop offset=".16" stop-color="#71cff5"/><stop offset=".84" stop-color="#da68a8"/></linearGradient><linearGradient id="R" x1="482.19" x2="692.71" y1="103.7" y2="78.01" href="#BO"><stop offset=".16" stop-color="#71cff5"/><stop offset=".84" stop-color="#da68a8"/></linearGradient><linearGradient id="S" x1="482.94" x2="693.46" y1="109.86" y2="84.18" href="#BO"><stop offset=".16" stop-color="#71cff5"/><stop offset=".84" stop-color="#da68a8"/></linearGradient><linearGradient id="T" x1="483.67" x2="694.19" y1="115.86" y2="90.17" href="#BO"><stop offset=".16" stop-color="#71cff5"/><stop offset=".84" stop-color="#da68a8"/></linearGradient><linearGradient id="U" x1="484.36" x2="694.89" y1="121.53" y2="95.84" href="#BO"><stop offset=".16" stop-color="#71cff5"/><stop offset=".84" stop-color="#da68a8"/></linearGradient><linearGradient id="V" x1="485.08" x2="695.6" y1="127.36" y2="101.67" href="#BO"><stop offset=".16" stop-color="#71cff5"/><stop offset=".84" stop-color="#da68a8"/></linearGradient><linearGradient id="W" x1="485.8" x2="696.32" y1="133.3" y2="107.61" href="#BO"><stop offset=".16" stop-color="#71cff5"/><stop offset=".84" stop-color="#da68a8"/></linearGradient><linearGradient id="X" x1="486.51" x2="697.03" y1="139.12" y2="113.43" href="#BO"><stop offset=".16" stop-color="#71cff5"/><stop offset=".84" stop-color="#da68a8"/></linearGradient><linearGradient id="Y" x1="487.25" x2="697.77" y1="145.17" y2="119.48" href="#BO"><stop offset=".16" stop-color="#71cff5"/><stop offset=".84" stop-color="#da68a8"/></linearGradient><linearGradient id="Z" x1="487.98" x2="698.51" y1="151.21" y2="125.52" href="#BO"><stop offset=".16" stop-color="#71cff5"/><stop offset=".84" stop-color="#da68a8"/></linearGradient><linearGradient id="a" x1="479.9" x2="690.43" y1="84.96" y2="59.28" href="#BO"><stop offset=".16" stop-color="#71cff5"/><stop offset=".84" stop-color="#da68a8"/></linearGradient><linearGradient id="b" x1="479.3" x2="689.83" y1="80.06" y2="54.37" href="#BO"><stop offset=".16" stop-color="#71cff5"/><stop offset=".84" stop-color="#da68a8"/></linearGradient><linearGradient id="c" x1="478.69" x2="689.21" y1="75.03" y2="49.35" href="#BO"><stop offset=".16" stop-color="#71cff5"/><stop offset=".84" stop-color="#da68a8"/></linearGradient><linearGradient id="d" x1="478.09" x2="688.61" y1="70.09" y2="44.41" href="#BO"><stop offset=".16" stop-color="#71cff5"/><stop offset=".84" stop-color="#da68a8"/></linearGradient><linearGradient id="e" x1="477.46" x2="687.98" y1="64.91" y2="39.22" href="#BO"><stop offset=".16" stop-color="#71cff5"/><stop offset=".84" stop-color="#da68a8"/></linearGradient><linearGradient id="f" x1="476.84" x2="687.36" y1="59.88" y2="34.19" href="#BO"><stop offset=".16" stop-color="#71cff5"/><stop offset=".84" stop-color="#da68a8"/></linearGradient><linearGradient id="g" x1="476.26" x2="686.78" y1="55.1" y2="29.41" href="#BO"><stop offset=".16" stop-color="#71cff5"/><stop offset=".84" stop-color="#da68a8"/></linearGradient><linearGradient id="h" x1="475.66" x2="686.18" y1="50.17" y2="24.48" href="#BO"><stop offset=".16" stop-color="#71cff5"/><stop offset=".84" stop-color="#da68a8"/></linearGradient><linearGradient id="i" x1="475.05" x2="685.58" y1="45.22" y2="19.53" href="#BO"><stop offset=".16" stop-color="#71cff5"/><stop offset=".84" stop-color="#da68a8"/></linearGradient><linearGradient id="j" x1="474.45" x2="684.97" y1="40.29" y2="14.6" href="#BO"><stop offset=".16" stop-color="#71cff5"/><stop offset=".84" stop-color="#da68a8"/></linearGradient><linearGradient id="k" x1="473.83" x2="684.35" y1="35.19" y2="9.51" href="#BO"><stop offset=".16" stop-color="#71cff5"/><stop offset=".84" stop-color="#da68a8"/></linearGradient><linearGradient id="l" x1="473.21" x2="683.73" y1="30.08" y2="4.4" href="#BO"><stop offset=".16" stop-color="#71cff5"/><stop offset=".84" stop-color="#da68a8"/></linearGradient><linearGradient id="m" x1="480.64" x2="691.16" y1="91.03" y2="65.34" href="#BO"><stop offset=".16" stop-color="#71cff5"/><stop offset=".84" stop-color="#da68a8"/></linearGradient><linearGradient id="n" x1="481.37" x2="691.89" y1="96.97" y2="71.29" href="#BO"><stop offset=".16" stop-color="#71cff5"/><stop offset=".84" stop-color="#da68a8"/></linearGradient><linearGradient id="o" x1="482.08" x2="692.6" y1="102.82" y2="77.14" href="#BO"><stop offset=".16" stop-color="#71cff5"/><stop offset=".84" stop-color="#da68a8"/></linearGradient><linearGradient id="p" x1="482.83" x2="693.36" y1="108.99" y2="83.31" href="#BO"><stop offset=".16" stop-color="#71cff5"/><stop offset=".84" stop-color="#da68a8"/></linearGradient><linearGradient id="q" x1="483.57" x2="694.09" y1="114.99" y2="89.3" href="#BO"><stop offset=".16" stop-color="#71cff5"/><stop offset=".84" stop-color="#da68a8"/></linearGradient><linearGradient id="r" x1="484.26" x2="694.78" y1="120.64" y2="94.96" href="#BO"><stop offset=".16" stop-color="#71cff5"/><stop offset=".84" stop-color="#da68a8"/></linearGradient><linearGradient id="s" x1="484.97" x2="695.49" y1="126.49" y2="100.8" href="#BO"><stop offset=".16" stop-color="#71cff5"/><stop offset=".84" stop-color="#da68a8"/></linearGradient><linearGradient id="t" x1="485.69" x2="696.22" y1="132.42" y2="106.74" href="#BO"><stop offset=".16" stop-color="#71cff5"/><stop offset=".84" stop-color="#da68a8"/></linearGradient><linearGradient id="u" x1="486.4" x2="696.93" y1="138.24" y2="112.56" href="#BO"><stop offset=".16" stop-color="#71cff5"/><stop offset=".84" stop-color="#da68a8"/></linearGradient><linearGradient id="v" x1="487.14" x2="697.66" y1="144.28" y2="118.6" href="#BO"><stop offset=".16" stop-color="#71cff5"/><stop offset=".84" stop-color="#da68a8"/></linearGradient><linearGradient id="w" x1="487.88" x2="698.4" y1="150.32" y2="124.64" href="#BO"><stop offset=".16" stop-color="#71cff5"/><stop offset=".84" stop-color="#da68a8"/></linearGradient><linearGradient id="x" x1="479.79" x2="690.31" y1="84.02" y2="58.33" href="#BO"><stop offset=".16" stop-color="#71cff5"/><stop offset=".84" stop-color="#da68a8"/></linearGradient><linearGradient id="y" x1="479.19" x2="689.71" y1="79.11" y2="53.42" href="#BO"><stop offset=".16" stop-color="#71cff5"/><stop offset=".84" stop-color="#da68a8"/></linearGradient><linearGradient id="z" x1="478.57" x2="689.1" y1="74.09" y2="48.4" href="#BO"><stop offset=".16" stop-color="#71cff5"/><stop offset=".84" stop-color="#da68a8"/></linearGradient><linearGradient id="AA" x1="477.97" x2="688.49" y1="69.14" y2="43.46" href="#BO"><stop offset=".16" stop-color="#71cff5"/><stop offset=".84" stop-color="#da68a8"/></linearGradient><linearGradient id="AB" x1="477.34" x2="687.86" y1="63.95" y2="38.27" href="#BO"><stop offset=".16" stop-color="#71cff5"/><stop offset=".84" stop-color="#da68a8"/></linearGradient><linearGradient id="AC" x1="476.73" x2="687.25" y1="58.91" y2="33.23" href="#BO"><stop offset=".16" stop-color="#71cff5"/><stop offset=".84" stop-color="#da68a8"/></linearGradient><linearGradient id="AD" x1="476.14" x2="686.66" y1="54.15" y2="28.46" href="#BO"><stop offset=".16" stop-color="#71cff5"/><stop offset=".84" stop-color="#da68a8"/></linearGradient><linearGradient id="AE" x1="475.54" x2="686.06" y1="49.22" y2="23.53" href="#BO"><stop offset=".16" stop-color="#71cff5"/><stop offset=".84" stop-color="#da68a8"/></linearGradient><linearGradient id="AF" x1="474.94" x2="685.46" y1="44.27" y2="18.58" href="#BO"><stop offset=".16" stop-color="#71cff5"/><stop offset=".84" stop-color="#da68a8"/></linearGradient><linearGradient id="AG" x1="474.34" x2="684.86" y1="39.33" y2="13.65" href="#BO"><stop offset=".16" stop-color="#71cff5"/><stop offset=".84" stop-color="#da68a8"/></linearGradient><linearGradient id="AH" x1="473.71" x2="684.24" y1="34.24" y2="8.55" href="#BO"><stop offset=".16" stop-color="#71cff5"/><stop offset=".84" stop-color="#da68a8"/></linearGradient><linearGradient id="AI" x1="473.09" x2="683.61" y1="29.14" y2="3.45" href="#BO"><stop offset=".16" stop-color="#71cff5"/><stop offset=".84" stop-color="#da68a8"/></linearGradient><linearGradient id="AJ" x1="480.53" x2="691.05" y1="90.07" y2="64.38" href="#BO"><stop offset=".16" stop-color="#71cff5"/><stop offset=".84" stop-color="#da68a8"/></linearGradient><linearGradient id="AK" x1="481.25" x2="691.77" y1="96.02" y2="70.33" href="#BO"><stop offset=".16" stop-color="#71cff5"/><stop offset=".84" stop-color="#da68a8"/></linearGradient><linearGradient id="AL" x1="481.97" x2="692.49" y1="101.88" y2="76.19" href="#BO"><stop offset=".16" stop-color="#71cff5"/><stop offset=".84" stop-color="#da68a8"/></linearGradient><linearGradient id="AM" x1="482.72" x2="693.24" y1="108.04" y2="82.35" href="#BO"><stop offset=".16" stop-color="#71cff5"/><stop offset=".84" stop-color="#da68a8"/></linearGradient><linearGradient id="AN" x1="483.45" x2="693.97" y1="114.02" y2="88.34" href="#BO"><stop offset=".16" stop-color="#71cff5"/><stop offset=".84" stop-color="#da68a8"/></linearGradient><linearGradient id="AO" x1="484.14" x2="694.66" y1="119.69" y2="94.01" href="#BO"><stop offset=".16" stop-color="#71cff5"/><stop offset=".84" stop-color="#da68a8"/></linearGradient><linearGradient id="AP" x1="484.85" x2="695.37" y1="125.52" y2="99.84" href="#BO"><stop offset=".16" stop-color="#71cff5"/><stop offset=".84" stop-color="#da68a8"/></linearGradient><linearGradient id="AQ" x1="485.58" x2="696.1" y1="131.47" y2="105.79" href="#BO"><stop offset=".16" stop-color="#71cff5"/><stop offset=".84" stop-color="#da68a8"/></linearGradient><linearGradient id="AR" x1="486.29" x2="696.81" y1="137.28" y2="111.6" href="#BO"><stop offset=".16" stop-color="#71cff5"/><stop offset=".84" stop-color="#da68a8"/></linearGradient><linearGradient id="AS" x1="487.02" x2="697.55" y1="143.34" y2="117.65" href="#BO"><stop offset=".16" stop-color="#71cff5"/><stop offset=".84" stop-color="#da68a8"/></linearGradient><linearGradient id="AT" x1="487.76" x2="698.28" y1="149.38" y2="123.69" href="#BO"><stop offset=".16" stop-color="#71cff5"/><stop offset=".84" stop-color="#da68a8"/></linearGradient><linearGradient id="AU" x1="479.68" x2="690.2" y1="83.14" y2="57.46" href="#BO"><stop offset=".16" stop-color="#71cff5"/><stop offset=".84" stop-color="#da68a8"/></linearGradient><linearGradient id="AV" x1="479.08" x2="689.6" y1="78.23" y2="52.55" href="#BO"><stop offset=".16" stop-color="#71cff5"/><stop offset=".84" stop-color="#da68a8"/></linearGradient><linearGradient id="AW" x1="478.47" x2="688.99" y1="73.21" y2="47.52" href="#BO"><stop offset=".16" stop-color="#71cff5"/><stop offset=".84" stop-color="#da68a8"/></linearGradient><linearGradient id="AX" x1="477.87" x2="688.39" y1="68.27" y2="42.58" href="#BO"><stop offset=".16" stop-color="#71cff5"/><stop offset=".84" stop-color="#da68a8"/></linearGradient><linearGradient id="AY" x1="477.23" x2="687.75" y1="63.09" y2="37.4" href="#BO"><stop offset=".16" stop-color="#71cff5"/><stop offset=".84" stop-color="#da68a8"/></linearGradient><linearGradient id="AZ" x1="476.62" x2="687.14" y1="58.04" y2="32.36" href="#BO"><stop offset=".16" stop-color="#71cff5"/><stop offset=".84" stop-color="#da68a8"/></linearGradient><linearGradient id="Aa" x1="476.04" x2="686.56" y1="53.26" y2="27.58" href="#BO"><stop offset=".16" stop-color="#71cff5"/><stop offset=".84" stop-color="#da68a8"/></linearGradient><linearGradient id="Ab" x1="475.43" x2="685.96" y1="48.34" y2="22.66" href="#BO"><stop offset=".16" stop-color="#71cff5"/><stop offset=".84" stop-color="#da68a8"/></linearGradient><linearGradient id="Ac" x1="474.83" x2="685.35" y1="43.39" y2="17.71" href="#BO"><stop offset=".16" stop-color="#71cff5"/><stop offset=".84" stop-color="#da68a8"/></linearGradient><linearGradient id="Ad" x1="474.23" x2="684.75" y1="38.47" y2="12.78" href="#BO"><stop offset=".16" stop-color="#71cff5"/><stop offset=".84" stop-color="#da68a8"/></linearGradient><linearGradient id="Ae" x1="473.61" x2="684.13" y1="33.37" y2="7.68" href="#BO"><stop offset=".16" stop-color="#71cff5"/><stop offset=".84" stop-color="#da68a8"/></linearGradient><linearGradient id="Af" x1="472.98" x2="683.51" y1="28.27" y2="2.58" href="#BO"><stop offset=".16" stop-color="#71cff5"/><stop offset=".84" stop-color="#da68a8"/></linearGradient><linearGradient id="Ag" x1="480.42" x2="690.94" y1="89.19" y2="63.51" href="#BO"><stop offset=".16" stop-color="#71cff5"/><stop offset=".84" stop-color="#da68a8"/></linearGradient><linearGradient id="Ah" x1="481.14" x2="691.67" y1="95.15" y2="69.46" href="#BO"><stop offset=".16" stop-color="#71cff5"/><stop offset=".84" stop-color="#da68a8"/></linearGradient><linearGradient id="Ai" x1="481.86" x2="692.38" y1="101" y2="75.31" href="#BO"><stop offset=".16" stop-color="#71cff5"/><stop offset=".84" stop-color="#da68a8"/></linearGradient><linearGradient id="Aj" x1="482.61" x2="693.13" y1="107.16" y2="81.48" href="#BO"><stop offset=".16" stop-color="#71cff5"/><stop offset=".84" stop-color="#da68a8"/></linearGradient><linearGradient id="Ak" x1="483.34" x2="693.87" y1="113.16" y2="87.47" href="#BO"><stop offset=".16" stop-color="#71cff5"/><stop offset=".84" stop-color="#da68a8"/></linearGradient><linearGradient id="Al" x1="484.03" x2="694.56" y1="118.83" y2="93.14" href="#BO"><stop offset=".16" stop-color="#71cff5"/><stop offset=".84" stop-color="#da68a8"/></linearGradient><linearGradient id="Am" x1="484.75" x2="695.27" y1="124.66" y2="98.97" href="#BO"><stop offset=".16" stop-color="#71cff5"/><stop offset=".84" stop-color="#da68a8"/></linearGradient><linearGradient id="An" x1="485.47" x2="695.99" y1="130.6" y2="104.91" href="#BO"><stop offset=".16" stop-color="#71cff5"/><stop offset=".84" stop-color="#da68a8"/></linearGradient><linearGradient id="Ao" x1="486.18" x2="696.7" y1="136.42" y2="110.73" href="#BO"><stop offset=".16" stop-color="#71cff5"/><stop offset=".84" stop-color="#da68a8"/></linearGradient><linearGradient id="Ap" x1="486.92" x2="697.44" y1="142.47" y2="116.78" href="#BO"><stop offset=".16" stop-color="#71cff5"/><stop offset=".84" stop-color="#da68a8"/></linearGradient><linearGradient id="Aq" x1="487.66" x2="698.18" y1="148.51" y2="122.82" href="#BO"><stop offset=".16" stop-color="#71cff5"/><stop offset=".84" stop-color="#da68a8"/></linearGradient><linearGradient id="Ar" x1="479.57" x2="690.1" y1="82.26" y2="56.58" href="#BO"><stop offset=".16" stop-color="#71cff5"/><stop offset=".84" stop-color="#da68a8"/></linearGradient><linearGradient id="As" x1="478.97" x2="689.5" y1="77.36" y2="51.67" href="#BO"><stop offset=".16" stop-color="#71cff5"/><stop offset=".84" stop-color="#da68a8"/></linearGradient><linearGradient id="At" x1="478.36" x2="688.88" y1="72.33" y2="46.65" href="#BO"><stop offset=".16" stop-color="#71cff5"/><stop offset=".84" stop-color="#da68a8"/></linearGradient><linearGradient id="Au" x1="477.76" x2="688.28" y1="67.39" y2="41.71" href="#BO"><stop offset=".16" stop-color="#71cff5"/><stop offset=".84" stop-color="#da68a8"/></linearGradient><linearGradient id="Av" x1="477.13" x2="687.65" y1="62.21" y2="36.52" href="#BO"><stop offset=".16" stop-color="#71cff5"/><stop offset=".84" stop-color="#da68a8"/></linearGradient><linearGradient id="Aw" x1="476.51" x2="687.03" y1="57.18" y2="31.49" href="#BO"><stop offset=".16" stop-color="#71cff5"/><stop offset=".84" stop-color="#da68a8"/></linearGradient><linearGradient id="Ax" x1="475.93" x2="686.45" y1="52.4" y2="26.71" href="#BO"><stop offset=".16" stop-color="#71cff5"/><stop offset=".84" stop-color="#da68a8"/></linearGradient><linearGradient id="Ay" x1="475.33" x2="685.85" y1="47.47" y2="21.78" href="#BO"><stop offset=".16" stop-color="#71cff5"/><stop offset=".84" stop-color="#da68a8"/></linearGradient><linearGradient id="Az" x1="474.72" x2="685.25" y1="42.53" y2="16.84" href="#BO"><stop offset=".16" stop-color="#71cff5"/><stop offset=".84" stop-color="#da68a8"/></linearGradient><linearGradient id="BA" x1="474.12" x2="684.65" y1="37.59" y2="11.9" href="#BO"><stop offset=".16" stop-color="#71cff5"/><stop offset=".84" stop-color="#da68a8"/></linearGradient><linearGradient id="BB" x1="473.5" x2="684.02" y1="32.49" y2="6.81" href="#BO"><stop offset=".16" stop-color="#71cff5"/><stop offset=".84" stop-color="#da68a8"/></linearGradient><linearGradient id="BC" x1="472.88" x2="683.4" y1="27.38" y2="1.7" href="#BO"><stop offset=".16" stop-color="#71cff5"/><stop offset=".84" stop-color="#da68a8"/></linearGradient><linearGradient id="BD" x1="480.31" x2="690.84" y1="88.33" y2="62.64" href="#BO"><stop offset=".16" stop-color="#71cff5"/><stop offset=".84" stop-color="#da68a8"/></linearGradient><linearGradient id="BE" x1="481.04" x2="691.56" y1="94.27" y2="68.59" href="#BO"><stop offset=".16" stop-color="#71cff5"/><stop offset=".84" stop-color="#da68a8"/></linearGradient><linearGradient id="BF" x1="481.75" x2="692.27" y1="100.12" y2="74.44" href="#BO"><stop offset=".16" stop-color="#71cff5"/><stop offset=".84" stop-color="#da68a8"/></linearGradient><linearGradient id="BG" x1="482.5" x2="693.03" y1="106.29" y2="80.61" href="#BO"><stop offset=".16" stop-color="#71cff5"/><stop offset=".84" stop-color="#da68a8"/></linearGradient><linearGradient id="BH" x1="483.24" x2="693.76" y1="112.29" y2="86.6" href="#BO"><stop offset=".16" stop-color="#71cff5"/><stop offset=".84" stop-color="#da68a8"/></linearGradient><linearGradient id="BI" x1="483.93" x2="694.45" y1="117.94" y2="92.26" href="#BO"><stop offset=".16" stop-color="#71cff5"/><stop offset=".84" stop-color="#da68a8"/></linearGradient><linearGradient id="BJ" x1="484.64" x2="695.16" y1="123.79" y2="98.1" href="#BO"><stop offset=".16" stop-color="#71cff5"/><stop offset=".84" stop-color="#da68a8"/></linearGradient><linearGradient id="BK" x1="485.36" x2="695.89" y1="129.72" y2="104.04" href="#BO"><stop offset=".16" stop-color="#71cff5"/><stop offset=".84" stop-color="#da68a8"/></linearGradient><linearGradient id="BL" x1="486.07" x2="696.6" y1="135.54" y2="109.86" href="#BO"><stop offset=".16" stop-color="#71cff5"/><stop offset=".84" stop-color="#da68a8"/></linearGradient><linearGradient id="BM" x1="486.81" x2="697.33" y1="141.58" y2="115.9" href="#BO"><stop offset=".16" stop-color="#71cff5"/><stop offset=".84" stop-color="#da68a8"/></linearGradient><linearGradient id="BN" x1="487.55" x2="698.07" y1="147.62" y2="121.94" href="#BO"><stop offset=".16" stop-color="#71cff5"/><stop offset=".84" stop-color="#da68a8"/></linearGradient><linearGradient id="BO" gradientUnits="userSpaceOnUse"/></defs><path fill="#000" d="M198.51 3.56h-52.75c-14.12 0-25.61 11.49-25.61 25.61v68.17c0 14.12 11.49 25.61 25.61 25.61h52.75c14.12 0 25.61-11.49 25.61-25.61V29.17c0-14.12-11.49-25.61-25.61-25.61m10.02 25.61v68.17c0 5.53-4.5 10.03-10.03 10.03h-52.75c-5.53 0-10.03-4.5-10.03-10.03V29.17c0-5.53 4.5-10.03 10.03-10.03h52.75c5.53 0 10.03 4.5 10.03 10.03M337.27 3.56h-72.21c-14.12 0-25.61 11.49-25.61 25.61v63.57c-.18 2.56-.52 13.86 6.81 22 4.82 5.35 11.57 8.07 20.06 8.07 4.3 0 7.79-3.49 7.79-7.79a7.8 7.8 0 0 0-7.79-7.79c-3.88 0-6.72-.97-8.46-2.89-3.4-3.75-2.87-10.46-2.87-10.46.03-.27.04-.54.04-.82V29.17c0-5.53 4.5-10.03 10.03-10.03h72.21a7.8 7.8 0 0 0 7.79-7.79 7.81 7.81 0 0 0-7.79-7.79M319.45 55.4h-33.52a7.8 7.8 0 0 0-7.79 7.79 7.81 7.81 0 0 0 7.79 7.79h33.52c5.53 0 10.03 4.5 10.03 10.03v34.02a7.8 7.8 0 0 0 7.79 7.79 7.8 7.8 0 0 0 7.79-7.79V81.01c0-14.12-11.49-25.61-25.61-25.61m92.86 34.44c-6.22 0-11.27 5.06-11.27 11.27s5.06 11.27 11.27 11.27 11.27-5.06 11.27-11.27-5.06-11.27-11.27-11.27m27.23-86.28h-54.46c-14.12 0-25.61 11.49-25.61 25.61v85.85c0 4.3 3.49 7.79 7.79 7.79s7.79-3.49 7.79-7.79V29.17c0-5.53 4.5-10.03 10.03-10.03h54.46c5.53 0 10.03 4.5 10.03 10.03v85.85c0 4.3 3.49 7.79 7.79 7.79s7.79-3.49 7.79-7.79V29.17c0-14.12-11.49-25.61-25.61-25.61m-357.7 0H29.09c-14.12 0-25.61 11.49-25.61 25.61 0 .37.03.71.07.99v85a7.8 7.8 0 0 0 7.79 7.79 7.81 7.81 0 0 0 7.79-7.79V29.17c0-5.53 4.5-10.03 10.03-10.03h52.68c5.53 0 10.03 4.5 10.03 10.03v33.95c0 5.53-4.5 10.03-10.03 10.03H59.59c-.31 0-.62.02-.94.06-2.58-.26-5.14.77-6.8 2.8-2.72 3.32-2.23 8.24 1.09 10.96l41.78 34.23a7.8 7.8 0 0 0 4.93 1.76c2.35 0 4.54-1.04 6.03-2.85 2.72-3.32 2.23-8.24-1.09-10.96L79.68 88.74h2.15c14.12 0 25.61-11.49 25.61-25.61V29.18c0-14.12-11.49-25.61-25.61-25.61z"/><path fill="url(#A)" d="M515.4 40.06V99.6h37.82c13.26 0 20.15-17.97 20.15-35.63s-6.5-34.07-20.15-34.07h-61.87l-.2-25.78h64.93c28.08 0 42.63 31.1 42.63 61.73s-13.91 59.54-42.63 59.54h-64.73V40.51l24.05-.44z"/><path fill="url(#B)" d="M645.63 33.11c-.14-.35-18.32 26.69-18.32 26.69L592 3.49l35.48.18z"/><path fill="url(#C)" d="M645.09 94.55c-.14.35-17.95-27.2-17.95-27.2l-36.08 55.3 33.82-.56z"/><circle cx="663.22" cy="63.49" r="2.3" fill="url(#D)"/><circle cx="666.96" cy="58.05" r="1.97" fill="url(#E)"/><circle cx="670.76" cy="52.49" r="1.93" fill="url(#F)"/><circle cx="674.56" cy="47.01" r="1.76" fill="url(#G)"/><circle cx="678.64" cy="41.25" r="1.84" fill="url(#H)"/><circle cx="682.65" cy="35.65" r="1.63" fill="url(#I)"/><circle cx="686.35" cy="30.35" r="1.8" fill="url(#J)"/><circle cx="690.11" cy="24.89" r="1.62" fill="url(#K)"/><circle cx="694.21" cy="19.37" r="1.57" fill="url(#L)"/><circle cx="697.94" cy="13.91" r="1.47" fill="url(#M)"/><circle cx="701.84" cy="8.26" r="1.48" fill="url(#N)"/><circle cx="705.78" cy="2.6" r="1.45" fill="url(#O)"/><circle cx="666.96" cy="69.18" r="1.97" fill="url(#P)"/><circle cx="670.76" cy="74.75" r="1.93" fill="url(#Q)"/><circle cx="674.56" cy="80.23" r="1.76" fill="url(#R)"/><circle cx="678.64" cy="85.99" r="1.84" fill="url(#S)"/><circle cx="682.65" cy="91.58" r="1.63" fill="url(#T)"/><circle cx="686.35" cy="96.88" r="1.8" fill="url(#U)"/><circle cx="690.11" cy="102.34" r="1.62" fill="url(#V)"/><circle cx="694.21" cy="107.87" r="1.57" fill="url(#W)"/><circle cx="697.94" cy="113.32" r="1.47" fill="url(#X)"/><circle cx="701.84" cy="118.98" r="1.48" fill="url(#Y)"/><circle cx="705.78" cy="124.63" r="1.45" fill="url(#Z)"/><circle cx="655.95" cy="63.49" r="2.3" fill="url(#a)"/><circle cx="659.69" cy="58.05" r="1.97" fill="url(#b)"/><circle cx="663.5" cy="52.49" r="1.93" fill="url(#c)"/><circle cx="667.29" cy="47.01" r="1.76" fill="url(#d)"/><circle cx="671.37" cy="41.25" r="1.84" fill="url(#e)"/><circle cx="675.38" cy="35.65" r="1.63" fill="url(#f)"/><circle cx="679.08" cy="30.35" r="1.8" fill="url(#g)"/><circle cx="682.85" cy="24.89" r="1.62" fill="url(#h)"/><circle cx="686.94" cy="19.37" r="1.57" fill="url(#i)"/><circle cx="690.67" cy="13.91" r="1.47" fill="url(#j)"/><circle cx="694.57" cy="8.26" r="1.48" fill="url(#k)"/><circle cx="698.52" cy="2.6" r="1.45" fill="url(#l)"/><circle cx="659.69" cy="69.18" r="1.97" fill="url(#m)"/><circle cx="663.5" cy="74.75" r="1.93" fill="url(#n)"/><circle cx="667.29" cy="80.23" r="1.76" fill="url(#o)"/><circle cx="671.37" cy="85.99" r="1.84" fill="url(#p)"/><circle cx="675.38" cy="91.58" r="1.63" fill="url(#q)"/><circle cx="679.08" cy="96.88" r="1.8" fill="url(#r)"/><circle cx="682.85" cy="102.34" r="1.62" fill="url(#s)"/><circle cx="686.94" cy="107.87" r="1.57" fill="url(#t)"/><circle cx="690.67" cy="113.32" r="1.47" fill="url(#u)"/><circle cx="694.57" cy="118.98" r="1.48" fill="url(#v)"/><circle cx="698.52" cy="124.63" r="1.45" fill="url(#w)"/><circle cx="648.02" cy="63.49" r="2.3" fill="url(#x)"/><circle cx="651.76" cy="58.05" r="1.97" fill="url(#y)"/><circle cx="655.57" cy="52.49" r="1.93" fill="url(#z)"/><circle cx="659.36" cy="47.01" r="1.76" fill="url(#AA)"/><circle cx="663.44" cy="41.25" r="1.84" fill="url(#AB)"/><circle cx="667.45" cy="35.65" r="1.63" fill="url(#AC)"/><circle cx="671.15" cy="30.35" r="1.8" fill="url(#AD)"/><circle cx="674.92" cy="24.89" r="1.62" fill="url(#AE)"/><circle cx="679.02" cy="19.37" r="1.57" fill="url(#AF)"/><circle cx="682.74" cy="13.91" r="1.47" fill="url(#AG)"/><circle cx="686.64" cy="8.26" r="1.48" fill="url(#AH)"/><circle cx="690.59" cy="2.6" r="1.45" fill="url(#AI)"/><circle cx="651.76" cy="69.18" r="1.97" fill="url(#AJ)"/><circle cx="655.57" cy="74.75" r="1.93" fill="url(#AK)"/><circle cx="659.36" cy="80.23" r="1.76" fill="url(#AL)"/><circle cx="663.44" cy="85.99" r="1.84" fill="url(#AM)"/><circle cx="667.45" cy="91.58" r="1.63" fill="url(#AN)"/><circle cx="671.15" cy="96.88" r="1.8" fill="url(#AO)"/><circle cx="674.92" cy="102.34" r="1.62" fill="url(#AP)"/><circle cx="679.02" cy="107.87" r="1.57" fill="url(#AQ)"/><circle cx="682.74" cy="113.32" r="1.47" fill="url(#AR)"/><circle cx="686.64" cy="118.98" r="1.48" fill="url(#AS)"/><circle cx="690.59" cy="124.63" r="1.45" fill="url(#AT)"/><circle cx="640.76" cy="63.49" r="2.3" fill="url(#AU)"/><circle cx="644.5" cy="58.05" r="1.97" fill="url(#AV)"/><circle cx="648.3" cy="52.49" r="1.93" fill="url(#AW)"/><circle cx="652.1" cy="47.01" r="1.76" fill="url(#AX)"/><circle cx="656.18" cy="41.25" r="1.84" fill="url(#AY)"/><circle cx="660.19" cy="35.65" r="1.63" fill="url(#AZ)"/><circle cx="663.89" cy="30.35" r="1.8" fill="url(#Aa)"/><circle cx="667.65" cy="24.89" r="1.62" fill="url(#Ab)"/><circle cx="671.75" cy="19.37" r="1.57" fill="url(#Ac)"/><circle cx="675.48" cy="13.91" r="1.47" fill="url(#Ad)"/><circle cx="679.38" cy="8.26" r="1.48" fill="url(#Ae)"/><circle cx="683.32" cy="2.6" r="1.45" fill="url(#Af)"/><circle cx="644.5" cy="69.18" r="1.97" fill="url(#Ag)"/><circle cx="648.3" cy="74.75" r="1.93" fill="url(#Ah)"/><circle cx="652.1" cy="80.23" r="1.76" fill="url(#Ai)"/><circle cx="656.18" cy="85.99" r="1.84" fill="url(#Aj)"/><circle cx="660.19" cy="91.58" r="1.63" fill="url(#Ak)"/><circle cx="663.89" cy="96.88" r="1.8" fill="url(#Al)"/><circle cx="667.65" cy="102.34" r="1.62" fill="url(#Am)"/><circle cx="671.75" cy="107.87" r="1.57" fill="url(#An)"/><circle cx="675.48" cy="113.32" r="1.47" fill="url(#Ao)"/><circle cx="679.38" cy="118.98" r="1.48" fill="url(#Ap)"/><circle cx="683.32" cy="124.63" r="1.45" fill="url(#Aq)"/><circle cx="633.49" cy="63.49" r="2.3" fill="url(#Ar)"/><circle cx="637.23" cy="58.05" r="1.97" fill="url(#As)"/><circle cx="641.04" cy="52.49" r="1.93" fill="url(#At)"/><circle cx="644.83" cy="47.01" r="1.76" fill="url(#Au)"/><circle cx="648.91" cy="41.25" r="1.84" fill="url(#Av)"/><circle cx="652.92" cy="35.65" r="1.63" fill="url(#Aw)"/><circle cx="656.62" cy="30.35" r="1.8" fill="url(#Ax)"/><circle cx="660.39" cy="24.89" r="1.62" fill="url(#Ay)"/><circle cx="664.49" cy="19.37" r="1.57" fill="url(#Az)"/><circle cx="668.21" cy="13.91" r="1.47" fill="url(#BA)"/><circle cx="672.11" cy="8.26" r="1.48" fill="url(#BB)"/><circle cx="676.06" cy="2.6" r="1.45" fill="url(#BC)"/><circle cx="637.23" cy="69.18" r="1.97" fill="url(#BD)"/><circle cx="641.04" cy="74.75" r="1.93" fill="url(#BE)"/><circle cx="644.83" cy="80.23" r="1.76" fill="url(#BF)"/><circle cx="648.91" cy="85.99" r="1.84" fill="url(#BG)"/><circle cx="652.92" cy="91.58" r="1.63" fill="url(#BH)"/><circle cx="656.62" cy="96.88" r="1.8" fill="url(#BI)"/><circle cx="660.39" cy="102.34" r="1.62" fill="url(#BJ)"/><circle cx="664.49" cy="107.87" r="1.57" fill="url(#BK)"/><circle cx="668.21" cy="113.32" r="1.47" fill="url(#BL)"/><circle cx="672.11" cy="118.98" r="1.48" fill="url(#BM)"/><circle cx="676.06" cy="124.63" r="1.45" fill="url(#BN)"/></svg>