<svg xmlns="http://www.w3.org/2000/svg" overflow="visible" viewBox="0 0 37.086 34.474"><path fill="#fff" d="M1.581 1.327A4.8 4.8 0 0 1 5.042.002l2.104.06a4.813 4.813 0 0 1 4.686 4.484q.748-.103 1.502-.083l10.517.297a9 9 0 0 1 1.495.17 4.84 4.84 0 0 1 1.475-2.888A4.8 4.8 0 0 1 30.283.716l2.104.06q.213.006.425.03c2.509.292 4.346 2.426 4.272 4.962l-.06 2.112a4.84 4.84 0 0 1-1.517 3.393c-.48.455-1.037.8-1.638 1.024a6.9 6.9 0 0 1 1.332 3.883 6.05 6.05 0 0 1-.566 2.766c.612.697.968 1.621.94 2.627a12.22 12.22 0 0 1-2.566 7.155c.167.301.253.643.243.997a1.93 1.93 0 0 1-.607 1.358 1.92 1.92 0 0 1-1.845.459 1.932 1.932 0 0 1-2.913 1.578 1.93 1.93 0 0 1-2.067 1.34 1.94 1.94 0 0 1-1.486-1.021 13 13 0 0 1-1.296.034h-.018l-10.517-.297a9 9 0 0 1-6.57-3.118 9.07 9.07 0 0 1-2.212-6.217l.306-10.556q.024-.765.169-1.502A4.816 4.816 0 0 1 .003 6.832l.061-2.111A4.84 4.84 0 0 1 1.58 1.327Z"/><path fill="#3a3a60" d="m26.835 10.761 5.258.149a3.164 3.164 0 0 0 3.247-3.078l.061-2.111a3.16 3.16 0 0 0-3.063-3.256l-2.104-.06a3.165 3.165 0 0 0-3.246 3.078Z"/><defs><linearGradient id="svg-560525643_6484_idsgP08ngeen_4g400887793" x1="0" x2="1" y1=".764" y2=".236"><stop offset="0" stop-color="#ecebe7"/><stop offset="1" stop-color="#f2f0f2"/></linearGradient></defs><path fill="url(#svg-560525643_6484_idsgP08ngeen_4g400887793)" d="m23.248 31.786-.18-.002-10.516-.297c-4.066-.116-7.266-3.517-7.149-7.598l.305-10.556c.12-4.08 3.51-7.296 7.576-7.181l10.519.297c4.066.116 7.266 3.517 7.147 7.597l-.152 5.278 1.05.03a2.107 2.107 0 0 1 2.042 2.17c-.166 5.773-4.913 10.329-10.642 10.262"/><path fill="#3a3a60" d="m8.494 8.025.439.816a1.58 1.58 0 0 0-1.965 1.066l1.076.323-3.296-.094A3.16 3.16 0 0 1 1.685 6.88l.062-2.112A3.165 3.165 0 0 1 4.993 1.69l2.104.06a3.16 3.16 0 0 1 3.063 3.257l-.089 3.064a1.57 1.57 0 0 0-1.577-.046m5.042 7.642c-.232 2.62 1.826 4.806 4.595 4.884s4.95-1.988 4.87-4.616-2.137-4.815-4.595-4.884c-2.459-.07-4.64 1.997-4.87 4.616m18.755 3.748a2 2 0 0 0-.443-.06l-6.797-.192a4.34 4.34 0 0 1-.999-3.198c.232-2.62 2.412-4.686 4.871-4.616 2.458.068 4.515 2.256 4.596 4.883a4.35 4.35 0 0 1-1.228 3.183"/><path fill="#f1e9bc" d="M25.113 15.833a3.687 3.687 0 0 0 3.405 3.952 3.69 3.69 0 0 0 3.94-3.421z"/><path fill="#3a3a60" d="M32.458 16.364a3.685 3.685 0 0 0-3.405-3.952 3.69 3.69 0 0 0-3.94 3.421l7.345.53Z"/><path fill="#3a3a60" d="M28.485 17.677a1.686 1.686 0 0 0 1.763-2.346 1.684 1.684 0 1 0-1.763 2.346m1.802 1.105-3.156-.089a1.055 1.055 0 0 0-.061 2.111l3.155.09a1.054 1.054 0 0 0 1.083-1.026 1.05 1.05 0 0 0-1.021-1.086"/><path fill="#3a3a60" stroke="#3a3a60" stroke-miterlimit="10" stroke-width=".2" d="M28.673 19.968a.353.353 0 0 1 .342.363l-.122 4.222v.001a.353.353 0 0 1-.362.344.354.354 0 0 1-.342-.365l.122-4.222a.354.354 0 0 1 .362-.343Z"/><path fill="#3a3a60" stroke="#3a3a60" stroke-miterlimit="10" stroke-width=".2" d="M30.24 24.66a.354.354 0 0 1-.071.703 20.5 20.5 0 0 1-6.211-1.636.354.354 0 0 1-.18-.466l.035-.062a.35.35 0 0 1 .43-.119l.359.154a19.7 19.7 0 0 0 5.638 1.427Z"/><path fill="#3a3a60" stroke="#3a3a60" stroke-miterlimit="10" stroke-width=".5" d="M25.443 29.984a.5.5 0 0 1 .604.374l.486 2.055a.504.504 0 0 1-.503.618h-.001a.5.5 0 0 1-.474-.386l-.485-2.054a.505.505 0 0 1 .276-.572Zm2.186-.837a.504.504 0 0 1 .682.204l.999 1.858a.504.504 0 0 1-.12.625l-.083.057a.5.5 0 0 1-.682-.203v-.002l-.999-1.857a.505.505 0 0 1 .203-.681Zm1.899-1.377a.504.504 0 0 1 .71.02l1.445 1.535a.502.502 0 1 1-.732.691l-1.444-1.535a.504.504 0 0 1 .02-.712Z"/><path fill="transparent" stroke="#000" stroke-linecap="round" stroke-linejoin="round" d="M17.995 14.328c1.413.059 3.254.524 4.795 2.522l-6.806.09"/></svg>