<svg xmlns="http://www.w3.org/2000/svg" xml:space="preserve" viewBox="0 0 512 512"><ellipse cx="255.5" cy="260.4" rx="160.5" ry="157.6" style="fill:#fff"/><path d="M442.2 0H69.8C31.3 0 0 31.3 0 69.8v372.4C0 480.7 31.3 512 69.8 512h372.4c38.6 0 69.8-31.3 69.8-69.8V69.8C512 31.3 480.7 0 442.2 0m-136 408.9c-8.2 1.6-11-3.4-11-7.5 0-5.1.2-22 .2-43.1 0-14.7-5.2-24.4-10.8-29.1 35.6-3.9 73-17.2 73-77.6.2-15.7-5.6-30.8-16.4-42.2 1.6-4 7-20-1.6-41.6 0 0-13.4-4.2-43.6 16.1-26.2-7.1-53.8-7.1-80 0-30.6-20.4-44-16.1-44-16.1-8.7 21.7-3.2 37.7-1.5 41.6a60.16 60.16 0 0 0-16.5 42.2c0 60.2 37.4 73.7 72.7 77.7-5.8 5.6-9.4 13-10.1 21-9.2 4-32.3 11-46.5-13.1 0 0-8.4-15.1-24.5-16.2 0 0-15.6-.2-1.1 9.5 0 0 10.5 4.9 17.8 23 0 0 9.4 30.6 53.9 21.1 0 13.1.2 23 .2 26.7 0 3.8-2.9 9-10.9 7.5C141.8 388.3 96 329.4 96 259.9c0-86.8 71.6-157.1 160-157.1S416 173.2 416 260c0 69.3-45.8 128.2-109.8 148.9" style="fill:#25335e"/></svg>