<svg version="1.1" id="Layer_1" xmlns="http://www.w3.org/2000/svg" x="0" y="0" viewBox="0 0 512 512" style="enable-background:new 0 0 512 512" xml:space="preserve"><style>.st0{fill:#ff1787}.st1{fill:#edf5ff}</style><path class="st0" d="M436 0H76C34.6 0 0 34.6 0 76v360c0 41.4 34.6 76 76 76h360c41.4 0 76-34.6 76-76V76c0-41.4-34.6-76-76-76z"/><path class="st0" d="M512 76v360c0 41.4-34.6 76-76 76H256V0h180c41.4 0 76 34.6 76 76z"/><path class="st1" d="M376 61H136c-41.4 0-75 33.6-75 75v240c0 41.4 33.6 75 75 75h240c41.4 0 75-33.6 75-75V136c0-41.4-33.6-75-75-75z"/><path class="st1" d="M451 136v240c0 41.4-33.6 75-75 75H256V61h120c41.4 0 75 33.6 75 75z"/><path class="st0" d="M421 136v240c0 24.9-20.1 45-45 45H136c-24.9 0-45-20.1-45-45V136c0-24.9 20.1-45 45-45h240c24.9 0 45 20.1 45 45z"/><path class="st0" d="M421 136v240c0 24.9-20.1 45-45 45H256V91h120c24.9 0 45 20.1 45 45z"/><path class="st1" d="M256 151c-57.9 0-105 47.1-105 105s47.1 105 105 105 105-47.1 105-105-47.1-105-105-105z"/><path class="st1" d="M361 256c0 57.9-47.1 105-105 105V151c57.9 0 105 47.1 105 105z"/><path class="st0" d="M331 256c0 41.4-33.6 75-75 75s-75-33.6-75-75 33.6-75 75-75 75 33.6 75 75z"/><path class="st1" d="M361 181c-16.5 0-30-13.5-30-30s13.5-30 30-30 30 13.5 30 30-13.5 30-30 30z"/><path class="st0" d="M331 256c0 41.4-33.6 75-75 75V181c41.4 0 75 33.6 75 75z"/></svg>