<svg viewBox="0 0 64 64" xmlns="http://www.w3.org/2000/svg"><path d="m36.316 4.86 6.223 12.608a3.364 3.364 0 0 0 2.533 1.84l13.914 2.023c3.948.573 5.524 5.425 2.668 8.209l-10.069 9.814a3.364 3.364 0 0 0-.967 2.978l2.376 13.859c.675 3.931-3.452 6.93-6.983 5.073l-12.445-6.543a3.364 3.364 0 0 0-3.131 0l-12.446 6.543c-3.53 1.857-7.658-1.142-6.983-5.073l2.377-13.859a3.364 3.364 0 0 0-.968-2.978L2.347 29.54c-2.857-2.784-1.28-7.636 2.667-8.21l13.914-2.021a3.364 3.364 0 0 0 2.533-1.84l6.223-12.61c1.766-3.576 6.867-3.576 8.632 0z" fill="#f0f0fc"/><path d="M51.588 39.36a3.359 3.359 0 0 0-.978 2.969l2.382 13.867c.676 3.93-3.449 6.916-6.987 5.067L33.56 54.72c-.16-.088-.32-.16-.497-.195 8.551-7.983 15.13-22.721 10.578-35.788.409.302.907.498 1.422.569l13.92 2.026c3.947.57 5.53 5.423 2.667 8.214z" opacity=".1"/><path d="M48.256 62.713a5.701 5.701 0 0 1-2.658-.662L33.15 55.507a2.478 2.478 0 0 0-2.303 0l-12.445 6.544a5.672 5.672 0 0 1-6.005-.434 5.665 5.665 0 0 1-2.268-5.575l2.376-13.861a2.471 2.471 0 0 0-.711-2.19l-10.07-9.814A5.667 5.667 0 0 1 .285 24.33a5.667 5.667 0 0 1 4.602-3.88l13.915-2.021a2.48 2.48 0 0 0 1.864-1.355l6.222-12.609A5.665 5.665 0 0 1 32 1.287a5.666 5.666 0 0 1 5.113 3.18l6.223 12.608A2.48 2.48 0 0 0 45.2 18.43l13.914 2.021c2.163.315 3.927 1.802 4.603 3.88s.123 4.32-1.443 5.846l-10.07 9.814a2.47 2.47 0 0 0-.71 2.19l2.377 13.86a5.666 5.666 0 0 1-2.268 5.576 5.687 5.687 0 0 1-3.347 1.096zm-16.257-9.268c.68 0 1.36.163 1.98.49l12.445 6.543c1.355.708 2.898.6 4.134-.3 1.235-.898 1.818-2.332 1.56-3.835l-2.378-13.86a4.256 4.256 0 0 1 1.223-3.764l10.071-9.815c1.092-1.066 1.464-2.57.992-4.023s-1.657-2.451-3.169-2.67l-13.914-2.023a4.253 4.253 0 0 1-3.201-2.326l-6.223-12.61C34.842 3.884 33.528 3.066 32 3.066s-2.843.818-3.519 2.188l-6.222 12.609a4.254 4.254 0 0 1-3.202 2.326L5.142 22.21a3.851 3.851 0 0 0-3.168 2.67c-.472 1.454-.1 2.957.993 4.024l10.069 9.813a4.25 4.25 0 0 1 1.222 3.766l-2.377 13.86c-.257 1.503.327 2.939 1.562 3.836 1.234.895 2.78 1.006 4.133.3l12.444-6.545c.62-.326 1.3-.49 1.98-.49z" fill="#101016"/></svg>