<?xml version="1.0" encoding="utf-8"?>
<!-- Generator: Adobe Illustrator 27.9.0, SVG Export Plug-In . SVG Version: 6.00 Build 0)  -->
<svg version="1.1" id="Illustration" xmlns="http://www.w3.org/2000/svg" xmlns:xlink="http://www.w3.org/1999/xlink" x="0px"
	 y="0px" viewBox="0 0 4600 4600" style="enable-background:new 0 0 4600 4600;" xml:space="preserve">
<style type="text/css">
	.st0{fill:#FFC200;}
	.st1{fill:#FFD400;}
</style>
<g id="Star">
	<path class="st0" d="M4231.3,1731.3l-1242.2-146.5l511.9,60.4l-19.1,69.9c-63.4,231.9-163.9,451-298.7,651.1
		c-132.7,197-295.3,370.7-483.3,516.2c-189.9,147.1-400.8,261.5-626.7,340.1c-233.7,81.3-478.8,122.6-728.5,122.6
		c-48.1,0-97-1.6-145.1-4.7l-71.1-4.6l95.3-479.1L977.5,4094.4c-23.8,119.5,103.2,212.1,209.7,152.8L2300,3628.1l1112.8,619.1
		c106.5,59.2,233.5-33.3,209.7-152.8l-246.3-1237.6l936.2-879.3C4401,1894.3,4351.9,1745.6,4231.3,1731.3z"/>
	<path class="st1" d="M1199.5,3340.5c48.2,3.1,97,4.7,145.1,4.7c249.7,0,494.8-41.2,728.5-122.6c225.9-78.6,436.8-193.1,626.7-340.1
		c188-145.5,350.6-319.2,483.3-516.2c134.8-200.1,235.3-419.2,298.7-651.1l19.1-69.9l-511.9-60.4L2428.9,415.6
		c-51.9-108.3-206-108.3-257.9,0l-560.1,1169.3L368.7,1731.3c-120.7,14.2-169.7,163-81.1,246.2l936.2,879.3l-95.3,479.1
		L1199.5,3340.5z"/>
</g>
</svg>
