<?xml version="1.0" encoding="utf-8"?>
<!-- Generator: Adobe Illustrator 27.9.0, SVG Export Plug-In . SVG Version: 6.00 Build 0)  -->
<svg version="1.1" id="Layer_1" xmlns="http://www.w3.org/2000/svg" xmlns:xlink="http://www.w3.org/1999/xlink" x="0px" y="0px"
	 viewBox="0 0 500 500" style="enable-background:new 0 0 500 500;" xml:space="preserve">
<style type="text/css">
	.st0{fill:#E6E6E6;}
	.st1{fill:#FAFAFA;}
	.st2{fill:#F0F0F0;}
	.st3{fill:#F5F5F5;}
	.st4{fill:#FFFFFF;}
	.st5{display:none;}
	.st6{display:inline;}
	.st7{fill:#407BFF;}
	.st8{opacity:0.9;fill:#FFFFFF;enable-background:new    ;}
	.st9{fill:#263238;}
	.st10{fill:#FF8B7B;}
	.st11{opacity:0.2;enable-background:new    ;}
	.st12{opacity:0.1;fill:#FFFFFF;enable-background:new    ;}
	.st13{fill:#FF5652;}
	.st14{fill:#FFC3BD;}
	.st15{fill:#ED847E;}
	.st16{opacity:0.2;fill:#FFFFFF;enable-background:new    ;}
	.st17{fill:#E0E0E0;}
	.st18{fill:#EBEBEB;}
</style>
<g id="Background_Complete">
	<g>
		<g>
			<circle class="st0" cx="83.3" cy="144" r="42.1"/>
			<g>
				<path class="st1" d="M108.6,141.2h-0.3c1.9,0,3.5-1.4,3.7-3.3l0,0c0.3-2.2-1.5-4.2-3.7-4.2h-1.9l-12.6-1.2
					c-1.5-0.1-2.5-1.5-2.3-2.9c0.2-1.6,0.4-3.5,0.4-5.3c0.1-4.4-2.8-9.9-6.9-7.9c-1.7,0.8-0.7,6.3-1.5,8.5
					c-0.8,2.2-8.4,8.6-10.5,13.1l0,0c-1.3,0.5-2.1,1.8-2.1,3.2v16.3c0,0.9,0.4,1.8,1,2.5l1.8,1.8c1.2,1.2,2.9,1.9,4.6,1.9h16.6h7
					h2.3c1.9,0,3.5-1.4,3.7-3.3l0,0c0.3-2.2-1.5-4.2-3.7-4.2h2.8c1.9,0,3.5-1.4,3.7-3.3l0,0c0.3-2.2-1.5-4.2-3.7-4.2h1.7
					c1.9,0,3.5-1.4,3.7-3.3l0,0C112.6,143.1,110.9,141.2,108.6,141.2z"/>
				<path class="st2" d="M66.2,163.9h-9.8c-1.2,0-2.2-1-2.2-2.2v-23.6c0-1.2,1-2.2,2.2-2.2h9.8c1.2,0,2.2,1,2.2,2.2v23.6
					C68.5,162.9,67.5,163.9,66.2,163.9z"/>
			</g>
		</g>
		<path class="st2" d="M377.9,129.5c-0.1-9.5-7.8-17.2-17.3-17.2c-2.3,0-4.5,0.5-6.5,1.3c-3.4-7-10.6-11.8-18.8-11.8
			c-10,0-18.4,7-20.5,16.4c-9.4,0.6-16.9,8.4-16.9,18c0,10,8.1,18,18,18h57.4c7.1,0,12.8-5.7,12.8-12.8
			C386.1,136,382.7,131.3,377.9,129.5z"/>
		<path class="st3" d="M412.7,384.6c0-5.8-4.8-10.5-10.6-10.5c-1.4,0-2.7,0.3-4,0.8c-2.1-4.3-6.5-7.2-11.5-7.2
			c-6.1,0-11.2,4.3-12.5,10c-5.8,0.4-10.3,5.2-10.3,11c0,6.1,4.9,11,11,11H410c4.3,0,7.8-3.5,7.8-7.8
			C417.8,388.6,415.7,385.7,412.7,384.6z"/>
		<path class="st3" d="M169.2,77.8c0-5.8,4.8-10.5,10.6-10.5c1.4,0,2.8,0.3,4,0.8c2.1-4.3,6.5-7.2,11.5-7.2
			c6.1,0,11.3,4.3,12.5,10.1c5.8,0.4,10.3,5.2,10.3,11c0,6.1-5,11.1-11.1,11.1H172c-4.3,0-7.8-3.5-7.8-7.8
			C164.2,81.8,166.3,79,169.2,77.8z"/>
		<g>
			<g>
				<path class="st2" d="M12.9,200.5h42.3c4.9,0,8.8,4,8.8,8.8v25.4v8.2l-8.2-8.2h-43c-4.9,0-8.8-4-8.8-8.8v-16.5
					C4.1,204.5,8.1,200.5,12.9,200.5z"/>
				<path class="st4" d="M14.4,212.6h40c0.8,0,1.5-0.7,1.5-1.5l0,0c0-0.8-0.7-1.5-1.5-1.5h-40c-0.8,0-1.5,0.7-1.5,1.5l0,0
					C12.9,211.9,13.6,212.6,14.4,212.6z"/>
				<path class="st4" d="M14.4,219.4h40c0.8,0,1.5-0.7,1.5-1.5l0,0c0-0.8-0.7-1.5-1.5-1.5h-40c-0.8,0-1.5,0.7-1.5,1.5l0,0
					C12.9,218.7,13.6,219.4,14.4,219.4z"/>
				<path class="st4" d="M28,226.2h26.4c0.8,0,1.5-0.7,1.5-1.5l0,0c0-0.8-0.7-1.5-1.5-1.5H28c-0.8,0-1.5,0.7-1.5,1.5l0,0
					C26.5,225.5,27.2,226.2,28,226.2z"/>
			</g>
		</g>
		<g>
			<path class="st3" d="M481.8,101.8h-48.4c-5.6,0-10.1,4.5-10.1,10.1v21.2v9.4l9.4-9.4h49.1c5.6,0,10.1-4.5,10.1-10.1v-11.1
				C491.9,106.3,487.4,101.8,481.8,101.8z"/>
			<path class="st0" d="M480.1,115.6h-45.7c-0.9,0-1.7-0.8-1.7-1.7l0,0c0-0.9,0.8-1.7,1.7-1.7h45.7c0.9,0,1.7,0.8,1.7,1.7l0,0
				C481.8,114.9,481,115.6,480.1,115.6z"/>
			<path class="st0" d="M464.6,123.4h-30.1c-0.9,0-1.7-0.8-1.7-1.7l0,0c0-0.9,0.8-1.7,1.7-1.7h30.1c0.9,0,1.7,0.8,1.7,1.7l0,0
				C466.2,122.6,465.5,123.4,464.6,123.4z"/>
		</g>
	</g>
</g>
<g id="Background_Simple" class="st5">
	<g class="st6">
		<path class="st7" d="M241.7,130.3c42.3-24.1,76.8-59.6,127.9-48.9c40.2,8.4,64.5,46.5,59.9,88.1c-5.3,48.5-46.3,75.8-74.3,112.9
			c-24.9,33.1-52.5,82.8-100,77.8c-40.4-4.2-51.8-55.5-96.9-58.6c-46.7-3.2-79.2,12.1-102.6-41.3c-17.5-39.7-6.5-91.2,41.5-109.8
			C144.8,132,192.9,158,241.7,130.3z"/>
		<path class="st8" d="M241.7,130.3c42.3-24.1,76.8-59.6,127.9-48.9c40.2,8.4,64.5,46.5,59.9,88.1c-5.3,48.5-46.3,75.8-74.3,112.9
			c-24.9,33.1-52.5,82.8-100,77.8c-40.4-4.2-51.8-55.5-96.9-58.6c-46.7-3.2-79.2,12.1-102.6-41.3c-17.5-39.7-6.5-91.2,41.5-109.8
			C144.8,132,192.9,158,241.7,130.3z"/>
	</g>
</g>
<g id="Character_1">
	<g>
		<path class="st4" d="M202.5,332.8c0,35.8-21.6,66.5-52.5,79.9c-6.2,2.7-12.8,4.7-19.7,5.9c-4.8,0.8-9.8,1.3-14.8,1.3
			c-1.7,0-3.4,0-5.1-0.2c-5.9-0.3-11.7-1.3-17.3-2.7c-37.2-9.9-64.7-43.8-64.7-84.1c0-48,39-87,87-87S202.5,284.8,202.5,332.8z"/>
		<g>
			<path class="st9" d="M140.6,288L140.6,288c-9.8-3.6,2.3-21.2-15.5-29.3c-18.2-8.3-36.6,2.8-33.2,12.2c-6,1.7-7.6,16.2-0.3,22.9
				c-2.3,3-3.8,6.8-3.8,10.9c0,9.2,6.9,16.8,15.8,17.8c0,0,0,0,0,0c0.1,0,0.1,0,0.2,0h0c0.6,0.1,1.2,0.1,1.9,0.1c1,0,2-0.1,3-0.3h0
				c1-0.2,1.9-0.4,2.8-0.7h0c3.4-1.2,6.3-3.3,8.4-6.1c2.1,2.7,4.9,4.8,8.1,5.9c0,0,0,0,0,0c0.2,0.1,0.4,0.2,0.7,0.2
				c0.8,0.3,1.6,0.5,2.4,0.6c1,0.2,1.9,0.2,3,0.2c1.4,0,2.8-0.2,4.2-0.5c7.9-1.9,13.8-9,13.8-17.4
				C152.1,297.1,147.4,290.6,140.6,288z"/>
			<path class="st10" d="M100.1,339c0-0.8-0.1-1.5-0.2-2.5c-0.3-3.5-3.3-6.1-6.8-5.9c-3.3,0.2-5.8,2.7-6.2,5.8c0,0,0,0,0,0
				c0,0.3,0,0.7,0,1l0,0.3c0,0.4,0,1.1,0,1.7l0,1.9c0,1.2,0,2.5-0.1,3.8c-0.1,2-0.3,4-0.5,6c-0.1,0.5-0.1,1.1-0.2,1.6
				c-0.7,5.1-1.7,10.1-3.1,15c-0.3,1.2-0.8,2.4-1.2,3.7c-0.4,1.2-0.9,2.4-1.3,3.6l-0.5,1.4c-0.1,0.3-0.2,0.5-0.2,0.6
				c-0.2,0-0.4-0.1-0.6-0.2c-0.8-0.4-1.8-1-2.7-1.7c-1.9-1.4-3.9-3.2-5.6-5l-0.2-0.1c-0.1-0.1-0.1-0.1-0.2-0.2h0
				c-0.9-0.8-2.2-1-3.4-0.5c-1.6,0.7-2.4,2.7-1.7,4.3c0.6,1.3,1.1,2.4,1.8,3.5c0.1,0.2,0.2,0.4,0.3,0.5c0.8,1.3,1.6,2.5,2.6,3.8
				c1,1.2,2.1,2.4,3.6,3.6c1.5,1.1,3.3,2.3,6.1,2.7c1.4,0.2,3.1,0,4.6-0.5c1.5-0.5,2.7-1.4,3.7-2.3c1-0.9,1.6-1.8,2.2-2.7
				c0.3-0.4,0.5-0.9,0.7-1.3c0.1-0.2,0.2-0.4,0.3-0.6c0,0,0,0,0,0c0.1-0.2,0.1-0.3,0.2-0.5c1.3-2.7,2.4-5.4,3.4-8.1
				c0.2-0.6,0.4-1.2,0.6-1.8c0.1-0.3,0.2-0.6,0.3-1c1.5-4.5,2.6-9.1,3.3-13.7c0-0.2,0.1-0.3,0.1-0.5c0.1-0.4,0.1-0.8,0.2-1.2v-0.1
				c0-0.2,0.1-0.4,0.1-0.6v0c0.3-2.3,0.5-4.5,0.6-6.8c0-0.4,0-0.8,0.1-1.3c0-1.1,0.1-2.1,0.1-3.2C100.2,340.5,100.1,339.7,100.1,339
				z"/>
			<path class="st7" d="M93.1,324.7c9.6-4.4,15.9,14.6,14.2,30.3c-13.6,1.9-25-6.3-25-6.3S81.9,329.8,93.1,324.7z"/>
			<path class="st7" d="M87,334.3c-0.1,9.5,1.3,28.7,7.6,67.8h51.8c-0.8-19.1-0.9-31.6,6.6-66.1c1.4-6.3-2.9-12.4-9.3-13.2
				c-3.1-0.4-6.6-0.8-10.2-0.9c-8.7-0.4-15.9-0.7-23.5,0c-4.8,0.4-9.9,1.2-13.9,1.9C90.9,324.6,87.1,329,87,334.3z"/>
			<path class="st11" d="M142.6,341.6l8.7,2.5c-1.2,5.9-2.1,11.1-2.9,15.8C142,357.8,136,346.4,142.6,341.6z"/>
			<path class="st10" d="M66.9,361.5l-4.6-5.3c-1.2-1.4-3.6-1-4.2,0.7l-2.7,6.9c-0.3,0.8-0.2,1.8,0.4,2.5l4.7,5.9
				c0,0,3.8,4.7,9.1,5.1l2-5.6L66.9,361.5z"/>
			<g>
				<path class="st4" d="M105.6,342l1.2,1.9l2-1.1c10.4-6,17.5-12.6,20.8-16.1c1.3-1.4,1.9-3.2,1.6-5c-7.7-0.4-14.2-0.5-21.2,0.1
					c-2,0.2-4,0.4-6,0.7c-0.1,0.1-0.2,0.3-0.4,0.4C102,325.3,99,331.8,105.6,342z"/>
			</g>
			<path class="st10" d="M127.1,296.3c-1.2,6.7-2.2,18.5,1.3,24.5c0.8,1.4,0.6,3.1-0.6,4.3c-3.3,3.4-10.2,9.8-20.3,15.7
				c-5.7-8.8-3.5-14.3-2-16.4c0.4-0.6,1-1.1,1.8-1.3c7.5-2.4,7.1-8.4,5.6-14.1L127.1,296.3z"/>
			<path class="st11" d="M123.5,302.3l-10.6,6.6c0.4,1.4,0.7,2.8,0.8,4.2c2.5-0.1,8.4-2.6,10-6.7
				C124.4,304.8,123.8,303.1,123.5,302.3z"/>
			<path class="st10" d="M128.2,275.6c3.2,12.3,4.7,17.4,0.7,25.5c-6.1,12.2-21.9,13.4-28.6,2.4c-6.1-10-10.2-28.3,0-36.9
				C110.3,258.1,125,263.3,128.2,275.6z"/>
			<path class="st9" d="M119.4,270.8c2.1,8.6,11,13.4,11,13.4s3.8-6.7,1.2-13.4S119.4,270.8,119.4,270.8z"/>
			<path class="st9" d="M125.6,276.7c-2.8,2.9-2.4,7.4-2.4,7.4s3.5-0.2,5.4-2.8C130.5,278.7,125.6,276.7,125.6,276.7z"/>
			<path class="st9" d="M125.8,274.5c-3.4,2.2-4.1,6.6-4.1,6.6s3.4,0.7,5.9-1.4C130,277.6,125.8,274.5,125.8,274.5z"/>
			<path class="st9" d="M94.9,271c-2.5,8,37.6,5.4,34-1.2c-3.6-6.5-12.9-9.9-18.9-9.3C104,261.1,96.8,265.3,94.9,271z"/>
			<path class="st9" d="M96.4,268.9c-3.1,0.7-5.1,12.5-3.1,11.9C95.3,280.2,107.2,266.6,96.4,268.9z"/>
			<g>
				<path class="st9" d="M132.5,402.1c0,0-0.1,0.8-0.3,2.3c-0.4,2.7-1.1,7.7-1.9,14.2c-4.8,0.8-9.8,1.3-14.8,1.3
					c-1.7,0-3.4,0-5.1-0.2c-5.9-0.3-11.7-1.3-17.3-2.7c0.5-5.7,1-10.1,1.2-12.5c0.2-1.5,0.2-2.3,0.2-2.3H132.5z"/>
				<path class="st12" d="M132.5,402.1c0,0-0.1,0.8-0.3,2.3c-0.4,2.7-1.1,7.7-1.9,14.2c-4.8,0.8-9.8,1.3-14.8,1.3
					c-1.7,0-3.4,0-5.1-0.2c-5.9-0.3-11.7-1.3-17.3-2.7c0.5-5.7,1-10.1,1.2-12.5c0.2-1.5,0.2-2.3,0.2-2.3H132.5z"/>
			</g>
			<g>
				<path class="st9" d="M147.4,404.4c1,2.5,1.9,5.3,2.6,8.3c-6.2,2.7-12.8,4.7-19.7,5.9c-4.8,0.8-9.8,1.3-14.8,1.3
					c-1.7,0-3.4,0-5.1-0.2c-0.9-7-1.5-12.4-1.8-15.3c-0.2-1.5-0.3-2.3-0.3-2.3h38.1C146.7,402.8,147.1,403.6,147.4,404.4z"/>
				<path class="st12" d="M147.4,404.4c1,2.5,1.9,5.3,2.6,8.3c-6.2,2.7-12.8,4.7-19.7,5.9c-4.8,0.8-9.8,1.3-14.8,1.3
					c-1.7,0-3.4,0-5.1-0.2c-0.9-7-1.5-12.4-1.8-15.3c-0.2-1.5-0.3-2.3-0.3-2.3h38.1C146.7,402.8,147.1,403.6,147.4,404.4z"/>
			</g>
			<path class="st9" d="M110,285.6c0.3,1,0.1,1.9-0.6,2.1c-0.6,0.2-1.4-0.4-1.7-1.4s-0.1-1.9,0.6-2.1
				C108.9,284,109.6,284.6,110,285.6z"/>
			<path class="st9" d="M98.9,289.1c0.3,1,0.1,1.9-0.6,2.1c-0.6,0.2-1.4-0.4-1.7-1.4s-0.1-1.9,0.6-2.1
				C97.8,287.5,98.6,288.2,98.9,289.1z"/>
			<path class="st9" d="M97.5,287.7l-2.6,0.1C94.9,287.8,96.7,289.2,97.5,287.7z"/>
			<path class="st13" d="M102.8,289.5c0,0-0.3,4.8-1.5,7.4c1.7,0.8,3.7-0.5,3.7-0.5L102.8,289.5z"/>
			<path class="st9" d="M112,298.1c-0.5,0.3-1,0.5-1.6,0.7c-0.2,0.1-0.3,0-0.4-0.2c-0.1-0.2,0-0.3,0.2-0.4c4.3-1.4,5.3-5,5.3-5.1
				c0-0.2,0.2-0.3,0.4-0.2c0.2,0,0.3,0.2,0.2,0.4C116.1,293.5,115.2,296.4,112,298.1z"/>
			<path class="st10" d="M133,283.5c0.3,2.6-0.7,5.1-2.1,6.7c-2.1,2.5-5,1.1-5.9-1.9c-0.8-2.6-0.8-7.1,2-8.5
				C129.9,278.5,132.7,280.6,133,283.5z"/>
			<path class="st9" d="M112.7,279.7c-0.2,0-0.3,0-0.5-0.1c-2.1-1.7-4.2-0.9-4.3-0.9c-0.3,0.1-0.7-0.1-0.8-0.4
				c-0.1-0.3,0.1-0.7,0.4-0.8c0.1,0,2.8-0.9,5.4,1.1c0.3,0.2,0.3,0.6,0.1,0.8C113,279.6,112.8,279.6,112.7,279.7z"/>
			<path class="st9" d="M93.8,287c-0.1,0.1-0.3,0.1-0.4,0c-0.3-0.1-0.5-0.5-0.4-0.8c1.1-3.2,3.8-3.9,3.9-3.9
				c0.3-0.1,0.7,0.1,0.7,0.4s-0.1,0.7-0.4,0.7c-0.1,0-2.2,0.6-3,3.1C94,286.8,93.9,287,93.8,287z"/>
			<path class="st10" d="M157.8,352.7c-0.5-2.8-1.1-5.7-1.8-8.4c-0.2-1-0.5-1.9-0.7-2.9c-0.7-2.5-1.3-5-2-7.5v0
				c-0.4-1.2-0.7-2.4-1.2-3.7c-1.1-3.3-4.6-5.2-8-4.2c-3.5,1-5.5,4.6-4.5,8.1l0,0.1c0.7,2.6,1.5,5.3,2.3,8.1
				c0.2,0.8,0.4,1.6,0.6,2.4c0.5,2.1,1.1,4.3,1.6,6.4c0.3,1.4,0.7,2.8,1,4.2c0.2,1.1,0.5,2.2,0.7,3.3c0.5,2.5,1,4.9,1.3,7.4
				c0.1,0.5,0.1,1,0.2,1.5c0.3,1.8,0.5,3.7,0.6,5.5c-0.4,0-0.8-0.1-1.2-0.2c-0.2,0-0.4-0.1-0.5-0.1c-2.9-0.7-6.1-1.7-9.3-2.9
				c-3.1-1.2-6.3-2.5-9.5-3.8c-3-1.3-6-2.6-9-4c-0.1-0.1-0.3-0.1-0.4-0.2l-0.1,0c-1.4-0.6-3-0.2-3.9,1c-1.1,1.4-0.8,3.5,0.7,4.5
				c0.4,0.3,0.8,0.6,1.2,0.8c0,0,0,0,0,0c2.5,1.8,5.1,3.5,7.7,5.2c3,1.9,6.1,3.7,9.4,5.4c3.3,1.6,6.6,3.2,10.4,4.5
				c0.9,0.3,1.8,0.5,2.8,0.8c1.1,0.3,2.4,0.5,3.8,0.5c1.3,0,2.9,0,5-0.8c1-0.5,2.2-1.2,3.1-2.3c0.9-1.1,1.5-2.3,1.8-3.5
				c0.1-0.4,0.2-0.8,0.2-1.2v-0.2C160.2,368.1,159.2,360.4,157.8,352.7z"/>
			<path class="st7" d="M141.3,322.5c10.5,1.2,13.4,4.4,18.8,19.2c-11.3,7.8-22.4,12.6-22.4,12.6S129,321.1,141.3,322.5z"/>
			<g>
				<path class="st9" d="M147.2,399l1.3,4.6c0.2,0.4-0.2,0.7-0.8,0.7H94.3c-0.5,0-0.9-0.2-0.9-0.5l-0.5-4.6c0-0.3,0.4-0.6,0.9-0.6
					h52.5C146.7,398.6,147,398.8,147.2,399z"/>
			</g>
			<g>
				<path class="st9" d="M140.1,404.9h1.4c0.3,0,0.5-0.1,0.5-0.3l-0.7-6c0-0.2-0.3-0.3-0.5-0.3h-1.4c-0.3,0-0.5,0.1-0.5,0.3l0.7,6
					C139.6,404.7,139.8,404.9,140.1,404.9z"/>
				<path class="st12" d="M140.1,404.9h1.4c0.3,0,0.5-0.1,0.5-0.3l-0.7-6c0-0.2-0.3-0.3-0.5-0.3h-1.4c-0.3,0-0.5,0.1-0.5,0.3l0.7,6
					C139.6,404.7,139.8,404.9,140.1,404.9z"/>
			</g>
			<g>
				<path class="st9" d="M98.3,404.9h1.4c0.3,0,0.5-0.1,0.5-0.3l-0.7-6c0-0.2-0.3-0.3-0.5-0.3h-1.4c-0.3,0-0.5,0.1-0.5,0.3l0.7,6
					C97.8,404.7,98,404.9,98.3,404.9z"/>
				<path class="st12" d="M98.3,404.9h1.4c0.3,0,0.5-0.1,0.5-0.3l-0.7-6c0-0.2-0.3-0.3-0.5-0.3h-1.4c-0.3,0-0.5,0.1-0.5,0.3l0.7,6
					C97.8,404.7,98,404.9,98.3,404.9z"/>
			</g>
			<g>
				<path class="st9" d="M119.2,404.9h1.4c0.3,0,0.5-0.1,0.5-0.3l-0.7-6c0-0.2-0.3-0.3-0.5-0.3h-1.4c-0.3,0-0.5,0.1-0.5,0.3l0.7,6
					C118.7,404.7,118.9,404.9,119.2,404.9z"/>
				<path class="st12" d="M119.2,404.9h1.4c0.3,0,0.5-0.1,0.5-0.3l-0.7-6c0-0.2-0.3-0.3-0.5-0.3h-1.4c-0.3,0-0.5,0.1-0.5,0.3l0.7,6
					C118.7,404.7,118.9,404.9,119.2,404.9z"/>
			</g>
			<path d="M108.1,369.9H97.7c-1,0-1.9-0.7-2.1-1.7l-5.2-21.7c-0.3-1.1,0.5-2.1,1.6-2.1h10.3c1,0,1.9,0.7,2.2,1.7l5.2,21.7
				C110,368.9,109.2,369.9,108.1,369.9z"/>
			<path class="st9" d="M106.8,369.9H96.5c-1,0-1.9-0.7-2.2-1.7l-5.2-21.7c-0.3-1.1,0.5-2.1,1.6-2.1h10.3c1,0,1.9,0.7,2.2,1.7
				l5.2,21.7C108.7,368.9,108,369.9,106.8,369.9z"/>
			<path class="st10" d="M119.1,367.5l-0.3-5.3l-7.4-8.4c-1.1-1.2-2.6-2.1-4.2-2.4l-4.8-0.9c-1.7-0.3-3.2,1-3.2,2.7l0.2,6.8
				c0,1.1,0.7,2,1.7,2.4l8.4,3.5v0C111.8,367.2,115.9,369,119.1,367.5z"/>
			<path class="st9" d="M108.5,284.1l-2.6,0.1C106,284.2,107.8,285.7,108.5,284.1z"/>
		</g>
		<path class="st7" d="M115.5,420.4c-48.3,0-87.6-39.3-87.6-87.6s39.3-87.6,87.6-87.6c48.3,0,87.6,39.3,87.6,87.6
			S163.8,420.4,115.5,420.4z M115.5,246.4c-47.6,0-86.4,38.8-86.4,86.4c0,47.6,38.8,86.4,86.4,86.4s86.4-38.8,86.4-86.4
			C201.9,285.2,163.1,246.4,115.5,246.4z"/>
	</g>
</g>
<g id="Character_2">
	<g>
		<path class="st4" d="M495.4,248.2c0,41.2-28.6,75.6-67,84.7c-6.4,1.5-13.1,2.3-20,2.3c-14.6,0-28.4-3.6-40.5-10
			c-27.7-14.6-46.5-43.6-46.5-77c0-48,39-87,87-87S495.4,200.1,495.4,248.2z"/>
		<g>
			<path class="st9" d="M405.3,185.8c-10.7-5.6-17,8.3-14.4,18c2.6,9.7,9.3,15.9,9.3,15.9s10.2-14.7,10.2-21.6
				C410.5,189.5,409.3,187.9,405.3,185.8z"/>
			<path class="st9" d="M399.1,215.8c-0.3-2.1-6.5-0.8-5,1.5C395.6,219.6,399.3,216.8,399.1,215.8z"/>
			<path class="st9" d="M398.6,216.1c-2-0.9-4.2,5.1-1.4,5.1C400,221.1,399.5,216.5,398.6,216.1z"/>
			<path class="st9" d="M402.3,188.2c-5-4.9,6.6-9.2,17.9-7.2c11.3,2,14.9,11.9,11,16.7C428,201.6,408.4,194.2,402.3,188.2z"/>
			<path class="st9" d="M401.9,185.2c1.8-1.2-2.1-6.3-3.5-3.9C396.9,183.7,401,185.8,401.9,185.2z"/>
			<path class="st9" d="M435,280.1c0,1.1-0.1,2.3-0.1,3.4c0,0.6-0.1,1.3-0.1,1.9c-0.1,1.7-0.2,3.5-0.3,5.3c0,0.8-0.1,1.5-0.2,2.3
				c0,0.1,0,0.2,0,0.3c-0.1,0.8-0.1,1.6-0.2,2.4c-0.3,2.9-0.6,6-1,9.1c-1,8.5-2.6,17.9-4.7,28.1c-6.4,1.5-13.1,2.3-20,2.3
				c-14.6,0-28.4-3.6-40.5-10c0.7-5.7,1.6-13.1,2.3-21.6c0.4-4.6,0.8-9.6,1-14.9c0-0.4,0-0.8,0-1.2c0.1-1.3,0.1-2.6,0.2-3.9
				c0-0.8,0-1.6,0.1-2.4c0-1.1,0.1-2.2,0.1-3.3l0-2.7v-1.1c0-0.6,0-1.2,0-1.8c0-2.1,0-4.2-0.1-6.3v-0.1c-0.1-5.5-0.4-11.1-0.9-16.7
				c0-0.3,0-0.7-0.1-1c-0.3-2.8,0.7-5.5,2.3-7.5c1.8-2.2,4.4-3.6,7.4-3.8c0.1,0,0.1,0,0.2,0c1.4-0.1,2.8-0.1,4.3-0.2
				c1.3,0,2.7-0.1,4.1,0h0.8c0.7,0,1.5,0,2.3,0c0.8,0,1.7,0,2.6,0.1c0.7,0,1.5,0,2.2,0.1c4.2,0.2,8.8,0.4,12.7,0.8
				c0.3,0,0.5,0,0.8,0.1c1.5,0.1,2.9,0.3,4.2,0.5c0.2,0,0.5,0.1,0.7,0.1c1,0.2,2.1,0.3,3.1,0.5c0.2,0,0.3,0.1,0.5,0.1
				c1.6,0.3,3.2,0.7,4.7,1c5.1,1.3,8.9,2.5,8.9,2.5s0,0,0,0.1c0.1,0.5,1,4.2,1.8,10.8c0.5,4.5,0.9,10.5,1,17.8c0,0,0,0,0,0
				C435.2,273.8,435.1,276.9,435,280.1z"/>
			<path class="st14" d="M453.8,304.1c-0.1-1.6-0.3-2.6-0.6-3.6c-0.5-2.1-0.9-3.3-1.4-4.8l-2.6-8.7l-5.3-17.5
				c-1.8-5.8-3.6-11.7-5.5-17.5l-16.3,5c1.7,6,3.5,11.8,5.5,17.7c1.9,5.9,4,11.7,6.1,17.5c0.1,0.3,0.2,0.7,0.4,1l-5.5,4.9
				c1.6,2.9,3.4,5.5,5.5,8.1c1.1,1.3,2.1,2.6,3.5,3.9c0.7,0.7,1.4,1.3,2.5,2c0.5,0.4,1.1,0.7,2,1.1c0.2,0.1,0.5,0.2,0.8,0.3l0.4,0.1
				l0.6,0.1c0.7,0.1,1.9,0.3,3.4,0c0.4-0.1,0.8-0.2,1.2-0.3c0.4-0.2,0.9-0.4,1.3-0.6c0.8-0.5,1.6-1.2,2.1-1.8
				c1.1-1.5,1.4-2.5,1.7-3.5C454,305.8,453.9,304.9,453.8,304.1z"/>
			<path class="st9" d="M420.8,248.7c-4.4,9.8,9.5,38,9.5,38l18.9-5.2c0,0,0.7-16.8-6.3-28.8C435.7,240.3,425.7,237.9,420.8,248.7z"
				/>
			<path class="st7" d="M421.8,241.3c-0.5-1.3-1.6-2.2-3-2.5c-0.2,0-0.3-0.1-0.5-0.1c-1-0.2-2-0.4-3.1-0.5
				c-6.9-1.1-18.6-1.5-26.3-1.6c0,0,0,0,0,0l2.4,2.9c3.3,3.9,9.3,11.1,20.7,12.5c0.9,0.1,1.7,0.2,2.4,0.2c0,0,0,0,0,0
				c4.4,0,6.4-1.9,7.3-3.4C423,246.5,422.7,243.7,421.8,241.3z"/>
			<path class="st11" d="M382.1,261.6l-10.5,4.1c0,0.1,0,0.2,0,0.3c0.1,6.1,0.1,12-0.1,17.7C382.4,279.1,382.6,265.5,382.1,261.6z"
				/>
			<path class="st14" d="M399,221.1c0.4,5.9-0.6,12.2-5.1,16.3c-0.4,0.3-0.4,0.9-0.1,1.3c4,4.7,9.3,9.8,18.5,11
				c9.5,1.2,8.7-5.3,6.5-9.1c-0.1-0.2-0.3-0.3-0.5-0.4c-7.7-2.7-6.8-8-5.9-13.8c0.2-1.2-0.4-2.4-1.5-3l-8.6-4.4
				C400.7,218.1,398.9,219.3,399,221.1z"/>
			<path class="st11" d="M412.4,226.7l-9.3-0.3c0.1,0.4,0.3,0.9,0.5,1.3c1.3,3,4.8,5.5,8.6,6.8C411.6,232.1,412,229.4,412.4,226.7z"
				/>
			<path class="st14" d="M401.2,198.7c-3.2,10.7-5.6,16.8-2.2,24.1c5,11,19.7,10.9,26,1.3c5.7-8.6,9.9-24.7,1.2-32.6
				C417.6,183.8,404.4,187.9,401.2,198.7z"/>
			<path class="st9" d="M398.7,209c7.6,4,17.8-22.6,6.9-22.6C394.6,186.3,395.1,207.1,398.7,209z"/>
			<path class="st14" d="M393.2,204.3c-0.1,3,1.2,5.8,2.9,7.6c2.6,2.7,4.8,0.7,5.7-2.8c0.8-3.1,1.3-8-2-9.4
				C396.4,198.3,393.3,200.9,393.2,204.3z"/>
			<path class="st9" d="M415.5,206.9c-0.3,0.9-0.1,1.7,0.4,1.9c0.6,0.2,1.3-0.3,1.6-1.2c0.3-0.9,0.1-1.7-0.4-1.9
				C416.5,205.5,415.8,206,415.5,206.9z"/>
			<path class="st9" d="M426,211c-0.3,0.9-0.1,1.7,0.4,1.9c0.6,0.2,1.3-0.3,1.6-1.2c0.3-0.9,0.1-1.7-0.4-1.9
				C427.1,209.6,426.3,210.1,426,211z"/>
			<path class="st15" d="M422.5,210.2c0,0,0.1,5.6,1.4,8.8c-2,0.9-4.4-0.7-4.4-0.7L422.5,210.2z"/>
			<path class="st9" d="M417.2,220.6c-3.2-1.3-4.2-4-4.2-4.2c0-0.1,0-0.3,0.2-0.3c0.1,0,0.3,0,0.3,0.2c0,0,1.1,3.2,5,4.2
				c0.1,0,0.2,0.2,0.2,0.3c0,0.1-0.2,0.2-0.3,0.2C418,220.9,417.6,220.8,417.2,220.6z"/>
			<path class="st9" d="M415.1,202.8c-0.1,0-0.1-0.1-0.2-0.2c-0.2-0.2-0.1-0.6,0.2-0.7c2.5-1.6,4.7-0.6,4.8-0.6
				c0.3,0.1,0.4,0.4,0.3,0.7c-0.1,0.3-0.4,0.4-0.7,0.3l0,0c-0.1,0-1.8-0.8-3.8,0.5C415.5,202.8,415.3,202.8,415.1,202.8z"/>
			<path class="st9" d="M432.4,209.2c-0.2-0.1-0.3-0.2-0.3-0.4c-0.2-2.3-1.9-3.3-2-3.3c-0.3-0.1-0.4-0.5-0.2-0.7
				c0.1-0.3,0.5-0.4,0.7-0.2c0.1,0.1,2.3,1.2,2.6,4.1c0,0.3-0.2,0.6-0.5,0.6C432.6,209.3,432.4,209.3,432.4,209.2z"/>
			<g>
				<path class="st14" d="M407.9,275c-3.8,1.6-7.7,3.4-11.5,4.9c-3.9,1.6-7.7,3.2-11.6,4.6c-3.8,1.4-7.7,2.8-11.4,3.6
					c-0.8,0.2-1.6,0.4-2.4,0.5c0.3-1.2,0.7-2.5,1.1-3.7c1.2-3.6,2.7-7.2,4.3-10.7c1.7-3.5,3.6-7.1,5.6-10.5c1-1.7,2-3.5,3.1-5.1
					l1.6-2.5c0.5-0.8,1.1-1.7,1.5-2.4l-13.8-10c-0.8,1.1-1.4,1.9-2.1,2.9c-0.6,0.9-1.2,1.9-1.8,2.8c-1.2,1.9-2.4,3.8-3.5,5.8
					c-2.2,3.9-4.2,8-6,12.2c-1.8,4.2-3.3,8.6-4.5,13.2c-0.6,2.3-1.1,4.6-1.4,7c-0.1,0.6-0.2,1.2-0.2,1.8l-0.1,0.9l0,0.5l-0.1,0.8
					c-0.1,1.1,0,2.4,0.3,3.9c0.4,1.5,1.2,3.3,2.5,4.7c1.3,1.4,2.8,2.3,4.1,2.8c1.4,0.5,2.4,0.7,3.5,0.8c2,0.2,3.5,0,5-0.2
					c2.8-0.4,5.1-1.2,7.4-2c4.4-1.6,8.5-3.5,12.4-5.6c7.8-4.1,15.1-8.7,22.2-13.8L407.9,275z"/>
				<path class="st9" d="M378.4,237.3c-10.7,1.4-19.3,32.7-19.3,32.7l21.5,7c0,0,3.3-6.7,9.9-18.9
					C397.8,244.8,391.4,235.6,378.4,237.3z"/>
				<path class="st14" d="M420.6,269.3l-5.4-0.3c-1-0.1-1.9,0.3-2.6,0.9l-7.8,6.7l3.1,6.1c4.6,3.2,12.2-4,12.2-4l2.8-0.7
					c2.2-0.5,3.2-3.1,1.9-4.9l-1.6-2.4C422.5,269.9,421.6,269.3,420.6,269.3z"/>
			</g>
			<path class="st4" d="M427.3,295.6l-9.1-1.4c-0.9-0.1-1.5-1.1-1.1-2l9-21.5c0.3-0.6,0.9-1,1.6-0.9l9.1,1.4c0.9,0.1,1.5,1.1,1.1,2
				l-9,21.5C428.6,295.4,428,295.7,427.3,295.6z"/>
			<path class="st7" d="M428.5,295.8l-9.1-1.4c-0.9-0.1-1.5-1.1-1.1-2l9-21.5c0.3-0.6,0.9-1,1.6-0.9l9.1,1.4c0.9,0.1,1.5,1.1,1.1,2
				l-9,21.5C429.9,295.5,429.2,295.9,428.5,295.8z"/>
			<path class="st14" d="M436.8,293.5l-9.4-11.4l-5.3,11.7c0,0,3.1,4.4,8.3,5.1L436.8,293.5z"/>
			<path class="st14" d="M416.6,283.6l0.6,3.9c0.2,1.2,0.8,2.3,1.6,3.1l3.3,3.1l5.3-11.7l-7.3-1.6
				C418.1,280,416.3,281.7,416.6,283.6z"/>
			<path class="st9" d="M418.1,193.1c-3.1,6.8,17.6,14.9,17.6,5.3C435.7,188.7,419.5,189.9,418.1,193.1z"/>
			<path class="st9" d="M405.2,189.1c-2.7,8.2,35,12.5,33.2,1.8C436.5,180,406.5,185.2,405.2,189.1z"/>
			<path class="st9" d="M416.5,191.4c3.1,6.8,22.8-3.6,15.5-9.9C424.6,175.2,415,188.2,416.5,191.4z"/>
		</g>
		<path class="st7" d="M408.4,335.8c-48.3,0-87.6-39.3-87.6-87.6s39.3-87.6,87.6-87.6s87.6,39.3,87.6,87.6S456.7,335.8,408.4,335.8z
			 M408.4,161.8c-47.6,0-86.4,38.8-86.4,86.4c0,47.6,38.8,86.4,86.4,86.4s86.4-38.8,86.4-86.4S456,161.8,408.4,161.8z"/>
	</g>
</g>
<g id="Messenger">
	<g>
		<path class="st7" d="M178.9,173.3h-1.3V158c0-10.6,8.6-19.2,19.2-19.2v1.3c-9.9,0-18,8.1-18,18V173.3z"/>
		<rect x="177.6" y="182.8" class="st7" width="1.3" height="9.9"/>
		<g>
			<path class="st4" d="M327,433.7H196.9c-8.3,0-15-6.8-15-15V158c0-8.3,6.8-15,15-15H327c8.3,0,15,6.8,15,15v260.6
				C342,426.9,335.3,433.7,327,433.7z"/>
			<path class="st7" d="M327,434.3H196.9c-8.6,0-15.7-7-15.7-15.7V158c0-8.6,7-15.7,15.7-15.7H327c8.6,0,15.7,7,15.7,15.7v260.6
				C342.6,427.3,335.6,434.3,327,434.3z M196.9,143.6c-7.9,0-14.4,6.5-14.4,14.4v260.6c0,7.9,6.5,14.4,14.4,14.4H327
				c7.9,0,14.4-6.5,14.4-14.4V158c0-7.9-6.5-14.4-14.4-14.4H196.9z"/>
		</g>
		<path class="st7" d="M327,143H196.9c-8.3,0-15,6.8-15,15H342C342,149.8,335.3,143,327,143z"/>
		<path class="st4" d="M206.4,150.5c0,2.5-2,4.6-4.6,4.6c-2.5,0-4.6-2-4.6-4.6s2-4.6,4.6-4.6C204.4,146,206.4,148,206.4,150.5z"/>
		<path class="st4" d="M324.2,150.5c0,0.6-0.5,1-1,1s-1-0.5-1-1c0-0.6,0.5-1,1-1C323.8,149.5,324.2,150,324.2,150.5z"/>
		<path class="st4" d="M324.2,154.2c0,0.6-0.5,1-1,1s-1-0.5-1-1c0-0.6,0.5-1,1-1C323.8,153.2,324.2,153.7,324.2,154.2z"/>
		<circle class="st4" cx="323.2" cy="146.8" r="1"/>
		<path class="st16" d="M243.2,152.7h-30.4c-1.2,0-2.2-1-2.2-2.2l0,0c0-1.2,1-2.2,2.2-2.2h30.4c1.2,0,2.2,1,2.2,2.2l0,0
			C245.3,151.7,244.4,152.7,243.2,152.7z"/>
		<path class="st7" d="M327.2,214.1h-81.7c-3,0-5.4-2.4-5.4-5.4v-29.9c0-3,2.4-5.4,5.4-5.4h81.7c3,0,5.4,2.4,5.4,5.4v29.9
			C332.6,211.7,330.2,214.1,327.2,214.1z"/>
		<path class="st17" d="M278.4,244.4h-81.7c-3,0-5.4-2.4-5.4-5.4v-10.5c0-3,2.4-5.4,5.4-5.4h81.7c3,0,5.4,2.4,5.4,5.4V239
			C283.8,242,281.3,244.4,278.4,244.4z"/>
		<path class="st17" d="M278.4,354.3h-81.7c-3,0-5.4-2.4-5.4-5.4v-59.8c0-3,2.4-5.4,5.4-5.4h81.7c3,0,5.4,2.4,5.4,5.4v59.8
			C283.8,351.9,281.3,354.3,278.4,354.3z"/>
		<path class="st7" d="M327.2,383.7h-32.7c-3,0-5.4-2.4-5.4-5.4v-10.5c0-3,2.4-5.4,5.4-5.4h32.7c3,0,5.4,2.4,5.4,5.4v10.5
			C332.6,381.3,330.2,383.7,327.2,383.7z"/>
		<path class="st4" d="M313.6,371.6c0,1.5-1.2,2.7-2.7,2.7s-2.7-1.2-2.7-2.7c0-1.5,1.2-2.7,2.7-2.7S313.6,370.1,313.6,371.6z"/>
		<path class="st4" d="M304.5,373c0,1.5-1.2,2.7-2.7,2.7c-1.5,0-2.7-1.2-2.7-2.7c0-1.5,1.2-2.7,2.7-2.7
			C303.3,370.3,304.5,371.5,304.5,373z"/>
		<path class="st4" d="M322.7,374.4c0,1.5-1.2,2.7-2.7,2.7c-1.5,0-2.7-1.2-2.7-2.7s1.2-2.7,2.7-2.7
			C321.5,371.7,322.7,372.9,322.7,374.4z"/>
		<path class="st7" d="M327.2,274.7h-81.7c-3,0-5.4-2.4-5.4-5.4v-10.5c0-3,2.4-5.4,5.4-5.4h81.7c3,0,5.4,2.4,5.4,5.4v10.5
			C332.6,272.3,330.2,274.7,327.2,274.7z"/>
		<circle class="st7" cx="196.2" cy="419.3" r="5"/>
		<circle class="st17" cx="211.2" cy="419.3" r="5"/>
		<circle class="st18" cx="226.2" cy="419.3" r="5"/>
		<path class="st18" d="M327.7,424.3h-40.6c-2.7,0-5-2.2-5-5l0,0c0-2.7,2.2-5,5-5h40.6c2.7,0,5,2.2,5,5l0,0
			C332.6,422.1,330.4,424.3,327.7,424.3z"/>
		<rect x="181.8" y="398.4" class="st7" width="160.2" height="1.3"/>
	</g>
</g>
</svg>
