<svg xmlns="http://www.w3.org/2000/svg" viewBox="0 0 128 128"><path d="M0 0h128v128H0z" class="green" style="fill:#37c400"/><path d="M16.7 0c12 23.3 27.7 44.5 46.6 62.6 19 18.2 40.8 33.2 64.7 44.2V128H0V0z" style="fill:#ffd000"/><path d="M33.5 89.2C22.2 84.7 10.7 82.7 0 82.9V128h76.5c-6.9-15.9-22.3-30.6-43-38.8" class="blue" style="fill:#1a5fce"/><path d="M117.5 97.5c-.9-5.8-4.7-10.7-16-15.3-3.9-1.8-8.3-3.1-9.6-6.1-.5-1.7-.5-2.7-.2-3.7.8-3.4 4.9-4.5 8.1-3.5 2.1.7 4 2.3 5.2 4.8 5.5-3.6 5.5-3.6 9.4-6-1.4-2.2-2.2-3.2-3.1-4.1-3.3-3.7-7.8-5.6-15.1-5.5l-3.8.5c-3.6.9-7.1 2.8-9.1 5.4-6.1 6.9-4.3 18.9 3 23.9 7.3 5.5 17.9 6.7 19.3 11.8 1.3 6.2-4.6 8.3-10.5 7.5-4.3-.9-6.7-3.1-9.3-7.1-3.2 1.8-6.4 3.7-9.7 5.6 1.2 2.6 2.4 3.7 4.4 5.9 9.3 9.4 32.5 8.9 36.6-5.3.2-.5 1.3-3.7.4-8.8M69.6 58.8h-12v31c0 6.6.3 12.6-.8 14.5-1.8 3.6-6.3 3.2-8.4 2.5-2.1-1-3.2-2.5-4.4-4.6-.3-.6-.6-1.1-.7-1.1l-9.7 6c1.6 3.3 4 6.2 7.1 8.1 4.6 2.7 10.7 3.6 17.1 2.1 4.2-1.2 7.8-3.7 9.7-7.6 2.7-5 2.1-11.1 2.1-17.8v-33Z" style="fill:#fff;filter:drop-shadow(2px 2px 2px #00000020);stroke:#fff;stroke-miterlimit:10"/></svg>