<svg clip-rule="evenodd" fill-rule="evenodd" height="300" image-rendering="optimizeQuality" shape-rendering="geometricPrecision" text-rendering="geometricPrecision" viewBox="0 0 173.397 173.397" width="300" xmlns="http://www.w3.org/2000/svg"><g><circle cx="86.699" cy="86.699" fill="#f5407f" r="84.667" data-original-color="#db4437ff"/><path d="M84.78 141.127c-11.26-1.726-20.854-11.364-16.207-31.818 4.707 6.825 6.419 3.22 6.419 3.22.285-23.18 17.83-28.975 17.83-28.975-5.25 11.85 5.138 12.177 5.847 25.626 4.28-2.189 5.848-4.636 5.848-4.636 14.169 19.051 3.664 32.682-9.739 36.18 21.467-2.754 39.924-20.932 31.084-59.84-8.884 12.883-12.115 6.077-12.115 6.077-.539-43.753-33.654-54.691-33.654-54.691 9.91 22.366-9.7 22.984-11.039 48.37-8.077-4.131-11.038-8.75-11.038-8.75-29.648 39.866-2.062 67.163 26.764 69.237z" fill="#fff" data-original-color="#ffffffff"/></g></svg>