<svg xmlns="http://www.w3.org/2000/svg" id="a" data-name="9" viewBox="0 0 4680 3120"><path d="M3625.26 1555.15c-17.64-45.66-32.4-92.63-45.56-140.16-128.15-462.6-105-977.63-1109.07-847.99-33.97 4.39-69.11 9.51-105.48 15.4 0 0-627.77-89.19-850.41 296.67-125.99 218.34-292.88 373.9-411.38 548.5-9.63 14.18-18.93 28.49-27.87 42.96-75.51 122.27-124.84 256.62-119.17 429.46 14.6 445.28 671.64 828.51 1470.92 817.56 249.1-3.41 486.63-60.52 688.09-152.98 444.97-204.22 714-580.94 543.16-932.66-12.17-25.07-23.18-50.7-33.23-76.76" style="fill:#f8fafe"/><path d="M3625.26 1555.15c-6.39 5.15-12.7 10.4-18.93 15.74-173.91 149.08-292.81 365.15-496.23 470.47-119.33 61.78-256.71 78.8-391.02 82.91-154.29 4.7-311.21-6.74-456.65-58.44-266.71-94.79-469.05-313.8-717.53-449.35-144.8-79-305.43-128.39-469.41-145.95-75.51 122.27-124.84 256.62-119.17 429.46 14.6 445.28 671.64 828.51 1470.92 817.56 249.1-3.41 486.63-60.52 688.09-152.98 444.97-204.22 714-580.94 543.16-932.66-12.17-25.07-23.18-50.7-33.23-76.76" style="fill:#e2e9fa"/><ellipse cx="2342.33" cy="2700.53" rx="1371.78" ry="81.46" style="fill:#a6bcee"/><path d="M1375.3 1283.98s-68.23 126.22-107.82 197.71c-87.36 157.74-119.52 284.86-67.21 429.68 0 0-8.84 74.46-8.62 77.81s67.25 85.37 67.25 85.37l123.11-56.24 7.58-125.01s51.84-184.04 26.51-333.24c-25.33-149.21-42.59-244.56-40.79-276.09Z" style="fill:#8ba8e9"/><path d="M1286.61 2101.85s70.73-395.32 70.42-631.92c0 0-50.5 418.46-129.57 604.68l59.15 27.25Z" style="fill:#6e92e4"/><path d="M1338.2 2092.97s-108.22-294.17-371.15-369.79H967c-85.18-24.49-186.54-26.03-305.72 12.79 0 0 146.5-40.69 227.56 117.99 2.97 5.75 5.83 11.79 8.62 18.12 78.84 179.84 182.29 280.12 248.37 305.96 40.11 15.67 89.65 56.05 122.44 85.34 21.25 19.05 35.43 33.4 35.43 33.4l35.32-5.81-.4-104.17-.4-93.83Z" style="fill:#a6bcee"/><path d="M874.42 1738.48c4.72 1.74 155.26 59.69 393.83 524.9 21.25 19.05 35.43 33.4 35.43 33.4l35.32-5.81-.4-104.17c-59.72-108.85-236.13-395.19-464.18-448.32" style="fill:#90abea"/><path d="M1464.95 1712.68h-.05c-221.51 136.45-245.47 433.55-245.47 433.55l23.61 86.04 26.25 95.51 33.84-3.7s9.32-16.77 23.91-39.64c22.54-35.21 57.6-84.85 90.34-109.45 53.92-40.55 123.05-158.84 149.32-343.7.94-6.51 2.01-12.77 3.26-18.79 33.69-166.06 178.28-166.22 178.28-166.22-119.08-5.11-211.54 22.2-283.29 66.4" style="fill:#a6bcee"/><path d="m1243.03 2232.27 26.25 95.51 33.84-3.7s9.32-16.77 23.91-39.64c99.66-487.06 222.74-578.61 226.62-581.41-195.3 106.93-283.73 414.28-310.62 529.24" style="fill:#90abea"/><path d="M836.71 1975.61c343.72 81.67 444.23 285.48 444.23 285.48-115.79-239.34-444.23-285.48-444.23-285.48m41.54-47.74c-2.41-1.81-5.8.26-5.29 3.23 5.07 30.04 18.6 37.7 24.91 39.65 1.9.59 3.9-.63 4.25-2.59 1.15-6.5.53-22.03-23.86-40.29Zm38.14 9.92c-2.26-1.99-5.8-.2-5.53 2.81 2.7 30.34 15.59 39.04 21.72 41.48 1.85.74 3.94-.32 4.44-2.25 1.66-6.39 2.25-21.92-20.63-42.03Z" style="fill:#5881e0"/><path d="M953.93 1956.41c-2.12 27.12 7.94 36.7 12.98 39.75 1.52.92 3.52.3 4.25-1.32 2.41-5.38 5.23-18.98-11.94-40.08-1.7-2.09-5.08-1.03-5.29 1.65m39.56 12.67c-7.44 26.17.53 37.54 4.86 41.54 1.31 1.21 3.39.99 4.42-.46 3.42-4.8 8.88-17.57-3.78-41.65-1.25-2.38-4.77-2.02-5.51.57Zm38.13 15.82c-10.7 23.26-4.94 34.98-1.49 39.32a2.794 2.794 0 0 0 4.18.21c3.88-3.97 10.8-15.05 2.51-39.27-.82-2.4-4.15-2.57-5.21-.26Zm46.47 11.01c-21.09 14.51-22.14 27.53-21.39 33.03a2.794 2.794 0 0 0 3.48 2.32c5.36-1.43 16.98-7.4 22.25-32.46.52-2.48-2.25-4.33-4.34-2.89m-199.34 4.71c-6.19-2.3-21.6-4.49-43.97 16.24-2.21 2.05-.79 5.75 2.23 5.8 30.5.42 40.48-11.52 43.54-17.38.92-1.77.08-3.96-1.79-4.65Zm34.46 12.22c-6.35-1.81-21.89-2.78-42.57 19.64-2.05 2.22-.34 5.8 2.67 5.6 30.43-1.98 39.45-14.66 42.04-20.74.78-1.84-.23-3.95-2.15-4.5Zm35.83 9.79c-5.87-.65-19.69.8-34.58 23.61-1.47 2.26.56 5.16 3.19 4.54 26.51-6.25 32.57-18.77 33.95-24.5.42-1.73-.79-3.45-2.56-3.64Zm33.77 7.74c-5.88.52-19.14 4.67-29.23 29.98-1 2.5 1.57 4.94 4.02 3.82 24.75-11.37 28.22-24.83 28.43-30.73.07-1.78-1.45-3.22-3.23-3.07Zm28.11 15c-5.45 2.27-16.83 10.25-18.79 37.42-.19 2.69 2.99 4.24 4.99 2.42 20.15-18.33 19.38-32.21 17.81-37.89a2.976 2.976 0 0 0-4-1.95Zm34.3 13.69c-5.21 2.78-15.79 11.79-15.17 39.03.06 2.7 3.38 3.94 5.19 1.94 18.33-20.15 16.25-33.9 14.14-39.41a2.97 2.97 0 0 0-4.17-1.56Zm268.81 214.08s29.39-288.46 403.98-539.22c0 0-372.15 201.46-403.98 539.22m333.04-577.79c-21.03 32.69-14.86 51.54-10.59 58.8 1.29 2.19 4.22 2.76 6.24 1.21 6.67-5.14 19.43-20.33 12.12-58.5-.72-3.78-5.69-4.74-7.77-1.5Zm-41.18 28.85c-18.4 34.24-10.77 52.54-5.95 59.45 1.46 2.09 4.43 2.42 6.31.71 6.25-5.65 17.78-21.79 7.5-59.27-1.02-3.71-6.04-4.28-7.86-.89" style="fill:#5881e0"/><path d="M1562.24 1763.56c-11.13 32.88-1.69 47.88 3.58 53.24a3.788 3.788 0 0 0 5.67-.31c4.66-5.9 12.43-21.83-2.19-53.32-1.45-3.12-5.96-2.87-7.06.38Zm-41.43 34.17c-4.41 34.43 7.81 47.27 14.04 51.48 1.88 1.27 4.46.6 5.49-1.42 3.4-6.71 7.86-23.85-12.69-51.83-2.03-2.77-6.41-1.64-6.84 1.77m-37.81 36.76c.88 32.65 14.1 42.82 20.5 45.83a3.56 3.56 0 0 0 4.9-2.12c2.2-6.73 3.86-23.31-19.29-46.35-2.29-2.28-6.19-.6-6.11 2.64m-44.56 31.24c-3.14-.79-5.63 2.66-3.9 5.39 17.46 27.61 34.01 29.58 41.06 28.9 2.13-.21 3.6-2.24 3.13-4.33-1.55-6.9-8.61-22.01-40.29-29.96m300.26-83.35c-35.98-14.82-53.43-5.34-59.81.17-1.93 1.67-1.96 4.66-.06 6.36 6.27 5.64 23.52 15.47 59.8 1.39 3.59-1.39 3.64-6.46.08-7.92Zm-35.92 34.65c-34.71-17.59-52.85-9.51-59.64-4.52-2.05 1.51-2.32 4.49-.56 6.34 5.8 6.12 22.24 17.27 59.5 6.07 3.69-1.11 4.14-6.15.7-7.89m-46.27 35.98c-27.96-20.64-45.14-16.22-51.86-12.83-2.03 1.02-2.71 3.61-1.44 5.5 4.2 6.25 17.02 18.51 51.51 14.18 3.41-.43 4.56-4.8 1.79-6.85m-88.79 11.47c-2.19.6-3.37 3-2.49 5.1 2.89 6.96 13.03 21.51 47.69 24.08 3.43.25 5.42-3.81 3.11-6.36-23.33-25.77-41.04-24.82-48.3-22.83Zm-26.93 30.45c-2.27-.09-4.12 1.84-3.92 4.11.65 7.5 5.91 24.44 38.17 37.38 3.19 1.28 6.31-1.99 4.88-5.12-14.44-31.61-31.61-36.07-39.13-36.37m-34.91 31.65c-2.25-.3-4.27 1.45-4.29 3.72-.07 7.53 3.57 24.89 34.46 40.82 3.06 1.58 6.47-1.38 5.35-4.63-11.39-32.84-28.05-38.9-35.52-39.91" style="fill:#5881e0"/><path d="M1242.29 2184.88c-54.01-54.03-143.6-112.82-253.46-67.98-147.15 60.03-178.51 237.34-185.17 304.3-.82 8.24 9.36 12.84 14.96 6.67 55.75-61.47 242.79-244.42 435.39-170.32 7.19 2.74 14.39 5.86 21.58 9.37 2.54 1.23 5.27 2.1 8.07 2.35 4.26.36 9.8-.37 12.71-5.67 2.3-4.21 1.79-9.43-.8-13.45-6.69-10.32-25.18-37.14-53.29-65.24Z" style="fill:#c3d2f4"/><path d="M882.97 2273.95c-.15.21-.29.4-.41.56zm0 0c13.91-18.88 168.61-208.52 371.05-16.41 7.19 2.74 14.39 5.86 21.58 9.37 2.54 1.23 5.27 2.1 8.07 2.35 4.26.36 9.8-.37 12.71-5.67 2.3-4.21 1.79-9.43-.8-13.45 0 0-220.12-243.66-412.61 23.82Z" style="fill:#a8bdef"/><path d="M882.19 2275c-.1.14-.17.24-.22.32.08-.11.15-.21.22-.32m0 0c.09-.13.21-.29.36-.49-.13.16-.25.32-.36.49" style="fill:#6e92e4"/><path d="M1490.17 2012.93c-124.56 30.9-165.32 139.39-178.04 221.03-6.63 42.48-5.67 77.7-4.94 90.97.3 5.17 3.18 10.06 7.88 12.27 5.93 2.78 11.23-.12 14.72-3.15 2.3-2 4.12-4.51 5.55-7.2 4.05-7.65 8.35-14.96 12.88-21.94 120.98-187.56 401.03-147.04 488.94-128.89 8.83 1.82 14.79-8.68 8.82-15.37-48.52-54.24-188.99-189.12-355.81-147.72" style="fill:#c3d2f4"/><path d="M1312.13 2233.96c-6.63 42.48-5.67 77.7-4.94 90.97.3 5.17 3.18 10.06 7.88 12.27 5.93 2.78 11.23-.12 14.72-3.15 2.3-2 4.12-4.51 5.55-7.2 4.05-7.65 8.35-14.96 12.88-21.94 54.9-300.17 315.85-227.91 335.3-222.08-241.96-80.68-335.6 51.24-371.39 151.13" style="fill:#a8bdef"/><path d="M1274.15 2466.65c150.18-508.99-273.1-1017.95-273.1-1017.95 398.16 581.97 273.1 1017.95 273.1 1017.95M1114.33 1431.6c-32.82 51.18-23.12 80.66-16.42 92 2.02 3.43 6.61 4.31 9.76 1.87 10.42-8.06 30.35-31.84 18.82-91.54-1.14-5.91-8.91-7.4-12.16-2.33m43.25 64.9c-36.73 48.45-29.37 78.6-23.58 90.43 1.75 3.57 6.25 4.81 9.58 2.63 11.02-7.22 32.75-29.37 25.93-89.78-.67-5.98-8.3-8.07-11.94-3.28Z" style="fill:#5881e0"/><path d="M1199.99 1577.65c-39.54 37.23-37.52 64.87-34.18 76.15 1.01 3.41 4.79 5.17 8.05 3.74 10.78-4.72 33.2-21.01 36.16-75.23.29-5.37-6.11-8.34-10.03-4.66m41.42 71.82c-46.12 28.68-49.61 56.17-48.56 67.89.32 3.54 3.68 6.01 7.15 5.26 11.5-2.5 36.7-14.03 50.32-66.6 1.35-5.2-4.34-9.39-8.91-6.55m35.11 74.55c-47.02 19.99-54.25 45.05-54.97 56.09-.22 3.34 2.55 6.12 5.89 5.92 11.05-.66 36.15-7.73 56.42-54.64 2.01-4.64-2.68-9.36-7.33-7.38Zm53.87 78.65c-50.63-6.88-69.66 10.96-75.93 20.08-1.9 2.76-.94 6.56 2.03 8.1 9.83 5.09 35.02 11.85 76.43-18.09 4.1-2.96 2.48-9.41-2.53-10.09m-387.57-295.63c-6.02.06-8.89 7.44-4.49 11.55 44.49 41.54 75.27 37.3 87.64 32.75 3.74-1.38 5.43-5.73 3.6-9.27-6.06-11.72-25.89-35.62-86.76-35.03Zm32.02 71.21c-6 .53-8.28 8.11-3.57 11.87 47.61 37.93 77.96 31.29 89.94 25.78 3.62-1.66 4.97-6.14 2.87-9.53-6.96-11.21-28.6-33.49-89.24-28.12m46.26 79.14c-5.21 1.36-6.09 8.37-1.38 10.98 47.56 26.34 73.3 15.99 83.04 9.37 2.94-2 3.46-6.15 1.11-8.82-7.79-8.84-30.16-25.25-82.77-11.53m122.28 68.29c-9.38-7.12-34.56-18.79-83.41 5.06-4.83 2.36-4.31 9.41.81 11.04 51.83 16.42 75.02 1.18 83.25-7.24 2.49-2.54 2.18-6.71-.65-8.86m21.4 59.88c-11.1-3.95-38.62-7.46-77.98 30.06-3.89 3.71-1.26 10.28 4.12 10.28 54.37-.03 71.86-21.56 77.16-32.08 1.6-3.18.05-7.06-3.3-8.25Zm32.29 66.26c-11.42-2.88-39.15-3.77-74.78 37.3-3.53 4.06-.29 10.35 5.07 9.84 54.12-5.17 69.5-28.26 73.78-39.24 1.29-3.31-.62-7.03-4.07-7.9" style="fill:#5881e0"/><path d="M1414.02 2234.58H1158.7c-13.04 0-23.61 10.56-23.61 23.6v397.24c0 13.04 10.56 23.61 23.61 23.61h255.32c13.03 0 23.6-10.56 23.6-23.61v-397.24c0-13.03-10.56-23.6-23.6-23.6" style="fill:#eff3fc"/><path d="M1414.02 2234.58h-27.72c-2.4 90.77-29.25 344.19-251.21 406.25v14.59c0 13.04 10.56 23.61 23.61 23.61h255.32c13.03 0 23.6-10.56 23.6-23.61v-397.24c0-13.03-10.56-23.6-23.6-23.6" style="fill:#ccd8f5"/><g id="b" data-name="love"><path d="M1617.76 961.71h-293c-29.9 0-54.14 24.24-54.14 54.14v183.7c0 29.9 24.24 54.14 54.14 54.14h63.09c4.93 0 9.64 2.01 13.05 5.58l57.32 59.96c7.11 7.44 18.98 7.44 26.09 0l57.32-59.96c3.4-3.56 8.12-5.58 13.05-5.58h63.09c29.9 0 54.14-24.24 54.14-54.14v-183.7c0-29.9-24.24-54.14-54.14-54.14Z" style="fill:#82a1e7"/><path d="M1602.9 941.68h-293c-29.9 0-54.14 24.24-54.14 54.14v183.7c0 29.9 24.24 54.14 54.14 54.14h63.09c4.93 0 9.64 2.02 13.05 5.58l57.32 59.96c7.11 7.44 18.98 7.44 26.09 0l57.32-59.96c3.4-3.56 8.12-5.58 13.05-5.58h63.09c29.9 0 54.14-24.24 54.14-54.14v-183.7c0-29.9-24.24-54.14-54.14-54.14Z" style="fill:#98b2ec"/><path d="M1498.48 996.78c-15.83 0-30.77 6.11-42.08 17.19-11.31-11.09-26.26-17.19-42.09-17.19s-31.12 6.26-42.49 17.64c-23.03 23.04-22.55 62.45 1.06 86.06l74.26 74.26c2.47 2.47 5.76 3.83 9.26 3.83s6.79-1.36 9.26-3.83l74.27-74.26c23.61-23.61 24.09-63.02 1.06-86.06-11.37-11.37-26.46-17.64-42.5-17.64Z" style="fill:#fff"/></g><path d="M1963.68 1464.18c61.59-94.58 145.45-447.77 145.45-447.77s-80.32-186.64-151.2-66.15c-70.87 120.49-203.18 359.11-420.53 635.52-217.35 276.42-56.7 583.55-122.85 732.39l-132.9 343.7c-2.12 5.48 1.44 11.49 7.26 12.27 67.33 9 424.32 51.35 838.49-.61a9.084 9.084 0 0 0 7.94-8.66c.44-11.29 1.74-34.11 5.55-62.27 10.04-74.2 37.47-185.49 112.36-220.64 3.61-1.69 7.67-3.61 12.16-5.73.04-.02.08-.04.12-.05a4532 4532 0 0 0 11.32-5.38c155.71-74.31 681.14-339.53 812.74-676.34l-709.48-490.65c-189.76 154.48-458.07 324.32-416.43 260.37" style="fill:#c9d7f5"/><path d="m2347.74 1619.94-510.93 271.1s-246.08 214.8 56.31 321.15c302.39 106.36 752.84-160.58 752.84-160.58l-110.53-302.39-187.69-129.3Zm-342.55 807c4.36.66 140.65 22.11 135.78 160.15-.19 5.5-.22 10.66-.08 15.51 10.04-74.2 37.47-185.49 112.36-220.64 3.61-1.69 7.67-3.61 12.16-5.73-35.93 16.36-150.66 63.28-260.22 50.71" style="fill:#acc1ef"/><path d="M2042.15 338.01h890.83c29.14 0 52.79 23.66 52.79 52.79v1721.18c0 29.14-23.66 52.79-52.79 52.79h-890.83c-29.14 0-52.79-23.66-52.79-52.79V390.8c0-29.14 23.66-52.79 52.79-52.79" style="fill:#7093e4"/><path d="M2910.6 388.01h-846.09c-13.89 0-25.16 11.26-25.16 25.16V2089.6c0 13.9 11.27 25.17 25.16 25.17h846.09c13.9 0 25.16-11.27 25.16-25.17V413.17c0-13.9-11.26-25.16-25.16-25.16" style="fill:#89a6e9"/><path d="M2910.6 388.01h-846.09c-13.89 0-25.16 11.26-25.16 25.16v942.03l896.41-563.9V413.17c0-13.9-11.26-25.16-25.16-25.16" style="fill:#94aeeb"/><path d="M2910.61 2120.77h-846.09c-17.18 0-31.16-13.98-31.16-31.17V413.17c0-17.18 13.98-31.16 31.16-31.16h846.09c17.18 0 31.16 13.98 31.16 31.16V2089.6c0 17.19-13.98 31.17-31.16 31.17M2064.52 394.01c-10.56 0-19.16 8.59-19.16 19.16V2089.6c0 10.57 8.6 19.17 19.16 19.17h846.09c10.56 0 19.16-8.6 19.16-19.17V413.17c0-10.56-8.6-19.16-19.16-19.16z" style="fill:#fff"/><rect width="612.7" height="243.38" x="1646.97" y="644.83" rx="28.21" ry="28.21" style="fill:#9bb3ec"/><path d="M2195.23 689.9h-494.27c-8.02 0-14.52 6.5-14.52 14.52s6.5 14.52 14.52 14.52h494.27c8.02 0 14.52-6.5 14.52-14.52s-6.5-14.52-14.52-14.52m-194.87 59.62h-299.39c-8.02 0-14.52 6.5-14.52 14.52s6.5 14.52 14.52 14.52h299.39c8.02 0 14.52-6.5 14.52-14.52s-6.5-14.52-14.52-14.52m76.36 64.59h-375.76c-8.02 0-14.52 6.5-14.52 14.52s6.5 14.52 14.52 14.52h375.76c8.02 0 14.52-6.5 14.52-14.52s-6.5-14.52-14.52-14.52" style="fill:#fff"/><rect width="612.7" height="243.38" x="3089.59" y="958.42" rx="28.21" ry="28.21" style="fill:#90abea"/><rect width="612.7" height="243.38" x="3074.38" y="941.68" rx="28.21" ry="28.21" style="fill:#9fb7ed"/><rect width="523.31" height="29.04" x="3113.85" y="986.75" rx="14.52" ry="14.52" style="fill:#fff"/><rect width="328.43" height="29.04" x="3113.85" y="1046.37" rx="14.52" ry="14.52" style="fill:#fff"/><path d="M3504.13 1110.96h-375.76c-8.02 0-14.52 6.5-14.52 14.52s6.5 14.52 14.52 14.52h375.76c8.02 0 14.52-6.5 14.52-14.52s-6.5-14.52-14.52-14.52" style="fill:#fff"/><path d="M3272.2 469.45a33.7 33.7 0 0 0-5.97-2.49l-40.33-7.11-4.19 8.18-991.88 78.73c-17.89 1.42-31.69 16.35-31.69 34.3v574.35l-16.86 20.71 36.92 14.76c1.04.48 2.11.91 3.21 1.28l.09.04c2.64.89 5.42 1.48 8.32 1.71l1023.47 81.23c20.01 1.59 37.13-14.23 37.13-34.3V499.82c0-13.23-7.43-24.6-18.23-30.37Z" style="fill:#a4baee"/><path d="M3217.06 459.42 2193.6 540.65a34.27 34.27 0 0 0-21.07 9.45 34.27 34.27 0 0 0-10.62 24.85v578.54c0 17.95 13.79 32.89 31.69 34.31l1023.46 81.23c8.65.69 16.75-1.87 23.17-6.63 8.44-6.24 13.96-16.27 13.96-27.67V493.72c0-20.08-17.12-35.89-37.14-34.3Z" style="fill:#c3d2f4"/><path d="M3217.06 459.42 2193.6 540.65a34.27 34.27 0 0 0-21.07 9.45l1067.7 712.3c8.44-6.24 13.96-16.27 13.96-27.67V493.72c0-20.08-17.12-35.89-37.14-34.3Z" style="fill:#d5dff7"/><path d="M2988.76 959.97c-74.68-45.27-110.34-86.77-107.57-126.22 0-.01.01 0 .02 0 2.03-34.18 34.63-63.14 68.21-84.47 5.55-3.52 2.35-12.11-4.16-11.17-120.94 17.29-161.91-29.07-164.32-122.32-.16-5.87-7.67-8.17-11.07-3.39-73.41 102.75-113.9 104.5-195.99 7.07-4.09-4.84-11.95-1-10.64 5.2 20.4 96.55-42.3 134.84-140.01 128.51-6.49-.42-9.05 8.23-3.38 11.42 92.39 51.97 60.88 110.73-48.92 189.99 0 0 0 .01-.01.02-.27.27-3.75 3.99 1.19 4.67h.01c27.82-12.89 57.91-22.62 88.47-24.39h.01c6.46-.31 12.69-.19 18.62.4 56.86 5.57 87.05 53.26 49.3 161.95-2.23 6.38 6.05 11.09 10.42 5.94 91.24-107.5 166.19-120.83 217.8 7.06 2.45 6.08 11.48 4.57 11.76-1.98 6.3-145.5 90.02-163.84 215.84-137.08 6.73 1.43 10.32-7.62 4.43-11.19Z" style="fill:#a4baee"/><path d="M2969.42 951.08c-74.68-45.27-110.34-86.77-107.57-126.22 0-.01.01-.01.02 0 2.03-34.18 34.63-63.14 68.21-84.47 5.55-3.52 2.35-12.11-4.16-11.17-120.94 17.29-161.91-29.07-164.32-122.32-.16-5.87-7.67-8.17-11.07-3.39-73.41 102.75-113.9 104.5-195.99 7.07-4.09-4.84-11.95-1-10.64 5.2 20.4 96.55-42.3 134.84-140.01 128.51-6.49-.42-9.05 8.23-3.38 11.42 92.39 51.97 60.88 110.73-48.92 189.99 0 0 0 .01-.01.02-.27.27-3.75 3.99 1.19 4.67h.01c27.82-12.89 57.91-22.62 88.47-24.39h.01c6.46-.31 12.69-.19 18.62.4 56.86 5.57 87.05 53.26 49.3 161.95-2.23 6.38 6.05 11.09 10.42 5.94 91.24-107.5 166.19-120.83 217.8 7.06 2.45 6.08 11.48 4.57 11.76-1.98 6.3-145.5 90.02-163.84 215.83-137.08 6.73 1.43 10.32-7.62 4.43-11.19Z" style="fill:#98b2ec"/><path d="M3179 1176.32c-8.61-.6-17.22-1.2-25.83-1.81l-70.28-4.92c-34.65-2.42-69.29-4.85-103.94-7.27-42.11-2.95-84.22-5.89-126.33-8.84-46.11-3.23-92.22-6.45-138.33-9.68-46.71-3.27-93.41-6.54-140.11-9.8-43.54-3.05-87.09-6.09-130.64-9.14-36.79-2.57-73.57-5.15-110.36-7.72-26.36-1.84-52.71-3.69-79.07-5.53-12.49-.87-25-2.09-37.51-2.62-.54-.02-1.09-.08-1.63-.11-4.85-.34-9 4.38-9 9 0 5.15 4.13 8.66 9 9 8.61.6 17.22 1.2 25.83 1.81l70.28 4.92c34.65 2.42 69.29 4.85 103.94 7.27 42.11 2.95 84.22 5.89 126.33 8.84 46.11 3.23 92.22 6.45 138.33 9.68 46.71 3.27 93.41 6.54 140.11 9.8 43.54 3.05 87.09 6.09 130.64 9.14 36.79 2.57 73.57 5.15 110.36 7.72 26.36 1.84 52.71 3.69 79.07 5.53 12.49.87 25 2.09 37.51 2.62.54.02 1.09.08 1.63.11 4.85.34 9-4.38 9-9 0-5.15-4.13-8.66-9-9" style="fill:#537edf"/><path d="m2785.19 847.23-165.22-81.16c-13.18-6.47-28.58 3.12-28.58 17.81v162.31c0 14.69 15.4 24.28 28.58 17.81l165.22-81.16c14.79-7.26 14.79-28.35 0-35.61" style="fill:#82a1e7"/><ellipse cx="2332.86" cy="1123.23" rx="30.12" ry="49.02" style="fill:#fff"/><path d="M2332.86 1097.61c-8.69 0-15.74 11.47-15.74 25.62s7.05 25.62 15.74 25.62 15.74-11.47 15.74-25.62-7.05-25.62-15.74-25.62" style="fill:#7093e4"/><path d="m2771.49 830.74-165.22-81.16c-13.18-6.47-28.58 3.12-28.58 17.81V929.7c0 14.69 15.4 24.28 28.58 17.81l165.22-81.15c14.79-7.26 14.79-28.35 0-35.61Z" style="fill:#fff"/><path d="M2225.1 574.43c-8.48 0-15.35 9.77-15.35 21.83s6.87 21.83 15.35 21.83 15.35-9.77 15.35-21.83-6.87-21.83-15.35-21.83" style="fill:#f8fafe"/><ellipse cx="2276.22" cy="595.14" rx="16.55" ry="23.53" style="fill:#f8fafe"/><path d="M2329.47 567.89c-9.7 0-17.57 11.18-17.57 24.98s7.87 24.98 17.57 24.98 17.57-11.18 17.57-24.98-7.87-24.98-17.57-24.98" style="fill:#f8fafe"/><path d="M3083.59 1176.58c-12.28-8.19-28.21-13.26-48.84-12.19-8.42.43-20.81 2.1-28.91 4.45-54.27 15.74-378.61 117.77-418.65 230.23-11.83 33.22-12.15 59.46-3.52 79.04 22.28 50.62 104.32 56.81 202.04 24.23 135.54-45.18 354.98-100.04 338.84-248.48 0 0-4.1-52.72-40.96-77.28" style="fill:#acc1ef"/><path d="M3083.59 1176.58c-12.28-8.19-28.21-13.26-48.84-12.19-8.42.43-20.81 2.1-28.91 4.45-54.27 15.74-378.61 117.77-418.65 230.23-11.83 33.22-12.15 59.46-3.52 79.04 36.83 22.42 101.97 20.02 176.14-4.7 135.53-45.18 354.97-100.04 338.84-248.48 0 0-1.93-24.83-15.06-48.35" style="fill:#c9d7f5"/><path d="M3129.29 1413.87c-11.06-16-29.15-29.43-58.61-27.9-7.1.37-17.54 1.79-24.36 3.79-45.75 13.41-319.15 100.3-352.9 196.08-7.5 21.28-9.51 39.19-6.95 53.86 9.62 55.24 84.01 64.49 174.29 34.08 114.25-38.47 299.22-85.19 285.62-211.61 0 0-2.04-26.52-17.09-48.3" style="fill:#acc1ef"/><path d="M3129.29 1413.87c-11.06-16-29.15-29.43-58.61-27.9-7.1.37-17.54 1.79-24.36 3.79-45.75 13.41-319.15 100.3-352.9 196.08-7.5 21.28-9.51 39.19-6.95 53.86 26.63 30.1 88.95 31.28 161.52 6.84 114.25-38.47 299.22-85.19 285.62-211.61 0 0-.7-9.12-4.32-21.06" style="fill:#c9d7f5"/><path d="M3133.62 1612.52c-9.32-15-25.26-28.31-52.38-26.89-6.12.31-15.12 1.54-21 3.26-39.43 11.56-275.05 86.44-304.14 168.99-6.43 18.25-8.18 33.63-6.02 46.23 8.15 47.78 72.34 55.8 150.24 29.56 98.46-33.16 257.88-73.42 246.16-182.37 0 0-1.59-20.63-12.86-38.78" style="fill:#acc1ef"/><path d="M3133.62 1612.52c-9.32-15-25.26-28.31-52.38-26.89-6.12.31-15.12 1.54-21 3.26-39.43 11.56-275.05 86.44-304.14 168.99-6.43 18.25-8.18 33.63-6.02 46.23 22.03 27.72 76.76 29.28 140.75 7.73 98.46-33.16 257.88-73.43 246.16-182.38 0 0-.56-7.25-3.37-16.94" style="fill:#c9d7f5"/><path d="m2457.76 1329.99-704.9-67.98 1.77-5.26-27.33 3.29c-15.02 1.3-27.04 13.92-27.04 29.53v638.26c0 17.29 14.74 30.91 31.98 29.55l725.52-69.97c15.41-1.22 27.29-14.09 27.29-29.55v-498.32c0-15.46-11.88-28.32-27.29-29.55" style="fill:#82a1e7"/><path d="m2484.8 1326.72-725.52-69.97c-17.24-1.37-31.98 12.25-31.98 29.55v638.26c0 17.29 14.74 30.91 31.98 29.55l725.52-69.97c15.41-1.22 27.29-14.09 27.29-29.55v-498.32c0-15.46-11.88-28.32-27.29-29.55" style="fill:#f8fafe"/><path d="m2483.22 1346.66-725.64-69.98c-.23-.01-.45-.02-.68-.02-5.29 0-9.6 4.32-9.6 9.64v638.26c0 3.55 1.92 6.65 4.77 8.32 1.42.84 3.07 1.32 4.83 1.32.22 0 .45 0 .68-.02l725.64-69.98c4.97-.39 8.87-4.61 8.87-9.61v-498.32c0-4.99-3.89-9.21-8.87-9.61" style="fill:#98b2ec"/><path d="M1756.89 1276.66c-5.29 0-9.6 4.32-9.6 9.64v638.26c0 3.55 1.92 6.65 4.77 8.32l731.15-586.22-725.64-69.98c-.23-.01-.45-.02-.68-.02" style="fill:#acc1ef"/><path d="m2123.97 1502.42-54.4-2.8c-5.05-.26-9.17 3.33-9.17 8.01v198.95c0 4.68 4.11 8.27 9.17 8.01l54.4-2.8c4.77-.25 8.62-4.11 8.62-8.63v-192.1c0-4.52-3.85-8.39-8.62-8.63Zm93.39 4.81-49.45-2.55c-4.59-.24-8.32 3.19-8.32 7.65v189.54c0 4.46 3.73 7.89 8.32 7.65l49.45-2.55c4.34-.22 7.85-3.9 7.85-8.22v-183.31c0-4.32-3.51-8-7.85-8.22Z" style="fill:#82a1e7"/><path d="m2136.92 1490.85-54.4-2.8c-5.05-.26-9.17 3.33-9.17 8.01v198.95c0 4.69 4.11 8.27 9.17 8.01l54.4-2.8c4.77-.25 8.62-4.11 8.62-8.63v-192.1c0-4.52-3.85-8.39-8.62-8.63Zm93.39 4.81-49.45-2.55c-4.59-.24-8.32 3.19-8.32 7.65v189.54c0 4.46 3.73 7.89 8.32 7.65l49.45-2.55c4.34-.22 7.85-3.9 7.85-8.22v-183.31c0-4.32-3.51-8-7.85-8.22Z" style="fill:#fff"/><path d="M2467.97 1798.11c-6.21.5-12.43 1.01-18.64 1.51l-50.72 4.11c-25.01 2.02-50.01 4.05-75.02 6.07l-91.52 7.41c-33.41 2.7-66.82 5.41-100.24 8.11l-101.16 8.19c-31.33 2.54-62.67 5.07-94 7.61l-79.71 6.45c-19.05 1.54-38.1 3.08-57.15 4.63-9.07.73-18.15 1.41-27.22 2.2-.39.03-.78.06-1.18.1-4.84.39-9 3.86-9 9 0 4.57 4.13 9.39 9 9 6.21-.5 12.43-1.01 18.64-1.51l50.72-4.11c25.01-2.02 50.01-4.05 75.02-6.07l91.52-7.41c33.41-2.7 66.82-5.41 100.24-8.11l101.16-8.19c31.33-2.54 62.67-5.07 94-7.61l79.71-6.45c19.05-1.54 38.1-3.08 57.15-4.63 9.07-.73 18.15-1.42 27.22-2.2.39-.03.78-.06 1.18-.1 4.84-.39 9-3.86 9-9 0-4.57-4.13-9.39-9-9" style="fill:#537edf"/><ellipse cx="1897.32" cy="1849.85" rx="30.12" ry="49.02" style="fill:#fff"/><ellipse cx="1897.32" cy="1849.85" rx="15.74" ry="25.62" style="fill:#98b2ec"/><path d="M2599.35 2672.13c.7-44.7 7.1-91.79 7.1-91.79s-123.93-71.05-157.19-39.48c-15.47 14.69-31.37 39.29-45.73 65.65-29.11 53.4-51.89 114.03-51.89 114.03h250.24c-2.2-13.79-2.8-30.91-2.53-48.4Z" style="fill:#ccd8f5"/><path d="M2351.64 2720.55h250.24v30.05h-250.24z" style="fill:#98b2ec"/><path d="M2476.76 2637.5c-69.1 0-101.23 25.26-125.12 83.05h250.24c-20.31-56.37-56.02-83.05-125.12-83.05" style="fill:#eff3fc"/><path d="M2449.26 2540.86c-15.47 14.69-31.37 39.29-45.73 65.65 0 0 140.55-23.51 195.82 65.62.7-44.7 7.1-91.79 7.1-91.79s-123.93-71.05-157.19-39.48" style="fill:#a4baee"/><path d="M3708.33 1241.86c-15.82 1.47-29.04 10.76-36.17 23.7a46.4 46.4 0 0 0-3.72 8.79c-13.79 39.62-17.02 82.16-9.26 123.39 1.39 7.41 2.82 13.95 4.19 18.62 6.52 22.2 46.18 23.8 46.18 23.8l-1.17-51.35-11.12-36.37 11.73-18.59c2.58.2 5.21.19 7.88-.06l100.78-7.86-8.53-91.92-100.78 7.86Z" style="fill:#98b2ec"/><path d="M3912.69 1186.31s-41.38 35.65-96.97 47.21c-4.41.93-8.99 1.76-13.78 2.52 0 0-1.92-.03-2.87.27-15.11 4.35-23.55 22.61-21.23 47.57s15.57 44.1 29.61 42.8l.36-.03c5.03-.47 10.21-.79 15.42-1.02.06.05.05 0 .05 0 36.73-1.39 68.46 18.18 98.76 32.18 0 0 64.99-100.8-9.35-171.49Z" style="fill:#9bb3ec"/><path d="M3801.94 1236.05s-1.92-.03-2.87.27c-15.11 4.35-23.55 22.61-21.23 47.57s15.57 44.1 29.61 42.8c-23.12-24.43-19.01-50.02-13.26-64.99a22.64 22.64 0 0 1 18.12-14.33c80.28-10.72 100.38-61.05 100.38-61.05s-41.38 35.65-96.97 47.21c-4.41.93-8.99 1.76-13.78 2.52" style="fill:#7e9ee7"/><ellipse cx="3955.87" cy="1272.98" rx="62.3" ry="109.1" style="fill:#5881e0" transform="rotate(-5.3 3955.673 1272.934)"/><path d="M4000.8 1275.44c-.14-2.17-.32-4.37-.52-6.57-4.65-50.11-24.82-89.2-45.07-87.33-8.03.74-14.85 7.81-19.89 19.19-.27.63-.55 1.27-.82 1.92-2.12 5.19-3.88 11.18-5.24 17.82-3.21 15.6-4.2 34.72-2.3 55.19 1.82 19.73 6.06 37.76 11.79 52.24 2.75 7.03 5.86 13.21 9.2 18.37 7.27 11.22 15.67 17.51 24.08 16.73 19.34-1.8 31.75-40.36 28.75-87.5v-.05Z" style="fill:#9bb3ec"/><path d="M3955.21 1181.53c-8.03.74-14.85 7.81-19.89 19.19 0 0 48-14.5 65.46 74.72s0 0 0-.02c-.14-2.17-.32-4.37-.52-6.57-4.65-50.11-24.82-89.2-45.07-87.33Z" style="fill:#7e9ee7"/><path d="M3807.45 1326.68c-14.04 1.3-27.3-17.84-29.61-42.8-2.32-24.96 6.12-43.22 21.23-47.57.96-.3 2.87-.27 2.87-.27 4.79-.75 9.37-1.59 13.78-2.52-5.72-4.28-12.12-6.42-18.69-5.81-19.38 1.8-32.85 27.04-30.14 56.3 2.72 29.32 20.61 51.65 39.99 49.85 6.15-.57 11.72-3.52 16.35-8.24-5.2.22-10.39.55-15.42 1.02l-.36.03Z" style="fill:#5881e0"/><path d="M3949.94 1235.96c-7.23.64-11.62 17.75-9.81 38.23s9.13 36.55 16.36 35.91 11.62-17.75 9.81-38.23c-1.81-20.47-9.13-36.55-16.36-35.91" style="fill:#98b2ec"/><path d="M3940.13 1274.19c-1.81-20.48 2.58-37.6 9.81-38.23l-20.67-15.49c-3.21 15.6-4.2 34.72-2.3 55.19 1.83 19.73 6.07 37.76 11.79 52.24l17.73-17.79c-7.22.64-14.55-15.45-16.35-35.91Z" style="fill:#f8fafe"/><path d="M3762.32 1255.33c.54-1.74-.86-3.47-2.67-3.33l-55.55 4.35c-6.77.53-12.69 4.77-15.34 11.03-8.52 20.13.64 36.41 7.96 45.23 3.8 4.58 9.61 6.99 15.54 6.49l53.28-4.53c1.89-.16 2.97-2.23 2.02-3.87-13.22-22.57-7.97-46.45-5.23-55.36Z" style="fill:#ccd8f5"/><path d="m3757.62 1252.35-59.48 4.66c-6.77.53-12.69 4.77-15.34 11.03-8.52 20.13.64 36.41 7.96 45.23 3.8 4.58 9.61 6.99 15.54 6.49l57.51-4.89c-19.96-29.41-6.19-62.51-6.19-62.51Z" style="fill:#f8fafe"/><path d="M3729.41 1263.07c.45-1.47-.72-2.94-2.26-2.82a3.03 3.03 0 0 0-2.34 2c-2.13 6.28-8.27 28.88 4.91 49.72a2.6 2.6 0 0 0 2.41 1.2c1.59-.14 2.52-1.89 1.71-3.27-11.19-19.1-6.75-39.29-4.43-46.84Zm-17.58 2.15c.45-1.47-.72-2.94-2.26-2.82a3.03 3.03 0 0 0-2.34 2c-2.13 6.28-8.27 28.88 4.91 49.73a2.6 2.6 0 0 0 2.41 1.2c1.59-.14 2.52-1.89 1.71-3.27-11.19-19.1-6.75-39.29-4.43-46.84" style="fill:#98b2ec"/><path d="M3742.71 1262.83h-1.52v.55c-1.3.99-2.2 3.21-2.22 5.8-.01 2.66.92 4.95 2.27 5.91v.47h1.4c2.04.01 3.71-2.83 3.73-6.35s-1.62-6.38-3.67-6.39Z" style="fill:#a4baee"/><path d="M3741.32 1262.82c-2.04-.01-3.72 2.83-3.73 6.35-.02 3.52 1.62 6.38 3.67 6.39 2.04.01 3.71-2.83 3.73-6.35s-1.62-6.38-3.67-6.39" style="fill:#c3d2f4"/><path d="m3742.77 1285.5-1.49.28.11.54c-1.08 1.22-1.56 3.57-1.08 6.12.49 2.62 1.85 4.68 3.35 5.37l.09.46 1.37-.26c2.01-.38 3.11-3.49 2.46-6.94-.65-3.46-2.8-5.95-4.81-5.58Z" style="fill:#6e92e4"/><path d="M3741.4 1285.76c-2.01.38-3.11 3.48-2.46 6.94s2.8 5.95 4.81 5.58c2.01-.38 3.11-3.48 2.46-6.94s-2.8-5.95-4.81-5.58" style="fill:#9fb7ed"/><path d="M3729.36 1399.93c-.8-.33-1.63-.62-2.5-.85-2.42-.64-3.96-3.87-5.32-8.22-2.41-7.71-4.26-18.94-9.4-25.39-.79-.99-1.66-1.87-2.62-2.61a11.6 11.6 0 0 1-3.32-4.01c-4.81-9.53 2.78-25.02 2.78-25.02s-22.89-.93-24.37 17.78-3.05 18.51 10 34.02c13.04 15.5-12.3 63.17 30.73 54.08 0 0 28.45-4.36 15.27-30.71 0 0-4.37-6.21-11.24-9.07Z" style="fill:#98b2ec"/><path d="m3703.48 1339.18 4.55 17.19 2.48-.32a3.854 3.854 0 0 0 3.34-4.1c-.37-4.78.41-13.5 8.95-20.87l-8.54 2.28z" style="fill:#b1c4f0"/><path d="M3695.65 1336.39c-3.71 7.62-3.67 13.24-2.79 16.87a5.816 5.816 0 0 0 6.5 4.38l8.66-1.27c-3.18-16.16 6.23-23.01 6.23-23.01l-8.93-6.29-9.68 9.32Z" style="fill:#e9eefb"/><path d="M3721.54 1390.86c-13.64 4.25-15.41 16.4-15.41 16.4 10.54-8.56 23.23-7.33 23.23-7.33-.8-.33-1.63-.62-2.5-.85-2.42-.64-3.96-3.87-5.32-8.22m-12.02-28a11.6 11.6 0 0 1-3.32-4.01c-9.21 3.21-12.76 10.72-12.76 10.72 11.7-8.58 18.53-4.22 18.7-4.11-.79-.99-1.66-1.87-2.62-2.61Z" style="fill:#7b9ce6"/><path d="m3745.68 1327.57-18.36 1.43c-12.44-9.82-31.22-7.49-31.22-7.49s-4.04-2-35.49 7.52c-32.03 9.69-21.81 68.41-21.81 68.41l-69.12 178.83-8.68 3.47-74.87 29.92-9.35 12.49 18.01 65.58 25.31 3.2 93.98-43.24 24.57-42.26 96.19-165.42c9.26-8.77 16.12-20.07 20.68-32.3l.11-.3c22.63-57.54-9.96-79.84-9.96-79.84Z" style="fill:#c9d7f5"/><path d="M3718.78 1429.66c-48.96-25.5-22.22-73.65-22.22-73.65 10.61-.72 23.61-3.31 31.09-11.01 14.23-14.63-11-21.36-11-21.36 30.19 26.81-37.35 32.19-37.35 32.19-11.33 47.22 14.58 65.16 30.41 71.59-.22-.09-.46-.14-.72-.23.73.32 15.47 7.02 7.16 26.38l-90.47 151.86-19.67 35.7-111.22 46.6 25.31 3.2 93.98-43.24 24.57-42.26 96.19-165.42c9.26-8.77 16.13-20.07 20.69-32.3-2.7 6.56-12.69 25.4-36.75 21.95" style="fill:#acc1ef"/><path d="M3561 1579.74c-2.21 25.07 8.68 33.15 8.68 33.15-2.74-21.12 0-36.62 0-36.62z" style="fill:#acc1ef"/><path d="M3530.98 2750.33c-7.08-10.4-14.68-20.38-22.84-29.79-28.24-32.59-63.02-58.24-104.96-70.09l-41.59-11.74-118.48-26.42c-26.96-6.01-53.23 12.53-56.6 39.94l-8.41 68.3-3.7 30.05h356.95q-.21 0-.39-.27Z" style="fill:#ccd8f5"/><path d="M3530.98 2750.33c-7.08-10.4-14.68-20.38-22.84-29.79-28.24-32.59-63.02-58.24-104.96-70.09 0 0-69.28 23.95-31.04 100.14h159.22q-.21 0-.39-.27Z" style="fill:#eff3fc"/><path d="M3530.98 2750.33c-7.08-10.4-14.68-20.38-22.84-29.79h-330.03l-3.7 30.05h356.95q-.21 0-.39-.27Z" style="fill:#98b2ec"/><path d="M3466.8 2174.37c-45.14-31.58-122.87-85.95-122.91-85.98l-250.4 13s-596.6 366.78-694.28 474.4c-3.09 3.4-.19 8.8 4.35 8.13 33.55-4.96 125.06-11.77 176.81 50 7.26 8.67 13.73 18.68 19.16 30.25l432.4-317.54c42.28-22.24 76.26-53.99 131.75-65.94 96.63-23.8 103.4 5.45 181.57 45.07l-170.83 324.7s82.8 53 229.66-6.76c.01-.06 76.34-193.16 112.75-282.69 15.5-39.96 13.54-28.98 22.35-58.5 13.38-73.64-33.18-101.64-72.38-128.14" style="fill:#9bb3ec"/><path d="m3486.13 1609.66-85.88 17.06-10.44 2.07-77.64 14.09s-3.81 1.35-10.56 4.2c-23.55 9.94-82.94 38.1-141.86 90.68 0 0 49.74 11.42 44.03 92.13-.73 1.79-95.48 229.25-120.65 269.85 0 0 14.13 8.25 39.75 16.06 47.28 14.41 133.69 27.3 242.51-16.06 0 0 28-168.78 56.1-285.09 9.99-41.3 19.98-75.99 28.74-94.15l69.88-29.57s-43.76-5.36-33.97-81.27Z" style="fill:#5881e0"/><path d="M3203.76 1829.9c-.73 1.78-95.48 229.24-120.65 269.84 0 0 14.13 8.25 39.75 16.06l133.33-336.99-52.42 51.08Zm209.18-17.53s3.57.95 8.53 2.28c9.99-41.3 19.98-75.99 28.74-94.15l69.88-29.57-82.4 25.77zm-23.13-183.58-77.64 14.09s-3.81 1.35-10.56 4.2c0 0 38.99 39.88 75.23 30.56 25.19-6.48 25.54-34.45 23.41-50.92z" style="fill:#2057d5"/><path d="M3452.56 1744.15c-11.41 1.58-21.03 1.95-29.35 2.1-26.53.48-39.83-1.36-55.45 26.04l-163.99 57.6s2.23-11.84 1.35-27.17c-1.34-23.53-10.02-55.28-45.38-64.96 0 0-63.2 50.74-66.14 140.38s48.9 75.42 123.11 55.58 177.34-54.66 177.34-54.66 66.46 1.07 93.14-15.12c4.55-2.76 7.94-6.02 9.65-9.87 11.76-26.45 3.48-116.53-44.28-109.92" style="fill:#c9d7f5"/><path d="m3164.58 1843.15 39.2-13.26s2.23-11.84 1.35-27.17zm287.98-99c-11.41 1.58-21.03 1.95-29.35 2.1 0 0-26.48 9.32-18.77 11.38 7.72 2.06 37.54-8.74 53.22-7.71s52.38 59.88 29.53 114.01c4.55-2.75 7.94-6.01 9.65-9.86 11.76-26.45 3.48-116.53-44.28-109.92" style="fill:#acc1ef"/><path d="m3066.33 2286.34-485.96 347.58c7.26 8.67 13.73 18.68 19.16 30.25l432.4-317.54c42.28-22.24 76.26-53.99 131.75-65.94 96.63-23.8 103.4 5.45 181.57 45.07l13.36-23.3-57-37.16c-123.78-67.08-235.28 21.04-235.28 21.04" style="fill:#7e9ee7"/><path d="m3418.32 1423.69-77.64-14.45-49.6 101.01s-37.26-17.01-40.86 22.98c-1.68 18.82 11.1 30.06 23.88 36.53.05 0 .06.04.11.04 1.99.99 3.98 1.93 5.89 2.67 5.8 2.38 11.11 3.78 14.43 4.53 2.28.5 4.07 2.21 4.68 4.49 2.91 10.41 10.86 40.25 12.96 61.37 23.15 18.35 39.63 25.26 51.3 26.4 14.76 1.44 27.31-10.72 26.84-25.54l-.96-30.37c59.48-4.31 47.33-115.45 47.33-115.45z" style="fill:#c9d7f5"/><path d="M3340.9 1590.3s1.11 31.26 48.95 38.72l-.5-15.61c-6.66.55-29.26.63-48.45-23.11m-56.57-58.44c.02-.07.04-.15.05-.22 1.27-5.3-5.05-9.36-9.37-6.05-3.59 2.76-6.23 8.13-1.88 18.57 8.45 20.29 18.77 9.69 17.13 3.4s-7.79-8.31-5.93-15.71Z" style="fill:#acc1ef"/><path d="M3364.6 1493.83c-3.41.71-6.6 2.37-9.12 4.78-2.47 2.37-4.69 5.45-4.7 9.02 0 1.69.82 3.25 2.67 3.5 1.51.2 3.5-.98 3.5-2.67.01-4.08 4.7-7.67 8.48-8.46 2.16-.45 3.96-.25 5.81.62 1.57.74 2.81 2 3.48 3.58 1.57 3.69 7.3 1.25 5.73-2.44-2.57-6.03-9.53-9.24-15.85-7.92Zm51.26-9.39c-6.38.53-11.11 6.33-13 12.06-.53 1.6.03 3.38 1.68 4.07 1.47.61 3.54-.08 4.07-1.68 1.23-3.73 3.92-7.8 7.72-8.25 3.29-.39 8.16 1.68 9.52 4.79.67 1.55 2.52 2.31 4.08 1.64 1.54-.65 2.31-2.55 1.64-4.09-2.5-5.72-9.69-9.05-15.71-8.55Zm2.83 22.26c-3.04.41-4.97 4.67-4.31 9.51.65 4.84 3.64 8.43 6.68 8.02s4.97-4.67 4.31-9.51c-.65-4.84-3.64-8.43-6.68-8.02m-50.44 6.32c-3.2.43-5.24 4.92-4.55 10.03s3.84 8.9 7.05 8.46c3.2-.43 5.24-4.92 4.55-10.03s-3.84-8.9-7.05-8.46" style="fill:#3d6dda"/><path d="m3412.64 1560.18-36.7.15c-2.25 0-3.93 2.09-3.41 4.28 1.91 8.01 7.7 24.4 23.12 23.31 15.36-1.09 19.42-16.36 20.49-23.78.3-2.11-1.37-3.97-3.49-3.97Z" style="fill:#92adea"/><path d="M3280.09 1572.47c5.8 2.38 11.11 3.78 14.43 4.53 0 0 13.33-.64 13.78-13.32-.74 1.26-8.74 14.15-28.21 8.79m101.33-176.12-68.74 5.42-27.1 30.11-24.7 43.65 32.32 37.64s29.53 21.04 59.26-25.99c0 0 15.42-24.58 18.64-40.26 2.56-12.44 12.29 2.06 12.16 7.51 0 0 6.22-30.86 21.92-6.39 0 0 4.29 5.35 16.97 37.99l-1.25-64.13-39.47-25.55Z" style="fill:#acc1ef"/><path d="M3224.86 1384.3c-9.76-2.42-9.05 14.29 10.75 27.55.93.62 2.19-.18 2.02-1.28-1.11-6.91-4.67-24.27-12.77-26.27m7.51 31.31c-4.72-2.01-16.86-6.58-21.27-2.35-5.31 5.1 5.32 11.19 21.28 4.1.75-.33.75-1.43 0-1.75Z" style="fill:#517cde"/><path d="M3457.09 1461.48c-6.02-29.29 6.81-49.67-19.64-62.43 0 0-27.43-55.35-64.9-23.96 0 0-39.76-27.6-85.09-9.72-45.37 17.94-46.45 54.97-46.45 54.97s-45.04 27.84 6.48 91.2c2.11 2.63 4.44 5.33 6.92 8.06 0 0 8.52-22.51 37.18-7.18 26.92 14.36 71.01-35.42 72.69-69.47.28-6.12 6.28-10.8 11.94-8.35 2.61 1.1 5.25 3.56 7.39 8.2 0 0 4.06-20.95 20.83-2.81 16.72 18.15 11.53 56.39 33.43 66.7 17.45 8.25 23.11-6.79 21.69-28.11-.42-5.37-1.26-11.19-2.46-17.11Z" style="fill:#517cde"/><path d="M3459.49 1478.54s-5.26 28.05-21.13 15.47c-15.93-12.63-26.36-104.04-55.22-62.4 0 0-19.72-23.22-26.04 9.65s-41.9 64.11-61.08 56.09c-19.17-7.97-44.84-.08-47.91 12.2-.17.63-.38 1.31-.64 2 2.11 2.63 4.44 5.33 6.92 8.06 0 0 8.52-22.51 37.18-7.18 26.92 14.36 71.01-35.42 72.69-69.47.28-6.12 6.28-10.8 11.94-8.35 2.61 1.1 5.25 3.56 7.39 8.2 0 0 4.06-20.95 20.83-2.81 16.72 18.15 11.53 56.39 33.43 66.7 17.45 8.25 23.11-6.79 21.69-28.11l-.06-.04Z" style="fill:#3969da"/><path d="M3276.74 1484.06c57.59-6.49 62.45-61.93 62.45-61.93-22.71 43.25-62.45 61.93-62.45 61.93m-35.09-51.3s-20.96 18.39 5.11 58.34c0 0-13.65-31.62-5.11-58.34m135.13-49.25c35.69-8.95 53.06 19.11 53.06 19.11-24.03-44.58-53.06-19.11-53.06-19.11m-125.35 32.9c33.78-42.85 98.86-36.34 98.86-36.34-74.79-19.82-98.86 36.34-98.86 36.34" style="fill:#3969da"/></svg>