<svg xmlns="http://www.w3.org/2000/svg" viewBox="0 0 1024 1024">
  <path d="M872,0H152C69.2,0,0,69.2,0,152v720c0,82.8,69.2,152,152,152h720c82.8,0,152-69.2,152-152V152C1024,69.2,954.8,0,872,0Z" style="fill: #0078d4;"/>
  <path d="M380.01,527.33c-1.25,5.6-2.5,14.54-3.8,26.84l-1.06,8.08h-.77c-.62-9.06-2.42-20.28-5.52-33.65l-30.61-133.15h-59.01v218.67h34.89v-115.93c0-19.97-.52-40.31-1.51-60.8h1.21l5.91,38.74,33.42,137.99h38.45l31.86-140c3.03-15.2,5.17-27.5,6.54-36.73h.93c-1.02,22.06-1.55,38.53-1.55,49.53v127.21h36.12v-218.67h-56.7l-28.81,131.88ZM689.54,539.54h17.55c20.83,0,37.57-7.03,50.3-21.04,12.7-14.09,19.07-31.83,19.07-53.4,0-22.67-5.78-39.93-17.39-51.85-11.47-11.84-27.63-17.81-48.47-17.81h-63.11v218.67h42.05v-74.57ZM689.54,432.08h14.04c8.63,0,15.67,2.92,21.06,8.79,5.35,5.83,8.05,14.69,8.05,26.46,0,23.97-9.53,35.96-28.67,35.96h-14.49v-71.21ZM533.82,614.11h45l55.8-218.67h-42.4l-30.33,143.29c-1.42,7.97-2.54,15.54-3.21,22.72l-.79,5.81h-1.04c-.67-11.18-1.86-20.42-3.38-27.73l-30.33-144.1h-43.62l54.28,218.67ZM512.12,874.49L149.51,511.9,511.88,149.51l362.61,362.62-362.37,362.36Z" style="fill: #fff;"/>
</svg>