<svg xmlns="http://www.w3.org/2000/svg" width="100" height="100" viewBox="-18 -18 100 100"><circle cx="32" cy="32" r="50" fill="#0daaff"/><path fill="#fff" d="M64.181 47.731a2 2 0 0 0-.019-.168q-.014-.07-.033-.133c-.014-.05-.026-.098-.045-.145a2 2 0 0 0-.131-.26q-.037-.055-.08-.109a1.2 1.2 0 0 0-.201-.212q-.054-.049-.115-.095c-.061-.046-.088-.057-.134-.082-.028-.016-.055-.037-.086-.053l-6.411-3.08c-.382-9.188-5.994-27.223-18.302-34.353 1.964-1.207 3.255-3.222 3.255-5.503a1.5 1.5 0 0 0-1.5-1.5c-5.576 0-11.507 1.286-13.085 4.063C19.004 6.29 9.95 11.163.255 20.717l-.001.002c-.14.138-.253.304-.33.489l-.003.011a1.5 1.5 0 0 0-.109.544l-.001.015-.001.007c0 .188.039.365.101.53l.01.033c.074.182.183.346.316.484l.004.006.002.001a1.5 1.5 0 0 0 1.044.443l.016.001.007.001c8.913 0 15.767.554 21.407 1.907.007 1.007.405 2.323 1.555 4.033 1.318 1.962 3.495 4.261 6.125 6.472l.002.002h.001c.043.037.095.052.141.082a1.5 1.5 0 0 0 .823.271c.428 0 .853-.182 1.15-.534q.007-.014.018-.027c1.152-1.387 1.509-3.426.973-5.601-.031-.13-.074-.258-.111-.387 5.69 3.504 10.314 8.736 15.776 16.273l-3.735 5.606a1.499 1.499 0 0 0 1.246 2.332c.073 0 .145-.017.217-.026l.006.002c.017 0 .033-.008.05-.008.032-.007.065-.007.099-.016.243-.023.485-.094.702-.242 3.843-2.648 10.429-4.064 14.947-4.096a1.4 1.4 0 0 0 .364-.053l.086-.027q.148-.047.277-.122c.023-.013.047-.022.069-.038q.155-.1.284-.234l.048-.061q.105-.124.183-.271c.01-.017.022-.027.03-.045l.013-.035q.031-.075.057-.152.023-.068.039-.135.015-.065.021-.133.015-.084.017-.168c0-.013.004-.022.004-.035zM18.003 17.785c-.438.048-.886.025-1.318.003-.289-.016-.742-.039-.981-.007a1.5 1.5 0 0 1-1.889.463 1.5 1.5 0 0 1-.669-2.013c.797-1.592 2.608-1.498 3.694-1.44.313.016.637.033.829.012.824-.092 1.565.5 1.657 1.324a1.5 1.5 0 0 1-1.323 1.658m7.945 8.315c.799.259 1.581.533 2.333.834q.087.109.196.202c.994.835 1.784 2.133 2.113 3.472.123.499.155.958.14 1.386-2.913-2.691-4.279-4.73-4.782-5.894m8.601-18.889a21 21 0 0 0-2.941-.77c1.411-.588 3.69-1.167 6.837-1.342-.698 1.212-2.171 2.058-3.896 2.112M61.11 61.96c-3.199 0-4.889-.675-6.381-1.271-1.418-.566-2.645-1.057-5.269-1.057s-3.849.489-5.267 1.057c-1.491.597-3.182 1.271-6.383 1.271-3.199 0-4.888-.675-6.376-1.271-1.417-.566-2.643-1.057-5.264-1.057-2.623 0-3.848.489-5.266 1.057-1.49.597-3.179 1.271-6.379 1.271s-4.887-.675-6.376-1.271c-1.418-.566-2.644-1.057-5.264-1.057a1.5 1.5 0 1 1 0-3c3.198 0 4.888.676 6.378 1.271 1.417.566 2.642 1.057 5.263 1.057 2.623 0 3.848-.488 5.266-1.057 1.49-.596 3.18-1.271 6.379-1.271s4.888.676 6.377 1.271c1.418.566 2.643 1.057 5.264 1.057 2.625 0 3.851-.488 5.27-1.057 1.49-.596 3.18-1.271 6.38-1.271 3.201 0 4.892.676 6.382 1.271 1.42.566 2.646 1.057 5.268 1.057a1.5 1.5 0 1 1-.002 3"/></svg>