<svg height="100" viewBox="-18 -18 100 100" width="100" xmlns="http://www.w3.org/2000/svg"><circle cx="32" cy="32" fill="#0daaff" r="50"/><g fill="#fff"><path d="M64.181 47.731a1.541 1.541 0 0 0-.019-.168c-.009-.047-.021-.09-.033-.133-.014-.05-.026-.098-.045-.145a1.894 1.894 0 0 0-.131-.26c-.024-.037-.052-.073-.08-.109a1.202 1.202 0 0 0-.201-.212c-.037-.032-.074-.065-.115-.095s-.088-.057-.134-.082c-.028-.016-.055-.037-.086-.053l-6.411-3.08c-.382-9.188-5.994-27.223-18.302-34.353 1.964-1.207 3.255-3.222 3.255-5.503a1.5 1.5 0 0 0-1.5-1.5c-5.576 0-11.507 1.286-13.085 4.063C19.004 6.29 9.95 11.163.255 20.717l-.001.002c-.14.138-.253.304-.33.489l-.003.011a1.512 1.512 0 0 0-.109.544l-.001.015-.001.007c0 .188.039.365.101.53l.01.033c.074.182.183.346.316.484.002.001.002.004.004.006l.002.001a1.492 1.492 0 0 0 1.044.443l.016.001.007.001c8.913 0 15.767.554 21.407 1.907.007 1.007.405 2.323 1.555 4.033 1.318 1.962 3.495 4.261 6.125 6.472l.002.002h.001c.043.037.095.052.141.082a1.5 1.5 0 0 0 .823.271c.428 0 .853-.182 1.15-.534.006-.009.01-.019.018-.027 1.152-1.387 1.509-3.426.973-5.601-.031-.13-.074-.258-.111-.387 5.69 3.504 10.314 8.736 15.776 16.273l-3.735 5.606a1.499 1.499 0 0 0 1.246 2.332c.073 0 .145-.017.217-.026l.006.002c.017 0 .033-.008.05-.008.032-.007.065-.007.099-.016.243-.023.485-.094.702-.242 3.843-2.648 10.429-4.064 14.947-4.096a1.41 1.41 0 0 0 .364-.053c.029-.008.058-.019.086-.027.099-.031.19-.072.277-.122.023-.013.047-.022.069-.038.104-.066.198-.146.284-.234l.048-.061c.069-.083.132-.173.183-.271.01-.017.022-.027.03-.045.006-.012.008-.023.013-.035.022-.049.039-.102.057-.152.015-.045.029-.09.039-.135.011-.043.016-.088.021-.133.009-.057.017-.111.017-.168 0-.013.004-.022.004-.035a.568.568 0 0 1-.013-.087zM18.003 17.785c-.438.048-.886.025-1.318.003-.289-.016-.742-.039-.981-.007a1.502 1.502 0 0 1-1.889.463 1.499 1.499 0 0 1-.669-2.013c.797-1.592 2.608-1.498 3.694-1.44.313.016.637.033.829.012.824-.092 1.565.5 1.657 1.324a1.498 1.498 0 0 1-1.323 1.658zm7.945 8.315c.799.259 1.581.533 2.333.834.058.072.123.14.196.202.994.835 1.784 2.133 2.113 3.472.123.499.155.958.14 1.386-2.913-2.691-4.279-4.73-4.782-5.894zm8.601-18.889a21.218 21.218 0 0 0-2.941-.77c1.411-.588 3.69-1.167 6.837-1.342-.698 1.212-2.171 2.058-3.896 2.112zM61.11 61.96c-3.199 0-4.889-.675-6.381-1.271-1.418-.566-2.645-1.057-5.269-1.057-2.623 0-3.849.489-5.267 1.057-1.491.597-3.182 1.271-6.383 1.271-3.199 0-4.888-.675-6.376-1.271-1.417-.566-2.643-1.057-5.264-1.057-2.623 0-3.848.489-5.266 1.057-1.49.597-3.179 1.271-6.379 1.271-3.199 0-4.887-.675-6.376-1.271-1.418-.566-2.644-1.057-5.264-1.057a1.5 1.5 0 1 1 0-3c3.198 0 4.888.676 6.378 1.271 1.417.566 2.642 1.057 5.263 1.057 2.623 0 3.848-.488 5.266-1.057 1.49-.596 3.18-1.271 6.379-1.271s4.888.676 6.377 1.271c1.418.566 2.643 1.057 5.264 1.057 2.625 0 3.851-.488 5.27-1.057 1.49-.596 3.18-1.271 6.38-1.271 3.201 0 4.892.676 6.382 1.271 1.42.566 2.646 1.057 5.268 1.057a1.5 1.5 0 1 1-.002 3z"/></g></svg>