<svg height="512" viewBox="0 0 50 50" width="512" xmlns="http://www.w3.org/2000/svg" fill="none" stroke="#1da8ff" stroke-width="2"><path d="M25 7C17.5-7.2-.5 12.8 25 26.2 50.5 12.8 32.5-7.1 25 7zM39.3 28.1c1.1-.7 2.5-.4 3.3.6.7 1 .6 2.4-.3 3.3l-.3.3-5 3.7"/><path d="m35.5 47.8.5-1.5c.5-1.6 1.4-3.1 2.7-4.2l4.9-4.1c1.4-1 2.3-2.6 2.4-4.3l1.1-21.1c.1-.8-.2-1.5-.7-2-.4-.4-1-.7-1.6-.7-1.4-.1-2.6 1-2.7 2.3L39.2 28c-.1 0-.1.1-.2.1l-9 7c-1.1.8-1.9 2.1-2.1 3.4l-.8 5.3"/><g><path d="M10.7 28.1c-1.1-.7-2.5-.4-3.3.6-.7 1-.6 2.4.3 3.3l.3.3 5 3.7"/><path d="m14.5 47.8-.5-1.5c-.5-1.6-1.4-3.1-2.7-4.2L6.4 38C5 37 4.1 35.4 4 33.7l-1.2-21c-.1-.8.2-1.5.7-2 .4-.4 1-.7 1.6-.7 1.4-.1 2.6 1 2.7 2.3l2.9 15.8c.1 0 .1.1.2.1l9.1 6.9c1.1.8 1.9 2.1 2.1 3.4l.8 5.3"/></g></svg>