<?xml version="1.0" encoding="UTF-8"?>
<svg id="Illustration" xmlns="http://www.w3.org/2000/svg" version="1.1" viewBox="0 0 4600 4600">
  <!-- Generator: Adobe Illustrator 29.4.0, SVG Export Plug-In . SVG Version: 2.1.0 Build 152)  -->
  <defs>
    <style>
      .st0 {
        fill: #ffd400;
      }

      .st1 {
        fill: #ffc200;
      }

      .st2 {
        fill: #fff2bb;
      }
    </style>
  </defs>
  <circle class="st2" cx="2300" cy="2300" r="2242.1"/>
  <g id="Star">
    <path class="st1" d="M3387.5,1979.8l-699.5-82.5,288.3,34-10.8,39.4c-35.7,130.6-92.3,254-168.2,366.6-74.7,110.9-166.3,208.7-272.1,290.7-106.9,82.8-225.7,147.3-352.9,191.5-131.6,45.8-269.6,69-410.2,69s-54.6-.9-81.7-2.6l-40-2.6,53.7-269.8-138.7,697c-13.4,67.3,58.1,119.4,118.1,86l626.6-348.6,626.6,348.6c60,33.3,131.5-18.8,118.1-86l-138.7-696.9,527.2-495.1c49.9-46.9,22.2-130.6-45.7-138.6Z"/>
    <path class="st0" d="M1680.3,2885.9c27.1,1.7,54.6,2.6,81.7,2.6,140.6,0,278.6-23.2,410.2-69,127.2-44.3,246-108.7,352.9-191.5,105.9-81.9,197.4-179.7,272.1-290.7,75.9-112.7,132.5-236.1,168.2-366.6l10.8-39.4-288.3-34-315.4-658.4c-29.2-61-116-61-145.2,0l-315.4,658.4-699.5,82.4c-68,8-95.6,91.8-45.7,138.6l527.2,495.1-53.7,269.8,40,2.6Z"/>
  </g>
</svg>