<svg id="Star" enable-background="new 0 0 64 64" viewBox="0 0 64 64" xmlns="http://www.w3.org/2000/svg"><g><path d="m36.31599 4.85976 6.22273 12.60863c.49007.99298 1.43736 1.68123 2.53318 1.84046l13.91445 2.02189c3.94762.57362 5.52389 5.42487 2.66736 8.20929l-10.06859 9.81445c-.79294.77293-1.15478 1.88654-.96759 2.97793l2.37687 13.85823c.67434 3.93167-3.45238 6.9299-6.98324 5.07362l-12.44545-6.54296c-.98013-.51528-2.15106-.51528-3.13119 0l-12.44546 6.54297c-3.53086 1.85628-7.65758-1.14195-6.98324-5.07362l2.37687-13.85823c.18719-1.09139-.17465-2.20501-.96759-2.97793l-10.06859-9.81446c-2.85652-2.78442-1.28026-7.63567 2.66736-8.20929l13.91445-2.02189c1.09582-.15923 2.04312-.84748 2.53318-1.84046l6.22273-12.60863c1.76543-3.57715 6.86634-3.57715 8.63176 0z" fill="#f0f0fc"/><path d="m51.58772 39.35984c-.79994.76446-1.15553 1.88451-.97779 2.96897l2.38236 13.86718c.67559 3.92908-3.44902 6.91584-6.98692 5.06693l-12.44492-6.54246c-.16005-.08887-.32-.16006-.49785-.19554 8.55143-7.98262 15.12948-22.72092 10.5782-35.78804.40887.3022.90672.49774 1.42226.56882l13.92056 2.02677c3.94676.56892 5.52907 5.42241 2.66677 8.21364z" opacity=".1"/><path d="m48.25603 62.71254c-.90628 0-1.81604-.21876-2.65809-.66148l-12.44666-6.54365c-.72051-.37675-1.58252-.38022-2.30304 0l-12.44492 6.54365c-1.93584 1.0174-4.23627.84899-6.00544-.43404-1.7683-1.28477-2.63812-3.422-2.26832-5.57487l2.37683-13.86164c.13803-.80212-.12848-1.62159-.71183-2.18932l-10.06895-9.81461c-1.56516-1.5261-2.11814-3.76577-1.4419-5.84571.67537-2.0782 2.43933-3.56524 4.60261-3.87949l13.91459-2.02178c.80559-.11806 1.50266-.62416 1.86379-1.35422l6.22246-12.60898c.96705-1.96101 2.92633-3.17894 5.11304-3.17894 2.18585 0 4.14599 1.21793 5.11304 3.17894l6.22246 12.60899c.36113.73006 1.05733 1.23616 1.86465 1.35422l13.91373 2.02178c2.16328.31425 3.92723 1.80128 4.6026 3.88036s.12327 4.31874-1.44276 5.84484l-10.06983 9.81461c-.58335.56947-.84899 1.3872-.71009 2.18932l2.37683 13.8599c.3698 2.1546-.49828 4.2901-2.26745 5.5766-1.00004.72572-2.16849 1.09552-3.34735 1.09552zm-16.2567-9.26771c.68058 0 1.3603.1632 1.98011.4896l12.44492 6.54366c1.35422.70836 2.89768.59898 4.13383-.30036 1.23442-.8976 1.81778-2.33168 1.55909-3.83521l-2.37682-13.85992c-.23612-1.37852.22049-2.78656 1.22227-3.76403l10.07157-9.81461c1.09206-1.06601 1.4636-2.57041.99136-4.02272s-1.65631-2.45148-3.16852-2.67111l-13.91374-2.02178c-1.38547-.20226-2.58343-1.07209-3.20151-2.32648l-6.22246-12.60898c-.67711-1.36984-1.9914-2.18758-3.51923-2.18758s-2.84299.81774-3.51923 2.18758l-6.22246 12.60899c-.61982 1.25526-1.81691 2.12508-3.20151 2.32648l-13.91546 2.02177c-1.51134.21963-2.69542 1.21793-3.16766 2.67024-.47224 1.45318-.1007 2.95671.99309 4.02359l10.06896 9.81287c1.00264.97747 1.46012 2.38551 1.22227 3.76577l-2.37683 13.85991c-.25782 1.50353.3264 2.93935 1.56169 3.83695 1.23442.89413 2.77962 1.00525 4.13297.29862l12.44405-6.54366c.61982-.32639 1.29954-.48959 1.97925-.48959z" fill="#101016"/></g></svg>